<svg xmlns="http://www.w3.org/2000/svg" viewBox="0 0 3000 3000" width="3000" height="3000"><g transform="translate(1983.5294117647059 358.2352941176471) rotate(0.0 450.88235294117635 854.1176470588235) scale(1.764263953221801 1.7632613923899605)"><svg width="511.128" height="968.793" viewBox="0 0 511.128 968.793"><linearGradient id="a" gradientUnits="userSpaceOnUse" x1="481.644" x2="-297.414" y1="379.09" y2="379.09"><stop offset="0" stop-color="#59b6e3"/><stop offset=".09" stop-color="#62bde5"/><stop offset=".238" stop-color="#7cd1ed"/><stop offset=".37" stop-color="#98e8f5"/><stop offset=".893" stop-color="#cfffd2"/></linearGradient><linearGradient id="b" gradientUnits="userSpaceOnUse" x1="737.065" x2="79.434" y1="610.819" y2="610.819"><stop offset="0" stop-color="#59b6e3"/><stop offset=".121" stop-color="#62bde5"/><stop offset=".323" stop-color="#7cd1ed"/><stop offset=".5" stop-color="#98e8f5"/><stop offset=".893" stop-color="#cfffd2"/></linearGradient><path d="M510.128 758.179c0-130.917-202.214-242.737-487.242-287.183C9.717 468.943 0 457.606 0 444.277V21.951C0 8.646 11.754-1.615 24.932.211c283.949 39.332 485.196 137.615 485.196 252.635z" fill="url(#a)" opacity=".8"/><g fill="#0f3336"><path d="M510.128 633.133a1 1 0 0 1-1-1c0-55.021-38.781-108.796-112.151-155.513-71.529-45.545-173.05-82.797-293.587-107.73a1 1 0 0 1 .405-1.959c120.772 24.982 222.525 62.328 294.256 108.002 73.976 47.103 113.077 101.462 113.077 157.2a1 1 0 0 1-1 1zm0-126.333a1 1 0 0 1-1-1c0-53.415-38.917-105.612-112.543-150.948-71.794-44.208-173.651-80.324-294.559-104.445a1 1 0 1 1 .391-1.961c121.138 24.167 223.222 60.373 295.216 104.703 74.249 45.719 113.495 98.505 113.495 152.651a1 1 0 0 1-1 1zm0-126.333a1 1 0 0 1-1-1c0-51.732-38.955-102.287-112.653-146.198-71.875-42.824-173.834-77.798-294.855-101.141a1 1 0 0 1 .379-1.963c121.246 23.386 223.428 58.445 295.5 101.387 74.337 44.291 113.629 95.439 113.629 147.916a1 1 0 0 1-1 1z"/></g><path d="M278.044 947.34c0 15.485 15.902 25.83 30.089 19.624C433.515 912.11 510.128 838.763 510.128 758.18V252.846c0 71.917-78.675 137.29-207.049 185.801-15.075 5.697-25.036 20.154-25.036 36.269v472.423z" fill="url(#b)" opacity=".8"/><path d="M391.768 530.589a1 1 0 0 1-.501-1.865c77.106-44.642 117.862-96.254 117.862-149.257a1 1 0 0 1 2 0c0 53.757-41.101 105.968-118.86 150.988a1 1 0 0 1-.5.135zm.001 131.251a1 1 0 0 1-.514-1.859c77.113-46.109 117.873-99.424 117.873-154.181a1 1 0 0 1 2 0c0 55.499-41.096 109.408-118.846 155.898a.998.998 0 0 1-.512.142zm0 131.251a1 1 0 0 1-.526-1.851c77.121-47.576 117.885-102.594 117.885-159.106a1 1 0 0 1 2 0c0 57.242-41.092 112.849-118.834 160.809a.996.996 0 0 1-.524.149z" fill="#0f3336"/><path d="M257.756 170.058c.359 12.793-9.843 25.182-23.246 21.342-14.712-4.215-24.007-21.875-24.163-35.808-.145-12.968 10.546-26.051 24.054-21.688 13.585 4.388 22.958 21.964 23.355 36.154z" fill="#fff"/><path d="M239.385 193.102c-1.695 0-3.421-.245-5.151-.74-15.167-4.346-24.728-22.464-24.887-36.758-.088-7.866 3.664-15.753 9.557-20.093 4.665-3.435 10.278-4.343 15.804-2.558 14.341 4.632 23.648 22.853 24.047 37.078.214 7.616-3.115 15.033-8.687 19.357-3.164 2.455-6.84 3.715-10.683 3.715zm-10.262-59.061c-3.878 0-6.938 1.537-9.033 3.08-5.392 3.971-8.823 11.217-8.743 18.46.152 13.578 9.156 30.766 23.438 34.858 6.438 1.845 11.198-.413 14.057-2.632 5.078-3.94 8.11-10.73 7.914-17.72-.381-13.602-9.579-31.005-22.663-35.231-1.778-.574-3.438-.814-4.97-.814z" fill="#0f3336"/><path d="M388.359 347.726c.43 11.041-7.708 25.247-20.531 17.701-12.98-7.638-21.629-25.604-21.911-40.19-.224-11.582 9.249-25.492 21.911-18.103 13.376 7.806 19.954 25.762 20.531 40.592z" fill="#fff"/><path d="M374.768 368.545c-2.14 0-4.634-.601-7.447-2.256-12.462-7.333-22.093-24.974-22.403-41.033-.153-7.894 3.903-16.069 9.643-19.44 2.955-1.735 7.743-3.064 13.771.454 13.723 8.009 20.448 26.572 21.026 41.417.264 6.789-2.671 15.576-8.792 19.237-1.453.869-3.404 1.621-5.798 1.621zm-13.923-62.471c-1.833 0-3.605.488-5.271 1.467-5.155 3.027-8.795 10.461-8.656 17.676.298 15.422 9.506 32.338 21.418 39.348 4.106 2.416 7.876 2.632 11.204.642 5.395-3.226 8.056-11.394 7.82-17.442-.556-14.299-6.968-32.141-20.036-39.767-2.195-1.281-4.378-1.923-6.479-1.923z" fill="#0f3336"/><path d="M483.863 708.88c-1.261 17.339-9.439 39.438-20.004 53.217-9.19 11.985-20.96 3.961-20.003-9.132 1.266-17.321 9.28-39.485 20.004-53.217 9.174-11.747 20.953-3.916 20.003 9.131z" fill="#fff"/><path d="M454.135 768.986a9.45 9.45 0 0 1-3.382-.632c-5.252-1.998-8.424-8.212-7.894-15.462 1.323-18.108 9.635-40.215 20.213-53.76 4.151-5.315 9.237-7.322 13.954-5.504 5.207 2.007 8.355 8.165 7.835 15.324-1.297 17.823-9.607 39.927-20.208 53.753-3.15 4.109-6.849 6.281-10.517 6.281zm19.46-74.001c-3.053 0-6.2 1.862-8.947 5.379-10.357 13.263-18.497 34.923-19.795 52.675-.458 6.262 2.261 11.792 6.611 13.447 3.823 1.454 8.051-.367 11.601-4.996 10.387-13.546 18.529-35.21 19.801-52.681.457-6.275-2.179-11.625-6.559-13.313a7.49 7.49 0 0 0-2.712-.51z" fill="#0f3336"/></svg></g><g transform="translate(1632.3529411764705 190.58823529411765) rotate(0.0 126.17647058823536 456.1764705882353) scale(1.7487712741694263 1.7485260973438639)"><svg width="144.303" height="521.784" viewBox="0 0 144.303 521.784"><path d="M114.094 151.031a2210.921 2210.921 0 0 0-87.226-5.141C11.859 145.3.007 132.939.007 117.917V28.009C.007 12.115 13.22-.592 29.102.021a2300.66 2300.66 0 0 1 89.317 5.175c14.6 1.134 25.885 13.282 25.885 27.926v90.003c0 16.335-13.925 29.192-30.209 27.906z" fill="#fadf4b"/><path d="M73.299 134.195c-2.863-.171-5.191-2.651-5.191-5.547v-17.962c0-2.896 2.328-5.111 5.191-4.941 2.864.17 5.179 2.662 5.179 5.558v17.965c0 2.896-2.315 5.098-5.179 4.927zm26.49-5.459c-1.771-.129-3.496-1.193-4.446-2.943-3.517-6.475-5.28-9.708-8.811-16.167-1.423-2.603-.577-5.756 1.886-7.039 2.463-1.284 5.605-.207 7.023 2.401 3.517 6.474 5.272 9.715 8.774 16.205 1.411 2.615.575 5.761-1.872 7.027a4.772 4.772 0 0 1-2.555.516zm-53.292-3.183a5.427 5.427 0 0 1-2.618-.824c-2.51-1.56-3.373-4.803-1.922-7.245 3.599-6.061 5.396-9.088 8.982-15.136 1.445-2.436 4.644-3.138 7.14-1.56 2.494 1.577 3.349 4.83 1.91 7.261-3.573 6.033-5.363 9.053-8.949 15.1-.969 1.634-2.729 2.49-4.542 2.405zm72.464-15.067a5.297 5.297 0 0 1-2.534-.911 1789.01 1789.01 0 0 0-15.133-10.155c-2.448-1.627-3.29-4.895-1.875-7.303 1.414-2.406 4.544-3.04 6.986-1.405 6.061 4.053 9.081 6.091 15.096 10.189 2.424 1.651 3.253 4.933 1.855 7.326-.938 1.604-2.641 2.403-4.395 2.259zm-92.259-5.475a5.536 5.536 0 0 1-4.586-2.785c-1.461-2.557-.593-5.734 1.938-7.09 6.279-3.367 9.41-5.04 15.65-8.363 2.515-1.341 5.725-.335 7.172 2.238 1.448 2.574.589 5.739-1.92 7.072a5200.81 5200.81 0 0 0-15.617 8.324 5.166 5.166 0 0 1-2.636.604zm99.238-20.915c-6.93-.591-10.41-.873-17.4-1.407-2.817-.215-5.107-2.733-5.107-5.631s2.29-5.079 5.107-4.864c6.99.533 10.471.813 17.4 1.402 2.793.238 5.05 2.786 5.05 5.686s-2.257 5.051-5.05 4.813zm-88.437-5.592c-7.211-.301-10.831-.436-18.092-.677-2.927-.097-5.305-2.515-5.305-5.409s2.378-5.168 5.305-5.071c7.262.24 10.881.375 18.092.675 2.907.121 5.257 2.572 5.257 5.466s-2.351 5.137-5.257 5.016zm66.353-14.141c-1.768-.13-3.489-1.196-4.437-2.946-1.414-2.61-.574-5.761 1.875-7.032 6.076-3.156 9.103-4.724 15.133-7.839 2.431-1.257 5.531-.142 6.929 2.485s.569 5.768-1.855 7.017a6677.418 6677.418 0 0 0-15.096 7.802 4.76 4.76 0 0 1-2.549.515zm-61.53-3.607a5.43 5.43 0 0 1-2.622-.816 1900.22 1900.22 0 0 0-15.65-9.583c-2.53-1.535-3.399-4.768-1.938-7.225 1.462-2.456 4.697-3.203 7.222-1.66 6.266 3.825 9.39 5.749 15.617 9.62 2.51 1.559 3.368 4.807 1.92 7.247-.971 1.636-2.734 2.497-4.55 2.418zm48.661-10.454a5.337 5.337 0 0 1-2.568-.875c-2.462-1.611-3.309-4.871-1.886-7.288 3.531-5.996 5.294-8.991 8.811-14.975 1.417-2.412 4.554-3.053 7-1.427s3.283 4.896 1.872 7.303c-3.502 5.97-5.257 8.959-8.774 14.941-.951 1.617-2.677 2.439-4.455 2.32zm-35.514-2.075c-1.806-.09-3.564-1.115-4.534-2.843a5830.085 5830.085 0 0 0-8.982-15.96c-1.451-2.569-.587-5.738 1.922-7.075 2.51-1.338 5.715-.331 7.16 2.246 3.586 6.391 5.376 9.591 8.949 15.998 1.439 2.582.586 5.743-1.91 7.063a5.017 5.017 0 0 1-2.606.572zm17.826-3.85c-2.863-.167-5.191-2.643-5.191-5.539V20.874c0-2.896 2.328-5.115 5.191-4.949 2.864.166 5.179 2.654 5.179 5.55v17.964c0 2.896-2.315 5.102-5.179 4.935z" fill="#fff"/><path d="M113.979 336.354a2102.553 2102.553 0 0 0-87.171-5.404C11.823 330.33.006 317.978.006 302.98v-89.904c0-15.917 13.251-28.634 29.155-27.986a2181.365 2181.365 0 0 1 89.372 5.465c14.55 1.193 25.769 13.317 25.769 27.917v89.985c0 16.381-13.999 29.253-30.324 27.896z" fill="#88cd9a"/><path d="M63.627 313.464a5.507 5.507 0 0 1-3.407-1.471 2755.183 2755.183 0 0 0-44.277-40.112c-2.217-1.966-2.46-5.283-.544-7.409 1.917-2.126 5.265-2.251 7.476-.276a3628.4 3628.4 0 0 1 39.654 36.076 24786.762 24786.762 0 0 0 59.174-88.085c1.532-2.294 4.67-2.698 7.003-.903 2.334 1.796 2.986 5.111 1.461 7.399a23134.197 23134.197 0 0 1-62.187 92.665 4.83 4.83 0 0 1-3.63 2.106 4.986 4.986 0 0 1-.723.009z" fill="#fff"/><path d="M113.864 521.676a2002.34 2002.34 0 0 0-87.117-5.666C11.787 515.361.006 503.018.005 488.044L0 398.145c0-15.941 13.288-28.669 29.215-27.985a2074.71 2074.71 0 0 1 89.434 5.756c14.501 1.251 25.654 13.352 25.654 27.907v89.966c0 16.427-14.074 29.312-30.439 27.886z" fill="#88cd9a"/><path d="M63.626 498.612a5.527 5.527 0 0 1-3.407-1.481A2686.557 2686.557 0 0 0 15.94 456.92c-2.217-1.97-2.461-5.287-.544-7.41s5.265-2.242 7.476-.263a3524.036 3524.036 0 0 1 39.656 36.17 27303.551 27303.551 0 0 0 59.174-87.869c1.532-2.287 4.67-2.677 7.003-.871 2.334 1.806 2.987 5.125 1.461 7.406a25626.536 25626.536 0 0 1-62.187 92.426 4.811 4.811 0 0 1-3.63 2.096 5 5 0 0 1-.724.007z" fill="#fff"/></svg></g><g transform="translate(488.8235294117647 592.9411764705882) rotate(0.0 997.0588235294118 1070.2941176470588) scale(1.7682784307222676 1.7693341571101633)"><svg width="1127.717" height="1209.827" viewBox="0 0 1127.717 1209.827"><linearGradient id="d" gradientUnits="userSpaceOnUse" x1="704.07" x2="704.07" y1="691.58" y2="118.582"><stop offset="0" stop-color="#ff619e"/><stop offset=".177" stop-color="#ff67a2"/><stop offset=".418" stop-color="#ff78af"/><stop offset=".698" stop-color="#ff95c4"/><stop offset="1" stop-color="#ffbde2"/></linearGradient><linearGradient id="c"><stop offset=".005" stop-color="#cf3570" stop-opacity=".3"/><stop offset=".051" stop-color="#cf3570" stop-opacity=".28"/><stop offset=".443" stop-color="#cf3570" stop-opacity=".127"/><stop offset=".773" stop-color="#cf3570" stop-opacity=".034"/><stop offset="1" stop-color="#cf3570" stop-opacity="0"/></linearGradient><radialGradient xmlns:xlink="http://www.w3.org/1999/xlink" id="f" cx="915.966" cy="64.764" gradientUnits="userSpaceOnUse" r="23.489" xlink:href="#c"/><radialGradient xmlns:xlink="http://www.w3.org/1999/xlink" id="g" cx="947.348" cy="62.254" gradientUnits="userSpaceOnUse" r="35.933" xlink:href="#c"/><radialGradient xmlns:xlink="http://www.w3.org/1999/xlink" id="h" cx="977.799" cy="63.269" gradientUnits="userSpaceOnUse" r="35.933" xlink:href="#c"/><radialGradient xmlns:xlink="http://www.w3.org/1999/xlink" id="i" cx="989.735" cy="76.135" gradientUnits="userSpaceOnUse" r="35.933" xlink:href="#c"/><radialGradient xmlns:xlink="http://www.w3.org/1999/xlink" id="j" cx="1050.021" cy="193.909" gradientUnits="userSpaceOnUse" r="43.153" xlink:href="#c"/><linearGradient xmlns:xlink="http://www.w3.org/1999/xlink" id="k" x1="452.222" x2="452.222" xlink:href="#d" y1="714.97" y2="99.297"/><linearGradient xmlns:xlink="http://www.w3.org/1999/xlink" id="l" x1="460.882" x2="460.882" xlink:href="#d" y1="712.136" y2="99.071"/><radialGradient id="e" cx="557.947" cy="590.216" fx="557.947" fy="590.216" gradientUnits="userSpaceOnUse" r="158.851"><stop offset=".005" stop-color="#cf3570" stop-opacity=".4"/><stop offset=".218" stop-color="#cf3570" stop-opacity=".28"/><stop offset=".541" stop-color="#cf3570" stop-opacity=".127"/><stop offset=".813" stop-color="#cf3570" stop-opacity=".034"/><stop offset="1" stop-color="#cf3570" stop-opacity="0"/></radialGradient><linearGradient xmlns:xlink="http://www.w3.org/1999/xlink" id="m" x1="213.298" x2="213.298" xlink:href="#d" y1="767.078" y2="91.13"/><radialGradient xmlns:xlink="http://www.w3.org/1999/xlink" id="n" cx="-8082.316" cy="4196.554" fx="-8082.316" fy="4196.554" gradientTransform="matrix(-.61036639 .79211923 .79211923 .61036639 -8234.219 4886.438)" r="28.346" xlink:href="#e"/><radialGradient xmlns:xlink="http://www.w3.org/1999/xlink" id="o" cx="-8646.488" cy="5517.233" fx="-8646.488" fy="5517.233" gradientTransform="matrix(-.45409935 .89095105 .89095105 .45409935 -8778.645 6274.035)" r="35.072" xlink:href="#e"/><radialGradient xmlns:xlink="http://www.w3.org/1999/xlink" id="p" cx="-8659.769" cy="5549.272" fx="-8659.769" fy="5549.272" gradientTransform="matrix(-.45409935 .89095105 .89095105 .45409935 -8778.645 6274.035)" r="37.439" xlink:href="#e"/><radialGradient xmlns:xlink="http://www.w3.org/1999/xlink" id="q" cx="-8915.898" cy="6555.791" fx="-8915.898" fy="6555.791" gradientTransform="matrix(-.33329679 .94282196 .94282196 .33329679 -8999.401 7306.99)" r="35.089" xlink:href="#e"/><radialGradient xmlns:xlink="http://www.w3.org/1999/xlink" id="r" cx="293.43" cy="1066.413" fx="293.43" fy="1066.413" r="35.933" xlink:href="#e"/><radialGradient xmlns:xlink="http://www.w3.org/1999/xlink" id="s" cx="1012.203" cy="556.84" fx="1012.203" fy="556.84" r="158.851" xlink:href="#e"/><path d="M332.862 237.798c11.475 68.213 3.248 124.851-25.277 169.565l190.249-19.57L459.143 227.8l-126.281 9.997z" fill="#0f3336"/><path d="M381.271 170.704c15.142-56.255-76.263-81.106-105.88-7.023-23.438 58.627 21.447 127.536 48 127.536s36.446-43.679 41.872-58.141 5.583-23.643 16.007-62.372z" fill="#0f3336"/><path d="M337.754 287.317a.999.999 0 0 1-.593-1.805c12.964-9.533 19.944-30.944 24.563-45.112.983-3.016 1.832-5.621 2.603-7.676a1 1 0 0 1 1.873.703c-.756 2.014-1.598 4.599-2.574 7.593-4.698 14.411-11.798 36.189-25.279 46.104a.996.996 0 0 1-.592.194z" fill="#fff"/><path d="M824.756 614.201c143.713-29.01 126.594-266.976 141.93-347.702 9.055-38.802-54.714-66.616-86.385-38.477-5.659 75.448-57.551 130.277-93.88 203.013-8.798 17.615-26.135 52.039-31.872 94.71-7.152 53.2 6.676 101.28 70.206 88.455z" fill="#cf736c"/><path d="M533.804 493.961c17.648 11.709 72.324-.361 111.098 55.317 33.679 48.361 68.266 120.489 108.432 135.905 61.01 23.416 123.921-19.54 123.208-94.726 22.69 19.005 49.866-11.195 43.076-56.24-6.095-40.439-72.429-129.866-119.805-141.111-18.356-4.357-33.419 23.322-17.519 37.26-27.915-3.63-102.595-29.907-121.442-52.572-46.524-55.95-100.624-57.222-133.144-35.369-34.979 23.506-40.246 50.714-40.246 50.714-.024 7.392 28.694 89.113 46.342 100.822z" fill="url(#d)"/><path d="M876.541 591.457a1 1 0 0 1-.999-.97c-2.684-89.386-39.338-151.848-93.382-159.13a1 1 0 1 1 .268-1.982c28.573 3.85 52.624 22.38 69.553 53.586 15.246 28.105 24.324 66.271 25.561 107.466a1 1 0 0 1-.969 1.03h-.031z" fill="#0f3336"/><path d="M918.223 101.058c9.805 20.793 38.748 38.826 50.228 28.255 10.698-9.85-19.241-71.6-47.304-70.158-20.423 1.049-12.729 21.111-2.924 41.903z" fill="#cf736c"/><path d="M920.251 136.408c9.275-9.196 12.929-32.489 13.936-41.478s0-50.544-28.693-29.531c-17.649 12.925-28.885 39.301-29.031 67.668 7.677 26.919 27.637 19.015 43.788 3.341z" fill="#cf736c"/><path d="M926.873 130.207a1 1 0 0 1-.917-1.399c4.708-10.841 6.241-24.884 7.065-32.428l.172-1.56a1 1 0 0 1 1.988.222l-.171 1.555c-.835 7.65-2.39 21.889-7.219 33.008a1 1 0 0 1-.918.602z" fill="#0f3336"/><path d="M939.435 66.113c-5.887-4.55-12.133-7.275-18.288-6.958-2.057.106-3.815.413-5.328.885-2.964.771-6.382 2.471-10.325 5.359-3.794 2.779-7.29 6.183-10.445 10.091 3.899 7.589 11.799 12.783 20.918 12.783 12.531 0 22.769-9.805 23.469-22.161z" fill="url(#f)"/><path d="M876.462 133.067c-17.917 73.162-10.329 138.238 40.936 148.449 41.491 8.265 94.067-29.709 113.67-136.168 8.99-48.822-134.993-92.373-154.606-12.282z" fill="#cf736c"/><path d="M1023.642 139.922c-11.936 12.426-56.095-3.101-58.914-26.218-5.857 18.333-20.024 40.471-38.956 43.096-23.132 3.208-34.2-.553-32.367-20.307 3.43-36.977 27.154-78.83 60.604-80.701 33.753-1.888 82.201 71.044 69.632 84.13z" fill="#cf736c"/><path d="M915.474 78.841c5.994 11.494 18.013 19.346 31.874 19.346 17.958 0 32.836-13.173 35.505-30.383-9.698-7.648-19.798-12.518-28.843-12.013-15.177.849-28.351 9.929-38.536 23.049z" fill="url(#g)"/><path d="M893.407 137.493a1 1 0 0 1-.993-1.125c4.281-33.984 20.8-64.123 41.105-74.996a1 1 0 0 1 .945 1.763c-16.444 8.805-35.21 34.942-40.065 73.483a1 1 0 0 1-.991.875z" fill="#0f3336"/><path d="M923.578 144.321c9.921-54.487 30.457-89.203 60.989-93.023 43.83-5.483 90.979 67.716 79.376 84.216s-45.987 17.937-64.392-18.851c-3.701 12.476-12.704 45.46-38.661 44.895-25.957-.566-41.263 4.462-37.312-17.237z" fill="#cf736c"/><path d="M945.824 79.657c5.958 11.602 18.035 19.545 31.975 19.545 19.845 0 35.933-16.088 35.933-35.933a36.1 36.1 0 0 0-.44-5.616c-9.296-4.961-19.091-7.56-28.726-6.354-15.53 1.943-28.467 11.893-38.743 28.359z" fill="url(#h)"/><path d="M923.579 145.321a1 1 0 0 1-.985-1.181c7.904-43.213 23.619-74.225 44.251-87.322a1 1 0 0 1 1.072 1.688c-20.155 12.795-35.552 43.335-43.355 85.994a1 1 0 0 1-.982.82z" fill="#0f3336"/><path d="M964.011 146.618c2.55-26.61 4.093-46.182 17.857-77.386 7.798-17.68 19.435-33.288 31.51-45.167 19.621-8.493 29.865-8.265 50-20.471 13.812 14.453-2.121 63.944-36.613 76.842 7.667 36.698-6.457 70.32-6.457 70.32s-35.941 17.892-56.298-4.137z" fill="#cf736c"/><path d="M981.868 69.232c-6.169 13.986-9.878 25.632-12.329 36.625a35.762 35.762 0 0 0 20.196 6.211c19.845 0 35.933-16.088 35.933-35.933 0-16.866-11.623-31.012-27.294-34.881-6.332 8.444-12.048 17.869-16.506 27.978z" fill="url(#i)"/><path d="M1060.324 1.248a12.4 12.4 0 0 1 3.054 2.346c3.21 26.354-33.349 55.536-50 20.471 18.45-18.134 38.024-27.646 46.947-22.817z" fill="#ffa640"/><path d="M1020.308 151.756a1 1 0 0 1-.917-1.398c5.435-12.522 12.895-45.81 6.409-69.659a1 1 0 0 1 .615-1.199c3.381-1.264 6.698-2.938 9.86-4.973a1 1 0 0 1 1.082 1.682 54.036 54.036 0 0 1-9.397 4.84c6.205 24.259-1.268 57.511-6.735 70.106a1 1 0 0 1-.918.602zm-56.297-4.138a1 1 0 0 1-1-1c0-27.393 9.665-59.025 17.942-77.79 2.722-6.171 6.016-12.324 9.79-18.286a1.001 1.001 0 0 1 1.69 1.07c-3.721 5.879-6.968 11.943-9.65 18.023-8.198 18.587-17.772 49.901-17.772 76.983a1 1 0 0 1-1 1z" fill="#0f3336"/><path d="M1106.183 109.568c7.424 8.563-17.434 59.377-52.311 98.44-31.863 35.688-96.221 85.775-121.285 68.48-36.767-25.371 48.304-105.396 87.87-110.898 7.936-31.343 68.202-76.234 85.726-56.022z" fill="#cf736c"/><path d="M1084.221 167.606c-7.89-10.243-20.27-16.85-34.2-16.85-10.763 0-20.598 3.95-28.157 10.467a38.181 38.181 0 0 0-1.406 4.368 40.87 40.87 0 0 0-3.565.672 42.972 42.972 0 0 0-10.025 27.647c0 16.505 9.27 30.841 22.884 38.099 9.053-8.126 17.327-16.39 24.122-24 11.461-12.837 21.84-26.944 30.348-40.403z" fill="url(#j)"/><path d="M1020.458 166.59a1 1 0 0 1-.97-1.246c4.011-15.842 21.724-36.482 43.074-50.192a1 1 0 0 1 1.081 1.683c-20.959 13.459-38.319 33.608-42.216 49a1.001 1.001 0 0 1-.969.755z" fill="#0f3336"/><path d="M1004.095 211.536a1 1 0 0 1-.924-1.382c10.817-26.14 16.246-46.121 16.137-59.389a1 1 0 0 1 .992-1.008c.523.01 1.003.439 1.008.992.111 13.538-5.369 33.782-16.289 60.171a1 1 0 0 1-.925.618z" fill="#0f3336"/><path d="M1094.05 104.516c-57.233 31.977-20.553 62.377-6.183 57.173 0 0 23.773-38.488 19.214-50.434-1.462-3.83-5.531-6.367-13.031-6.738z" fill="#ffa640"/><path d="M521.695 645.55s25.958 15.818 36.396 13.775c121.292-102.625 380.883-170.412 443.934-82.71-44.799 16.842-70.799 88.843-65.996 151.822-45.915 55.11-132.221 134.914-265.398 211.926-45.571 26.352-111.001 42.96-173.626 30.745-80.098-15.623-198.047-176.854 24.689-325.557z" fill="#cf736c"/><path d="M320.556 679.957C256.438 734.763 208.37 786.464 206.635 860.15c-.97 41.195 209.626-22.379 209.626-22.379l-36.908-137.533-58.797-20.28z" fill="#0f3336"/><path d="M574.157 448.252s46.973 59.946 48.213 88.76c1.239 28.814-1.945 137.949-50.377 162.46s-180.159 21.337-251.437-19.515c-71.278-40.851-23.604-94.382-16.441-170.06 83.439-91.735 190.606-162.506 270.042-61.645z" fill="url(#k)"/><path d="M622.564 550.278h-.006a1 1 0 0 1-.995-1.005c.024-4.504-.043-8.729-.193-12.217-1.211-28.164-47.533-87.589-48.001-88.187a1 1 0 0 1 1.574-1.234c1.926 2.458 47.186 60.53 48.425 89.334.152 3.52.219 7.778.195 12.314a1 1 0 0 1-1 .995z" fill="#0f3336"/><path d="M313.306 728.437c101.85-120.128 234.081-218.482 326.681-133.901-43.367 20.245-68.622 124.73-58.979 187.152-41.53 58.485-38.332 117.137-119.333 184.338-40.514 33.612-75.987 52.468-140.641 40.424-80.227-14.945-81.064-189.844-7.728-278.012z" fill="#cf736c"/><path d="M461.676 967.025a1 1 0 0 1-.639-1.77c51.849-43.016 69.089-82.545 85.762-120.772 9.504-21.791 18.481-42.374 33.394-63.375a1 1 0 0 1 1.631 1.158c-14.792 20.832-23.729 41.323-33.191 63.017-16.766 38.442-34.104 78.193-86.319 121.512a.995.995 0 0 1-.638.23z" fill="#0f3336"/><path d="M335.411 703.273c-9.521 65.777 56.219 139.433 147.74 163.03 95.176 24.539 238.027 8.591 350.289-37.959-64.123 54.192-188.607 149.998-350.22 178.705-201.702 35.827-268.834-42.975-276.586-146.899-5.796-77.699 128.777-156.877 128.777-156.877z" fill="#0f3336"/><path d="M393.247 385.174c4.318 40.127 70.082 71.88 105.995 61.479 35.341-10.235 40.492-50.034 7.086-81.185-30.896-28.81-118.62-31.779-113.081 19.706z" fill="url(#l)"/><path d="M1002.025 576.614c-31.045 11.818-106.418 56.975-155.953 75.751-93.521 35.449-169.32 109.452-222.171 198.766-23.827 45.25 29.675 211.167 122.367 183.762 108.693-100.259 192.659-160.906 247.733-289.789 12.404-29.027 44.677-113.699 8.023-168.49z" fill="#cf736c"/><path d="M623.901 852.132a1 1 0 0 1-.859-1.51c27.341-46.204 59.646-86.514 96.019-119.811 38.81-35.527 81.424-62.235 126.657-79.381a1 1 0 1 1 .709 1.871c-87.962 33.342-164.613 101.927-221.665 198.34-.187.315-.52.491-.862.491z" fill="#0f3336"/><path d="M432.529 381.745c2.498 26.859 39.157 46.978 59.937 40.016 20.449-6.851 22.512-33.746 5.813-55.898-15.829-20.998-68.956-18.58-65.75 15.882z" fill="#fff"/><path d="M483.331 424.13c-9.172 0-19.839-3.371-29.329-9.553-13.14-8.56-21.329-20.493-22.469-32.74-1.196-12.852 5.06-22.606 17.614-27.465 17.205-6.661 40.538-1.572 49.931 10.889 9.881 13.108 13.696 28.737 9.958 40.788-2.54 8.189-8.16 13.95-16.251 16.661-2.854.956-6.052 1.42-9.454 1.42zm-49.806-42.477c1.082 11.635 8.944 23.024 21.569 31.249 12.517 8.154 27.062 11.26 37.055 7.912 7.456-2.498 12.635-7.808 14.977-15.357 3.551-11.448-.145-26.388-9.645-38.991-8.908-11.818-31.156-16.597-47.612-10.228-6.744 2.611-17.835 9.384-16.344 25.415z" fill="#0f3336"/><ellipse cx="506.921" cy="238.322" fill="#fff" rx="22.627" ry="43.049" transform="matrix(.81327344 -.58188169 .58188169 .81327344 -44.021 339.465)"/><path d="M523.891 276.747c-3.82 0-8.131-1.158-12.72-3.465-8.349-4.197-16.683-11.73-23.466-21.212-6.783-9.481-11.223-19.801-12.5-29.057-1.309-9.485.852-16.771 6.084-20.514s12.825-3.437 21.38.864c8.349 4.197 16.683 11.73 23.466 21.211s11.223 19.801 12.5 29.058c1.309 9.485-.852 16.771-6.084 20.514-2.425 1.735-5.359 2.6-8.66 2.601zm-33.931-74.85c-2.887 0-5.428.741-7.507 2.228-4.599 3.29-6.469 9.901-5.267 18.614 1.234 8.942 5.547 18.945 12.145 28.167 6.598 9.222 14.674 16.534 22.738 20.588 7.858 3.951 14.719 4.315 19.318 1.025s6.469-9.901 5.267-18.615c-1.234-8.942-5.547-18.945-12.145-28.167s-14.673-16.534-22.738-20.588c-4.306-2.165-8.312-3.253-11.811-3.253z" fill="#0f3336"/><ellipse cx="495.633" cy="248.645" fill="#fff" rx="27.314" ry="51.965" transform="matrix(.83311436 -.55310077 .55310077 .83311436 -54.811 315.634)"/><path d="M515.382 295.471c-13.182 0-30.61-11.993-43.338-31.165-16.154-24.331-18.714-51.151-5.707-59.787 13.008-8.636 36.731 4.134 52.884 28.465 16.154 24.331 18.714 51.151 5.707 59.787-2.758 1.831-5.999 2.7-9.546 2.7zM473.71 263.2c15.544 23.412 38.024 35.931 50.112 27.906s9.277-33.602-6.267-57.014-38.022-35.93-50.112-27.905c-12.087 8.025-9.274 33.603 6.267 57.014z" fill="#0f3336"/><path d="M408.981 373.793c3.424 12.255 39.133 48.02 64.41 55.679 4.374-15.614 8.043-35.426 10.831-46.723 4.448 10.915 11.263 21.321 20.407 38.298 4.657-9.213 9.399-19.48 9.741-30.638-8.617-21.447-9.766-37.723-10.34-50.936-10.388-18.766-72.24-23.878-80.986-1.404-1.354 10.787-3.939 21.554-14.062 35.725z" fill="#fff"/><path d="M473.391 430.472a.994.994 0 0 1-.29-.043c-26.277-7.963-61.659-44.112-65.083-56.367a1 1 0 0 1 .149-.85c9.521-13.326 12.436-23.737 13.884-35.268.01-.082.031-.162.06-.238 3.359-8.632 14.611-14.211 30.871-15.305 19.817-1.334 45.302 4.629 51.922 16.588a1 1 0 0 1 .124.441c.618 14.212 1.92 29.826 10.269 50.607a.994.994 0 0 1 .072.404c-.349 11.374-5.056 21.58-9.848 31.059a1 1 0 0 1-1.772.023c-3.147-5.844-6.052-10.968-8.615-15.488-4.326-7.63-7.861-13.865-10.642-20.107-.854 3.674-1.786 8.003-2.761 12.528-2.166 10.057-4.622 21.455-7.376 31.288a1 1 0 0 1-.963.73zm-63.31-56.5c3.938 11.903 37.812 46.094 62.623 54.235 2.627-9.545 4.983-20.484 7.071-30.174 1.252-5.814 2.435-11.305 3.476-15.523a1 1 0 0 1 1.897-.138c2.89 7.092 6.789 13.969 11.725 22.675 2.318 4.089 4.916 8.671 7.723 13.838 4.349-8.732 8.404-18.087 8.768-28.299-8.35-20.858-9.695-36.554-10.323-50.83-6.42-11.137-30.835-16.645-49.924-15.36-15.38 1.036-25.973 6.107-29.097 13.923-1.476 11.667-4.435 22.226-13.938 35.654z" fill="#0f3336"/><path d="M435.737 303.497c.444 15.549-1.765 30.056-6.13 42.082-4.64 12.784 26.55 28.362 53.186 30.762 10.385-9.55 15.294-20.528 15.031-27.125-.932-10.309-1.064-21.565-.391-35.216z" fill="#cf736c"/><path d="M487.014 175.174c-32.17-34.428-99.027-35.617-123.282 1.71-39.5 60.787-1.021 132.716 59.12 137.116 22.072 1.615 75.913-155.842 64.163-138.826z" fill="#0f3336"/><path d="M495.408 195.429c11.561 13.539 13.027 31.226 15.914 40.602 5.084 16.509 21.961 20.205 27.177 50.156 7.216 41.432-44.841 70.716-92.499 27.812-4.123 19.377-28.427 12.727-31.313-5.549-43.192-16.387-54.504-87.494 8.55-46.749-48.645-78.628 37.341-107.063 72.171-66.273z" fill="#cf736c"/><path d="M470.736 249.005c-10.199-9.498-23.366-6.605-40.332 12.132 0 0 11.861 10.303 20.817 10.683.381.015.758.019 1.128-.003 10.372-.625 16.244-8.272 28.872-6.587.468-1.438-8.321-14.206-10.485-16.224z" fill="#fff"/><path d="M470.736 249.005c-5.15-4.796-11.06-6.427-17.831-4.459-2.568 3.745-3.485 8.573-2.076 13.26 1.794 5.968 6.861 10.041 12.646 10.884 3.788-1.604 7.602-3.266 12.382-3.617a15.546 15.546 0 0 0 3.385-4.153c-2.619-4.364-7.055-10.56-8.507-11.915z" fill="#0f3336"/><path d="M481.221 265.229c-5.798-38.34-47.851-33.444-50.816-4.092 10.315-2.906 13.058-11.87 26.045-12.638 7.936-.469 16.019 1.713 24.772 16.73z" fill="#a6ffbb"/><path d="M435.738 304.497a.898.898 0 0 1-.115-.007c-7.273-.834-12.531-4.084-14.064-8.695-.884-2.658-.32-5.359 1.471-7.049 1.286-1.213 3.013-1.756 4.967-1.599-8.445-10.154-18.35-16.822-29.477-19.835a1.001 1.001 0 0 1 .523-1.931c12.365 3.349 23.251 11.024 32.353 22.81a1.002 1.002 0 0 1-1.162 1.541c-2.383-.95-4.509-.78-5.832.469-1.219 1.15-1.582 3.052-.946 4.963 1.281 3.852 5.915 6.596 12.394 7.339a1 1 0 0 1-.113 1.993zm-7.247-91.326c7.282 34.066-5.254 48.532-5.254 48.532-45.405-35.597-8.177-107.18 33.593-92.365 0 0-14.558 15.276-28.34 43.834z" fill="#0f3336"/><path d="M422.851 203.386s19.393-58.662 78.737-44.876c61.292 14.238 46.131 81.35 12.585 85.215-39.423 4.543-87.714-30.009-87.714-30.009zm71.637 132.698c-2.829 0-5.697-.217-8.577-.656-13.862-2.113-27.895-9.265-40.58-20.685a.999.999 0 1 1 1.338-1.486c28.496 25.654 56.811 23.715 72.398 14.26a1 1 0 1 1 1.038 1.71c-7.436 4.51-16.312 6.857-25.617 6.857zm-13.267-69.855c-.368 0-.722-.204-.897-.556-4.321-8.714-10.825-14.336-18.312-15.832-7.656-1.529-15.999 1.402-24.127 8.477-5.834 5.077-11.55 4.099-11.79 4.055a1 1 0 0 1 .361-1.967c.2.034 5.043.819 10.116-3.597 8.613-7.496 17.544-10.584 25.832-8.929 8.109 1.619 15.109 7.623 19.712 16.904a1 1 0 0 1-.896 1.444z" fill="#0f3336"/><path d="M484.222 288.812c.899-1.076 11.271-7.299 17.257-10.423 5.744-.598 14.344-1.46 17.476-1.338-1.849 20.214-19.905 24.339-34.733 11.761z" fill="#fff"/><path d="M517.824 284.008c-4.994 12.647-13.597 16.101-25.838 10.283.024.109.036.219.063.328 1.848 7.562 9.476 12.195 17.038 10.347s12.195-9.476 10.347-17.038a14.084 14.084 0 0 0-1.61-3.92z" fill="#ab5757"/><path d="M514.174 277.094c-10.056-5.375-18.423-1.679-25.195 8.369z" fill="#fff"/><path d="M515.808 276.932c-2.225-7.003-9.516-11.188-16.761-9.418-7.563 1.848-12.195 9.476-10.347 17.038.077.313.178.614.273.916 3.514-2.183 8.258-4.828 12.739-7.193 4.461-.464 9.981-1.254 14.095-1.344z" fill="#ab5757"/><path d="M501.643 297.202c-5.762 0-12.049-2.605-18.062-7.622a1.001 1.001 0 0 1 .065-1.586c4.693-3.304 9.547-6.721 17.632-10.619.092-.044.191-.074.292-.089 5.884-.847 14.197-1.358 17.423-1.234a1 1 0 0 1 .961 1.035c-.308 8.678-4.479 15.639-11.157 18.622-2.242 1.001-4.648 1.494-7.154 1.494zm-15.762-8.334c7.709 6.038 15.708 7.869 22.1 5.015 5.707-2.549 9.367-8.43 9.918-15.85h-.061c-3.623 0-10.638.474-15.831 1.212-7.261 3.511-11.696 6.513-16.127 9.624z" fill="#0f3336"/><path d="M422.852 315c-.024 0-.049 0-.074-.003-28.567-2.09-53.554-19.316-66.84-46.08-14.428-29.065-11.828-63.674 6.954-92.578 9.373-14.424 25.654-24.073 45.844-27.172a1 1 0 0 1 .303 1.977c-19.619 3.011-35.413 12.346-44.47 26.285-18.393 28.305-20.95 62.174-6.84 90.599 12.968 26.124 37.339 42.936 65.194 44.974a1 1 0 0 1-.072 1.997z" fill="#fff"/><ellipse cx="408.646" cy="287.786" fill="#fff" rx="27.314" ry="51.965" transform="matrix(.77865946 -.62744677 .62744677 .77865946 -90.12 320.105)"/><path d="M430.492 332.691c-12.941 0-30.218-10.17-43.892-27.139-8.809-10.932-14.857-23.03-17.029-34.066-2.217-11.261-.142-20.119 5.843-24.941 12.157-9.796 36.955.735 55.28 23.476 8.809 10.932 14.857 23.03 17.029 34.066 2.217 11.261.142 20.119-5.843 24.941-3.085 2.486-6.986 3.663-11.387 3.663zm-43.541-87.887c-3.989 0-7.505 1.059-10.283 3.298-5.378 4.333-7.201 12.501-5.135 22.998 2.111 10.723 8.014 22.513 16.624 33.197 13.297 16.501 29.954 26.47 42.185 26.472 3.989 0 7.504-1.059 10.283-3.298 5.378-4.333 7.201-12.501 5.135-22.998-2.111-10.723-8.014-22.513-16.624-33.197-13.297-16.501-29.953-26.472-42.185-26.472z" fill="#0f3336"/><ellipse cx="400.85" cy="293.021" fill="#fff" rx="22.627" ry="43.049" transform="matrix(.80010364 -.59986179 .59986179 .80010364 -95.643 299.03)"/><path d="M467.061 158.796c-13.739-10.527-31.132-15.372-48.257-12.858-12.427 1.824-23.488 6.512-31.775 12.385-24.319 17.234-41.624 55.856-29.305 93.795l16.913-10.012c-8.426-35.767 7.718-61.339 25.605-74.759 11.681-8.763 37.149-18.226 66.83-8.542l-.01-.008z" fill="#fff"/><path d="M357.724 253.117a1.001 1.001 0 0 1-.951-.691c-12.667-39.015 5.836-78.023 29.678-94.919 8.987-6.369 20.426-10.829 32.208-12.559 17.052-2.503 34.916 2.255 49.01 13.054l.01.008a1 1 0 0 1-.919 1.744c-28.155-9.186-53.107-1.22-65.92 8.391-8.492 6.371-35.411 30.518-25.231 73.73.1.426-.088.867-.464 1.09l-16.913 10.012a1.006 1.006 0 0 1-.51.139zm69.938-106.823c-2.913 0-5.824.209-8.712.633-11.476 1.684-22.607 6.021-31.343 12.211-23.017 16.311-40.927 53.771-29.31 91.477l15.2-8.998c-3.716-16.341-2.657-31.698 3.151-45.656 6.083-14.617 15.861-24.064 22.993-29.415 12.298-9.227 35.422-16.99 61.893-10.377-10.246-6.443-22.063-9.875-33.872-9.875z" fill="#0f3336"/><path d="m374.637 242.105 3.775 9.408c18.383 2.937 31.949 14.834 41.872 29.873l-44.138 26.05c-12.862-13.348-19.699-29.833-14.635-45.735l-3.787-9.585 16.913-10.012z" fill="#fff"/><path d="M376.147 308.437a.997.997 0 0 1-.72-.306c-14.311-14.852-19.619-31.312-14.975-46.39l-3.657-9.256a1 1 0 0 1 .42-1.228l16.913-10.012a.998.998 0 0 1 1.437.488l3.565 8.885c16.486 2.809 30.61 12.973 41.989 30.218a1.003 1.003 0 0 1-.326 1.412l-44.138 26.05a.992.992 0 0 1-.508.139zm-17.179-55.894 3.473 8.791a.998.998 0 0 1 .023.671c-4.537 14.248.384 29.908 13.858 44.167l42.545-25.11c-11.083-16.418-24.742-26.026-40.612-28.562a1 1 0 0 1-.77-.615l-3.341-8.326z" fill="#0f3336"/><ellipse cx="395.399" cy="295.434" fill="#fff" rx="22.627" ry="43.049" transform="matrix(.80010364 -.59986179 .59986179 .80010364 -98.181 296.243)"/><path d="M412.895 333.422c-10.86 0-25.301-9.01-36.4-23.814-6.993-9.327-11.661-19.545-13.145-28.772-1.52-9.454.478-16.785 5.625-20.645 5.147-3.859 12.746-3.722 21.394.387 8.441 4.01 16.94 11.355 23.933 20.683 14.57 19.433 17.943 41.602 7.519 49.417-2.483 1.862-5.531 2.744-8.927 2.744zm-34.882-74.03c-3.046 0-5.703.798-7.838 2.399-4.524 3.392-6.247 10.042-4.851 18.727 1.433 8.912 5.968 18.817 12.77 27.889 13.909 18.551 32.986 27.823 42.527 20.67 9.541-7.154 5.989-28.066-7.919-46.617-6.802-9.073-15.038-16.203-23.191-20.076-4.195-1.993-8.09-2.993-11.498-2.993z" fill="#0f3336"/><path d="M805.552 670.665c8.691 45.599 116.365 136.975 158.477 133.768-7.446 44.401-38.49 80.018-63.858 81.088-46.342 58.674-81.033 89.58-137.233 134.118-62.562 52.855-165.131-45.279-139.037-168.507 27.646-50.412 69.372-98.628 113.342-134.974 5.593-21.645 26.853-45.492 68.308-45.492z" fill="#fff"/><path d="M724.016 1035.297c-12.565 0-25.69-3.852-38.631-11.591-43.688-26.128-79.172-93.867-62.461-172.781a.964.964 0 0 1 .102-.274c26.329-48.011 67.627-97.222 113.333-135.058 5.642-21.261 27.089-45.927 69.194-45.927a1 1 0 0 1 .982.813c8.505 44.626 112.425 133.033 155.253 133.038.742 0 1.462-.026 2.167-.08a1.004 1.004 0 0 1 1.062 1.163c-7.085 42.246-37.068 80.336-64.341 81.899-45.735 57.855-79.305 88.112-137.115 133.926-11.717 9.899-25.268 14.874-39.544 14.875zM624.85 851.483c-16.443 77.935 18.509 144.758 61.562 170.506 26.864 16.066 54.522 14.931 75.882-3.115 57.827-45.828 91.336-76.04 137.093-133.974a.997.997 0 0 1 .742-.379c23.348-.985 54.626-33.604 62.701-79.022-.365.012-.735.018-1.107.019-23.756.002-61.791-24.946-90.112-48.903-36.246-30.661-62.356-63.86-66.877-84.947-40.628.317-61.225 24.237-66.523 44.739a1.009 1.009 0 0 1-.331.521c-45.576 37.674-86.768 86.711-113.031 134.555zm14.859 321.704c3.587 5.011-9.991 13.693-25.003 22.685-25.502 15.276-72.674 29.973-123.372-25.345-76.881-83.887-51.311-165.562-38.371-184.325 16.209-23.504 37.825-38.822 49.408-46.916l20.182-14.078 10.159-12.798-18.869 12.042c10.881-13.477 25.387-30.925 32.709-38.3 8.469-8.531 24.652-16.342 24.652-16.342s64.919 298.367 68.506 303.378z" fill="#0f3336"/><path d="M442.221 1013.983a1 1 0 0 1-.971-1.241c4.666-18.836 9.151-24.793 10.625-26.75.111-.147.199-.265.264-.358 16.593-24.061 38.925-39.668 49.658-47.168l20.062-13.995 6.355-8.006-13.835 8.829a1 1 0 0 1-1.316-1.471c5.436-6.733 23.866-29.4 32.777-38.376 8.493-8.554 24.26-16.216 24.927-16.538a1 1 0 0 1 .869 1.801c-.16.077-16.128 7.837-24.377 16.146-7.305 7.359-21.113 24.058-28.752 33.431l13.665-8.72a1 1 0 0 1 1.321 1.465l-10.159 12.798a.968.968 0 0 1-.211.198l-20.182 14.078c-10.636 7.433-32.768 22.9-49.156 46.664-.077.112-.182.251-.313.426-3.791 5.035-7.25 13.792-10.281 26.028-.113.455-.521.76-.97.76z" fill="#fff"/><path d="M673.962 1127.83c8.378-11.896 10.579-44.082 30.791-66.392 12.566-13.87 36.924-39.824-2.791-100.573-20.468-31.309-61.459-70.424-86.225-51.862-10.77 8.072-49.677 47.946-61.78 61.31-22.919 25.306-1.973 89.395 34.475 130.241 43.754 49.033 68.559 51.376 85.529 27.276z" fill="#0f3336"/><path d="M598.729 909.761c-8.95 5.228-34.922 37.382-57.461 58.177-29.882 27.57-2.638 108.141 38.495 150.116 49.626 50.641 78.469 43.874 95.144 19.462 2.663-4.709 3.518-11.001 1.453-13.219" fill="#0f3336"/><path d="M612.671 904.58c33.477 14.093 113.293 138.544 101.921 155.921l-16.2 22.699c-1.586 2.222-5.039 1.434-5.531-1.251-6.525-35.57-79.911-127.419-111.355-150.42-8.767-6.152 17.801-33.977 31.164-26.95z" fill="#0f3336"/><path d="M615.725 908.99c-9.726-8.753-5.61-26.579.811-38.881 8.92-17.089 22.53-26.916 17.035-37.99-4.559-9.188-15.358 4.083-15.358 4.083-24.164 11.397-31.614 19.736-47.011 33.608-5.287 12.142-28.605 45.987-38.337 58.041-6.911 8.56-37.222 26.275-50.247 46.07-19.573 29.749-16.228 114.925 48.861 180.948 49.249 49.955 96.194 30.82 108.634 20.419 8.014-5.702 31.254-44.683 36.246-50.989-8.806-32.934-12.384-91.564-12.384-91.564s-30.778-108.02-48.251-123.745z" fill="#0f3336"/><path d="M600.221 1188.686c-19.814 0-44.38-7.683-69.454-33.116-37.075-37.607-51.16-77.632-56.448-104.586-6.177-31.488-3.317-61.228 7.464-77.613 8.357-12.702 23.411-24.293 35.507-33.607 6.625-5.101 12.345-9.506 14.797-12.542 9.31-11.531 32.867-45.569 38.199-57.812a1 1 0 1 1 1.834.798c-5.389 12.377-29.111 46.671-38.476 58.27-2.6 3.22-8.13 7.479-15.133 12.87-11.978 9.222-26.884 20.7-35.057 33.121-10.345 15.723-13.16 45.605-7.172 76.129 5.235 26.685 19.184 66.315 55.91 103.567 48.546 49.243 94.878 30.724 107.281 20.354a1 1 0 1 1 1.282 1.534c-6.315 5.28-21.151 12.632-40.534 12.632z" fill="#fff"/><path d="M649.468 1143.762c-16.024 0-36.259-13.939-61.782-42.543-35.993-40.335-58.381-105.176-34.47-131.578 6.528-7.208 20.779-22 33.148-34.405a.999.999 0 1 1 1.416 1.412c-12.35 12.386-26.572 27.147-33.082 34.336-10.517 11.612-12.223 32.334-4.805 58.347 7.067 24.781 21.386 50.498 39.284 70.556 25.921 29.049 46.109 42.732 61.727 41.833 8.452-.487 15.726-5.219 22.239-14.467.677-.961 1.326-2.078 1.983-3.413a1 1 0 0 1 1.794.883c-.704 1.43-1.405 2.635-2.143 3.682-6.887 9.779-14.658 14.788-23.759 15.312-.512.03-1.031.044-1.552.044z" fill="#fff"/><path d="M643.658 1157.13c-17.937 0-39.591-12.844-64.61-38.375-30.206-30.824-52.302-81.207-51.396-117.193.384-15.232 4.736-26.792 12.936-34.357 10.649-9.825 22.053-22.178 32.115-33.077 2.032-2.201 4.007-4.34 5.906-6.383a1 1 0 0 1 1.465 1.361c-1.898 2.041-3.871 4.179-5.901 6.378-10.087 10.927-21.52 23.311-32.228 33.19-7.788 7.185-11.924 18.267-12.293 32.938-.894 35.505 20.956 85.263 50.825 115.743 24.627 25.131 45.794 37.777 63.146 37.779 4.664 0 9.05-.913 13.156-2.743a1 1 0 1 1 .814 1.826c-4.359 1.943-9.008 2.912-13.935 2.913z" fill="#fff"/><path d="M692.86 1082.949a1 1 0 0 1-.982-.82c-6.394-34.856-79.901-127.073-110.961-149.793-3.005-2.108-2.848-6.418.444-11.812 6.17-10.108 21.99-21.975 31.776-16.83 13.225 5.563 35.216 29.147 58.747 63.05 22.137 31.895 39.279 63.804 43.671 81.292a1 1 0 0 1-1.94.488c-9.214-36.693-73.369-131.25-101.332-143.022-8.557-4.496-23.368 6.486-29.215 16.065-1.264 2.071-3.89 7.107-.987 9.145 32.097 23.479 105.156 115.037 111.764 151.058a1 1 0 0 1-.985 1.181zM516.177 930.654a1 1 0 0 1-.913-.591l-2.335-5.203a1.001 1.001 0 0 1 1.825-.819l2.335 5.203a1.001 1.001 0 0 1-.912 1.41z" fill="#fff"/><path d="M501.589 679.94c28.459 153.957 121.93 264.255 217.886 342.165 40.767 28.175 199.717 13.641 189.777-82.506-76.626-176.936-240.158-320.298-269.265-345.064-25.749-21.909-145.941 44.598-138.398 85.404z" fill="#cf736c"/><path d="M557.947 749.067c65.193 0 121.203-39.278 145.683-95.455-30.384-30.326-54.156-51.004-63.643-59.076-66.369-60.621-153.095-27.268-234.403 40.72 19.419 65.792 80.278 113.811 152.363 113.811z" fill="url(#e)"/><path d="M909.252 940.6a1 1 0 0 1-.918-.603c-75.596-174.558-237.339-317.765-268.995-344.7a1 1 0 1 1 1.296-1.524c31.715 26.986 193.762 170.464 269.535 345.428a1 1 0 0 1-.917 1.398zm-189.778 82.505a.992.992 0 0 1-.63-.224c-54.433-44.196-99.668-92.232-134.448-142.774-42.482-61.734-70.673-129.019-83.792-199.985a1 1 0 0 1 1.967-.363c23.805 128.78 96.994 243.701 217.533 341.57a1 1 0 0 1-.631 1.777zM553.178 292.217a1 1 0 0 1-.787-1.616c2.457-3.145 6.042-10.383 3.892-17.563-1.979-6.609-8.255-11.741-18.656-15.254a1 1 0 1 1 .641-1.895c11.05 3.732 17.756 9.309 19.931 16.575 2.935 9.803-3.49 18.418-4.232 19.368a.998.998 0 0 1-.789.384z" fill="#0f3336"/><rect fill="#0f3336" height="27.83" rx="10.213" transform="matrix(.6655691 .74633623 -.74633623 .6655691 404.366 -306.134)" width="20.426" x="533.566" y="284.225"/><path d="M762.306 716.264c8.984 6.952 10.545 27.927-27.058 58.377-52.377 42.414-171.598 67.66-184.62 47.49-.728 37.418 29.139 121.191 83.431 126.277-.648 19.278 20.201 34.006 32.529 26.786.665 13.165 6.123 17.715 18.939 17.789 136.654 82.967 244.072 18.502 209.734-83.451 0 0 2.777 9.132-2.423-6.081 9.611-7.128 14.08-25.272-11.252-38.787 8.879-43.404-34.468-65.617-50.111-61.277 17.941-36.319-16.851-88.416-69.17-87.123z" fill="#fff"/><path d="M804.006 1031.947c-3.061 0-6.163-.091-9.316-.274-34.188-1.984-72.027-15.016-109.446-37.693-12.938-.143-18.537-5.015-19.553-17.206-5.123 2.265-11.656 1.497-17.815-2.173-9.068-5.402-14.812-15.25-14.832-25.292-23.653-2.625-45.716-20.854-62.214-51.441-15.12-28.031-21.543-58.247-21.203-75.757a1 1 0 0 1 1.84-.523c1.809 2.802 6.012 4.748 12.492 5.783 33.696 5.384 125.474-16.919 170.658-53.508 28.057-22.72 32.111-38.381 32.031-45.694-.052-4.735-1.812-8.682-4.956-11.115a1 1 0 0 1 .588-1.79c26.067-.643 50.874 12.455 64.752 34.187 10.952 17.149 13.206 36.642 6.182 52.573 8.484-1.096 22.744 3.593 34.105 14.197 7.825 7.304 20.147 23.19 15.391 47.913 14.6 7.992 18.226 16.922 18.68 23.046.466 6.293-2.346 12.596-7.374 16.624a588.282 588.282 0 0 0 1.671 4.822.995.995 0 0 1 .521.585c7.042 20.91 8.397 40.583 4.026 58.475-4.148 16.981-13.565 31.74-27.235 42.681-17.729 14.191-41.443 21.578-68.996 21.579zm-137.417-57.753a1 1 0 0 1 .998.949c.624 12.36 5.321 16.767 17.946 16.84a.99.99 0 0 1 .513.145c37.217 22.595 74.825 35.58 108.759 37.549 31.033 1.802 57.639-5.416 76.946-20.87 27.264-21.823 35.769-56.629 23.564-95.864-.555-.778-1.338-3.071-3.423-9.169a.998.998 0 0 1 .351-1.127c3.798-2.817 7.672-8.32 7.153-15.319-.423-5.714-3.939-14.131-18.281-21.783a1 1 0 0 1-.509-1.083c4.947-24.185-7.056-39.69-14.652-46.78-11.8-11.014-26.66-15.429-34.213-13.333a1 1 0 0 1-1.164-1.406c7.713-15.614 5.758-35.209-5.231-52.416-13.064-20.456-36.089-33.052-60.542-33.283 2.447 2.776 3.795 6.557 3.843 10.903.085 7.675-4.06 24.021-32.771 47.27-20.129 16.3-52.706 31.823-89.379 42.588-33.443 9.817-65.19 14.162-82.853 11.341-5.459-.872-9.483-2.411-12.013-4.588.736 35.63 28.791 117.619 82.521 122.653.527.049.924.5.906 1.029-.324 9.645 5.109 19.239 13.842 24.442 6.101 3.635 12.524 4.175 17.183 1.448.156-.091.331-.137.505-.137zm175.931 191.521c-2.387-3.745 15.94-33.034 15.686-33.346l-74.233 14.872c.843 4.446 18.247 18.137 30.071 30.447z" fill="#0f3336"/><path d="M1078.439 1003.812c15.214-1.71 26.582 1.106 30.947 7.43s13.932 33.469 18.329 47.661c.638 73.798-165.957 141.25-277.787 124.91-2.275-3.051-18.254-32.194-18.929-33.025l-25.998-6.857c.843 4.446 8.377 29.589 9.042 33.757-43.495-5.527-73.603-17.162-73.603-17.162-12.219-21.872-23.713-53.049-23.227-65.407.679-17.247 20.537-36.459 20.537-36.459 329.368-36.892 345.09-55.342 340.688-54.847z" fill="#0f3336"/><path d="M950.207 926.18c36.35 19.167 108.863 40.77 123.72 50.667 21.262 14.164 21.621 34.569 26.655 51.801 2.065 21.804-21.97 50.173-78.03 71.222-28.348 10.644-85.668 46.178-131.406 48.105-41.896 1.765-58.967-18.562-78.966-24.172-35.357-9.919-58.189-3.324-85.608-26.352-13.238-23.231-27.986-54.57-33.123-88.412 0 0-15.945-.179-12.814-9.974 4.104-12.84 20.061-7.005 30.864.602 30.944 21.789 58.141 23.816 80.382 23.816 13.119 0 47.82.21 50.637-.128 62.695-7.525 103.614-99.323 107.688-97.175z" fill="#0f3336"/><path d="M693.45 1010.039h-.011c-.393-.004-9.66-.161-13.009-4.802-1.295-1.795-1.546-3.974-.746-6.477 1.307-4.089 4.2-6.959 8.367-8.299 8.474-2.725 20.063 1.167 27.13 6.421a1 1 0 1 1-1.193 1.605c-6.495-4.827-17.578-8.613-25.325-6.122-3.577 1.15-5.957 3.506-7.074 7.004-.604 1.891-.454 3.427.461 4.696 2.757 3.825 11.325 3.973 11.412 3.974a1.001 1.001 0 0 1-.012 2z" fill="#fff"/><path d="M881.527 1139.559c-26.841 0-42.335-5.479-56.164-10.368-4.58-1.619-8.906-3.149-13.452-4.424-11.868-3.33-22.126-4.761-32.046-6.146-19.076-2.663-35.551-4.962-53.936-20.403a1 1 0 0 1-.226-.271c-17.882-31.382-29.067-61.244-33.242-88.757a1 1 0 0 1 1.978-.3c4.132 27.224 15.205 56.8 32.914 87.911 17.89 14.967 34.067 17.226 52.789 19.839 9.986 1.394 20.311 2.835 32.309 6.201 4.61 1.293 8.966 2.833 13.579 4.464 15.132 5.35 32.28 11.413 64.395 10.062 45.694-1.925 84.786-7.679 127.045-29.506 52.619-27.179 84.069-57.448 82.126-79.024-.976-3.355-1.759-6.743-2.587-10.328-1.387-6.006-2.822-12.217-5.228-18.161a1 1 0 0 1 1.854-.75c2.465 6.091 3.918 12.38 5.323 18.462.829 3.589 1.612 6.979 2.585 10.31.018.061.03.123.036.186 2.123 22.413-29.754 53.482-83.191 81.083-42.585 21.996-81.92 27.792-127.879 29.728-3.13.132-6.121.194-8.981.194z" fill="#fff"/><path d="M912.331 1054.626c-15.755-5.383-48.928-18.573-69.812-31.271-17.993-8.154-6.733-65.03 13.145-92.405 13.929-19.182 38.298-36.127 53.649-28.235 16.846 8.661 4.067 4.409 43.154 24.637 39.087 20.229 107.552 42.238 107.552 42.238 1.688 26.833-82.312 107.374-147.688 85.035z" fill="#0f3336"/><path d="M827.069 1032.662s64.824 29.011 85.595 34.842c92.211 25.886 165.461-77.172 160.339-91.425-.861-8.148-9.19-11.911-12.984-6.488" fill="#0f3336"/><path d="M948.463 1065.193a145.33 145.33 0 0 1-19.135-1.283c-30.016-3.984-101.878-30.045-102.601-30.308a1 1 0 1 1 .683-1.879c.72.262 72.379 26.25 102.18 30.205 70.953 9.417 114.371-36.827 125.987-51.225 12.474-15.461 18.177-29.574 16.484-34.286a.999.999 0 1 1 1.882-.676c2.216 6.167-4.853 21.399-16.81 36.218-9.318 11.549-25.46 27.776-49.447 39.5-18.696 9.138-38.549 13.733-59.225 13.734z" fill="#fff"/><path d="M946.18 1050.861a108.06 108.06 0 0 1-25.482-3.055c-3.088-.747-7.091-1.601-11.727-2.59-19.888-4.242-49.944-10.654-66.971-21.006a1 1 0 1 1 1.039-1.709c16.737 10.176 46.593 16.545 66.349 20.759 4.65.992 8.666 1.848 11.78 2.602 50.59 12.239 91.433-16.13 106.646-28.894 19.117-16.041 31.95-35.498 31.207-47.314a1 1 0 0 1 1.996-.126c.781 12.41-12.344 32.548-31.918 48.971-12.8 10.74-43.488 32.36-82.92 32.362zm-132.138 127.827a1 1 0 0 1-.986-.843c-.342-2.141-2.593-10.14-4.771-17.875-1.985-7.051-3.86-13.71-4.266-15.854a1 1 0 0 1 1.238-1.154l25.998 6.857c.205.054.387.172.521.336.122.15.27.408 2.031 3.61 2.188 3.979 5.494 9.991 7.066 12.458a1 1 0 1 1-1.687 1.075c-1.607-2.521-4.932-8.568-7.132-12.569-.709-1.289-1.387-2.522-1.704-3.08l-24.009-6.333c.74 2.995 2.326 8.629 3.869 14.111 2.193 7.79 4.461 15.845 4.821 18.102a1 1 0 0 1-.989 1.158z" fill="#fff"/><path d="M950.207 926.18c-31.829.685-99.928 70.173-124.45 108.144-1.925 2.981-.828 6.974 2.334 8.585l30.107 15.34c2.712 1.382 6.014.508 7.714-2.016 24.817-36.853 84.988-102.666 121.445-113.213 9.437-2.505-23.416-18.447-37.15-16.84z" fill="#0f3336"/><path d="M860.904 1059.899a6.947 6.947 0 0 1-3.159-.759l-30.107-15.34a7.033 7.033 0 0 1-3.592-4.429 6.977 6.977 0 0 1 .871-5.59c24.362-37.724 92.414-107.895 125.269-108.602.548-.025 1.009.426 1.021.978a1 1 0 0 1-.978 1.021c-31.687.682-100.086 71.228-123.631 107.687a4.904 4.904 0 0 0-.62 3.985 5.03 5.03 0 0 0 2.568 3.167l30.107 15.34c2.249 1.145 5.013.422 6.43-1.684 23.509-34.911 84.382-102.733 121.997-113.615a1 1 0 1 1 .556 1.922c-37.15 10.747-97.53 78.116-120.893 112.81a7.041 7.041 0 0 1-5.838 3.108z" fill="#fff"/><path d="M139.923 573.337c137.623 50.547 85.775 281.664 88.645 363.783 3.044 39.729-64.216 57.512-91.235 24.88 5.89-75.431-42.584-126.227-62.531-200.892-5.082-19.023-17.264-69.455-16.439-112.502 1.029-53.668 20.722-97.613 81.56-75.268z" fill="#cf736c"/><path d="M342.795 558.337c-57.539 20.556-51.525 146.243-115.077 130.785 17.058 4.989 18.488 16.621 5.035 31.181-28.298 30.626-125.656 45.745-156.283 46.765-16.475.549-33.713-20.403-7.671-35.722-107.045-20.731-69.898-104.639-17.834-152.452 36.562-33.577 103.365-53.435 141.424-82.27 19.594-14.845 34.949-43.461 49.951-70.789 37.031-67.46 105.364-74.472 141.432-59.163 38.797 16.467 42.768 48.121 42.768 48.121 1.259 7.569-18.133 120.105-83.745 143.546z" fill="url(#m)"/><path d="M285.839 642.129a1 1 0 0 1-.919-1.394c1.244-2.907 2.491-5.867 3.75-8.856 12.841-30.493 27.394-65.055 53.79-74.484a.999.999 0 1 1 .673 1.883c-25.566 9.134-39.939 43.264-52.619 73.377-1.26 2.992-2.508 5.957-3.754 8.867a1.002 1.002 0 0 1-.92.607zm-217.04 90.216a1 1 0 0 1-.019-2c47.438-.936 125.902-21.776 158.409-42.072a1 1 0 1 1 1.059 1.697c-32.743 20.444-111.713 41.434-159.429 42.375h-.02zm565.26 217.063a1 1 0 0 1-.081-1.996c24.653-2.045 67.616-20.174 104.479-44.086 46.51-30.17 79.212-65.786 92.083-100.288a1 1 0 1 1 1.874.7c-13.02 34.901-46.001 70.865-92.868 101.267-37.111 24.073-80.454 42.332-105.402 44.402a1.179 1.179 0 0 1-.084.003z" fill="#0f3336"/><path d="M881.588 864.663c-25.923 66.287-162.201 110.53-214.998 110.53" fill="#fff"/><path d="M666.589 976.194a1 1 0 0 1 0-2c28.47 0 76.653-12.469 117.174-30.323 51.245-22.579 85.656-50.838 96.893-79.572a1 1 0 0 1 1.863.729c-15.423 39.438-67.988 67.473-97.949 80.674-40.747 17.953-89.263 30.492-117.98 30.492z" fill="#0f3336"/><path d="M272.442 1169.002c11.061-2.465 21.839-74.124 11.909-125.541-10.213-52.879-52.34-124.415-87.234-114.567-42.992 12.134 9.319 117.66 37.846 145.623-15.122 38.526 11.368 100.303 37.479 94.485z" fill="#cf736c"/><path d="M287.266 1114.312s-7.574-1.955-12.302 7.486c-4.195 8.376-2.521 47.204-2.521 47.204 10.186-2.893 14.304-30.243 14.824-54.69z" fill="#ffa640"/><path d="M83.164 1025.487c17.985-59.909 97.242-121.581 140.461-90.132 41.495 30.195 36.514 138.24-11.785 162.988-40.768 20.89-150.554.02-128.677-72.857z" fill="#cf736c"/><path d="M88.102 1021.4c-33.34-2.929-55.684 13.996-69.108 35.586-7.606 12.233-12.322 25.958-14.559 38.385 3.02 15.649 7.466 21.859 8.417 39.386 14.704 2.427 38.473-28.186 31.914-54.842 14.079.994 38.43-17.079 38.43-17.079s27.026-38.166 4.906-41.437z" fill="#cf736c"/><path d="M50.834 1045.741a26.505 26.505 0 0 0-5.557-15.262c-11.045 6.549-19.73 15.968-26.283 26.507a103.674 103.674 0 0 0-7.019 13.439 26.503 26.503 0 0 0 13.285 2.966c14.698-.573 26.148-12.953 25.575-27.65z" fill="url(#n)"/><path d="M10.124 1133.864a9.257 9.257 0 0 0 2.728.894c17.573-9.102 21.804-51.908-8.417-39.386-3.407 18.981-1.034 35.03 5.689 38.492z" fill="#ffa640"/><path d="M136.813 1031.481c-41.213 4.033-64.531 29.704-75.938 59.019-6.463 16.61-9.073 34.375-8.962 49.998 7.237 18.343 14.059 24.883 19.207 45.981 18.435-.398 40.368-43.042 26.319-73.964 17.349-1.998 42.846-29.523 42.846-29.523s24.173-52.571-3.472-51.511z" fill="#cf736c"/><path d="M97.034 1069.572a32.797 32.797 0 0 0-10.235-17.295c-11.94 10.48-20.357 23.913-25.925 38.223-2.292 5.89-4.1 11.918-5.475 17.943a32.797 32.797 0 0 0 16.831.581c17.744-4.045 28.849-21.708 24.804-39.452z" fill="url(#o)"/><path d="M67.599 1186.013c1.152.344 2.329.489 3.521.466 19.298-15.073 14.692-68.094-19.207-45.981.18 23.86 6.721 42.836 15.687 45.516z" fill="#ffa640"/><path d="M51.913 1141.498a1 1 0 0 1-1-.993c-.122-17.202 3.085-35.09 9.03-50.367 8.644-22.214 22.952-39.229 41.379-49.205a1 1 0 1 1 .952 1.758c-18.004 9.748-31.998 26.405-40.467 48.171-5.855 15.048-9.014 32.673-8.894 49.628a1 1 0 0 1-.993 1.007h-.007z" fill="#0f3336"/><path d="M176.348 1031.206c-43.994 4.305-68.885 31.709-81.062 63.001-6.899 17.73-9.685 36.695-9.567 53.371 7.725 19.581 15.008 26.562 20.503 49.084 19.678-.425 43.092-45.946 28.095-78.954 18.519-2.133 45.737-31.515 45.737-31.515s25.804-56.118-3.706-54.986z" fill="#cf736c"/><path d="M133.886 1071.867a35.005 35.005 0 0 0-10.925-18.462c-12.746 11.188-21.73 25.527-27.674 40.802-2.446 6.287-4.377 12.722-5.845 19.154a34.997 34.997 0 0 0 17.967.62c18.941-4.318 30.795-23.173 26.477-42.114z" fill="url(#p)"/><path d="M102.465 1196.165c1.229.367 2.486.522 3.758.497 20.6-16.09 15.683-72.688-20.503-49.084.192 25.469 7.175 45.727 16.745 48.587z" fill="#ffa640"/><path d="M85.72 1148.578a1 1 0 0 1-1-.993c-.13-18.354 3.292-37.44 9.635-53.74 9.653-24.806 25.852-43.443 46.847-53.896a1.001 1.001 0 0 1 .892 1.79c-20.542 10.228-36.406 28.496-45.875 52.831-6.253 16.071-9.627 34.894-9.499 53.001a1 1 0 0 1-.993 1.007z" fill="#0f3336"/><path d="M220.264 1032.283c-40.347 9.409-60.105 37.931-67.571 68.503-4.23 17.322-4.487 35.285-2.327 50.765 9.585 17.244 17.21 22.835 25.085 43.085 18.232-2.814 34.389-47.988 16.396-76.814 24.333-10.885 38.621-34.906 38.621-34.906s17.076-55.314-10.204-50.634z" fill="#cf736c"/><path d="M185.81 1075.284a32.8 32.8 0 0 0-12.421-15.81c-10.467 11.962-17.052 26.39-20.697 41.313-1.5 6.142-2.502 12.359-3.075 18.515a32.8 32.8 0 0 0 16.77-1.633c17.068-6.341 25.764-25.317 19.423-42.385z" fill="url(#q)"/><path d="M171.899 1194.637c1.187.19 2.374.179 3.553 0 17.162-17.482 5.635-69.466-25.085-43.085 3.31 23.641 12.289 41.604 21.532 43.085z" fill="#ffa640"/><path d="M150.365 1152.552a1 1 0 0 1-.989-.862c-2.378-17.046-1.545-35.208 2.346-51.141 6.276-25.699 20.159-45.735 40.146-57.941a1 1 0 1 1 1.043 1.707c-19.527 11.924-33.098 31.534-39.246 56.709-3.833 15.693-4.652 33.589-2.308 50.39a1 1 0 0 1-.991 1.139zm80.103-68.635a1 1 0 0 1-.818-1.574c7.961-11.367 13.067-37.736 11.382-58.781a1 1 0 0 1 1.994-.16c1.497 18.699-2.565 46.99-11.737 60.088a.999.999 0 0 1-.82.426z" fill="#0f3336"/><path d="M257.496 1066.413c0 18.002 13.238 32.911 30.51 35.526.786-19.373-.126-40.203-3.655-58.477a174.171 174.171 0 0 0-2.529-11.055c-14.147 4.828-24.326 18.224-24.326 34.006z" fill="url(#r)"/><path d="M484.051 449.609c-18.534 0-41.018-7.13-59.508-19.533-19.093-12.807-30.56-28.716-32.29-44.795-.518-4.819-.456-12.254.682-16.539a1 1 0 1 1 1.933.513c-1.037 3.905-1.132 11.106-.626 15.812 1.666 15.481 12.823 30.876 31.416 43.348 23.608 15.836 53.752 22.941 73.307 17.278 14.712-4.261 24.566-13.796 27.746-26.849 4.043-16.595-3.591-36.049-20.421-52.039a1 1 0 1 1 1.378-1.45c17.355 16.49 25.201 36.663 20.986 53.962-3.357 13.779-13.703 23.828-29.133 28.297-4.651 1.347-9.882 1.995-15.469 1.996zm-57.377-121.145a1 1 0 0 1-.601-1.8c9.542-7.154 5.989-28.066-7.92-46.617a1 1 0 0 1 1.6-1.2c14.57 19.433 17.943 41.601 7.519 49.417-.18.135-.39.2-.599.2z" fill="#0f3336"/><g fill="#fff"><path d="M422.851 204.386a1 1 0 0 1-.949-1.314c.117-.355 12.121-35.627 44.88-45.23a1 1 0 0 1 .563 1.919c-31.737 9.303-43.429 43.594-43.544 43.939a1 1 0 0 1-.949.686z"/><path d="M542.287 215.524a1 1 0 0 1-1-1c0-13.175-7.997-26.2-21.391-34.842-21.536-13.895-51.964-14.243-81.394-.931a.999.999 0 1 1-.824-1.822c30.052-13.593 61.193-13.192 83.302 1.073 13.968 9.012 22.306 22.665 22.306 36.522a1 1 0 0 1-1 1z"/><path d="M499.074 244.739a1 1 0 0 1-.804-1.595c4.692-6.347 3.715-15.596-2.681-25.375-12.01-18.364-39.73-33.871-65.333-28.034a1 1 0 1 1-.444-1.95c26.45-6.029 55.066 9.953 67.451 28.889 6.88 10.519 7.833 20.6 2.615 27.659a1 1 0 0 1-.805.406zM349.303 192.59c-25.351 0-43.895-15.269-49.621-31.67-5.458-15.634.346-30.761 15.526-40.466a.999.999 0 1 1 1.077 1.685c-14.346 9.171-19.846 23.422-14.715 38.122 5.959 17.072 26.498 32.856 54.225 29.991a1 1 0 0 1 .205 1.989 65.05 65.05 0 0 1-6.698.349zm-52.616 45.4c-1.197 0-2.367-.057-3.513-.174-11.357-1.158-19.468-7.713-23.455-18.957a1 1 0 0 1 1.885-.669c3.711 10.463 11.24 16.562 21.773 17.636 18.859 1.924 45.445-13.001 56.899-31.936a1 1 0 1 1 1.711 1.035c-11.11 18.367-36.117 33.065-55.3 33.065zm9.401 39.73c-3.433 0-6.675-.675-9.606-2.043a1 1 0 0 1 .846-1.812c7.549 3.525 17.474 1.985 27.23-4.226 13.424-8.547 22.098-22.899 22.098-36.564a1 1 0 0 1 2 0c0 14.332-9.037 29.346-23.023 38.251-6.638 4.227-13.394 6.394-19.544 6.394z"/></g><path d="M1005.217 715.53c12.759-38.62 24.609-97.359-3.191-138.916-25.095-34.906-81.325-45.18-147.577-38.431a160.494 160.494 0 0 0-1.096 18.657c0 85.389 67.376 155.032 151.865 158.69z" fill="url(#s)"/></svg></g><g transform="translate(125.29411764705883 2110.5882352941176) rotate(0.0 556.7647058823529 351.17647058823536) scale(1.7629624773040697 1.7615280503425246)"><svg width="631.624" height="398.718" viewBox="0 0 631.624 398.718"><g><path d="M627.127 267.752 433.014 397.717 74.42 297.364l208.369-139.121 344.801 91.179s2.427 7.899 2.91 10.577c.509 2.828-.537 5.932-3.373 7.754Z" style="fill:#fff"/><path d="M433.013 398.718a.999.999 0 0 1-.27-.037L74.15 298.327a1 1 0 0 1-.286-1.795L282.233 157.41c.238-.159.534-.208.811-.135l344.802 91.179a.999.999 0 0 1 .7.673c.1.325 2.451 7.988 2.938 10.693.629 3.491-.831 6.849-3.808 8.766L433.569 398.547a.993.993 0 0 1-.556.169ZM76.785 296.987l356.054 99.644L626.57 266.922l.016-.01c2.29-1.471 3.413-4.052 2.93-6.735-.395-2.193-2.172-8.121-2.72-9.93l-343.827-90.922L76.785 296.987Z" style="fill:#0f3336"/></g><path d="M624.451 258.121 430.338 388.086 71.744 287.732l208.369-139.121 342.278 95.788c6.32 1.769 7.582 10.175 2.06 13.722Z" style="fill:#fff"/><path d="M439.678 382.833a1 1 0 0 1-.557-1.831L623.895 257.29c2.235-1.435 3.37-3.94 2.978-6.548-.391-2.608-2.212-4.669-4.751-5.38l-341.835-95.664L72.299 288.564a1 1 0 0 1-1.111-1.663l208.369-139.122c.242-.162.544-.209.825-.131l342.278 95.788c3.308.926 5.68 3.611 6.19 7.009.51 3.397-.969 6.661-3.859 8.517L440.233 382.664a.99.99 0 0 1-.555.169Z" style="fill:#0f3336"/><path d="M409.494 377.872a1 1 0 0 1-.557-1.831l117.539-78.696c1.811-1.164 2.729-3.191 2.413-5.301a5.284 5.284 0 0 0-3.845-4.353l-285.103-79.787-126.233 84.281a1 1 0 0 1-1.111-1.663l126.615-84.537a.995.995 0 0 1 .825-.131l285.545 79.911c2.823.79 4.848 3.082 5.283 5.982.435 2.9-.827 5.686-3.294 7.27l-117.523 78.686a.998.998 0 0 1-.555.169Zm23.519 20.846a1 1 0 0 1-.92-1.392l6.664-15.625a1 1 0 0 1 1.84.784l-6.664 15.625a1 1 0 0 1-.92.608Z" style="fill:#0f3336"/><g><path d="M480.943 312.273c11.061-2.465 21.839-74.124 11.909-125.541-10.213-52.879-52.34-124.415-87.234-114.567-42.992 12.134 9.319 117.66 37.846 145.623-15.122 38.526 11.368 100.303 37.479 94.485Z" style="fill:#cf736c"/><path d="M291.665 168.758c17.985-59.909 97.242-121.581 140.461-90.132 41.495 30.195 36.514 138.24-11.785 162.988-40.768 20.89-150.554.02-128.677-72.857Z" style="fill:#cf736c"/><g><path d="M296.603 164.671c-33.34-2.929-55.684 13.996-69.108 35.586-7.606 12.233-12.322 25.958-14.559 38.385 3.02 15.649 7.466 21.859 8.417 39.386 14.704 2.427 38.473-28.186 31.914-54.842 14.079.994 38.43-17.079 38.43-17.079s27.026-38.166 4.906-41.437Z" style="fill:#cf736c"/><path d="M259.335 189.012a26.505 26.505 0 0 0-5.557-15.262c-11.045 6.549-19.73 15.968-26.283 26.507a103.674 103.674 0 0 0-7.019 13.439 26.503 26.503 0 0 0 13.285 2.966c14.698-.573 26.148-12.953 25.575-27.65Z" style="fill:url(#___11)"/><path d="M218.625 277.135a9.257 9.257 0 0 0 2.728.894c17.573-9.102 21.804-51.908-8.417-39.386-3.407 18.981-1.034 35.03 5.689 38.492Z" style="fill:#ffa640"/></g><g><path d="M345.313 174.751c-41.213 4.033-64.531 29.704-75.938 59.019-6.463 16.61-9.073 34.375-8.962 49.998 7.237 18.343 14.059 24.883 19.207 45.981 18.435-.398 40.368-43.042 26.319-73.964 17.349-1.998 42.846-29.523 42.846-29.523s24.173-52.571-3.472-51.511Z" style="fill:#cf736c"/><path d="M305.535 212.842a32.797 32.797 0 0 0-10.235-17.295c-11.94 10.48-20.357 23.913-25.925 38.223-2.292 5.89-4.1 11.918-5.475 17.943a32.797 32.797 0 0 0 16.831.581c17.744-4.045 28.849-21.708 24.804-39.452Z" style="fill:url(#___11-2)"/><path d="M276.1 329.284c1.152.344 2.329.489 3.521.466 19.298-15.073 14.692-68.094-19.207-45.981.18 23.86 6.721 42.836 15.687 45.516Z" style="fill:#ffa640"/><path d="M260.413 284.768a1 1 0 0 1-1-.993c-.122-17.202 3.085-35.089 9.03-50.367 8.644-22.214 22.953-39.229 41.379-49.205a1 1 0 1 1 .952 1.758c-18.004 9.747-31.997 26.405-40.467 48.171-5.855 15.048-9.014 32.673-8.894 49.628a1 1 0 0 1-.993 1.007h-.007Z" style="fill:#0f3336"/></g><g><path d="M384.849 174.476c-43.994 4.305-68.885 31.709-81.062 63.001-6.899 17.73-9.685 36.695-9.567 53.371 7.725 19.581 15.008 26.562 20.503 49.084 19.678-.425 43.092-45.946 28.095-78.954 18.519-2.133 45.737-31.515 45.737-31.515s25.804-56.118-3.706-54.986Z" style="fill:#cf736c"/><path d="M342.387 215.137a35.005 35.005 0 0 0-10.925-18.462c-12.746 11.188-21.73 25.527-27.674 40.802-2.446 6.287-4.377 12.722-5.845 19.154a34.997 34.997 0 0 0 17.967.62c18.941-4.318 30.795-23.173 26.477-42.114Z" style="fill:url(#___11-3)"/><path d="M310.966 339.435c1.229.367 2.486.522 3.758.497 20.6-16.09 15.683-72.688-20.503-49.084.192 25.469 7.175 45.727 16.745 48.587Z" style="fill:#ffa640"/><path d="M294.221 291.848a1 1 0 0 1-1-.993c-.13-18.354 3.291-37.44 9.635-53.74 9.653-24.806 25.853-43.443 46.847-53.896a1 1 0 1 1 .892 1.79c-20.542 10.227-36.406 28.496-45.875 52.831-6.254 16.071-9.627 34.894-9.498 53.001a1 1 0 0 1-.993 1.007h-.007Z" style="fill:#0f3336"/></g><g><path d="M428.765 175.553c-40.347 9.409-60.105 37.931-67.571 68.503-4.23 17.322-4.487 35.285-2.327 50.765 9.585 17.244 17.21 22.835 25.085 43.085 18.232-2.814 34.389-47.988 16.396-76.814 24.333-10.885 38.621-34.906 38.621-34.906s17.076-55.314-10.204-50.634Z" style="fill:#cf736c"/><path d="M394.311 218.554a32.8 32.8 0 0 0-12.421-15.81c-10.467 11.962-17.052 26.39-20.697 41.313-1.5 6.142-2.502 12.359-3.075 18.515a32.8 32.8 0 0 0 16.77-1.633c17.068-6.341 25.764-25.317 19.423-42.385Z" style="fill:url(#___11-4)"/><path d="M380.399 337.907c1.187.19 2.374.179 3.553 0 17.162-17.482 5.635-69.466-25.085-43.085 3.31 23.641 12.289 41.604 21.532 43.085Z" style="fill:#ffa640"/><path d="M358.866 295.822a1 1 0 0 1-.989-.862c-2.379-17.045-1.546-35.208 2.345-51.141 4.78-19.57 13.753-35.62 26.672-47.706a1 1 0 0 1 1.366 1.46c-12.63 11.816-21.41 27.535-26.095 46.72-3.833 15.694-4.652 33.589-2.307 50.39a1 1 0 0 1-.991 1.139Z" style="fill:#0f3336"/></g><path d="M438.969 227.187a1 1 0 0 1-.818-1.574c7.961-11.368 13.067-37.737 11.382-58.781a1 1 0 0 1 1.994-.16c1.497 18.699-2.565 46.989-11.737 60.088a.999.999 0 0 1-.82.426Z" style="fill:#0f3336"/><path d="M495.767 257.583s-7.574-1.955-12.302 7.486c-4.195 8.376-2.521 47.204-2.521 47.204 10.186-2.893 14.304-30.243 14.824-54.69Z" style="fill:#ffa640"/><path d="M465.997 209.683c0 18.002 13.238 32.911 30.51 35.526.786-19.373-.126-40.203-3.655-58.477a174.171 174.171 0 0 0-2.529-11.055c-14.147 4.828-24.326 18.224-24.326 34.006Z" style="fill:url(#___4)"/></g><path d="m439.677 382.093-71.605-275.672a15.012 15.012 0 0 0-10.48-10.669L20.051 1.29c-5.652-1.582-10.889 3.563-9.408 9.242l73.166 280.647 355.868 90.914Z" style="fill:#fff"/><path d="M439.676 383.093a1 1 0 0 1-.967-.749l-71.604-275.671a14.06 14.06 0 0 0-9.782-9.958L19.782 2.253c-1.771-.495-3.601-.254-5.156.679-.236.15-7.286 4.805-9.981 6.586a1 1 0 0 1-1.102-1.669c3.697-2.443 9.921-6.552 10.053-6.632 2.031-1.219 4.419-1.535 6.725-.89l337.54 94.462a16.067 16.067 0 0 1 11.179 11.38l71.605 275.672a.999.999 0 0 1-.969 1.251Z" style="fill:#0f3336"/><g><path d="m433.013 397.718-74.33-285.112a15.012 15.012 0 0 0-10.48-10.669L10.662 7.475C5.011 5.893-.227 11.038 1.254 16.717L74.42 297.364l358.593 100.354Z" style="fill:#fff"/><path d="M433.013 398.718a.999.999 0 0 1-.27-.037L74.15 298.327a.999.999 0 0 1-.698-.711L.286 16.969c-.787-3.017.072-6.124 2.296-8.309 2.225-2.185 5.347-2.987 8.349-2.148l337.542 94.462a16.067 16.067 0 0 1 11.179 11.38l74.33 285.111a1 1 0 0 1-.968 1.253ZM75.243 296.556l356.364 99.73-73.891-283.427a14.058 14.058 0 0 0-9.782-9.958L10.393 8.438a6.537 6.537 0 0 0-6.408 1.649 6.537 6.537 0 0 0-1.763 6.378l73.021 280.091Z" style="fill:#0f3336"/></g></svg></g><g transform="translate(194.11764705882354 541.7647058823529) rotate(0.0 479.99999999999994 774.7058823529411) scale(1.7617167930147928 1.7644928570194056)"><svg width="544.923" height="878.106" viewBox="0 0 544.923 878.106"><linearGradient id="t"><stop offset="0" stop-color="#ae73fb"/><stop offset="1" stop-color="#c7aeff" stop-opacity=".9"/></linearGradient><linearGradient xmlns:xlink="http://www.w3.org/1999/xlink" id="u" gradientUnits="userSpaceOnUse" x1="0" x2="285.699" xlink:href="#t" y1="295.468" y2="295.468"/><linearGradient xmlns:xlink="http://www.w3.org/1999/xlink" id="v" gradientUnits="userSpaceOnUse" x1="0" x2="544.923" xlink:href="#t" y1="545.021" y2="545.021"/><path d="M0 590.936c0-93.562 106.433-177.223 273.705-232.823 7.15-2.377 11.993-9.042 11.993-16.577V9.735c0-6.512-6.284-11.2-12.516-9.314C106.211 50.971 0 126.962 0 211.936z" fill="url(#u)" opacity=".7"/><path d="M24.183 413.6a2.5 2.5 0 0 1-2.5-2.5V245.578a2.5 2.5 0 1 1 5 0v165.521a2.5 2.5 0 0 1-2.5 2.5zm16.793-63.064a2.5 2.5 0 0 1-2.5-2.5v-82.374a2.5 2.5 0 1 1 5 0v82.374a2.5 2.5 0 0 1-2.5 2.5zm21.626 19.66a2.5 2.5 0 0 1-2.5-2.5V204.1a2.5 2.5 0 1 1 5 0v163.596a2.5 2.5 0 0 1-2.5 2.5zm27.267 19.076a2.5 2.5 0 0 1-2.5-2.5V142.767a2.5 2.5 0 1 1 5 0v244.004a2.5 2.5 0 0 1-2.5 2.5z" fill="#fff"/><path d="M544.923 851.775c0 15.942-14.066 28.234-29.862 26.087C215.462 837.136 0 724.058 0 590.936v-379C0 333.74 218.23 437.087 520.828 473.5c13.746 1.654 24.095 13.315 24.095 27.16v351.114z" fill="url(#v)" opacity=".7"/><g fill="#fff"><path d="M449.948 802.643a2.5 2.5 0 0 1-2.5-2.5V530.718a2.5 2.5 0 1 1 5 0v269.425a2.5 2.5 0 0 1-2.5 2.5zm-75.246-82.66a2.5 2.5 0 0 1-2.5-2.5V583.374a2.5 2.5 0 1 1 5 0v134.109a2.5 2.5 0 0 1-2.5 2.5zm-64.492-39.192a2.5 2.5 0 0 1-2.5-2.5v-88.468a2.5 2.5 0 1 1 5 0v88.468a2.5 2.5 0 0 1-2.5 2.5zm-59.362 25.788a2.5 2.5 0 0 1-2.5-2.5V527.015a2.5 2.5 0 1 1 5 0v177.064a2.5 2.5 0 0 1-2.5 2.5zm-52.468-20.298a2.5 2.5 0 0 1-2.5-2.5V507.1a2.5 2.5 0 1 1 5 0v176.681a2.5 2.5 0 0 1-2.5 2.5zm-47.234-42.894a2.5 2.5 0 0 1-2.5-2.5V507.1a2.5 2.5 0 1 1 5 0v133.787a2.5 2.5 0 0 1-2.5 2.5zm-40.851 41.606a2.5 2.5 0 0 1-2.5-2.5V420.302a2.5 2.5 0 1 1 5 0v262.191a2.5 2.5 0 0 1-2.5 2.5zM72.252 569.951a2.5 2.5 0 0 1-2.5-2.5V480.85a2.5 2.5 0 1 1 5 0v86.601a2.5 2.5 0 0 1-2.5 2.5zm-31.276 13.404a2.5 2.5 0 0 1-2.5-2.5v-172.34a2.5 2.5 0 1 1 5 0v172.34a2.5 2.5 0 0 1-2.5 2.5zm-25.149-78.223a2.5 2.5 0 0 1-2.5-2.5v-85.404a2.5 2.5 0 1 1 5 0v85.404a2.5 2.5 0 0 1-2.5 2.5zm103.659-176.681a2.5 2.5 0 0 1-2.5-2.5V164.079a2.5 2.5 0 1 1 5 0v161.872a2.5 2.5 0 0 1-2.5 2.5zm31.213-75.192a2.5 2.5 0 0 1-2.5-2.5V203.78a2.5 2.5 0 1 1 5 0v46.979a2.5 2.5 0 0 1-2.5 2.5zm31.979 2.171a2.5 2.5 0 0 1-2.5-2.5v-80.425a2.5 2.5 0 1 1 5 0v80.425a2.5 2.5 0 0 1-2.5 2.5zm32.298-13.644a2.5 2.5 0 0 1-2.5-2.5v-79.931a2.5 2.5 0 1 1 5 0v79.931a2.5 2.5 0 0 1-2.5 2.5zm34.448-29.154a2.5 2.5 0 0 1-2.5-2.5v-46.053a2.5 2.5 0 1 1 5 0v46.053a2.5 2.5 0 0 1-2.5 2.5z"/></g></svg></g><g transform="translate(522.3529411764706 402.35294117647055) rotate(0.0 159.70588235294116 184.41176470588235) scale(1.7640334055298386 1.7570806567278112)"><svg width="181.069" height="209.907" viewBox="0 0 181.069 209.907"><linearGradient id="w" gradientUnits="userSpaceOnUse" x1="32.454" x2="143.301" y1="202.427" y2="10.434"><stop offset="0" stop-color="#ffa640"/><stop offset="1" stop-color="#ffc275"/></linearGradient><path d="M181.068 79.156c.272 55.374-45.2 109.968-96.616 126.747C33.124 222.654-.257 184.505.001 134.995.275 82.592 30.724 18.925 84.452 3.167c50.82-14.905 96.365 24.863 96.616 75.989z" fill="url(#w)"/><g fill="#fff"><path d="M113.063 49.3c-.667 16.074-13.237 34.345-28.611 39.598-15.164 5.181-27.187-8.356-27.45-22.525-.31-16.681 11.683-35.424 27.45-40.074 14.367-4.237 29.261 7.359 28.611 23.002zm-28.61 133.471c27.636-7.866 53.486-30.816 68.631-56.471-13.711-24.266-42.583-33.808-68.631-25.951-30.235 9.12-51.963 38.066-62.29 66.795 15.473 20.818 40.4 21.858 62.29 15.628z"/></g></svg></g></svg>