<svg xmlns="http://www.w3.org/2000/svg" viewBox="0 0 3000 2250" width="3000" height="2250"><g transform="translate(2908.125 -230.625) rotate(0.0 -1399.6875 1188.75) translate(-0.0 326.25) scale(-3.963408159364581 3.9625)"><svg width="706.305" height="517.666" viewBox="0 82.334 706.305 517.666"><g fill="#c4ecfe" opacity=".3"><path d="M704.01 2.295v595.41H2.295V2.295zM706.305 0H0v600h706.305z"/><path d="M0 425.367h706.305v2.147H0zm0-85.947h706.305v2.147H0z"/><path d="M0 425.367h706.305v2.147H0zm0 85.873h706.305v2.147H0zm0-257.693h706.305v2.147H0zM0 167.6h706.305v2.147H0zm0-85.873h706.305v2.147H0z"/></g><g fill="#bfd9ff"><circle cx="33.017" cy="187.218" r="3.035"/><circle cx="670.327" cy="479.63" r="3.035"/><circle cx="597.113" cy="63.22" r="3.035"/><circle cx="389.759" cy="156.57" r="3.035"/><circle cx="257.323" cy="72.178" r="3.035"/><circle cx="492.215" cy="453.72" r="2.813"/><circle cx="141.838" cy="543.813" r="2.813"/></g><path d="M1.333 134.51v-7.403c12.733 0 23.615-10.66 35.238-21.912 12.067-11.696 24.503-23.837 39.975-23.837v7.403c-12.511 0-23.319 10.586-34.793 21.764-12.142 11.77-24.726 23.985-40.42 23.985z" fill="#f9d5ff"/></svg></g><g transform="translate(108.75 376.875) rotate(0.0 900.9375 882.1875) scale(2.9542857330235655 2.961076166053543)"><svg width="609.919" height="595.856" viewBox="0 0 609.919 595.856"><linearGradient id="a"><stop offset="0" stop-color="#ffe0c2"/><stop offset=".401" stop-color="#7aaefc"/><stop offset=".591" stop-color="#b8c1fc"/><stop offset="1" stop-color="#d2d4d4"/></linearGradient><linearGradient xmlns:xlink="http://www.w3.org/1999/xlink" id="b" gradientUnits="userSpaceOnUse" x1="411.841" x2="411.841" xlink:href="#a" y1="281.58" y2="101.71"/><linearGradient xmlns:xlink="http://www.w3.org/1999/xlink" id="c" gradientTransform="matrix(.9997 .0262 -.0262 .9997 315.6566 1539.1149)" gradientUnits="userSpaceOnUse" x1="-36.71" x2="-36.71" xlink:href="#a" y1="-1270.614" y2="-1428.996"/><linearGradient id="d" gradientUnits="userSpaceOnUse" x1="2.612" x2="607.163" y1="306.709" y2="306.709"><stop offset="0" stop-color="#6b9c83"/><stop offset=".401" stop-color="#a6a6a4"/><stop offset=".501" stop-color="#9f9fc8"/><stop offset=".591" stop-color="#9fccec"/><stop offset="1" stop-color="#ffe7b0"/></linearGradient><linearGradient id="e" gradientUnits="userSpaceOnUse" x1="34.049" x2="575.87" y1="306.605" y2="306.605"><stop offset="0" stop-color="#ffe7b0"/><stop offset=".409" stop-color="#9fccec"/><stop offset=".499" stop-color="#9f9fc8"/><stop offset=".599" stop-color="#a6a6a4"/><stop offset="1" stop-color="#6b9c83"/></linearGradient><linearGradient xmlns:xlink="http://www.w3.org/1999/xlink" id="f" gradientUnits="userSpaceOnUse" x1="229.342" x2="229.342" xlink:href="#a" y1="283.06" y2="111.374"/><path d="m359.586 109.189 69.874 89.489-5.848-5.625 84.086 70.318c8.734 7.254 9.845 20.281 2.591 29.016-6.662 7.92-17.987 9.622-26.573 4.367l-93.412-57.291c-1.85-1.184-3.479-2.591-4.737-4.219l-1.036-1.332-69.874-89.489c-9.697-12.435-7.476-30.274 4.885-39.97 12.434-9.92 30.347-7.7 40.044 4.736z" fill="url(#b)"/><path d="m361.806 193.052 1.554 2.369 1.48 2.369 3.035 4.737 5.773 9.548c1.924 3.183 3.775 6.44 5.699 9.623l5.551 9.697c7.254 13.027 14.212 26.203 20.947 39.452 6.736 13.249 13.175 26.721 19.541 40.192a1559.141 1559.141 0 0 1 18.283 40.859l2.665 6.144.222.888c3.701 16.802 7.328 33.605 10.659 50.481l2.517 12.657 2.369 12.731c1.628 8.438 3.109 16.95 4.589 25.463 2.887 17.024 5.625 34.049 8.068 51.221 2.295 17.172 4.589 34.419 5.996 51.887l-52.702 17.913-59.067-199.186 2.887 7.106-82.309-158.623z" fill="#2b2b2b"/><path d="m525.685 548.863-79.793 45.522c-4.145 2.369-9.474.962-11.991-3.109l-5.996-9.919 50.703-28.275 43.597-12.361c5.182-1.481 8.069 5.551 3.48 8.142z" fill="#7ebddb"/><path d="M344.708 223.77c-1.776 15.914-4.515 31.68-7.476 47.298a1116.205 1116.205 0 0 1-10.141 46.706c-1.924 7.772-3.775 15.47-5.773 23.168-1.036 3.849-1.999 7.698-3.035 11.547l-3.183 11.547-1.554 5.773-1.628 5.773-1.628 5.773-.814 2.887-.444 1.406-.222.74-.074.37-.222.888-.222.962-.296 1.036c-.222.666-.444 1.332-.666 2.073-.444 1.332-.962 2.665-1.48 3.997-1.11 2.665-2.369 5.181-3.775 7.624s-3.035 4.811-4.737 7.032a31.47 31.47 0 0 1-1.332 1.628l-.666.814-.37.37c-.148.148-.222.296-.296.296l-1.036 1.036-8.438 8.734c-22.502 22.798-45.374 45.226-68.986 67.061l-8.882 8.216-8.956 8.142c-2.961 2.739-5.996 5.403-9.03 8.068-2.961 2.665-6.07 5.329-9.104 7.994l-9.03 7.846c-1.554 1.332-3.035 2.665-4.589 3.923l-4.663 3.923-9.326 7.772c-3.183 2.517-4.293 3.553-7.55 6.07l-44.264-34.049 123.464-146.336 7.698-9.178.962-1.11c.074-.074 0 0 0 0l-.074.148-.222.222c-.148.148-.296.37-.37.518-.518.666-.962 1.406-1.406 2.147-.444.74-.74 1.554-1.11 2.369-.148.37-.296.814-.444 1.184l-.148.592-.148.518 5.107-22.872 10.363-46.78 20.725-93.56z" fill="#2b2b2b"/><path d="m168.838 594.903-73.205-55.44c-3.849-2.887-4.663-8.364-1.85-12.213l6.81-9.4 45.892 35.529 28.497 35.233c3.33 3.996-1.925 9.474-6.144 6.291z" fill="#7ebddb"/><path d="M270.91 188.389c-7.994 21.392 2.147 51.073 26.425 50.629 18.727-.296 20.059.444 27.905.296 24.944-.444 41.747-26.129 34.197-49.889z" fill="#2b2b2b"/><path d="M359.437 189.426s-1.999-5.403-1.924-12.509c0-7.18 17.469-17.987 17.098-39.748-.296-16.728-18.135-41.451-47.298-41.155l-23.464.962c-25.611.222-45.966 22.502-47.076 40.266h-.074c0 .518 0 1.036.074 1.48v.444c1.406 29.608 21.984 28.349 14.212 49.297z" fill="url(#c)"/><path d="M335.973 138.204h-5.995l-32.569-34.197 38.564 3.109z" fill="#fff"/><path d="M357.513 178.101h-.222c-.666-.148-1.11-.814-.962-1.48.666-3.331 2.813-6.292 5.477-9.919 1.85-2.517 3.923-5.329 5.922-8.882.296-.592 1.11-.814 1.702-.444.592.296.814 1.11.444 1.702-2.073 3.701-4.219 6.588-6.07 9.178-2.517 3.405-4.441 6.144-5.107 9.03-.074.37-.592.815-1.184.815zm-60.104-74.094-15.026-1.628s6.81-5.255 25.759-6.588z" fill="#2b2b2b"/><path d="m322.576 116.295-25.167-12.361 8.808-57.883 32.568 3.405-3.035 59.141c-.443 6.513-7.327 10.584-13.174 7.698z" fill="#fdc068"/><path d="m345.448 81.58-20.503.37c-10.585.222-19.393-8.216-19.615-18.875l-.592-30.94c-.296-16.95 13.175-31.014 30.126-31.31 16.95-.296 31.014 13.175 31.31 30.126l.518 28.349c.369 12.065-9.179 22.057-21.244 22.28z" fill="#fdc068"/><path d="M366.395 43.312c-1.554-.37-2.739-1.702-2.739-3.405a3.421 3.421 0 0 1 2.591-3.331z" fill="#2b2b2b"/><path d="M363.879 57.375s-6.44 13.546-12.361-.592z" fill="#fff"/><path d="m337.084 81.654-14.212-1.407 13.471 15.544z" fill="#2b2b2b"/><circle cx="347.15" cy="40.425" fill="#2b2b2b" r="3.479"/><path d="M370.836 51.824c-6.588 0-11.991-5.329-11.991-11.991s5.329-11.991 11.991-11.991 11.991 5.329 11.991 11.991-5.403 11.991-11.991 11.991zm0-21.466c-5.255 0-9.474 4.293-9.474 9.474s4.293 9.474 9.474 9.474 9.474-4.293 9.474-9.474-4.218-9.474-9.474-9.474z" fill="#2b2b2b"/><path d="m357.513 39.389 4.441 5.107c.888 1.036.74 2.591-.296 3.405l-2.813 1.776" fill="#fdc068"/><path d="M358.845 50.936c-.37 0-.814-.222-1.036-.592-.37-.592-.222-1.332.37-1.702l2.739-1.702c.222-.148.37-.444.37-.74s-.074-.666-.296-.888l-4.441-5.107c-.444-.518-.37-1.258.148-1.702s1.258-.37 1.702.148l4.441 5.107c.666.74.962 1.776.888 2.739-.074.962-.592 1.85-1.332 2.443l-.074.074-2.813 1.776c-.222.072-.444.146-.666.146z" fill="#2b2b2b"/><path d="M345.966 52.342c-6.588 0-11.991-5.329-11.991-11.991s5.329-11.991 11.991-11.991 11.991 5.329 11.991 11.991-5.403 11.991-11.991 11.991zm0-21.466c-5.255 0-9.474 4.293-9.474 9.474s4.293 9.474 9.474 9.474 9.474-4.293 9.474-9.474-4.219-9.474-9.474-9.474z" fill="#2b2b2b"/><path d="m360.104 40.721-3.553-.148c-.666 0-1.184-.592-1.184-1.258s.592-1.184 1.258-1.184l3.479.148c.666 0 1.184.592 1.184 1.258s-.518 1.184-1.184 1.184zm5.625-23.612c-13.472 6.958-30.866 6.07-39.896 1.776l-1.554 22.502h-7.624l-11.473 11.251-.148-21.836c-.148-17.246 13.99-31.236 31.31-30.792l25.685.666c1.406 0 2.813.444 3.997 1.11 5.995 3.258 5.921 12.066-.297 15.323z" fill="#2b2b2b"/><path d="m313.62 50.639 7.032.222.444-13.249c.074-3.109-2.295-5.699-5.403-5.774l-1.406-.074c-3.109-.074-5.699 2.295-5.773 5.403l-.222 7.624c-.224 3.184 2.219 5.774 5.328 5.848z" fill="#fdc068"/><path d="M609.919 435.54c-202.739-48.853-407.18 48.853-609.919 0V177.879c202.739 48.853 407.18-48.853 609.919 0z" fill="url(#d)"/><path d="M575.87 268.404v61.14c-35.899-6.292-65.655 23.538-65.655 58.697v.888c-137.824-5.107-272.761 33.605-410.511 28.423v-.888c0-36.862-30.57-66.543-65.655-72.687v-61.14c35.899 6.292 65.655-23.538 65.655-58.697 137.75 5.107 272.687-33.605 410.511-28.497 0 37.01 30.57 66.692 65.655 72.761z" fill="url(#e)"/><path d="M577.128 200.528c-.296 1.85-.518 2.813-.814 4.663-.074.222-.222.444-.37.592s-.37.148-.666.148h-.074c-1.48-.444-3.109-.814-4.959-1.184s-3.553-.74-5.181-.962c-.592-.074-1.184-.148-1.702-.148s-.962.074-1.332.296c-.37.148-.666.444-.888.814s-.296.888-.296 1.628c0 .518.148.962.518 1.48.37.444 1.036 1.036 1.999 1.776 2.221 1.628 3.331 2.517 5.551 4.145 1.924 1.406 3.257 2.887 3.997 4.441s1.11 3.035 1.11 4.441c0 1.702-.222 3.183-.74 4.441s-1.258 2.369-2.221 3.183c-.962.888-2.147 1.48-3.479 1.924s-2.813.592-4.441.518c-.296 1.776-.518 2.665-.814 4.441-.074.222-.222.444-.444.592s-.444.222-.666.222c-2.147-.296-3.183-.444-5.329-.74-.518-.074-.814-.37-.814-.962v-.148c.296-1.702.444-2.517.74-4.219-1.184-.222-2.295-.444-3.257-.74s-1.924-.592-2.739-.888c-.518-.148-.74-.444-.74-.888v-.148c.296-1.85.518-2.813.814-4.663.074-.222.222-.444.37-.592.222-.148.444-.222.666-.148h.074c.518.148 1.11.296 1.924.444s1.628.296 2.517.518c.888.148 1.702.37 2.517.444.814.148 1.554.222 2.073.37.74.074 1.406.148 2.073.148.592 0 1.184-.148 1.628-.37s.74-.592 1.036-1.036c.222-.444.37-1.11.37-1.999 0-.518-.148-1.036-.518-1.554s-.962-1.11-1.924-1.924l-5.922-4.811c-1.628-1.332-2.813-2.665-3.479-4.145-.666-1.406-.962-2.813-.962-4.071 0-1.628.222-2.961.74-4.145s1.184-2.147 1.999-2.887c.814-.74 1.924-1.332 3.109-1.702 1.184-.37 2.517-.518 3.997-.518l.74-4.071c.074-.222.222-.444.444-.592s.444-.222.74-.148c2.147.296 3.183.444 5.329.814.518.074.74.37.74.888v.222c-.296 1.554-.444 2.369-.74 3.923 1.406.296 2.739.666 3.997 1.036s2.221.74 2.887.962c.222.074.37.222.518.37.146.149.22.297.294.519 0-.074 0-.074 0 0zm0 168.024c-.296 1.85-.518 2.813-.814 4.663-.074.222-.222.444-.37.592s-.37.148-.666.148h-.074c-1.48-.444-3.109-.814-4.959-1.184s-3.553-.74-5.181-.962c-.592-.074-1.184-.148-1.702-.148s-.962.074-1.332.296c-.37.148-.666.444-.888.814s-.296.888-.296 1.628c0 .518.148.962.518 1.48.37.444 1.036 1.036 1.999 1.776 2.221 1.628 3.331 2.517 5.551 4.145 1.924 1.406 3.257 2.887 3.997 4.441s1.11 3.035 1.11 4.441c0 1.702-.222 3.183-.74 4.441s-1.258 2.369-2.221 3.183c-.962.888-2.147 1.48-3.479 1.924s-2.813.592-4.441.518c-.296 1.776-.518 2.665-.814 4.441-.074.222-.222.444-.444.592s-.444.222-.666.222c-2.147-.296-3.183-.444-5.329-.74-.518-.074-.814-.37-.814-.962v-.148c.296-1.702.444-2.517.74-4.219-1.184-.222-2.295-.444-3.257-.74s-1.924-.592-2.739-.888c-.518-.148-.74-.444-.74-.888v-.148c.296-1.85.518-2.813.814-4.663.074-.222.222-.444.37-.592.222-.148.444-.222.666-.148h.074c.518.148 1.11.296 1.924.444s1.628.296 2.517.518c.888.148 1.702.37 2.517.444.814.148 1.554.222 2.073.37.74.074 1.406.148 2.073.148.592 0 1.184-.148 1.628-.37s.74-.592 1.036-1.036c.222-.444.37-1.11.37-1.999 0-.518-.148-1.036-.518-1.554s-.962-1.11-1.924-1.924l-5.922-4.811c-1.628-1.332-2.813-2.665-3.479-4.145-.666-1.406-.962-2.813-.962-4.071 0-1.628.222-2.961.74-4.145s1.184-2.147 1.999-2.887a9.049 9.049 0 0 1 3.109-1.702c1.184-.37 2.517-.518 3.997-.518l.74-4.071c.074-.222.222-.444.444-.592s.444-.222.74-.148c2.147.296 3.183.444 5.329.814.518.074.74.37.74.888v.222c-.296 1.554-.444 2.369-.74 3.923 1.406.296 2.739.666 3.997 1.036s2.221.74 2.887.962c.222.074.37.222.518.37.146.149.22.297.294.519 0-.074 0-.074 0 0z" fill="#7f9f8e"/><path d="M61.954 218.811c-.296 1.85-.518 2.813-.814 4.663-.074.222-.222.444-.37.592s-.37.222-.666.148h-.074c-1.48-.37-3.109-.666-4.959-.962s-3.553-.592-5.181-.814c-.592-.074-1.184-.148-1.702-.148s-.962.074-1.332.296c-.37.148-.666.444-.888.814s-.296.888-.296 1.628c0 .518.148 1.036.518 1.48s1.036 1.036 1.999 1.776l5.551 4.071c1.925 1.406 3.257 2.813 3.997 4.293s1.11 2.961 1.11 4.441c0 1.702-.222 3.183-.74 4.441a8.497 8.497 0 0 1-2.221 3.257c-.962.888-2.147 1.554-3.479 1.999s-2.813.666-4.441.592c-.296 1.776-.518 2.665-.814 4.441-.074.222-.222.444-.444.592s-.444.222-.666.222a132.164 132.164 0 0 1-5.329-.814c-.518-.074-.814-.37-.814-.962v-.148c.296-1.702.444-2.517.74-4.145-1.184-.222-2.295-.518-3.257-.888a23.516 23.516 0 0 1-2.739-1.036c-.518-.148-.74-.518-.74-.962v-.148c.296-1.85.518-2.739.814-4.589.074-.222.222-.444.37-.592.222-.148.444-.222.666-.148h.074c.518.148 1.11.296 1.925.518.814.222 1.628.37 2.517.592s1.702.37 2.517.518c.814.148 1.554.296 2.073.37.74.074 1.406.148 2.073.148.592 0 1.184-.148 1.628-.37s.74-.592 1.036-1.036c.222-.444.37-1.11.37-1.999 0-.518-.148-1.036-.518-1.554s-.962-1.11-1.925-1.925a344.131 344.131 0 0 1-5.922-4.885c-1.628-1.332-2.813-2.739-3.479-4.219s-.962-2.813-.962-4.145c0-1.628.222-2.961.74-4.145.518-1.11 1.184-2.073 1.999-2.813.888-.74 1.925-1.258 3.109-1.628s2.517-.518 3.997-.518l.74-4.071c.074-.222.222-.444.444-.592s.444-.222.74-.222c2.147.296 3.183.444 5.329.74.518.074.74.37.74.888v.222c-.296 1.554-.444 2.369-.74 3.923 1.406.296 2.739.592 3.997.888s2.221.592 2.887.814c.222.074.37.222.518.37s.222.296.222.518c.072.075.072.149.072.223zm0 168.024c-.296 1.85-.518 2.813-.814 4.663-.074.222-.222.444-.37.592s-.37.222-.666.148h-.074c-1.48-.37-3.109-.666-4.959-.962s-3.553-.592-5.181-.814c-.592-.074-1.184-.148-1.702-.148s-.962.074-1.332.296c-.37.148-.666.444-.888.814s-.296.888-.296 1.628c0 .518.148 1.036.518 1.48s1.036 1.036 1.999 1.776l5.551 4.071c1.925 1.406 3.257 2.813 3.997 4.293s1.11 2.961 1.11 4.441c0 1.702-.222 3.183-.74 4.441-.518 1.332-1.258 2.369-2.221 3.257s-2.147 1.554-3.479 1.999c-1.332.444-2.813.666-4.441.592-.296 1.776-.518 2.665-.814 4.441-.074.222-.222.444-.444.592s-.444.222-.666.222a132.164 132.164 0 0 1-5.329-.814c-.518-.074-.814-.37-.814-.962v-.148c.296-1.702.444-2.517.74-4.145-1.184-.222-2.295-.518-3.257-.888a23.516 23.516 0 0 1-2.739-1.036c-.518-.148-.74-.518-.74-.962v-.148c.296-1.85.518-2.739.814-4.589.074-.222.222-.444.37-.592.222-.148.444-.222.666-.148h.074c.518.148 1.11.296 1.925.518.814.222 1.628.37 2.517.592s1.702.37 2.517.518c.814.148 1.554.296 2.073.37.74.074 1.406.148 2.073.148.592 0 1.184-.148 1.628-.37s.74-.592 1.036-1.036c.222-.444.37-1.11.37-1.999 0-.518-.148-1.036-.518-1.554s-.962-1.11-1.925-1.924a344.131 344.131 0 0 1-5.922-4.885c-1.628-1.332-2.813-2.739-3.479-4.219s-.962-2.813-.962-4.145c0-1.628.222-2.961.74-4.145.518-1.11 1.184-2.073 1.999-2.813.888-.74 1.925-1.258 3.109-1.628s2.517-.518 3.997-.518l.74-4.071c.074-.222.222-.444.444-.592s.444-.222.74-.222c2.147.296 3.183.444 5.329.74.518.074.74.37.74.888v.222c-.296 1.554-.444 2.369-.74 3.923 1.406.296 2.739.592 3.997.888s2.221.592 2.887.814c.222.074.37.222.518.37s.222.296.222.518c.072.074.072.148.072.222z" fill="#fae6b3"/><path d="M384.752 297.272c-.074 43.745-36.936 83.198-79.793 89.193-43.079 6.07-79.867-27.979-79.793-70.318.074-43.301 36.121-84.086 79.793-89.193 42.339-4.96 79.867 27.386 79.793 70.318z" fill="#729acf"/><g fill="#f7e5b5"><path d="M347.446 385.206c-.518 0-.962-.222-1.258-.666-.444-.666-.222-1.628.444-2.073 30.496-19.393 49.519-52.48 49.519-86.454 0-35.085-21.095-65.951-52.554-76.832-.74-.296-1.184-1.11-.888-1.85s1.11-1.184 1.85-.888c32.568 11.325 54.478 43.301 54.478 79.645 0 34.937-19.467 69.06-50.851 88.971-.222.073-.444.147-.74.147z"/><path d="M385.936 343.682c-.444 0-.888-.222-1.184-.518-1.184-1.48.444-3.035 3.257-5.403 2.739-2.369 7.106-5.773 11.177-8.66 7.476-5.329 8.142-5.181 9.104-4.145l.074.074c.37.518.518 1.184.222 1.85-1.184 3.109-20.651 16.58-22.428 16.876 0-.074-.074-.074-.222-.074zm-7.179 11.621c-.592-.074-1.036-.37-1.258-.888-.814-1.702 1.406-2.961 3.405-4.071 1.776-.962 4.293-2.221 7.254-3.627 3.849-1.776 8.142-3.627 11.621-4.959 5.922-2.295 7.18-2.443 7.846-.962.148.296.37 1.036-.222 1.924-2.222 3.034-26.352 12.583-28.646 12.583zm-7.18 10.288c-.592 0-1.036 0-1.184-.074-.444-.222-.814-.592-.962-1.11-.074-.296-.148-1.11.666-1.776 1.999-1.702 12.731-3.775 18.949-4.811 3.849-.666 16.654-2.739 19.023-1.924.888.296 1.11 1.036 1.184 1.332s.148 1.184-.814 1.924c-3.332 2.738-30.497 6.439-36.862 6.439zm19.097 12.954h-1.554c-5.699-.074-12.953-.444-19.541-.962a150.622 150.622 0 0 1-7.18-.74c-2.517-.37-4.071-.592-4.071-2.147 0-.37.148-1.11 1.036-1.702 4.145-2.369 39.896-1.924 43.967.518.888.518 1.036 1.258 1.036 1.702-.074 1.776-1.184 3.331-13.693 3.331zm-21.17-3.923c9.03.74 22.206 1.258 28.571.74-6.439-.814-19.689-1.11-28.571-.74z"/></g><path d="M262.546 395.791c-.148 0-.37 0-.518-.074-15.396-6.144-28.349-16.95-37.528-31.31-8.882-13.99-13.62-30.2-13.62-47.002 0-18.061 5.255-36.269 15.174-52.554 9.622-15.84 23.168-29.09 39.082-38.49a1.436 1.436 0 0 1 1.999.518c.444.74.148 1.628-.518 1.999-32.05 18.875-52.776 53.59-52.776 88.527 0 16.21 4.515 31.976 13.175 45.448 8.808 13.842 21.318 24.278 36.121 30.2.74.296 1.11 1.184.814 1.924-.294.444-.813.814-1.405.814z" fill="#86a092"/><path d="M223.76 362.853c-2.591 0-20.503-9.252-22.354-12.657-.518-.962-.222-1.776 0-2.073 0 0 0-.074.074-.074.888-1.258 2.221-1.11 8.29 1.924 3.627 1.85 7.698 4.145 10.659 6.144 3.997 2.591 5.848 4.219 4.811 5.922-.147.296-.592.814-1.48.814zm6.958 10.14c-4.441 0-25.018-4.071-27.831-7.18-.814-.888-.592-1.702-.518-1.999.518-1.48 1.924-1.776 9.4-.296 4.367.888 9.548 2.221 13.546 3.479 6.07 1.924 7.772 3.035 7.254 4.811-.074.296-.37.888-1.258 1.11-.075.075-.297.075-.593.075zm-16.802-5.995c1.036.296 2.147.518 3.405.814-1.111-.296-2.221-.518-3.405-.814zm-2.665 16.284c-8.068 0-9.178-.814-9.622-1.184a2.005 2.005 0 0 1-.814-1.85c.148-1.258.222-1.999 14.73-2.665 6.514-.296 15.248-.444 20.281 0 2.073.148 4.959.444 4.811 2.517 0 .518-.37 1.036-.814 1.258-1.184.592-13.768 1.406-18.209 1.628-4.368.222-7.772.296-10.363.296zm-2.369 16.21c-1.258 0-1.702-.222-1.999-.296-.74-.296-1.11-.888-1.184-1.628-.148-1.332-.222-2.073 16.21-6.144 7.476-1.85 17.617-4.071 23.612-4.885 3.331-.444 5.922-.592 6.218 1.406.074.518-.148 1.11-.592 1.406-1.036.814-15.248 4.663-20.799 5.996-13.472 3.405-19.023 4.145-21.466 4.145z" fill="#86a092"/><path d="M276.092 340.721c-.37 0-.74-.148-.962-.37-.296-.296-.518-.666-.518-1.11v-57.809c0-.592.37-1.184.962-1.406s1.258-.074 1.628.444c2.517 2.961 5.033 5.922 7.624 8.882 2.073 2.443 4.219 4.885 6.292 7.328a973.757 973.757 0 0 0 5.773-9.03c2.295-3.553 4.589-7.18 6.884-10.733.296-.37.666-.666 1.184-.666.444 0 .962.222 1.258.592 2.295 2.961 4.663 5.922 7.032 8.882l5.773 7.328c4.589-6.662 9.178-13.249 13.694-19.837a1.557 1.557 0 0 1 1.628-.592c.592.222 1.036.74 1.036 1.406.074 19.245.074 38.86.074 57.809 0 .74-.592 1.406-1.332 1.48-9.622 1.184-19.467 2.443-28.941 3.627s-19.245 2.443-28.868 3.627c-.073.148-.147.148-.221.148zm1.48-55.292v52.11c9.104-1.11 18.283-2.295 27.165-3.405a2566.44 2566.44 0 0 1 27.683-3.479c0-17.024 0-34.493-.074-51.739-3.997 5.848-8.068 11.695-12.139 17.543-.296.37-.666.592-1.184.666-.444 0-.888-.222-1.184-.592-2.295-2.961-4.663-5.922-7.032-8.882a621.722 621.722 0 0 0-5.773-7.254 606.887 606.887 0 0 0-5.699 8.956c-2.295 3.553-4.589 7.18-6.884 10.733-.222.37-.666.666-1.11.666s-.888-.148-1.258-.518l-7.55-8.882c-1.63-2-3.332-3.925-4.961-5.923zm265.803-.519h-.148c-28.053-2.739-56.995-3.627-88.601-2.665-.814 0-1.48-.592-1.554-1.406 0-.814.592-1.48 1.406-1.554 31.754-.962 60.844-.074 89.045 2.665.814.074 1.406.814 1.332 1.628-.073.74-.74 1.332-1.48 1.332zm-20.651 19.615h-.074c-14.73-.888-30.274-1.332-47.52-1.332-.814 0-1.48-.666-1.48-1.48s.666-1.48 1.48-1.48c17.321 0 32.865.444 47.668 1.332.814.074 1.406.74 1.406 1.554-.074.814-.666 1.406-1.48 1.406z" fill="#f7e5b5"/><path d="M131.31 311.409c-22.576 0-43.967-1.036-64.841-3.035-.814-.074-1.406-.814-1.332-1.628s.814-1.406 1.628-1.332c28.053 2.739 56.995 3.627 88.601 2.665.814 0 1.48.592 1.554 1.406s-.592 1.48-1.406 1.554c-8.29.222-16.284.37-24.204.37zm3.553 21.54c-17.32 0-32.865-.444-47.668-1.332a1.537 1.537 0 0 1-1.406-1.554c.074-.814.74-1.48 1.554-1.406 14.73.888 30.274 1.332 47.52 1.332.814 0 1.48.666 1.48 1.48s-.666 1.48-1.48 1.48z" fill="#9fa5cd"/><path d="m289.563 179.729-64.323 53.664s-34.567 74.315-38.268 82.235c-3.775 7.92-15.766 17.172-31.458 10.289l46.706-104.663 42.117-36.417z" fill="#2b2b2b"/><path d="m186.899 296.235-7.846 17.469c-4.663 10.363-16.802 15.026-27.165 10.363-9.4-4.219-14.138-14.656-11.399-24.278l6.144-21.91z" fill="#fdc068"/><path d="m146.632 277.879 22.724-81.421c1.332-4.737 4.071-8.734 7.698-11.547l1.48-1.184 87.343-68.838c12.361-9.771 30.274-7.624 40.044 4.737 9.771 12.361 7.624 30.274-4.737 40.044l-87.343 68.838 9.178-12.731-36.047 80.459z" fill="url(#f)"/><path d="M272.539 184.318c-.37 0-.74-.148-.962-.444-.444-.518-.37-1.332.222-1.702l17.024-13.546c.518-.444 1.332-.37 1.702.222.444.518.37 1.332-.222 1.702l-17.024 13.546c-.222.074-.444.222-.74.222z" fill="#2b2b2b"/><path d="m150.481 263.889 42.561 18.653-6.143 13.693-40.267-18.356z" fill="#fff"/></svg></g><g transform="translate(208.125 2133.75) rotate(0.0 812.8125 6.5625) translate(0.0 3.75) scale(5.449010169809676 4.324546952224052)"><svg width="298.334" height="2.168" viewBox="0 0.867 298.334 2.168"><path d="M0 0h298.334v3.035H0z" fill="#2b2b2b"/></svg></g><g transform="translate(1708.125 1368.75) rotate(0.0 579.375 390.0) scale(2.9337671215535357 2.9368575624082234)"><svg width="394.97" height="265.59" viewBox="0 0 394.97 265.59"><path d="M126.33 265.59c-20.89 0-41.88-.1-62.74-.21-20.69-.1-40.23-.21-59.59-.19a4 4 0 0 1 0-8c19.38 0 38.93.09 59.63.19 103.36.52 210.24 1.06 290.2-11.34 27.34-4.24 31.93-12.25 33-17.9 1.33-7-8.89-13.72-10.95-15-15-9.29-57.77-16.8-123.56-21.73-22.68-1.7-45.87-1.91-68.31-2.1-16-.14-32.5-.29-48.76-1-15.11-.63-32.61-1.77-49-7.26-8-2.66-11.52-7-10.6-12.92a12.2 12.2 0 0 1 5.24-8c15.57-10.75 35.21-14.24 52.39-16.66 61.38-8.66 122.4-9.2 174-8.59l5 .09c11.48.22 23.36.45 33.4-3.51a2.89 2.89 0 0 0 2.14-2.7 3.88 3.88 0 0 0-2.53-3.41c-35.69-15.79-76.46-17.07-115.89-18.31-10.15-.32-20.64-.65-30.89-1.22-13.37-.75-28.75-2.09-42-8.57-7.78-3.79-8.25-8.72-7.27-12.2a11.26 11.26 0 0 1 6.61-7.17c20.07-8.55 42.15-10.63 63.45-12.64 16.21-1.53 33-3.11 48.53-7.56 12-3.44 10.94-8.06 10.6-9.57a8.28 8.28 0 0 0-2.69-4.3c-2.79-2.52-10.62-4.41-18.19-6.24-13.51-3.26-27.48-6.63-30.39-16.36-1.74-5.78.89-12.3 8-19.94A4 4 0 0 1 241 6.73c-4.82 5.15-7 9.48-6.21 12.19 1.6 5.32 14.35 8.4 24.6 10.88 9.33 2.25 17.38 4.19 21.67 8.06a16.28 16.28 0 0 1 5.15 8.49c1.13 5 .53 14.22-16.21 19-16.26 4.66-33.4 6.27-50 7.83-21.68 2-42.15 4-61.15 12.07a3.39 3.39 0 0 0-2 2c-.1.35-.33 1.17 3.07 2.83 12 5.83 26.39 7.06 39 7.77 10.15.57 20.59.89 30.7 1.21 40.19 1.27 81.75 2.58 118.87 19a11.82 11.82 0 0 1 7.29 10.85 10.81 10.81 0 0 1-7.2 10c-11.53 4.55-24.22 4.31-36.5 4.07l-4.94-.09c-51.29-.61-111.94-.08-172.78 8.51-17 2.4-34.83 5.56-49 15.32a4.13 4.13 0 0 0-1.88 2.66c-.11.67-.35 2.24 5.23 4.1 15.43 5.16 32.27 6.25 46.84 6.86 16.13.67 32.58.82 48.49 1 22.57.2 45.9.4 68.83 2.12 68 5.1 110.82 12.8 127.18 22.9 5.12 3.17 16.79 11.77 14.6 23.29-2.47 13-14.69 20.45-39.65 24.32-64.33 9.96-145.69 11.62-228.67 11.62z" fill="#F9D5FF"/></svg></g><g transform="translate(2008.125 753.75) rotate(0.0 406.875 311.25) scale(2.010256942334344 2.0065692983615437)"><svg width="404.799" height="310.231" viewBox="1148.928 -285.107 404.799 310.231"><path d="m1550.225-211.083-198.898-57.161-198.898 57.161h397.796z" fill="#fff"/><path d="M1550.228-207.583h-397.799a3.5 3.5 0 0 1-.967-6.864l198.898-57.161a3.493 3.493 0 0 1 1.934 0l198.793 57.131a3.501 3.501 0 0 1-.859 6.894zm-372.949-7h348.096l-174.048-50.02z" fill="#2b2b2b"/><path d="M1253.476-210.287h232.523v19.469h-232.523z" fill="#fff"/><path d="M1485.999-187.116h-232.523a3.665 3.665 0 0 1-3.7-3.63v-19.542a3.666 3.666 0 0 1 3.632-3.7h232.591a3.665 3.665 0 0 1 3.7 3.63v19.54a3.665 3.665 0 0 1-3.628 3.702h-.072zm-228.822-7.4h225.12v-12.072h-225.12z" fill="#2b2b2b"/><path d="M1179.743-190.817h342.869V21.422h-342.869z" fill="#fff"/><path d="M1522.612 25.124h-342.87a3.666 3.666 0 0 1-3.7-3.632v-212.309a3.666 3.666 0 0 1 3.632-3.7h342.938a3.665 3.665 0 0 1 3.7 3.63V21.422a3.665 3.665 0 0 1-3.628 3.702h-.072zm-339.17-7.403h335.469v-204.837h-335.469z" fill="#2b2b2b"/><path d="M1411.6 21.422h-120.592v-137.1c.005-33.319 27.015-60.328 60.334-60.333 33.318.006 60.327 27.015 60.332 60.333v137.1z" fill="#2b2b2b"/><path d="M1415.376 25.124h-128.069v-140.802c-.14-35.365 28.415-64.148 63.781-64.288 35.365-.14 64.148 28.415 64.288 63.781v.508zm-120.667-7.4h113.264v-133.402c0-31.277-25.355-56.632-56.632-56.632s-56.632 25.355-56.632 56.632z" fill="#2b2b2b"/><path d="M1198.991-175.789h35.238V-7.374h-35.238z" fill="#fff"/><path d="M1234.228-3.673h-35.237a3.666 3.666 0 0 1-3.7-3.632v-168.483a3.666 3.666 0 0 1 3.632-3.7h35.305a3.666 3.666 0 0 1 3.7 3.632V-7.375a3.666 3.666 0 0 1-3.63 3.702h-.07zm-31.536-7.4h27.835v-161.015h-27.835z" fill="#2b2b2b"/><path d="M1179.743-210.287h73.732v19.469h-73.732z" fill="#fff"/><path d="M1253.476-187.116h-73.734a3.665 3.665 0 0 1-3.7-3.63v-19.542a3.666 3.666 0 0 1 3.632-3.7h73.802a3.666 3.666 0 0 1 3.7 3.632v19.538a3.665 3.665 0 0 1-3.628 3.702h-.072zm-70.034-7.403h66.332v-12.069h-66.332z" fill="#2b2b2b"/><path d="M1191.958-190.817h49.377v19.469h-49.377z" fill="#fff"/><path d="M1241.335-167.646h-49.377a3.665 3.665 0 0 1-3.7-3.63v-19.541a3.665 3.665 0 0 1 3.63-3.7h49.447a3.665 3.665 0 0 1 3.7 3.63v19.539a3.665 3.665 0 0 1-3.628 3.702h-.072zm-45.675-7.4h41.974v-12.07h-41.974z" fill="#2b2b2b"/><path d="M1179.743 1.953h73.732v19.469h-73.732z" fill="#fff"/><path d="M1253.476 25.124h-73.734a3.666 3.666 0 0 1-3.7-3.632V1.953a3.666 3.666 0 0 1 3.632-3.7h73.802a3.666 3.666 0 0 1 3.7 3.632v19.537a3.666 3.666 0 0 1-3.63 3.702h-.07zm-70.034-7.403h66.332V5.654h-66.332z" fill="#2b2b2b"/><path d="M1191.958-17.517h49.377V1.952h-49.377z" fill="#fff"/><path d="M1241.335 5.654h-49.377a3.665 3.665 0 0 1-3.7-3.63v-19.54a3.665 3.665 0 0 1 3.63-3.7h49.447a3.665 3.665 0 0 1 3.7 3.63v19.54a3.665 3.665 0 0 1-3.63 3.7h-.07zm-45.675-7.4h41.974v-12.069h-41.974zm17.248-153.76h7.403v124.812h-7.403z" fill="#2b2b2b"/><path d="M1468.454-175.789h35.238V-7.374h-35.238z" fill="#fff"/><path d="M1503.692-3.673h-35.238a3.665 3.665 0 0 1-3.7-3.63v-168.485a3.665 3.665 0 0 1 3.63-3.7h35.308a3.666 3.666 0 0 1 3.7 3.632V-7.375a3.666 3.666 0 0 1-3.63 3.702h-.07zm-31.536-7.4h27.834v-161.015h-27.834z" fill="#2b2b2b"/><path d="M1449.207-210.287h73.732v19.469h-73.732z" fill="#fff"/><path d="M1522.942-187.116h-73.735a3.665 3.665 0 0 1-3.7-3.63v-19.542a3.666 3.666 0 0 1 3.632-3.7h73.803a3.665 3.665 0 0 1 3.7 3.63v19.54a3.665 3.665 0 0 1-3.628 3.702h-.072zm-70.031-7.4h66.331v-12.072h-66.33z" fill="#2b2b2b"/><path d="M1461.347-190.817h49.377v19.469h-49.377z" fill="#fff"/><path d="M1510.724-167.646h-49.377a3.666 3.666 0 0 1-3.7-3.632v-19.539a3.666 3.666 0 0 1 3.632-3.7h49.445a3.666 3.666 0 0 1 3.7 3.632v19.537a3.666 3.666 0 0 1-3.63 3.702h-.07zm-45.675-7.4h41.974v-12.07h-41.974z" fill="#2b2b2b"/><path d="M1449.207 1.953h73.732v19.469h-73.732z" fill="#fff"/><path d="M1522.942 25.124h-73.735a3.666 3.666 0 0 1-3.7-3.632V1.953a3.666 3.666 0 0 1 3.632-3.7h73.803a3.665 3.665 0 0 1 3.7 3.63v19.539a3.665 3.665 0 0 1-3.628 3.702h-.072zm-70.031-7.4h66.331V5.654h-66.33z" fill="#2b2b2b"/><path d="M1461.347-17.517h49.377V1.952h-49.377z" fill="#fff"/><path d="M1510.724 5.654h-49.377a3.665 3.665 0 0 1-3.7-3.63v-19.54a3.666 3.666 0 0 1 3.632-3.7h49.445a3.666 3.666 0 0 1 3.7 3.632V1.954a3.665 3.665 0 0 1-3.63 3.7h-.07zm-45.675-7.4h41.974v-12.069h-41.974zm17.322-153.76h7.403v124.812h-7.403z" fill="#2b2b2b"/><path d="M1273.611 1.953h155.386v19.469h-155.386z" fill="#fff"/><path d="M1428.997 25.124h-155.386a3.666 3.666 0 0 1-3.7-3.632V1.953a3.666 3.666 0 0 1 3.632-3.7h155.454a3.665 3.665 0 0 1 3.7 3.63v19.539a3.665 3.665 0 0 1-3.628 3.702h-.072zm-151.684-7.4h147.983V5.654h-147.983z" fill="#2b2b2b"/><path d="M1291.008-17.517H1411.6V1.952h-120.592z" fill="#fff"/><g fill="#2b2b2b"><path d="M1411.6 5.654h-120.592a3.665 3.665 0 0 1-3.7-3.63v-19.54a3.665 3.665 0 0 1 3.63-3.7H1411.6a3.666 3.666 0 0 1 3.7 3.632V1.954a3.665 3.665 0 0 1-3.63 3.7h-.07zm-116.891-7.4h113.19v-12.069h-113.19zm139.47-46.937h11.104v7.403h-11.104zm-178.482-60.481h7.403v11.104h-7.403zm231.336-129.942a3.5 3.5 0 0 1-.969-.137l-134.737-38.722-134.738 38.722a3.5 3.5 0 0 1-1.934-6.728l135.705-39a3.493 3.493 0 0 1 1.934 0l135.704 39a3.5 3.5 0 0 1-.965 6.865z"/><path d="M1363.984-240.048v8.438c0 .657-.246 1.228-.739 1.71a2.422 2.422 0 0 1-1.754.725h-7.423v5.944c0 .677-.242 1.252-.726 1.725a2.361 2.361 0 0 1-1.71.71c-.696 0-1.286-.236-1.769-.71a2.325 2.325 0 0 1-.726-1.725v-6.002h-7.364a2.36 2.36 0 0 1-1.711-.71 2.324 2.324 0 0 1-.725-1.725c0-.676.236-1.251.71-1.725s1.049-.71 1.726-.71h17.223v-3.508h-17.165c-.677 0-1.252-.232-1.726-.696s-.71-1.043-.71-1.739v-8.409c0-.677.236-1.251.71-1.726a2.352 2.352 0 0 1 1.726-.71h7.307v-5.944c0-.657.228-1.227.682-1.71s1.067-.725 1.841-.725c.657 0 1.223.237 1.696.71.474.474.711 1.049.711 1.725v5.944h7.48a2.42 2.42 0 0 1 1.754.725c.493.483.739 1.054.739 1.711 0 .677-.246 1.261-.739 1.754-.492.493-1.077.74-1.754.74h-17.223v3.479h17.165c.676 0 1.261.242 1.754.725.494.481.74 1.052.74 1.709z"/></g></svg></g></svg>