<svg xmlns="http://www.w3.org/2000/svg" viewBox="0 0 1200 1200" width="1200" height="1200"><g transform="translate(280.0 367.0) rotate(0.0 305.5 380.5) scale(1.1815667846299627 1.182970203452221)"><svg width="517.11" height="643.296" viewBox="0 0 517.11 643.296"><path d="m491.765 609.448-298.661 33.667c-13.869 1.563-26.833-7.137-30.641-20.564L1.097 53.65C-3.88 36.104 8.66 18.458 26.867 17.387L321.595.05c13.207-.777 25.215 7.628 29.007 20.303l165.299 552.571c5.096 17.035-6.466 34.532-24.136 36.524z" fill="#1d0333"/><path d="m485.431 592.529-291.144 34.523c-9.293 1.102-18.003-4.732-20.522-13.745L16.939 52.164c-2.472-8.847 3.792-17.736 12.955-18.383l92.485-6.528.001.001a20.005 20.005 0 0 0 20.18 13.265l88.344-5.89c6.847-.456 11.494-7.157 9.522-13.73l-.039-.13 79.708-4.368a18.986 18.986 0 0 1 19.235 13.537L500.25 569.99c3.123 10.483-3.956 21.251-14.819 22.539z" fill="#fff"/><g fill="#1d0333"><path d="M191.993 628.188c-8.888 0-16.741-5.846-19.191-14.612L15.976 52.433c-1.26-4.507-.436-9.286 2.26-13.111s6.919-6.208 11.588-6.538l92.485-6.528a.997.997 0 0 1 1.013.663c2.836 7.983 10.721 13.17 19.172 12.602l88.344-5.89c2.958-.197 5.624-1.707 7.313-4.143s2.169-5.462 1.317-8.301l-.039-.132a.999.999 0 0 1 .904-1.284l79.708-4.368c9.287-.512 17.598 5.353 20.249 14.25l160.918 540.051c1.573 5.28.74 10.949-2.287 15.553s-7.901 7.616-13.372 8.265l-291.144 34.523c-.81.096-1.615.143-2.412.143zM121.707 28.304l-91.742 6.475a13.464 13.464 0 0 0-10.094 5.695 13.463 13.463 0 0 0-1.969 11.421l156.826 561.143c2.403 8.596 10.578 14.073 19.442 13.021l291.144-34.523.118.993-.118-.993a16.593 16.593 0 0 0 11.936-7.377 16.594 16.594 0 0 0 2.042-13.883L338.373 30.224A17.935 17.935 0 0 0 320.15 17.4l-78.495 4.301a11.614 11.614 0 0 1-1.862 8.926 11.623 11.623 0 0 1-8.823 4.999l-88.344 5.89c-9.083.609-17.578-4.796-20.919-13.212z"/><path d="M41.977 141.075a1 1 0 0 1-.063-1.998l324.199-20.749a1 1 0 0 1 .128 1.996L42.042 141.073l-.065.002zm70.027-47.982a.999.999 0 0 1-.041-1.999l92.072-3.89a1.015 1.015 0 0 1 1.041.957 1 1 0 0 1-.957 1.041l-92.072 3.89-.043.001zm72.621 446.098a1 1 0 0 1-.102-1.994l125.789-12.968a1 1 0 1 1 .205 1.989l-125.789 12.968a1.203 1.203 0 0 1-.103.005zm186.866-2.878a1 1 0 0 1-.111-1.994c26.211-2.979 54.394-6.107 82.885-8.795a1 1 0 0 1 .187 1.992c-28.475 2.687-56.646 5.813-82.847 8.792a1.428 1.428 0 0 1-.114.005zm-121.392 13.234a1.001 1.001 0 0 1-.094-1.996c30.706-2.916 61.1-6.342 92.129-9.89a1 1 0 0 1 .227 1.987c-31.039 3.549-61.444 6.976-92.167 9.894a.746.746 0 0 1-.095.005zm-60.287 6.502a1 1 0 0 1-.106-1.994l44.091-4.755a1 1 0 1 1 .215 1.988l-44.091 4.755a1.038 1.038 0 0 1-.109.006zm148.183-.237a1 1 0 0 1-.108-1.994l33.368-3.653a1 1 0 1 1 .218 1.988l-33.368 3.653a1.028 1.028 0 0 1-.11.006zm-41.485 4.542a1 1 0 0 1-.108-1.994l25.251-2.765a1 1 0 1 1 .218 1.988l-25.251 2.765a1 1 0 0 1-.11.006zm-102.808 11.257a1 1 0 0 1-.108-1.994l86.576-9.479a1 1 0 1 1 .218 1.988l-86.576 9.479a1.028 1.028 0 0 1-.11.006z"/><circle cx="74.183" cy="92.186" r="20.319"/><path d="M74.183 113.505c-11.755 0-21.318-9.563-21.318-21.319s9.563-21.319 21.318-21.319 21.318 9.563 21.318 21.319a21.176 21.176 0 0 1-6.244 15.074 21.177 21.177 0 0 1-15.074 6.245zm0-40.638c-10.652 0-19.318 8.666-19.318 19.319s8.666 19.319 19.318 19.319c5.16 0 10.012-2.01 13.66-5.658a19.191 19.191 0 0 0 5.658-13.66c0-10.653-8.666-19.32-19.318-19.32z"/></g><path d="M122.38 27.254a20.005 20.005 0 0 0 20.18 13.265l88.344-5.89c6.847-.456 11.494-7.157 9.522-13.73l-.039-.13" fill="#fff"/><path d="M141.24 41.563c-8.807 0-16.824-5.589-19.803-13.974a1 1 0 1 1 1.884-.669c2.836 7.983 10.721 13.17 19.171 12.602l88.344-5.89c2.958-.197 5.624-1.707 7.313-4.143s2.169-5.462 1.317-8.301l-.039-.132a1 1 0 0 1 1.917-.571l.039.13a11.62 11.62 0 0 1-1.591 10.013 11.623 11.623 0 0 1-8.823 4.999l-88.344 5.89c-.462.03-.925.046-1.385.046zm4.481 470.395a1 1 0 0 1-.102-1.994l326.792-33.717a1 1 0 0 1 .205 1.989l-326.792 33.717a1.184 1.184 0 0 1-.103.005z" fill="#1d0333"/></svg></g><g transform="translate(917.0 793.0) rotate(0.0 109.5 99.5) scale(1.18240963204924 1.1809037771118298)"><svg width="185.215" height="168.515" viewBox="0 0 185.215 168.515"><path d="m120.052 165.159-33.544-22.056-29.063 11.236c-6.217 2.403-12.977-1.93-13.389-8.582l-1.974-31.864L7.454 91.124C.846 86.779-.989 77.9 3.356 71.292L45.33 7.454C49.675.846 58.554-.989 65.162 3.356L177.76 77.391c6.608 4.345 8.443 13.224 4.098 19.832l-41.974 63.837c-4.345 6.609-13.224 8.444-19.832 4.099z" fill="#fff"/><path d="M127.888 168.518c-2.959 0-5.856-.861-8.386-2.524l-33.114-21.773-28.583 11.05a10.748 10.748 0 0 1-9.771-.985c-2.946-1.889-4.76-4.975-4.976-8.467l-1.943-31.365L6.905 91.96C-.153 87.319-2.12 77.801 2.521 70.743L44.495 6.905c4.641-7.059 14.158-9.026 21.217-4.384l112.597 74.035a15.22 15.22 0 0 1 6.587 9.701 15.218 15.218 0 0 1-2.203 11.517l-41.974 63.837a15.218 15.218 0 0 1-9.701 6.586c-1.041.215-2.09.321-3.13.321zm-41.381-26.415c.193 0 .384.056.549.165l33.544 22.056a13.235 13.235 0 0 0 10.013 1.915 13.234 13.234 0 0 0 8.434-5.727l41.974-63.837c4.035-6.137 2.325-14.413-3.812-18.448L64.614 4.192C58.477.158 50.201 1.867 46.166 8.004L4.192 71.841C.157 77.978 1.867 86.253 8.004 90.289l34.628 22.768a1 1 0 0 1 .449.773l1.974 31.864a8.767 8.767 0 0 0 4.059 6.907 8.764 8.764 0 0 0 7.971.804l29.063-11.236a1.01 1.01 0 0 1 .359-.066z" fill="#1d0333"/></svg></g><g transform="translate(93.0 222.0) rotate(-58.123428768005056 99.5 90.0) scale(1.0744270172502226 1.0681541702519064)"><svg width="185.215" height="168.515" viewBox="0 0 185.215 168.515"><path d="m120.052 165.159-33.544-22.056-29.063 11.236c-6.217 2.403-12.977-1.93-13.389-8.582l-1.974-31.864L7.454 91.124C.846 86.779-.989 77.9 3.356 71.292L45.33 7.454C49.675.846 58.554-.989 65.162 3.356L177.76 77.391c6.608 4.345 8.443 13.224 4.098 19.832l-41.974 63.837c-4.345 6.609-13.224 8.444-19.832 4.099z" fill="#fff"/><path d="M127.888 168.518c-2.959 0-5.856-.861-8.386-2.524l-33.114-21.773-28.583 11.05a10.748 10.748 0 0 1-9.771-.985c-2.946-1.889-4.76-4.975-4.976-8.467l-1.943-31.365L6.905 91.96C-.153 87.319-2.12 77.801 2.521 70.743L44.495 6.905c4.641-7.059 14.158-9.026 21.217-4.384l112.597 74.035a15.22 15.22 0 0 1 6.587 9.701 15.218 15.218 0 0 1-2.203 11.517l-41.974 63.837a15.218 15.218 0 0 1-9.701 6.586c-1.041.215-2.09.321-3.13.321zm-41.381-26.415c.193 0 .384.056.549.165l33.544 22.056a13.235 13.235 0 0 0 10.013 1.915 13.234 13.234 0 0 0 8.434-5.727l41.974-63.837c4.035-6.137 2.325-14.413-3.812-18.448L64.614 4.192C58.477.158 50.201 1.867 46.166 8.004L4.192 71.841C.157 77.978 1.867 86.253 8.004 90.289l34.628 22.768a1 1 0 0 1 .449.773l1.974 31.864a8.767 8.767 0 0 0 4.059 6.907 8.764 8.764 0 0 0 7.971.804l29.063-11.236a1.01 1.01 0 0 1 .359-.066z" fill="#1d0333"/></svg></g><g transform="translate(161.0 187.0) rotate(0.0 448.0 391.0) scale(1.1780669184083474 1.1784012019089496)"><svg width="760.568" height="663.611" viewBox="0 0 760.568 663.611"><path d="M367.39 271.979c-.552-2.627-1.649-7.856 1.297-11.671 10.794-13.979 66.637 2.985 67.433 19.452.388 8.031-12.378 14.63-19.452 16.858-20.579 6.483-45.665-7.426-49.278-24.639zm-79.105 153.022c-6.977-2.459-25.301-9.692-38.904-1.297-9.856 6.082-17.133 20.307-12.968 28.529 5.691 11.236 28.872 3.607 88.182 3.89 39.462.189 59.684 1.603 86.885 9.078 26.907 7.394 40.825 16.128 49.278 9.078 9.266-7.728 9.626-32.47-2.594-46.685-28.487-33.14-98.669 22.507-169.879-2.593z" fill="#1d0333"/><path d="M292.176 349.787c-12.802 27.655-29.639 72.863-33.717 130.976-3.806 54.237 4.986 98.594 12.968 127.086l180.255-36.31c-6.913-18.738-14.1-44.852-15.562-76.511-2.564-55.548 13.849-98.914 24.639-121.899l-168.583-23.342z" fill="#ffb5a6"/><path d="M257.162 526.151c-5.145 27.271-8.473 61.242-5.187 99.853a364.44 364.44 0 0 0 5.187 37.607l242.501-24.639a272.849 272.849 0 0 1-28.53-38.904c-19.449-32.154-28.878-62.821-33.717-85.589a404.503 404.503 0 0 1-82.995 15.562 404.752 404.752 0 0 1-97.259-3.89z" fill="#a271cc"/><path d="M366.316 507.734c-.191 0-.378-.029-.557-.093-1.369-.485-1.955-2.357-.652-10.184a1 1 0 1 1 1.972.329c-.938 5.634-.727 7.38-.563 7.899.694-.266 2.323-1.583 3.699-3.736 1.17-1.831 2.912-5.453 1.434-9.143-1.238-3.088-4.412-5.335-8.285-5.865a1 1 0 1 1 .272-1.981c4.583.627 8.365 3.349 9.87 7.103 2.036 5.08-.646 10.428-3.563 13.465-.84.873-2.332 2.206-3.627 2.206zm.281-1.865h.01zm-110.731-64.01c7.957 2.029 14.037 4.541 18.155 6.484 6.264 2.955 7.552 4.389 11.671 5.187 7.795 1.509 10.794-2.15 18.155-2.594 9.986-.602 13.472 5.591 25.936 10.374 9.532 3.658 17.191 3.745 28.529 3.89 33.348.426 44.902-13.952 73.917-10.374a83.694 83.694 0 0 1 16.858 3.89c3.143-12.186 3.88-25.383-1.297-37.607-22.396-52.882-146.536-66.672-181.551-18.155-8.333 11.548-10.725 25.503-10.373 38.905z" fill="#1d0333"/><path d="M578.768 305.695a129.815 129.815 0 0 1 0-7.781c.754-25.258 8.295-30.06 9.078-49.278.652-16.023-4.017-26.743 1.297-29.826 2.375-1.378 5.306-.395 6.484 0 15.783 5.294 19.003 44.518 19.452 50.575 1.806.587 12.831 4.372 17.904 15.916 6.614 15.05-3.215 28.896-3.64 29.472-3.202 1.483-19.402 8.596-36.31 1.297-6.778-2.926-11.426-7.198-14.265-10.375z" fill="#ffb5a6"/><path d="M586.365 155.833c4.363 3.907 12.303 12.079 17.218 25.039 5.819 15.344 4.131 28.783 3.044 34.606-4.11-3.079-13.372-10.888-18.638-24.556-6.226-16.161-2.946-30.337-1.624-35.089z" fill="#1d0333"/><path d="M738.747 210.307a191.931 191.931 0 0 0-32.927-8.389c-53.56-8.673-98.553 7.552-123.048 18.998-3.715-2.314-11.855-8.105-16.947-18.887-7.565-16.02-2.754-31.106-1.602-34.438 24.348-5.823 71.332-21.125 106.309-63.802a173.459 173.459 0 0 0 18.858-28.295l49.357 134.813z" fill="#fff"/><path d="M582.772 221.916c-.185 0-.368-.051-.529-.151-5.302-3.304-12.611-9.336-17.321-19.308-7.197-15.24-3.547-29.688-1.644-35.192.112-.323.381-.566.713-.646 30.501-7.295 73.61-24.226 105.769-63.463a173.055 173.055 0 0 0 18.749-28.133 1.001 1.001 0 0 1 1.821.127l49.356 134.814a1 1 0 0 1-1.271 1.287 191.649 191.649 0 0 0-32.756-8.346c-39.825-6.449-82.177.092-122.464 18.917a.992.992 0 0 1-.423.094zm-17.778-53.481c-1.856 5.617-4.933 19.046 1.736 33.168 4.368 9.25 11.083 14.957 16.114 18.177 40.502-18.817 83.068-25.337 123.136-18.848a193.624 193.624 0 0 1 31.104 7.745l-47.87-130.758a174.857 174.857 0 0 1-17.907 26.504c-32.323 39.437-75.545 56.575-106.313 64.012z" fill="#1d0333"/><ellipse cx="718.232" cy="141.486" fill="#fff" rx="31.296" ry="69.995" transform="matrix(.9431 -.3326 .3326 .9431 -6.1653 246.9571)"/><path d="M683.779 120.046c17.103-6.798 36.463 2.417 41.974 19.269 5.341 16.335-4.023 34.677-21.058 39.946a99.733 99.733 0 0 1-15.086-27.465 99.722 99.722 0 0 1-5.83-31.75z" fill="#1d0333"/><path d="M683.823 151.6c-5.969-17.571-8.6-35.129-7.417-49.634 1.317-16.152 7.28-26.895 16.789-30.249 9.51-3.354 20.892 1.271 32.052 13.022 10.362 10.913 19.598 26.928 26.006 45.095 6.408 18.163 9.263 36.432 8.04 51.432-1.317 16.152-7.28 26.895-16.789 30.249-9.51 3.354-20.892-1.27-32.051-13.022-10.363-10.913-19.599-26.928-26.006-45.095-.213-.599-.421-1.199-.624-1.798zm59.65-19.021c-6.03-17.096-14.628-32.069-24.208-42.158-8.657-9.117-17.159-13.098-23.326-10.923s-10.29 10.609-11.311 23.14c-1.131 13.868 1.575 30.918 7.597 48.018 6.03 17.096 14.628 32.069 24.209 42.158 8.657 9.117 17.159 13.098 23.325 10.923 6.167-2.175 10.29-10.609 11.311-23.14 1.131-13.869-1.573-30.924-7.597-48.018z" fill="#fff"/><path d="M736.204 213.582c-8.32 0-17.494-4.94-26.479-14.4-10.458-11.014-19.771-27.155-26.224-45.451-.212-.603-.421-1.206-.626-1.809-6.005-17.674-8.656-35.444-7.467-50.036 1.351-16.569 7.549-27.617 17.453-31.111 9.904-3.492 21.661 1.221 33.109 13.277 10.458 11.014 19.771 27.155 26.224 45.451 6.453 18.291 9.328 36.704 8.094 51.846-1.352 16.569-7.55 27.617-17.453 31.11a19.835 19.835 0 0 1-6.631 1.123zM699.496 71.653c-2.061 0-4.056.333-5.968 1.008-9.116 3.215-14.843 13.652-16.125 29.387-1.168 14.326 1.448 31.81 7.367 49.231v.001c.201.595.408 1.192.618 1.787 6.36 18.036 15.52 33.924 25.788 44.739 10.871 11.448 21.882 15.983 30.993 12.768 9.115-3.215 14.842-13.651 16.125-29.387 1.212-14.868-1.624-32.986-7.986-51.018-6.36-18.036-15.52-33.925-25.788-44.739-8.59-9.048-17.264-13.777-25.024-13.777zm36.759 133.66c-5.988 0-13.249-4.126-20.547-11.812-9.675-10.189-18.351-25.288-24.427-42.514-6.073-17.246-8.79-34.446-7.65-48.431 1.056-12.941 5.42-21.689 11.975-24.002 6.559-2.31 15.443 1.761 24.385 11.178 9.675 10.189 18.35 25.287 24.426 42.514 6.075 17.238 8.792 34.438 7.651 48.431-1.057 12.941-5.421 21.689-11.976 24.002-1.205.425-2.49.634-3.837.634zM699.498 79.909c-1.14 0-2.219.175-3.227.531-5.778 2.038-9.659 10.158-10.646 22.278-1.118 13.712 1.561 30.618 7.543 47.604 5.984 16.967 14.505 31.812 23.991 41.802 8.372 8.818 16.494 12.708 22.267 10.669 5.778-2.038 9.659-10.158 10.647-22.278 1.119-13.719-1.561-30.625-7.544-47.604-5.984-16.967-14.504-31.813-23.99-41.802-6.912-7.279-13.65-11.2-19.041-11.2zM565.806 229.345c-16.067 5.458-33.87-2.51-39.887-18.376a36.261 36.261 0 0 1-.428-1.192c-.091-.269-.729-2.249-1.189-5.313-2.284-15.203 6.753-29.841 21.309-34.786l40.754-13.845c-1.408 5.003-3.896 16.47-.065 30.118 4.79 17.063 16.378 26.562 20.327 29.527z" fill="#1d0333"/><path d="M555.596 232.031c-13.24 0-25.787-7.983-30.612-20.708a37.379 37.379 0 0 1-.44-1.224c-.076-.224-.747-2.261-1.231-5.487-2.354-15.666 6.89-30.756 21.978-35.882l40.754-13.845a1.001 1.001 0 0 1 1.284 1.218c-1.911 6.79-3.475 17.433-.064 29.577 4.335 15.443 14.369 24.796 19.965 28.997a1 1 0 0 1-.279 1.747l-40.822 13.868-.321-.947.321.947a32.727 32.727 0 0 1-10.533 1.739zm29.328-74.652-38.991 13.246c-14.171 4.814-22.852 18.983-20.642 33.691.467 3.108 1.119 5.06 1.146 5.142.133.39.271.777.416 1.157 5.725 15.098 23.056 23.075 38.631 17.785l39.066-13.271c-5.949-4.797-15.078-14.179-19.213-28.906-3.243-11.557-2.147-21.798-.413-28.844z" fill="#1d0333"/><path d="M556.284 212.462c-.335-2.524 1.184-4.62 1.71-5.264 4.394-5.384 15.14-2.214 27.474-.386 7.783 1.153 18.869 2.168 32.738 1.324 7.018 6.828 16.61 17.536 24.927 32.537 8.903 16.059 20.426 37.001 11.416 50.842-5.206 7.997-17.166 13.461-24.776 9.991-9.987-4.554-4.16-20.702-16.797-45.025-4.533-8.725-9.548-18.376-20.149-25.748-16.338-11.361-35.444-10.005-36.543-18.271z" fill="#fff"/><path d="M635.006 303.568c-1.992 0-3.907-.359-5.647-1.152-5.598-2.552-6.639-8.37-8.08-16.422-1.382-7.723-3.102-17.335-9.189-29.052-4.421-8.51-9.433-18.156-19.833-25.387-7.606-5.29-15.911-7.802-22.585-9.821-7.662-2.318-13.715-4.149-14.378-9.139-.378-2.846 1.222-5.163 1.927-6.027 3.979-4.879 12.338-3.446 22.015-1.786 2.064.354 4.199.72 6.381 1.043 10.463 1.55 21.408 1.992 32.531 1.315a1 1 0 0 1 .758.281c9.993 9.723 18.438 20.748 25.104 32.769 8.763 15.806 20.765 37.454 11.379 51.872-4.089 6.278-12.783 11.506-20.383 11.506zm-77.731-91.238c.493 3.713 5.729 5.297 12.975 7.489 6.809 2.06 15.281 4.623 23.148 10.094 10.805 7.514 15.938 17.392 20.466 26.108 6.228 11.987 8.052 22.179 9.383 29.622 1.384 7.73 2.298 12.837 6.941 14.954 6.84 3.118 18.271-1.559 23.522-9.626 8.729-13.41-2.936-34.449-11.453-49.811-6.499-11.723-14.718-22.486-24.433-31.997-11.111.648-22.045.19-32.503-1.359a284.868 284.868 0 0 1-6.426-1.051c-9.058-1.554-16.883-2.896-20.128 1.079-.42.515-1.774 2.368-1.492 4.498z" fill="#1d0333"/><path d="M398.098 289.706c-21.994 26.014-73.801 58.46-121.484 57.487-34.015 5.135-62.765 34.819-100.644 63.4-13.98 10.556-29.204 20.956-46.4 29.917l-.078.039a745.057 745.057 0 0 1 86.172 25.949 748.673 748.673 0 0 1 50.575 20.749c-3.462 18.155-6.912 36.31-10.374 54.465-3.1-.648-7.573-1.556-12.968-2.594 0 0-32.044-6.16-64.295-9.895-58.278-6.743-128.513-4.513-157.457-25.119-3.709-2.633-13.331-9.493-18.155-22.046-1.128-2.918-4.046-10.919-2.594-20.749 2.827-19.232 16.482-22.383 33.717-50.575 9.428-15.432 7.508-18.025 14.265-23.342 13.136-10.348 23.874-3.216 38.048-14.174 9.467-7.327 7.859-12.955 19.011-20.84 9.376-6.627 18.453-8.274 22.046-9.078 40.369-9.091 62.869-65.553 120.265-77.937 7.767-1.673 13.538-3.255 24.963-2.257a430.95 430.95 0 0 1 27.751 3.294c21.177 3.19 40.369 7.599 58.187 12.294 13.89 3.646 26.935 7.472 39.449 11.012zm12.453-3.703c20.566 10.044 37.792 16.862 49.718 21.23 21.59 7.908 30.104 9.362 40.716 17.76 9.057 7.168 15.196 15.967 25.56 38.776 7.98 17.563 17.815 42.07 26.287 72.904l25.936-130.976a151.669 151.669 0 0 0 51.871 6.484c-2.732 64.514-4.62 112.877-5.187 143.944-.016.875-.294 16.193-3.89 36.31-4.146 23.192-6.858 37.32-18.155 49.278-2.347 2.484-16.123 16.617-35.013 15.562-5.143-.287-16.234-2.014-33.717-19.452-14.073-14.037-21.563-27.558-33.717-51.872-2.784-5.568-39.023-78.146-55.242-91.066-8.425-6.711-17.837-12.184-17.837-12.184a148.93 148.93 0 0 0-5.287-2.932l-12.043-93.766z" fill="#f85572"/><path d="M288.391 296.033a1124.703 1124.703 0 0 0-53.274 148.42c1.22-4.476 3.665-10.449 9.078-14.265 15.17-10.694 39.262 5.706 62.246 14.265 72.761 27.095 142.381-21.592 158.209 5.187 1.241 2.1 2.829 5.781 2.594 11.671 4.048-24.446 7.321-63.669-4.071-109.551-4.216-16.979-7.208-28.837-15.198-39.262-26.353-34.383-90.36-38.625-159.584-16.465z" fill="#f85572"/><path d="M394.023 101.25c5.49 7.547 40.239 56.81 22.374 105.495-2.716 7.4-9.104 24.809-25.876 33.785-26.382 14.12-65.532.461-81.968-22.849-11.151-15.815-5.326-26.826-17.16-35.743-14.612-11.01-29.056 1.586-55.7-2.161-39.219-5.515-63.461-40.618-67.652-46.687-18.376-26.608-19.956-53.323-20.492-64.93-1.499-32.469 9.288-57.046 15.027-68.16l15.095 6.576c-1.597 4.73-5.449 18.195-.548 34.192 5.767 18.825 19.726 28.336 23.573 30.779-3.214-3.419-9.18-10.677-12.318-21.731-3.199-11.267-1.834-20.746-.86-25.348l5.045 1.348c.246 4.901 1.315 13.069 5.986 21.63 0 0 8.004 14.668 23.715 21.914 35.408 16.331 78.626-35.071 100.389-19.923 13.142 9.148 2.518 31.352 18.263 45.894 13.077 12.077 34.954 10.197 53.107 5.919z" fill="#1d0333"/><path d="M436.678 205.803a261.032 261.032 0 0 1-.669 14.848c-.18 2.505-.405 5.478-.738 8.868-.516 5.337-1.277 11.696-2.531 18.833-1.918 10.911-3.981 23.11-9.867 37.032-5.186 12.267-7.597 18.476-13.88 22.401-7.39 4.617-18.622 6.16-27.853.766-1.148-.671-10.467-6.301-11.847-16.145-.804-5.738 1.619-9.123 6.727-20.868a282.409 282.409 0 0 0 8.144-20.975s8.2-25.532 9.29-53.179c0-.013.195-5.013.253-6.266.072-2.089.156-4.178.24-6.266 14.239 6.978 28.492 13.971 42.731 20.951z" fill="#ffb5a6"/><path d="M376.4 173.162c7.054 37.183 52.817 65.255 78.925 54.477 12.152-5.022 17.488-17.37 18.034-18.716 2.495-6.011 2.851-11.976 1.721-18.52-.737-4.212-2.088-8.672-3.882-13.539-1.944-5.281-4.408-11.028-7.171-17.49-8.476-19.786-12.701-29.691-22.233-35.828-13.556-8.724-35.214-11.207-50.668.456-20.629 15.57-15.468 45.24-14.726 49.16z" fill="#ffb5a6"/><path d="M435.272 229.518c-.516 5.337-1.277 11.696-2.532 18.833a20.227 20.227 0 0 1-3.242-.85c-3.112-1.063-5.808-2.766-9.852-6.504-2.134-1.985-3.204-3.193-11.194-12.847-4.287-5.186-6.448-7.843-7.415-11.519-.561-2.124-1.41-6.837.122-7.598 2.273-1.142 6.685 8.1 16.239 14.194 5.918 3.781 12.173 5.554 17.874 6.291zm-82.626-75.731c3.952 15.758 21.945 28.802 30.007 24.549 6.209-3.27 7.013-17.064 3.061-32.885 2.89 3.846 5.792 7.693 8.682 11.54 3.299-1.163 6.599-2.339 9.898-3.502.156-3.43.3-6.848.456-10.266l7.476 7.72a161.603 161.603 0 0 1 12.725-3.596c15.602-3.727 29.868-4.676 41.871-4.395a73.245 73.245 0 0 0-6.129-12.765 80.304 80.304 0 0 0-5.122-7.606c-2.965-3.898-7.083-8.537-12.375-12.638-2.615-2.018-5.511-3.914-8.69-5.51-18.434-9.264-42.552-6.852-59.621 5.377-1.64 1.177-28.002 20.995-22.239 43.977z" fill="#1d0333"/><path d="M390.413 168.327a63.432 63.432 0 0 0-17.607-7.883c-7.19-1.97-15.531-4.256-18.995-.305-2.912 3.322-1.368 9.899 1.043 13.95 7.133 11.989 29.584 14.874 35.357 6.901.991-1.37 2.814-4.889.202-12.663z" fill="#ffb5a6"/><path d="M375.301 179.27c-2.946 0-5.631-.848-7.33-2.345-.9-.794-1.402-1.684-1.452-2.576-.116-2.078 2.331-4.551 6.32-5.589-1.734-1.178-4.382-2.465-7.684-2.373a12.302 12.302 0 0 0-4.704 1.098.999.999 0 1 1-.82-1.824 14.287 14.287 0 0 1 5.466-1.272c5.404-.164 9.337 2.902 10.776 4.225a1 1 0 0 1-.573 1.731c-4.319.454-6.848 2.778-6.786 3.893.019.33.31.774.778 1.187 1.168 1.03 3.612 2.047 6.957 1.812a.991.991 0 0 1 1.067.928.998.998 0 0 1-.927 1.067 15.95 15.95 0 0 1-1.088.038z" fill="#1d0333"/><path d="M393.738 118.979c6.709 2.641 13.431 5.282 20.14 7.923.502-3.64 1.731-8.434 5.228-10.05 4.658-2.155 10.024 2.859 16.381 5.33 4.544 1.77 10.989 2.76 20.083.398-2.965-3.898-7.083-8.537-12.375-12.638a14.248 14.248 0 0 1-3.746 2.169c-9.546 3.672-19.048-4.929-25.327-.406-2.896 2.094-3.706 5.957-3.941 8.804-5.477-.505-10.966-1.024-16.443-1.53z" fill="#eedcff"/><path d="M446.599 197.238c-3.512-.981-5.49-2.463-6.733-1.488-.889.698-.791 2.172-.767 2.531.254 3.807 5.48 8.379 10.237 7.247 3.738-.89 6.532-5.146 5.667-6.848-.691-1.361-3.157.024-8.404-1.442zm-11.303-22.315c.073 1.002-.624 1.785-1.077 2.311-2.388 2.734-5.728 1.549-11.335 2.136a29.469 29.469 0 0 0-3.417.55c-4.772 1.066-7.289 2.846-9.085 1.39-1.225-.993-1.228-2.794-1.222-2.966.059-4.073 6.45-8.069 12.304-8.744a18.64 18.64 0 0 1 3.568-.052c5.224.416 10.092 2.848 10.264 5.375z" fill="#fff"/><path d="M435.296 174.923c.073 1.002-.624 1.785-1.077 2.311-2.388 2.734-5.728 1.549-11.335 2.136-1.277-2.497-1.209-6.228.89-8.692a6.04 6.04 0 0 1 1.258-1.129c5.224.415 10.092 2.847 10.264 5.374z" fill="#1d0333"/><path d="M468.073 169.009c.059.791-.504 1.41-.87 1.826-1.928 2.161-4.622 1.226-9.145 1.693-.853.086-1.769.22-2.757.436-3.85.845-5.882 2.252-7.33 1.103-.987-.784-.99-2.207-.984-2.342.049-3.218 5.207-6.378 9.93-6.913a15.36 15.36 0 0 1 2.878-.043c4.215.325 8.141 2.244 8.278 4.24z" fill="#fff"/><path d="M468.073 169.009c.059.791-.504 1.41-.87 1.826-1.928 2.161-4.622 1.226-9.145 1.693-1.029-1.972-.972-4.919.722-6.867.312-.36.654-.658 1.015-.893 4.215.326 8.141 2.245 8.278 4.241zm-23.655.839c1.431 1.829 2.955 3.581 4.562 5.252s3.298 3.249 5.051 4.78c.874.774 1.764 1.52 2.638 2.385.425.457.89.883 1.221 1.679.09.181.12.456.145.7-.02.262-.05.542-.167.779-.226.492-.605.79-.933.991-.675.391-1.311.541-1.935.674a15.97 15.97 0 0 1-1.842.244 38.427 38.427 0 0 1-3.598.086 1 1 0 1 1 .031-2l.038.001h.01c1.144.065 2.287.101 3.407.061 1.09-.044 2.282-.167 3.022-.54.171-.091.265-.187.285-.23.014-.05.048-.066-.007-.221-.093-.299-.449-.75-.81-1.144-.754-.812-1.622-1.608-2.464-2.417a81.656 81.656 0 0 1-4.922-5.061 69.321 69.321 0 0 1-4.403-5.514.42.42 0 0 1 .671-.505zm15.926-19.003c-.83-.259-1.336.026-6.043.285-3.527.195-5.628.169-7.56 1.478-.402.272-.882.661-1.232 1.297-.674 1.258-.726 3.177.104 3.8 1.193.882 3.06-1.66 7.534-2.736 3.073-.752 5.849-.415 7.599-.207.48.052.947.13 1.388.207zm-31.207 8.444c-.673 1.993-4.72.548-11.325 2.846-1.64.571-7.622 2.652-12.452 7.945-1.87 2.049-3.19 4.167-3.694 3.903-.669-.351.895-4.486 1.127-5.099 1.199-3.171 1.881-4.975 3.624-6.435 1.56-1.307 2.065-.742 6.261-2.706 2.06-.964 1.941-1.102 4.995-2.671 5.911-3.039 7.021-2.866 7.527-2.741 2.35.58 4.49 3.32 3.937 4.958z" fill="#1d0333"/><ellipse cx="421.269" cy="191.275" fill="#f99282" rx="10.765" ry="6.966" transform="matrix(.9996 -.0275 .0275 .9996 -5.1 11.6554)"/><path d="M463.507 183.779c.106 3.849 5.015 6.831 10.953 6.667.202-.006.418-.011.62-.042-.737-4.212-2.088-8.672-3.882-13.539-4.523.935-7.779 3.71-7.691 6.914z" fill="#f99282"/><path d="M582.658 271.979c4.505-10.822 5.33-19.68 5.187-25.936-.296-12.97-4.942-23.209 0-27.233 2.325-1.893 5.566-1.428 6.484-1.297 14.591 2.092 20.678 37.028 21.203 40.197" fill="#ffb5a6"/><path d="M639.842 222.039c-14.031-6.721-42.589 16.923-39.689 24.577 2.029 5.356 20.146 4.695 32.784-1.841 2.911-1.505 13.846-7.16 13.327-14.406-.266-3.686-3.433-6.897-6.422-8.33z" fill="#ffb5a6"/><path d="M610.659 251.196c-3.159 0-5.887-.386-7.841-1.135-1.886-.722-3.098-1.762-3.602-3.091-1.195-3.157 1.768-8.421 7.927-14.08 9.821-9.023 24.357-15.958 33.13-11.754 3.157 1.512 6.689 5.024 6.986 9.161.376 5.244-4.288 10.414-13.864 15.366-7.289 3.771-15.992 5.533-22.736 5.533zm23.522-29.286c-6.678 0-16.25 3.786-25.685 12.454-5.288 4.858-8.266 9.64-7.409 11.899.364.962 1.531 1.581 2.445 1.932 5.604 2.146 18.867.904 28.944-4.306 10.96-5.668 13.003-10.44 12.788-13.446-.24-3.341-3.204-6.23-5.855-7.5-1.413-.679-3.186-1.033-5.228-1.033z" fill="#1d0333"/><path d="M649.415 231.683c-15.199-6.545-46.639 17.533-43.582 25.164 2.139 5.34 21.89 4.432 35.75-2.288 3.192-1.547 15.185-7.362 14.717-14.616-.239-3.689-3.646-6.865-6.885-8.26z" fill="#ffb5a6"/><path d="M616.675 261.284c-3.427 0-6.343-.4-8.351-1.177-1.777-.688-2.928-1.659-3.42-2.887-1.467-3.662 3.166-8.937 6.058-11.755 9.019-8.791 27.599-19.542 38.849-14.699 3.532 1.521 7.217 4.929 7.487 9.115.34 5.26-4.801 10.501-15.278 15.58-8.172 3.959-17.949 5.823-25.345 5.823zm26.793-29.719c-10.073 0-23.632 8.043-31.11 15.331-5.002 4.876-6.171 8.145-5.596 9.58.273.683 1.063 1.293 2.284 1.766 5.943 2.3 20.938.83 32.101-4.582 12.052-5.841 14.35-10.648 14.155-13.651-.215-3.323-3.407-6.169-6.282-7.407-1.661-.715-3.537-1.037-5.552-1.037z" fill="#1d0333"/><path d="M656.188 243.339c-15.76-6.46-48.586 17.826-45.454 25.446 2.191 5.332 22.728 4.305 37.176-2.502 3.327-1.568 15.829-7.459 15.385-14.716-.225-3.693-3.748-6.852-7.107-8.228z" fill="#ffb5a6"/><path d="M621.782 273.173c-3.562 0-6.575-.411-8.632-1.209-1.729-.671-2.854-1.613-3.341-2.799-1.321-3.214 2.151-7.641 5.297-10.79 9.547-9.556 29.811-20.739 41.461-15.962 3.661 1.501 7.471 4.895 7.727 9.092.321 5.264-5.047 10.541-15.957 15.682-8.639 4.071-18.87 5.986-26.555 5.986zm28.432-29.9c-10.796 0-25.82 8.636-33.693 16.516-4.389 4.394-5.389 7.331-4.861 8.616.268.65 1.033 1.236 2.215 1.695 6.107 2.369 21.775.855 33.61-4.721 12.575-5.926 14.997-10.749 14.813-13.751-.202-3.314-3.506-6.14-6.488-7.363-1.664-.683-3.554-.992-5.596-.992z" fill="#1d0333"/><path d="M658.058 254.593c-11.533-5.524-35.008 13.91-32.624 20.203 1.668 4.403 16.56 3.859 26.948-1.513 2.392-1.237 11.382-5.886 10.954-11.842-.217-3.03-2.82-5.671-5.278-6.848z" fill="#ffb5a6"/><g fill="#1d0333"><path d="M634.066 278.735c-2.62 0-4.885-.321-6.505-.942-1.6-.613-2.63-1.502-3.062-2.644-1.455-3.842 4.104-9.509 6.562-11.767 8.115-7.458 20.15-13.18 27.43-9.691 2.729 1.307 5.594 4.188 5.844 7.678.314 4.389-3.552 8.696-11.493 12.802-6.016 3.11-13.201 4.564-18.776 4.564zm19.354-24.103c-6.451 0-15.008 4.712-21.007 10.224-4.931 4.531-6.589 8.145-6.043 9.586.275.729 1.188 1.21 1.906 1.484 4.57 1.751 15.404.73 23.646-3.531 8.923-4.614 10.59-8.464 10.417-10.882-.192-2.675-2.578-4.995-4.713-6.018-1.238-.594-2.662-.863-4.206-.863zM469.838 444.156a1 1 0 0 1-.997-1.085 809.362 809.362 0 0 0 2.59-46.627 809.89 809.89 0 0 0 0-42.741 1 1 0 0 1 .974-1.026c.505-.016 1.012.42 1.026.973a813.911 813.911 0 0 1 0 42.847 810.694 810.694 0 0 1-2.598 46.743 1 1 0 0 1-.995.916zm-216.566-57.059a1 1 0 0 1-.934-1.357l27.232-71.324a1 1 0 0 1 1.869.713l-27.232 71.324a1 1 0 0 1-.935.644zm294.372 110.227a1 1 0 0 1-1-1c.005-9.947.442-20.011 1.301-29.912a350.058 350.058 0 0 1 3.901-29.912 1 1 0 1 1 1.97.344 347.743 347.743 0 0 0-3.88 29.74 347.993 347.993 0 0 0-1.293 29.74.998.998 0 0 1-.999 1z"/><path d="M538.567 454.53a1 1 0 0 1-.923-1.385c2.169-5.197 5.308-9.68 9.328-13.324a36.293 36.293 0 0 1 5.336-4.001 1 1 0 1 1 1.047 1.704 34.232 34.232 0 0 0-5.039 3.78c-3.802 3.445-6.771 7.688-8.826 12.612a1 1 0 0 1-.923.614zm-66.137-82.698c8.178 10.61 11.498 20.157 12.968 27.233 3.474 16.731-2.49 24.046 2.594 38.904 3.853 11.262 9.037 12.196 15.562 23.342 5.287 9.032 10.781 23.62 9.078 46.685a1822.75 1822.75 0 0 1-41.498-75.214l1.296-60.95zm-194.519-49.278c-3.706.554-8.983 1.835-14.265 5.187-8.287 5.259-10.116 11.509-15.562 18.155-9.176 11.2-17.322 9.735-29.826 18.155-7.887 5.311-18.055 14.924-25.936 33.717 13.982-10.944 31.199-22.383 51.872-32.42a286.125 286.125 0 0 1 20.749-9.078l12.968-33.716z"/></g><path d="M266.24 487.247c9.845 2.051 15.914 6.083 19.452 9.078 13.727 11.62 7.343 24.545 19.452 58.356 5.367 14.985 10.653 23.856 6.484 28.529-2.862 3.208-9.49 3.667-14.265 1.297-12.346-6.13-8.251-29.116-19.452-32.42-2.266-.669-4.205-.225-5.187 0-9.92 2.271-13.879 17.255-16.858 28.529-2.252 8.523-4.636 21.364-3.89 37.607a77.736 77.736 0 0 1-5.187-7.781c-15.448-26.508-11.582-56.154-7.781-72.62a87.313 87.313 0 0 0 14.265-16.858c8.445-13.034 11.635-25.638 12.967-33.717z" fill="#ffb5a6"/><path d="M312.926 575.133a1 1 0 0 1-.912-.588 234.067 234.067 0 0 1-9.117-23.443c-3.631-11.063-5.185-18.669-6.434-24.781-1.11-5.435-1.988-9.727-3.903-14.028-6.204-13.93-21.266-24.652-44.769-31.871a1 1 0 0 1 .588-1.912c24.079 7.396 39.559 18.488 46.007 32.969 2.005 4.5 2.901 8.887 4.036 14.441 1.239 6.061 2.78 13.604 6.375 24.557a232.367 232.367 0 0 0 9.039 23.242 1 1 0 0 1-.91 1.414z" fill="#1d0333"/><path d="M175.97 410.593c-13.98 10.556-29.204 20.956-46.4 29.917a181.503 181.503 0 0 0-26.727-1.245c5.291-6.795 10.608-10.011 14.265-11.671 11.321-5.148 17.585-.389 28.529-6.484 6.471-3.605 6.458-6.484 12.968-9.078 6.472-2.567 12.8-2.243 17.365-1.439z" fill="#d8234a"/><path d="M174.168 453.234a.995.995 0 0 1-.376-.074 178.462 178.462 0 0 0-43.847-11.606 178.393 178.393 0 0 0-32.237-1.29 1.02 1.02 0 0 1-1.05-.948 1.001 1.001 0 0 1 .948-1.05 180.424 180.424 0 0 1 32.601 1.304 180.476 180.476 0 0 1 44.337 11.736 1 1 0 0 1-.376 1.928z" fill="#1d0333"/><path d="m368.687 260.308-12.968 22.046c.117 1.561 2.167 24.06 20.749 33.717 18.037 9.373 39.764.469 50.575-12.968 7.038-8.747 8.637-18.406 9.078-23.342-.862 1.63-2.457 4.209-5.187 6.484-16.754 13.961-57.699 1.023-62.246-18.155-.752-3.166-.388-5.982-.001-7.782z" fill="#f85572"/><path d="M400.564 317.249c-13.453 0-26.002-5.288-33.942-14.804-7.214-8.646-9.044-18.498-9.309-25.24a1 1 0 0 1 .96-1.039c.501-.017 1.017.408 1.038.96.253 6.432 1.993 15.824 8.846 24.038 9.875 11.834 27.295 16.796 44.385 12.637a1.001 1.001 0 0 1 .473 1.943 52.658 52.658 0 0 1-12.451 1.505z" fill="#1d0333"/><path d="M367.39 301.805c-3.19-3.047-8.351-7.132-15.562-9.078-10.024-2.697-14.628 1.245-22.046-2.594-6.328-3.281-6.056-7.742-12.968-14.265-5.317-5.006-11.256-7.82-16.352-9.467 21.177 3.19 40.369 7.599 58.187 12.294.013 2.101.234 4.578.96 7.547 1.764 7.225 5.343 12.49 7.781 15.563z" fill="#1d0333"/></svg></g><g transform="translate(159.0 280.0) rotate(-59.78170741977719 31.5 30.5) scale(1.0668743967079304 1.0785579150237812)"><svg width="59.051" height="56.557" viewBox="0 0 59.051 56.557"><path d="M9.595 55.549c25.722.281 45.025-6.859 47.999-18.2 1.165-4.442.208-10.993-4.07-14.687-5.26-4.542-14.834-4.154-23.45 1.74 1.996-10.246-1.442-19.19-7.697-22.219C17.291-.28 10.897 1.438 7.28 4.268c-9.233 7.224-8.138 27.776 2.315 51.281z" fill="#f85572"/><path d="M11.093 56.557c-.5 0-1.003-.003-1.509-.008a1 1 0 0 1-.903-.594C-2.152 31.595-2.944 10.998 6.664 3.48c3.93-3.075 10.738-4.817 16.149-2.197 6.385 3.092 9.764 11.574 8.595 21.09 8.272-4.845 17.399-5.104 22.769-.467 4.549 3.928 5.649 10.87 4.383 15.697-3.035 11.577-21.595 18.954-47.467 18.954zm-.844-2.003c24.985.132 43.591-6.833 46.377-17.458 1.108-4.228.174-10.283-3.756-13.676-5.098-4.402-14.241-3.658-22.232 1.808a1 1 0 0 1-1.546-1.017c1.852-9.504-1.089-18.192-7.151-21.128C17.268.82 11.338 2.362 7.897 5.055-.755 11.824.204 31.67 10.249 54.554z" fill="#1d0333"/></svg></g><g transform="translate(994.0 859.0) rotate(0.0 35.5 34.0) scale(1.202350510575604 1.2023268560920841)"><svg width="59.051" height="56.557" viewBox="0 0 59.051 56.557"><path d="M9.595 55.549c25.722.281 45.025-6.859 47.999-18.2 1.165-4.442.208-10.993-4.07-14.687-5.26-4.542-14.834-4.154-23.45 1.74 1.996-10.246-1.442-19.19-7.697-22.219C17.291-.28 10.897 1.438 7.28 4.268c-9.233 7.224-8.138 27.776 2.315 51.281z" fill="#f85572"/><path d="M11.093 56.557c-.5 0-1.003-.003-1.509-.008a1 1 0 0 1-.903-.594C-2.152 31.595-2.944 10.998 6.664 3.48c3.93-3.075 10.738-4.817 16.149-2.197 6.385 3.092 9.764 11.574 8.595 21.09 8.272-4.845 17.399-5.104 22.769-.467 4.549 3.928 5.649 10.87 4.383 15.697-3.035 11.577-21.595 18.954-47.467 18.954zm-.844-2.003c24.985.132 43.591-6.833 46.377-17.458 1.108-4.228.174-10.283-3.756-13.676-5.098-4.402-14.241-3.658-22.232 1.808a1 1 0 0 1-1.546-1.017c1.852-9.504-1.089-18.192-7.151-21.128C17.268.82 11.338 2.362 7.897 5.055-.755 11.824.204 31.67 10.249 54.554z" fill="#1d0333"/></svg></g></svg>