<svg xmlns="http://www.w3.org/2000/svg" viewBox="0 0 3000 2100" width="3000" height="2100"><g transform="translate(213.0 507.0) rotate(0.0 758.25 501.75) scale(4.033845466346051 4.046207814201041)"><svg width="375.944" height="248.01" viewBox="0 0 375.944 248.01"><path d="M5.571 4.277h372.943v245.01H5.571Z" transform="translate(-4.071 -2.777)" style="fill:#fff"/><path d="M378.514 250.786H5.571a1.5 1.5 0 0 1-1.5-1.5V4.277a1.5 1.5 0 0 1 1.5-1.5h372.943a1.5 1.5 0 0 1 1.5 1.5v245.009a1.5 1.5 0 0 1-1.5 1.5Zm-371.443-3h369.943V5.777H7.071Z" transform="translate(-4.071 -2.777)" style="fill:#1b1464"/><path d="M5.571 4.277h372.943v32.691H5.571Z" transform="translate(-4.071 -2.777)" style="fill:#fff"/><path d="M378.514 38.468H5.571a1.5 1.5 0 0 1-1.5-1.5V4.277a1.5 1.5 0 0 1 1.5-1.5h372.943a1.5 1.5 0 0 1 1.5 1.5v32.691a1.5 1.5 0 0 1-1.5 1.5Zm-371.443-3h369.943V5.777H7.071Z" transform="translate(-4.071 -2.777)" style="fill:#1b1464"/><circle cx="25.576" cy="17.472" r="6.116" style="fill:#fff"/><path d="M29.646 27.865a7.617 7.617 0 1 1 7.616-7.617 7.625 7.625 0 0 1-7.616 7.617Zm0-12.234a4.617 4.617 0 1 0 4.616 4.617 4.621 4.621 0 0 0-4.616-4.617Z" transform="translate(-4.071 -2.777)" style="fill:#1b1464"/><circle cx="46.301" cy="17.472" r="6.116" style="fill:#fff"/><path d="M50.372 27.865a7.617 7.617 0 1 1 7.616-7.617 7.625 7.625 0 0 1-7.616 7.617Zm0-12.234a4.617 4.617 0 1 0 4.616 4.617 4.622 4.622 0 0 0-4.616-4.617Z" transform="translate(-4.071 -2.777)" style="fill:#1b1464"/><circle cx="67.026" cy="17.472" r="6.116" style="fill:#fff"/><path d="M71.1 27.865a7.617 7.617 0 1 1 7.616-7.617 7.625 7.625 0 0 1-7.616 7.617Zm0-12.234a4.617 4.617 0 1 0 4.616 4.617 4.622 4.622 0 0 0-4.616-4.617Zm271.4 16.023a1.5 1.5 0 0 1-1.061-2.561L360.5 10.03a1.5 1.5 0 0 1 2.121 2.121L343.56 31.214a1.494 1.494 0 0 1-1.06.44Z" transform="translate(-4.071 -2.777)" style="fill:#1b1464"/><path d="M361.563 22.8a1.5 1.5 0 0 1-1.5-1.5v-8.71h-8.252a1.5 1.5 0 0 1 0-3h9.752a1.5 1.5 0 0 1 1.5 1.5V21.3a1.5 1.5 0 0 1-1.5 1.5Zm-9.407 8.854H342.4a1.5 1.5 0 0 1-1.5-1.5V19.946a1.5 1.5 0 0 1 3 0v8.708h8.252a1.5 1.5 0 0 1 0 3Z" transform="translate(-4.071 -2.777)" style="fill:#1b1464"/></svg></g><g transform="translate(1554.0 1017.0) rotate(0.0 213.0 296.25) scale(3.7417983469332183 3.7382646880678374)"><svg width="113.849" height="158.496" viewBox="0 0 113.849 158.496"><path d="M85.3 35.978h-3v-8.29a21.043 21.043 0 0 0-42.086 0v7.746h-3v-7.746a24.043 24.043 0 0 1 48.086 0Z" transform="translate(-4.352 -3.646)" style="fill:#1b1464"/><path d="M5.852 160.642H116.7V33.858H5.852Z" transform="translate(-4.352 -3.646)" style="fill:#1967ff"/><path d="M116.7 162.142H5.852a1.5 1.5 0 0 1-1.5-1.5V33.858a1.5 1.5 0 0 1 1.5-1.5H116.7a1.5 1.5 0 0 1 1.5 1.5v126.784a1.5 1.5 0 0 1-1.5 1.5Zm-109.349-3H115.2V35.358H7.352Z" transform="translate(-4.352 -3.646)" style="fill:#1b1464"/><path d="M35.645 84.719v-10.6L31.5 66.463h-8.289l-4.144 7.652v21.208h16.578Z" transform="translate(-4.352 -3.646)" style="fill:#fff"/><path d="M35.645 96.822H19.067a1.5 1.5 0 0 1-1.5-1.5V74.115a1.515 1.515 0 0 1 .181-.715l4.144-7.652a1.5 1.5 0 0 1 1.32-.785H31.5a1.5 1.5 0 0 1 1.319.785l4.146 7.652a1.514 1.514 0 0 1 .18.715v21.207a1.5 1.5 0 0 1-1.5 1.5Zm-15.078-3h13.578V74.5l-3.538-6.532h-6.5l-3.54 6.532Z" transform="translate(-4.352 -3.646)" style="fill:#1b1464"/><ellipse cx="23.004" cy="70.357" rx="2.304" ry="2.31" style="fill:#1b1464"/><path style="fill:#1b1464" d="M23.004 30.213v39.046m-1.5-39.046h3V69.26h-3z"/></svg></g><g transform="translate(1731.0 456.0) rotate(0.0 573.0 577.5) scale(3.9717472222029677 3.9795749607210777)"><svg width="288.538" height="290.232" viewBox="0 0 288.538 290.232"><path d="M52.432 243.576v48.376H23.171s-6.607-1.888-10.147-5.428-6.371-11.8-7.551-20.294 2.6-20.058 2.6-20.058ZM31.9 176.312c3.005 1.255 19.293 4.027 19.262.588 3.415.878 8.058.116 10.965-.318 5.369-.8 10.367-2.109 15.884-2.137 7.765-.039 15.486 1.053 23.257 1.069 4.976.01 9.979-.086 14.952-.258 7.2-.25 14.556-.63 21.714-1.484 6.04-.72 11.69-2.8 17.722-3.582a95.539 95.539 0 0 0 17.574-3.459c3.869-1.269 6.9-3.6 10.472-5.457 8.064-4.195 16.536-8.284 23.661-14.043 1.948-1.575 5.7-5.46 6.312-8.08-2.483.32-5.131-1.636-7.628-1.864-2.454-.225-4.605.235-7.134-.271-5.153-1.03-10.111-1.157-15.414-1.543-3.33-.242-6.251-1.74-9.514-2.217-2.967-.434-6.052-.279-8.963-.935-1.912-.43-4.858-1.575-5.978-3.269-1.688-2.553-.565-8.3-.388-11.293.223-3.787.306-7.572.49-11.365a17.032 17.032 0 0 1 5.621-11.585c-2.992-11.023-5.1-22.339-10.434-32.6-3.836-7.379-7.025-15.753-11.785-22.561-1.718-2.456-4.052-4.434-5.79-6.879-.941-1.321-1.371-2.784-2.2-4.157-2.379-3.931-4.739-4.711-8.908-3.822-2.437.52-6.455 1.5-8.141-.381-3.3.375-5 5.083-6.449 7.527-1.76 2.964-3.251 6.364-5.343 9.064-.687.888-2.046 1.724-2.389 2.876-.405 1.364.244 3.545.238 5-.014 3.151-.271 4.6-2.877 6.569-2.5 1.888-5.637 2.981-8.189 4.757-2.067 1.438-1.556 2.4-.239 4.728 1.985 3.5 2.111 5.183 1.791 9.258-.253 3.225-1.069 6.41-1.212 9.666s-.4 6.627.494 9.8c.788 2.783 2.344 2.321 4.878 2.876 3.352.734 6.037 1.678 9.6 1.479 3.208-.18 6.837-.617 7.037 3.6.171 3.6.33 7.221.221 10.837-.127 4.173.12 9.43-.879 13.51-.776 3.167-4.712 3.32-7.45 3.917-5.863 1.279-11.972 3.044-18.017 2.721-2.089-.112-4.22-.2-6.358-.273a22.938 22.938 0 0 1-.255-3.105c.18-3.188-.152-5.249 2.412-7 2.145-1.463 12.893-8.575 5.008-9.611-4.057-.533-6.376 2.776-9.636 4.3-1.484.695-.94.633-2.435.228a22.822 22.822 0 0 1-3.466-1.8c2.034-2.213 4.306-5.693 6.819-6.051 2.224-.317 4.626.136 7.124-.564 2.237-.626 4.715-1.181 6.278-3.134 1.327-1.657.218-5.531.37-5.63-5.323 1.051-11.059 1.249-16.506 2.033-6.5.934-8.683 7.271-15.391 7.694-5.756.362-12.437 5.211-18.272 7.765-2.2.962-2.816 5.037-4.241 7.3a47.335 47.335 0 0 0-4.265 8.181c-1.37 3.575-3.286 6.775-4.854 10.232-1.481 3.267-1.768 7.192-2.6 10.723-.8 3.419-1.647 7-2.779 10.314-.457 1.339-1.236 2.675-1.6 4.048-.718 2.75 5.406 7.056 7.823 8.068Zm41.686-47.365a10.3 10.3 0 0 0 .858 3.211c-.678 0-1.355-.011-2.028-.011a12.853 12.853 0 0 0 1.17-3.2Z" transform="translate(-4.444 -3.126)" style="fill:#fff"/><path d="M206.648 138.863c-1.708-.586-32.833 18.24-43.486 21.4-18.3 5.423-40.449 9.876-59.712 4.525-23.808-6.613-28.966-25.369-43.294-2.091-2.564 4.166-8.168 15.077-8.168 15.077s-15.725 1.783-29.181-6.323c-3.569 10.745-6.362 28.672-10.213 47.177-6.337 30.446-9.973 62.459 16.491 66.63 11.442 1.8 31.444 4.266 41.892 4.091 5.865-.1 27.214.772 27.214.772l26.263-15.077a239.259 239.259 0 0 0 41.826-4.863c.343 6.245 3.581 14.135 3.369 21.029 40.584.321 79.147 2.327 117.733.37 14.337-16.718-15.437-58.093-30.64-84.62-3.463-6.043-4.943-16.123-9.142-26.754-6.037-15.283-13.436-31.706-23.93-38.908-4.743-3.256-11.032-3.725-17.022-2.432Z" transform="translate(-4.444 -3.126)" style="fill:#ff89d8"/><path d="M226.969 232.672c4.064 9.524 14.909 17.122 15.669 27.727-5.444-1.7-14.537-.234-20.388.052a71.06 71.06 0 0 0-10.079 1.459c-3.317.618-8.192 1.509-11.36 2.918.978-8.719 2.313-18.733 3.891-25.874 2.215-10.019 3.938-19.139 8.755-28.111 9.61 3.397 9.972 13.532 13.512 21.829Z" transform="translate(-4.444 -3.126)" style="fill:#fff"/><path d="M122.875 17.478c-2.47 2.579-5.375 4.862-7.213 8.024a37.632 37.632 0 0 0 4.56.592 14.635 14.635 0 0 1 6.135 3.039c3.142 2.77 5.908 8.007 5.828 12.04-.074 3.687-.154 5.821 1.905 9.026 1.434 2.232 2.524 4.061 4.691 5.66 1.769 1.307 4.031 2.733 4.272 5.143.14 1.395-1.1 3.992-1.469 5.363-.877 3.254-1.362 4.4 1.1 6.856 3.675 3.675 7.355 7.617 9.9 12.176 1.523 2.728 3.065 5.623 3.484 8.764.627 4.715.13 9.715 1.548 14.348 1.626.48 4.095-1.04 5.481-1.8 2.452-1.334 2.908-.348 5.668.042 3.915.553 9.185-.2 12.212-2.837 1.986-1.73 1.117-2.7 1.926-4.725.72-1.8 3.736-2.7 5.46-2.855 5.192-.473 10.369 3.306 14.806-1.038 3.412-3.341.33-4.629 1.048-8.3.681-3.479 4.891-3.141 7.431-4.122a9.008 9.008 0 0 0 5.506-7.137c.705-4.692-1.907-7.782-4.658-11.2-3.361-4.179-6.341-6.7-7.305-12.173-.405-2.3.72-4.687-1.287-6.6-1.613-1.536-4.224-1.765-5.971-3.4-1.8-1.693-2.432-3.95-3.911-5.872-1.629-2.115-2.562-4.478-3.976-6.627a31.342 31.342 0 0 0-4.478-5.668c-1.632-1.383-3.832-2.386-5.595-3.65-4-2.866-6.806-2.809-11.468-2.809-3.677 0-7.621.532-11.027-.919-2.082-.886-2.812-2.613-4.638-3.831a12.321 12.321 0 0 0-5.665-1.39 46.164 46.164 0 0 0-9.577 1.483c-1.84.4-3.543.56-5.408 1.143-1.141.357-2.369 1.085-3.378.985Z" transform="translate(-4.444 -3.126)" style="fill:#1b1464"/><path d="M114.3 27.994c-.022.063-.05.13-.076.2-.024-.13-.018-.264.076-.2Z" transform="translate(-4.444 -3.126)" style="fill:#fff"/><path d="M114.8 54.647a3.247 3.247 0 0 0 1.2 1.678 1.957 1.957 0 0 0 2.124-.352 2.367 2.367 0 0 0 .792-2.542 3.608 3.608 0 0 0-.167-.61 3.333 3.333 0 0 0-1.334-1.517 2.049 2.049 0 0 0-1.847-.207c-1.328.603-1.241 2.41-.768 3.55Zm5.943-6.686a1.488 1.488 0 0 0 2.062 0 1.471 1.471 0 0 0 0-2.064 26.5 26.5 0 0 0-2.881-2.477 5.431 5.431 0 0 0-3.477-.735 7.042 7.042 0 0 0-5.787 3.663 1.491 1.491 0 0 0 .523 2 1.473 1.473 0 0 0 2-.523 4.832 4.832 0 0 1 .364-.647c.06-.087.186-.228.051-.073a4.491 4.491 0 0 1 .451-.466c.024-.022.35-.276.1-.1a5.757 5.757 0 0 1 .539-.348c.093-.052.189-.1.282-.149.052-.028.327-.149.059-.037a6.012 6.012 0 0 1 .6-.209c.2-.06.4-.109.605-.15 0 0 .382-.069.169-.035s.123-.013.165-.017c.194-.017.389-.026.584-.025.113 0 .226.01.338.011.232 0-.087-.03.088.007.117.025.23.058.346.087.245.061-.027-.03.105.033a4.405 4.405 0 0 1 .6.351c.063.044.255.193.1.07.094.076.185.154.276.234.2.18.4.367.6.555.373.355.743.712 1.137 1.045Zm-4.588 24.814a1.459 1.459 0 1 0-2.063-2.064 17.559 17.559 0 0 1-2.163 2.082 5.871 5.871 0 0 1-2.331 1.23 5.757 5.757 0 0 1-1.235.112c-.122 0-.244 0-.366-.009-.034 0-.405-.041-.233-.017.147.02-.129-.026-.155-.032-.114-.025-.228-.05-.341-.082s-.224-.07-.334-.11c-.228-.082.274.155-.11-.049-.2-.105-.39-.212-.575-.336a6.513 6.513 0 0 1-1.008-.948 1.472 1.472 0 0 0-2.063 0 1.492 1.492 0 0 0 0 2.063 7.217 7.217 0 0 0 3.18 2.153 8.056 8.056 0 0 0 3.712.123c2.418-.387 4.52-2.352 6.085-4.116Z" transform="translate(-4.444 -3.126)" style="fill:#1b1464"/><path d="M122.144 56.294a.747.747 0 0 0 .729-.73.734.734 0 0 0-.729-.73c-.66.083-1.236-.993-1.613-1.435a10.831 10.831 0 0 0-2.354-2.076 3.715 3.715 0 0 0-3.124-.432 6.959 6.959 0 0 0-2.658 1.781c-.717.609.32 1.636 1.031 1.032.389-.331.749-.7 1.163-1a2.672 2.672 0 0 1 3.674.514 17.172 17.172 0 0 1 1.785 1.894 2.571 2.571 0 0 0 2.1 1.185Z" transform="translate(-4.444 -3.126)" style="fill:#1b1464"/><path d="M120.8 56.1c.082-.147.13.974.082 1.192-.145.667-.023.363-.553.532a16.164 16.164 0 0 1-3.777.179 7.752 7.752 0 0 1-1.64.007c-.624-.107-.479-.022-.712-.586a24.146 24.146 0 0 0-1.582-2.674c1.244 0 7.379.8 8.182 1.35Z" transform="translate(-4.444 -3.126)" style="fill:#fff"/><path d="M115.73 63.086a3.4 3.4 0 0 1 3.264-3.538 17.05 17.05 0 0 0 6.311-1.5 3.4 3.4 0 1 1 2.708 6.247 23.866 23.866 0 0 1-8.744 2.057h-.14a3.405 3.405 0 0 1-3.399-3.266Z" transform="translate(-4.444 -3.126)" style="fill:#ff89d8;opacity:.5;isolation:isolate"/><path d="M121.675 97.3a1.457 1.457 0 0 0 0 2.063 1.451 1.451 0 0 0 1.031.427l4.138-.443a1.679 1.679 0 0 0 1.032-.428 1.459 1.459 0 0 0 0-2.063 1.455 1.455 0 0 0-1.032-.427l-4.138.443a1.663 1.663 0 0 0-1.031.428Zm12.264 39.058a1.459 1.459 0 0 0-2.064-2.064 40.937 40.937 0 0 1-.969.797c-.121.095-.144.113-.068.055l-.069.052-.217.164q-.7.522-1.436 1a23.717 23.717 0 0 1-3.253 1.738l2.2 1.26a25.874 25.874 0 0 0-.358-2.617c-.114-.572-.273-1.135-.395-1.706a6.816 6.816 0 0 0-1.431-3.524 1.459 1.459 0 0 0-2.064 2.064c.261.259-.107-.222.012 0 .055.1.113.2.167.307q.1.211-.035-.087a7.84 7.84 0 0 1 .195.581c.147.5.253 1.017.363 1.529s.255 1.025.36 1.542c.075.365.136.734.186 1.1-.042-.313.025.236.031.29.019.172.035.344.051.517a1.484 1.484 0 0 0 2.195 1.259 27.044 27.044 0 0 0 6.6-4.257Z" transform="translate(-4.444 -3.126)" style="fill:#1b1464"/><path d="M160.578 97.133a1.474 1.474 0 0 0-2 .524 1.489 1.489 0 0 0 .523 2 11.33 11.33 0 0 0 2.719 1.253c3.874 1.23 8.72.833 11.926-1.822a27.687 27.687 0 0 0 4.661-5.326 55.822 55.822 0 0 0 3.771-6.192 94.361 94.361 0 0 0 6.171-14.2c1.723-5.117 3.282-10.506 3.537-15.927a27.358 27.358 0 0 0-.773-8 31.97 31.97 0 0 0-2.9-7.085 32.41 32.41 0 0 0-8.133-9.958 37.288 37.288 0 0 0-13.264-7.03c-.987-.276-1.985-.514-2.961-.83a7.988 7.988 0 0 1-2.4-1.149c-.5-.379-.958-1.061-1.536-1.483a6.523 6.523 0 0 0-1.256-.689 31.815 31.815 0 0 0-8.919-2.1c-1.593-.189-6.436-.906-5.782 2.1l.375-1.419c-.1.106.3-.223.014-.033.178-.118.225-.075.013-.032-.121.024-.24.05-.36.073-.208.04.262-.024.04-.007-.062.005-.124.013-.185.018a15.978 15.978 0 0 1-1.844.023 31.632 31.632 0 0 1-3.531-.3 36.83 36.83 0 0 0-6.623-.73c-4.1.133-7.947 1.621-11.773 2.953-2.319.807-4.768 1.627-6.582 3.357a9.187 9.187 0 0 0-2.01 2.912 15.965 15.965 0 0 0-.775 2.128c-.114.4-.213.81-.3 1.219-.044.2-.088.337.05.1a.17.17 0 0 1-.026.034 14.822 14.822 0 0 0-1.11 1.494q-1.073 1.438-2.151 2.873-1.132 1.509-2.279 3.009l-.29.378c-.209.272.069-.087-.08.1l-.4.516c-.357.452-.736.892-1.066 1.364a7.262 7.262 0 0 0-1.117 5.088c.192 1.59.814 3.444.616 4.952a3.048 3.048 0 0 1-.778 1.651c-.145.159-.3.306-.46.453s-.234.174-.007.022c-.172.116-.336.243-.51.355-.966.628-2 1.157-3.015 1.693a38.672 38.672 0 0 0-6.712 3.961 4.1 4.1 0 0 0-1.58 2.96 5.42 5.42 0 0 0 1.483 3.787c.2.253.405.5.609.749.1.119.193.237.287.357-.148-.189.041.057.088.123a8.44 8.44 0 0 1 .517.834c.032.058.059.118.086.177-.109-.233-.013-.034 0 .018.047.151.093.3.132.451.007.028.053.3.033.147s0 .074 0 .087c0 .111.008.221.005.331 0 .072-.007.143-.013.215-.015.207-.039.413-.062.62a61.76 61.76 0 0 1-.106.851l-.071.542-.032.232c-.033.254.048-.348 0-.022q-.2 1.466-.393 2.931A111.385 111.385 0 0 0 90.9 88.4a25.153 25.153 0 0 0 .5 5.949c.357 1.514 1.1 3.137 2.666 3.694a8.688 8.688 0 0 0 1.928.291c.867.1 1.735.184 2.6.27 2.34.234 4.682.454 7.024.673q4.841.45 9.682.884l-1.458-1.461q0 1.17-.018 2.34c-.1 9.216-.313 18.465-1.146 27.647a1.469 1.469 0 0 0 1.459 1.459 1.5 1.5 0 0 0 1.459-1.459c.261-2.876.445-5.758.593-8.643q.548-10.659.57-21.344a1.491 1.491 0 0 0-1.459-1.46l-1.859-.167q-5.265-.474-10.529-.971-2.654-.251-5.305-.518-.935-.095-1.869-.2c-.239-.027-.478-.056-.717-.085-.339-.041.25.082.1.012-.107-.052-.383-.028-.111-.013.2.012.115.062 0-.011a.9.9 0 0 0-.128-.079c-.06-.021.276.279.055.034a1.922 1.922 0 0 0-.2-.219c.176.135.155.241.01-.013-.063-.108-.122-.218-.182-.329-.205-.382.061.208-.029-.054s-.174-.492-.242-.745a11.044 11.044 0 0 1-.216-.983c-.026-.149-.047-.3-.072-.447-.056-.33.037.353 0 .015-.01-.095-.023-.191-.034-.287a28 28 0 0 1-.145-2.3 79.577 79.577 0 0 1 .662-10.972c.187-1.655.4-3.307.62-4.958.036-.272-.045.331.012-.094l.032-.234.067-.5q.084-.612.165-1.224c.067-.5.133-.992.192-1.49a6.069 6.069 0 0 0-.794-4.052 13.465 13.465 0 0 0-1-1.354c-.163-.2-.33-.4-.494-.6l-.16-.2c-.262-.324.155.235-.078-.1-.139-.2-.281-.4-.4-.613-.058-.1-.113-.21-.162-.318.147.319 0-.03-.018-.092-.023-.1-.048-.19-.068-.287-.044-.209-.022.338.006-.03.009-.126 0-.252.013-.378-.033.3.009-.006.034-.079s.037-.14.06-.208q.122-.336-.051.1a1.747 1.747 0 0 1 .1-.165c.146-.206-.226.2-.079.095a1.3 1.3 0 0 0 .13-.147 6.94 6.94 0 0 1 .351-.335c.06-.053.125-.1.185-.156.259-.231-.263.178.035-.027a31.41 31.41 0 0 1 2.362-1.486c1.845-1.043 3.757-1.964 5.6-3 1.906-1.075 3.744-2.493 4.207-4.772a11.491 11.491 0 0 0-.232-4.391c-.126-.691-.248-1.287-.3-1.9a6.109 6.109 0 0 1 .035-1.542 5.681 5.681 0 0 1 1.308-2.381c.568-.72 1.124-1.448 1.68-2.176q1.821-2.389 3.612-4.8.6-.809 1.206-1.619a3.983 3.983 0 0 0 .665-1.658 17.21 17.21 0 0 1 .479-1.666c.047-.136.095-.27.147-.4.009-.023.188-.443.061-.157.087-.2.179-.393.279-.584q.168-.326.364-.636c.06-.094.459-.638.239-.365a7.464 7.464 0 0 1 .792-.847c.094-.086.2-.165.289-.25.269-.246-.252.165.05-.041.153-.1.3-.213.457-.312a11.35 11.35 0 0 1 1.1-.617c.219-.107.441-.206.663-.306.379-.171-.276.107.117-.05l.3-.121c.448-.177.9-.342 1.353-.5a70.195 70.195 0 0 1 8.475-2.7 17.611 17.611 0 0 1 4.855-.422c1.788.108 3.545.509 5.319.739a21.578 21.578 0 0 0 5.993.153 3.455 3.455 0 0 0 1.289-.423 1.757 1.757 0 0 0 .819-1 1.945 1.945 0 0 0 0-.775 1.43 1.43 0 0 1-.134.99c-.032.055-.6.516-.35.384-.461.247-.24.116-.062.06.346-.108-.217 0-.052 0 .112 0 .225-.019.337-.025a15.724 15.724 0 0 1 2.1.069c.416.035.83.079 1.243.129l.357.046c-.37-.048.04 0 .1.014.205.029.411.06.616.092a34.739 34.739 0 0 1 5.409 1.238c.36.118.713.251 1.067.389-.419-.163.133.063.233.112.122.06.243.123.361.191a2.3 2.3 0 0 0 .393.253c.131.038-.24-.269-.122-.089.029.045.091.076.125.12a6.817 6.817 0 0 0 1.014 1.052c2.061 1.694 4.706 2.125 7.189 2.874a34.582 34.582 0 0 1 8.327 3.9A30.53 30.53 0 0 1 185.7 43.828a27.188 27.188 0 0 1 3.053 8.546 28.15 28.15 0 0 1-.312 9.543 79.2 79.2 0 0 1-2.61 9.813 81.073 81.073 0 0 1-3.658 9.321c-2.439 5.2-5.124 10.562-9.165 14.719a8.126 8.126 0 0 1-2.757 2.092 10.966 10.966 0 0 1-3.111.733 10.447 10.447 0 0 1-6.557-1.462Z" transform="translate(-4.444 -3.126)" style="fill:#1b1464"/><path d="M121.562 18.47a1.5 1.5 0 0 0 2 .525 1.468 1.468 0 0 0 .524-2 5.515 5.515 0 0 0-1.653-1.508c-2.467-1.39-5.68-.894-8.264-.133a22.6 22.6 0 0 0-7.508 3.939c-2.5 1.958-4.569 4.61-4.922 7.848-.073.67-.016 1.581-.091 2.1a8.148 8.148 0 0 1-.529 1.882 8.906 8.906 0 0 1-2.619 3.282 19.144 19.144 0 0 1-3.759 2.164A10.617 10.617 0 0 0 91 39.524a10.8 10.8 0 0 0-2.1 4.928 19.611 19.611 0 0 1-1.014 4.931c-.1.209-.226.4-.328.6s-.041.073.008.012c-.04.05-.084.1-.128.146-.093.1-.189.189-.287.281-.05.047-.1.092-.157.134.174-.139-.018.009-.048.029a10.5 10.5 0 0 1-1.786.958c-.439.189-1.272.489-1.874.7s-1.234.43-1.838.678c-.353.145-.231.1-.526.216-.194.076-.389.148-.584.218-.333.121-.668.237-1 .363a9.41 9.41 0 0 0-2.272 1.128 6.1 6.1 0 0 0-2.475 5.033c-.029 1.624.3 3.308-.522 4.725a10.552 10.552 0 0 1-3 2.9 20.356 20.356 0 0 0-3.462 2.909 8.165 8.165 0 0 0-1.964 4.46A1.467 1.467 0 0 0 67.1 76.34a1.507 1.507 0 0 0 1.459-1.459 4.53 4.53 0 0 1 .568-1.619 9.8 9.8 0 0 1 2.5-2.552 32.218 32.218 0 0 0 3.524-2.81 7.8 7.8 0 0 0 2.349-4.609 16.478 16.478 0 0 0 .021-2.61 5.408 5.408 0 0 1 .233-2.253c.533-1.3 1.9-1.729 3.11-2.164.363-.13.725-.261 1.082-.407.1-.043.692-.282.4-.167.125-.049.25-.1.376-.146.621-.236 1.251-.447 1.875-.672a15.617 15.617 0 0 0 3.944-1.848 6.77 6.77 0 0 0 2.535-3.982c.423-1.635.467-3.339.881-4.975a7.105 7.105 0 0 1 2.157-3.614 17.671 17.671 0 0 1 3.684-2.119 15.158 15.158 0 0 0 3.694-2.708 11.284 11.284 0 0 0 2.49-3.829 9.662 9.662 0 0 0 .56-2.336c.09-.72.044-1.437.1-2.156a.548.548 0 0 1 .02-.173 8.142 8.142 0 0 1 .158-.703 8.082 8.082 0 0 1 .276-.807 9.793 9.793 0 0 1 1.035-1.73 14.842 14.842 0 0 1 2.85-2.718 22.383 22.383 0 0 1 3.674-2.155c.151-.071.3-.138.457-.208s-.083.033-.092.037l.163-.066a19.52 19.52 0 0 1 2.472-.806q.479-.121.963-.217.264-.051.529-.094a8.406 8.406 0 0 1 .222-.035 10.7 10.7 0 0 1 1.952-.062c.077 0 .5.055.256.018.138.021.277.047.414.078a4.976 4.976 0 0 1 .781.235c-.238-.095.115.067.188.107a3.436 3.436 0 0 1 .384.247c-.258-.2.406.454.222.215Z" transform="translate(-4.444 -3.126)" style="fill:#1b1464"/><path d="M123.383 15.382a1.494 1.494 0 0 0-1.8 1.02 1.471 1.471 0 0 0 1.019 1.795 4.965 4.965 0 0 0 1.885-.053 19.081 19.081 0 0 0 4.213-1.55c1.7-.777 3.35-1.649 4.983-2.549 2.773-1.528 5.49-3.155 8.179-4.825a21.115 21.115 0 0 1 5.463-2.627 14.459 14.459 0 0 1 7.529-.174 18.375 18.375 0 0 1 3.96 1.705 9.456 9.456 0 0 1 2.387 2.066 19.446 19.446 0 0 0 2.664 2.6 9.073 9.073 0 0 0 3.586 1.548c2.88.606 5.792.19 8.7.176a12.355 12.355 0 0 1 6.63 1.693 13.978 13.978 0 0 1 1.219.815c-.181-.135.28.228.343.282q.256.218.5.447a14.437 14.437 0 0 1 1.017 1.053c.131.15.257.3.384.456.042.052.22.282.057.07.068.087.133.176.2.265a19.791 19.791 0 0 1 1.446 2.312 26.523 26.523 0 0 1 .92 1.886c.046.1.091.209.137.313.176.4-.061-.15.041.094 1.512 3.613 2.519 7.414 4.062 11.017 1.611 3.764 4.01 7.589 7.759 9.519 2.386 1.229 5.069 1.8 7.277 3.373a14.945 14.945 0 0 1 4.444 5.574c1 2.006 1.6 4.293 2.59 6.392a11.308 11.308 0 0 0 4.921 5.25c1.657.887 3.129-1.632 1.473-2.52a8.339 8.339 0 0 1-2.6-2.077 10.018 10.018 0 0 1-.841-1.282 14.517 14.517 0 0 1-.691-1.426 17.282 17.282 0 0 1-.247-.623c-.1-.255-.193-.511-.287-.767-.183-.5-.362-1-.549-1.492a23.478 23.478 0 0 0-3.839-6.882 16.046 16.046 0 0 0-6.636-4.573c-2.268-.9-4.456-1.669-6.2-3.449a16.26 16.26 0 0 1-1.183-1.349c.147.187 0 0-.022-.031a17.711 17.711 0 0 1-.4-.556 22.265 22.265 0 0 1-1.476-2.478q-.333-.648-.633-1.31c-.1-.212-.189-.425-.282-.638-.025-.057-.141-.336-.044-.1l-.106-.259a60.51 60.51 0 0 1-1.042-2.765c-1.285-3.638-2.364-7.409-4.282-10.782a16.547 16.547 0 0 0-9.034-7.688c-2.748-.941-5.7-.664-8.546-.551a19.335 19.335 0 0 1-4-.127 7.27 7.27 0 0 1-3.254-1.312 23.875 23.875 0 0 1-2.333-2.405A11.412 11.412 0 0 0 160.1 5.5a23.574 23.574 0 0 0-4.062-1.778 14.6 14.6 0 0 0-4.558-.6 18.858 18.858 0 0 0-7.58 1.64 37.921 37.921 0 0 0-4.351 2.459c-2.955 1.82-5.946 3.59-9.015 5.211-.823.435-1.653.858-2.492 1.261q-.626.3-1.261.583c-.1.043-.631.271-.3.135q-.236.1-.472.193a15.125 15.125 0 0 1-1.9.638c-.154.038-.309.066-.463.1-.374.083.34-.005-.027.005-.1 0-.206 0-.306.012-.355.033.167.038.073.022Zm-8.755 12.158a1.5 1.5 0 0 0-1.794 1.019 1.469 1.469 0 0 0 1.019 1.795 2.253 2.253 0 0 1 .476.13c.073.026.481.2.128.046.109.048.218.1.327.146.547.25 1.084.521 1.62.793a30.2 30.2 0 0 0 2.963 1.412 11.631 11.631 0 0 1 3.555 2.875c.133.136.257.279.386.418.263.284-.114-.229.062.081.106.188.215.375.32.564.065.146.061.135-.011-.035.031.077.06.153.089.231.05.128.1.258.143.388.121.333.239.666.366 1a19.97 19.97 0 0 1 1.669 4.708c.2 1.7-.2 3.424-.157 5.13a16.3 16.3 0 0 0 .877 4.947 14.41 14.41 0 0 0 2.424 4.225c.817 1.031 1.588 2.123 2.477 3.092.814.889 1.695 1.714 2.536 2.577a15.172 15.172 0 0 1 2.3 2.784 6.092 6.092 0 0 1 .391.752c-.118-.283.033.123.042.151.039.123.063.25.1.373.108.365.015-.268.018.107 0 .123.009.244 0 .367-.018.351.106-.252-.038.181-.036.108-.062.22-.1.327-.5 1.342-1.609 2.548-1.88 4.055a5.275 5.275 0 0 0 .09 2.51 14.642 14.642 0 0 0 .95 2.069 15.562 15.562 0 0 0 2 3.29 33.408 33.408 0 0 0 3.039 2.761 20.119 20.119 0 0 1 2.9 3.45 11.78 11.78 0 0 1 1.833 3.3 6.356 6.356 0 0 1-.479 3.9c-.589 1.525-1.149 3.175-.483 4.779a1.5 1.5 0 0 0 1.794 1.019 1.467 1.467 0 0 0 1.019-1.794c-.6-1.441.511-2.992.923-4.491a8.018 8.018 0 0 0-.367-5.3 21.013 21.013 0 0 0-2.674-4.221 23.714 23.714 0 0 0-3.786-3.886 9.94 9.94 0 0 1-2.23-2.412c-.4-.663-.719-1.366-1.066-2.056a5.4 5.4 0 0 1-.643-1.484 3.211 3.211 0 0 1 .317-1.683c.308-.638.7-1.23 1.03-1.858a5.205 5.205 0 0 0 .541-4.084c-.794-2.518-2.945-4.443-4.758-6.252a38.101 38.101 0 0 1-1.357-1.4q-.264-.291-.511-.6c.033.04.164.227.011.01-.12-.169-.247-.333-.372-.5a29.16 29.16 0 0 1-2.592-3.516 11.476 11.476 0 0 1-1.3-4.421 49.211 49.211 0 0 1 .125-5.152 12.912 12.912 0 0 0-1.287-5.28c-.519-1.221-.875-2.556-1.5-3.727a11.757 11.757 0 0 0-2.588-2.838 12.755 12.755 0 0 0-2.153-1.7 6.728 6.728 0 0 0-1.175-.527c-.4-.139.209.112-.1-.033-.945-.446-1.87-.931-2.8-1.4a9.377 9.377 0 0 0-2.666-1.118Zm44.305 67.928a1.459 1.459 0 0 0-2.917 0c-.045 3.283.942 6.463.935 9.743q-.011 5.252 0 10.5c0 3.176-.308 6.343-.283 9.517a19.4 19.4 0 0 0 .474 4.577 2.351 2.351 0 0 0 .627 1.2c1.053 1.031 2.876 1.387 4.248 1.745a170.882 170.882 0 0 0 17.631 3.25c7.421 1.124 14.863 2.111 22.309 3.05q7.758.977 15.526 1.874l1.536.178c.068.008.136.015.2.024.136.019-.328-.1.087.027.237.071.473.131.707.211.144.049.265.111.041.011.117.052.233.106.347.165a11.894 11.894 0 0 1 2.83 2.021 36.057 36.057 0 0 1 3.221 3.366c5.179 6.066 9.307 13.1 13.133 20.071a185.874 185.874 0 0 1 5.177 10.117 55.609 55.609 0 0 1 2.9 6.885c.669 2.054 1.063 4.209 1.617 6.3.75 2.821 1.566 5.624 2.483 8.4a98.92 98.92 0 0 0 5.662 13.73 119.537 119.537 0 0 0 7.163 12.04c1.67 2.511 3.383 4.987 4.957 7.56 1.845 3.015 3.581 6.095 5.367 9.145 4.778 8.165 9.919 16.106 12.953 25.143a33.893 33.893 0 0 1 2.119 13.415 15.282 15.282 0 0 1-1.5 5.606 13.061 13.061 0 0 1-1.59 2.471 14.93 14.93 0 0 1-1.182 1.257c-.02.019-.624.542-.617.556-.037-.07.73-.252.31-.176a21 21 0 0 0-2.19.657 4.621 4.621 0 0 0-.974.292c-.228.136.2-.069.27-.019-.066-.048-.336 0-.413 0h-2.554l-11.027.006-17.005.01-20.691.011-22.082.012-21.266.012-17.961.01-12.459.007h-4.662a1.46 1.46 0 0 0 0 2.918h9.951l15.528-.009 20.025-.011 22.015-.012 21.758-.012 19.178-.011 14.272-.008c2.35 0 4.7.035 7.054 0a13.89 13.89 0 0 0 4.08-1.055 6.716 6.716 0 0 0 2.41-2.023 16.434 16.434 0 0 0 1.926-2.637 17.247 17.247 0 0 0 2.094-6.009c1.467-9.434-2.68-19.172-6.883-27.391-1.946-3.807-4.136-7.47-6.363-11.118-3.611-5.916-6.872-12.029-10.777-17.763-5.374-7.893-10.1-16.061-13.3-25.09-1.9-5.368-3.171-10.868-4.69-16.345a46.347 46.347 0 0 0-2.7-6.742 180.047 180.047 0 0 0-11.228-20.758 107.887 107.887 0 0 0-6.913-9.9 32.369 32.369 0 0 0-6.668-6.663c-2.823-1.95-6.488-1.876-9.783-2.266q-9.642-1.14-19.268-2.408c-7.248-.961-14.493-1.975-21.7-3.22-2.755-.476-5.511-.979-8.234-1.616a39.53 39.53 0 0 1-2.876-.766c-.346-.109-.683-.235-1.023-.357-.318-.115.208.1.051.023-.06-.031-.125-.053-.185-.086-.1-.056-.21-.121-.315-.168-.348-.155.09.108.016.029-.228-.242.17.251.08.125-.008-.012.109.527.067.1-.035-.358-.162-.718-.216-1.075a17.922 17.922 0 0 1-.178-2.207c-.1-3.143.273-6.282.271-9.424 0-3.628-.021-7.255 0-10.882.018-3.412-.98-6.719-.933-10.125Z" transform="translate(-4.444 -3.126)" style="fill:#1b1464"/><path d="M207.7 139.637a1.46 1.46 0 0 0-1.473-2.52q-1.6.935-3.218 1.839a169.048 169.048 0 0 1-26.9 12.08 178.477 178.477 0 0 1-28.628 7.292 129.09 129.09 0 0 1-14.9 1.856 61.982 61.982 0 0 1-14.769-1.023A80.045 80.045 0 0 1 89.5 148.1c-2.161-1.39-4.334-2.761-6.486-4.165a130.802 130.802 0 0 1-3.51-2.351c-.25-.174-.5-.35-.744-.531l-.245-.182c-.284-.207.234.2-.008-.006-.124-.1-.246-.214-.372-.316a1.011 1.011 0 0 0-.1-.11c.11-.017.3.506.309.531a1.472 1.472 0 0 0-1.794-1.019 1.493 1.493 0 0 0-1.019 1.794 2 2 0 0 0 .719 1.021 60.3 60.3 0 0 0 6.748 4.63c2.534 1.634 5.059 3.305 7.653 4.842a76.607 76.607 0 0 0 14.524 6.536 83.42 83.42 0 0 0 14.893 3.708 64.233 64.233 0 0 0 15.649.38 188.941 188.941 0 0 0 15.474-2.241 176.462 176.462 0 0 0 28.99-7.952 174.639 174.639 0 0 0 27.519-13.032Zm5.872 63.439a1.467 1.467 0 0 0 0 2.062 1.5 1.5 0 0 0 2.063 0 3.414 3.414 0 0 0 .87-1.09c1.1-2.11.868-4.811.7-7.1-.208-2.862-.6-5.715-.656-8.588a23.905 23.905 0 0 1 .036-1.967c.02-.3.062-.606.084-.91-.031.438.007-.03.025-.139a9.397 9.397 0 0 1 .278-1.186c.039-.121.084-.238.126-.358.107-.306-.156.291.031-.06.109-.2.239-.4.351-.6.071-.129-.237.248.025-.023.075-.077.157-.152.23-.232.234-.254-.257.139.047-.04.084-.05.167-.1.25-.152.041-.024.094-.04.133-.068.21-.145-.266.061-.106.044a2.59 2.59 0 0 0 .334-.107c.133-.035.267-.055.4-.083-.305.062-.161.02.045.01.141-.007.281 0 .422 0 .328 0-.281-.1.094.018.077.023.158.052.236.07.15.035.034.119-.13-.055a.843.843 0 0 0 .265.155c-.282-.065-.2-.2-.115-.088a1.216 1.216 0 0 0 .137.131c.036.032.062.088.1.113.122.078-.164-.309-.066-.077a3.174 3.174 0 0 0 .2.349c.107.177-.086-.3.011.044.076.267.135.531.2.8.063.286-.02-.32 0 0 0 .068.013.136.018.2.011.139.018.278.023.417a13.668 13.668 0 0 1-.104 2.04c-.009.08-.02.159-.03.239.042-.33.006-.05-.007.032-.028.182-.056.364-.088.545a35.64 35.64 0 0 1-1.02 4.2c-.992 3.3-2.412 6.451-3.644 9.66a273.216 273.216 0 0 0-9.833 30.329 193.247 193.247 0 0 0-5.388 31.751 1.47 1.47 0 0 0 1.459 1.459 1.5 1.5 0 0 0 1.459-1.459q.169-2.038.383-4.073a193.932 193.932 0 0 1 6.266-32 303.533 303.533 0 0 1 10.7-30.915 43.077 43.077 0 0 0 2.273-7.328c.523-2.547 1.213-6.348-.866-8.425-2.006-2-5.456-1.022-6.89 1.131-1.41 2.117-1.347 5.089-1.24 7.521.129 2.938.549 5.854.7 8.79.032.644.051 1.289.038 1.933-.006.3-.019.6-.042.9-.01.133-.026.267-.038.4-.03.351.062-.321-.01.076-.045.246-.09.491-.157.732-.03.105-.065.208-.1.313-.071.223-.1.185.02-.027-.025.042-.308.562-.318.552-.082-.084.305-.293.035-.068-.075.062-.14.133-.217.194Z" transform="translate(-4.444 -3.126)" style="fill:#1b1464"/><path d="M244.478 259.906a1.472 1.472 0 0 0 0 2.062 1.494 1.494 0 0 0 2.064 0 3.81 3.81 0 0 1 .662-.508 9.923 9.923 0 0 1 .891-.522 9.591 9.591 0 0 1 1.813-.735 26.52 26.52 0 0 1 9.548-.94q1.11.06 2.215.186c.116.014.524.066.439.054l.4.059c.384.058.767.118 1.15.184a49.343 49.343 0 0 1 5.089 1.125c3.158.887 6.6 2.164 8.885 4.491a4.183 4.183 0 0 1 .6.719c.092.141.171.289.256.434.035.06.064.125.094.187-.1-.217-.006-.019.011.028.059.165.1.334.146.5.07.239.022-.157.018.17 0 .125-.029.448.02.156-.023.14-.066.273-.1.409s.122-.176-.023.045c-.034.052-.063.109-.1.162-.021.035-.183.242-.077.115s-.052.047-.061.055c-.071.06-.133.133-.2.193 0 0-.183.141-.085.07 0 0-.282.171-.387.227a5.182 5.182 0 0 1-2.381.565 12.681 12.681 0 0 1-5.168-1.356c-1.724-.769-3.417-1.595-5.158-2.326a106.889 106.889 0 0 0-10.794-3.853c-7.5-2.235-15.422-3.847-23.278-3.636a81.834 81.834 0 0 0-8.234.824 1251.67 1251.67 0 0 0-12.489 1.682q-7.577 1.052-15.148 2.148-7.667 1.109-15.325 2.26c-4.227.638-8.452 1.285-12.671 1.972-2.4.392-4.83.741-7.2 1.288a1.468 1.468 0 0 0-.644 2.438 3.554 3.554 0 0 1 .334.315c.067.071.353.428.231.265s.178.259.238.349c.114.172.222.347.328.523a26.548 26.548 0 0 1 1.319 2.567c.694 1.518 1.349 3.206 1.971 4.98a27.865 27.865 0 0 1 1.044 3.334c.053.246.086.5.122.744-.067-.467.012.117.025.227.024.2.045.389.066.584.092.869.169 1.74.236 2.611.062.814.117 1.63.148 2.447.012.3.022.6.018.895a1.811 1.811 0 0 0-.011.3 1.191 1.191 0 0 1 .16-.513 1.491 1.491 0 0 0 .523 2 1.47 1.47 0 0 0 2-.523 4.582 4.582 0 0 0 .233-2.158 68.245 68.245 0 0 0-.186-2.93 30.916 30.916 0 0 0-.545-4.585 35.419 35.419 0 0 0-1.233-3.825 61.321 61.321 0 0 0-2.343-5.693 11.576 11.576 0 0 0-2.609-3.975l-.644 2.438c.369-.085.741-.16 1.113-.232 3.017-.587 6.058-1.057 9.093-1.537q7.023-1.113 14.057-2.147 7.947-1.182 15.9-2.316 7.413-1.06 14.834-2.075l1.629-.221.476-.064.222-.03.218-.029.355-.048q1.431-.19 2.863-.378c1.52-.2 3.04-.394 4.561-.576a54.65 54.65 0 0 1 14.02.123 97.211 97.211 0 0 1 23.221 6.421c3.521 1.433 7.009 3.646 10.875 4.129 3.488.437 8.247-1.4 7.469-5.655a7.191 7.191 0 0 0-2.67-4 19.784 19.784 0 0 0-4.658-2.833 42.327 42.327 0 0 0-10.554-2.935 37.689 37.689 0 0 0-9.808-.341c-3.338.354-6.821 1.16-9.4 3.436Z" transform="translate(-4.444 -3.126)" style="fill:#1b1464"/><path d="M215.764 210.556a1.5 1.5 0 0 0-2 .523 1.471 1.471 0 0 0 .523 2 7.627 7.627 0 0 1 .961.512c.149.095.292.2.439.3.228.151-.095-.082.039.027.063.051.127.1.189.154a12.743 12.743 0 0 1 1.614 1.646c.072.086.142.174.213.262.025.032.167.217.024.029a24.432 24.432 0 0 1 1.088 1.579c.482.763.926 1.55 1.345 2.35 1.577 3.009 2.668 5.843 3.935 8.956.58 1.426 1.163 2.855 1.817 4.25.8 1.714 1.785 3.342 2.731 4.978 1.263 2.183 2.55 4.351 3.828 6.525 1.167 1.985 2.253 4.03 3.577 5.917 2.127 3.032 5.111 6.233 5.574 9.959a1.5 1.5 0 0 0 1.459 1.459 1.468 1.468 0 0 0 1.46-1.459c-.61-4.9-3.994-8.389-6.595-12.344-1.342-2.042-2.494-4.224-3.735-6.33-1.32-2.24-2.643-4.478-3.931-6.737a48.315 48.315 0 0 1-2.269-4.368q-.233-.523-.454-1.051c.09.214-.089-.214-.124-.3l-.219-.531c-.313-.761-.62-1.524-.93-2.287a74.631 74.631 0 0 0-4.375-9.513c-1.476-2.544-3.416-5.263-6.187-6.5ZM64.065 140.491a1.459 1.459 0 0 0-2.52-1.472 82.44 82.44 0 0 1-5.158 8.717c-.174.252-.349.5-.534.746.149-.2-.048.059-.094.115-.079.1-.16.192-.244.285-.161.179-.335.343-.508.511-.034.033-.341.279-.067.071a3.923 3.923 0 0 1-.289.2 6.831 6.831 0 0 1-.637.354c-.29.147.164-.042-.13.052-.153.049-.3.1-.459.15a9.457 9.457 0 0 1-1.834.337 1.525 1.525 0 0 0-1.407 1.071 21.516 21.516 0 0 0-.847 6.121c-.177 6.428.567 12.815 1.142 19.208a1.49 1.49 0 0 0 1.459 1.459 1.47 1.47 0 0 0 1.462-1.456c-.2-2.234-.406-4.467-.6-6.7-.245-2.8-.528-5.619-.576-8.435-.025-1.49 0-2.988.049-4.477a17.7 17.7 0 0 1 .729-4.94l-1.407 1.071a10.418 10.418 0 0 0 4.331-1.166 9.016 9.016 0 0 0 2.655-2.633 73.906 73.906 0 0 0 5.489-9.187Z" transform="translate(-4.444 -3.126)" style="fill:#1b1464"/><path d="M73.694 113.1a1.471 1.471 0 0 0 0 2.062 1.5 1.5 0 0 0 2.064 0c.782-.681 1.5-1.426 2.215-2.174a17.024 17.024 0 0 1 1.99-1.874 8.543 8.543 0 0 1 .742-.5c.145-.089.478-.372.637-.355-.221-.024-.435.171-.221.114.189-.05-.444.041-.174.025 1.061-.061 2.12-.121 3.183-.157 1.182-.039 2.365-.067 3.546-.126a9.006 9.006 0 0 0 2.562-.564c2.592-.888 6.065-2.072 7.134-4.876a3.8 3.8 0 0 0-.566-3.574c-.258-.392-.5-.794-.773-1.177a1.946 1.946 0 0 0-1.7-.785 34 34 0 0 0-5.647.34c-2.609.262-5.213.578-7.814.912q-2.834.363-5.663.757a6.285 6.285 0 0 0-2.453 1.294l-9.5 6.24.736-.2a11.587 11.587 0 0 0-2.231.184 38.148 38.148 0 0 0-10.256 3.753q-3.712 1.8-7.272 3.9a2.605 2.605 0 0 0-1.066.954c-.279.5-.526 1.018-.788 1.526l-3.355 6.5q-3.843 7.446-7.688 14.891a15.124 15.124 0 0 0-1.215 2.579q-1.12 3.8-2.212 7.6a774.744 774.744 0 0 0-3.323 11.858c-.48 1.777-.85 3.609-1.4 5.365-.309.986-.747 1.947-1.117 2.912a1.462 1.462 0 0 0 .671 1.648c2.026 1 3.94 2.2 5.9 3.322a31.666 31.666 0 0 0 12.923 4.232 41.992 41.992 0 0 0 5.62.059c.731-.029 1.464-.059 2.2-.033.194.007.387.018.579.035.107.01.545.086.165.014.282.054.56.108.835.189 1.809.532 2.574-2.285.776-2.814a15 15 0 0 0-4.834-.3 38.97 38.97 0 0 1-5.635-.1 27.006 27.006 0 0 1-6.7-1.615c-3.647-1.383-6.851-3.783-10.353-5.512l.671 1.648.349-.908a23.169 23.169 0 0 0 .919-2.611q.5-1.977 1.03-3.946c.8-3 1.642-6 2.491-8.993q1.119-3.94 2.265-7.873.378-1.3.758-2.594a9.353 9.353 0 0 0 .34-1.154c.022-.145-.248.479-.1.249.06-.095.1-.2.156-.3l.648-1.254q1.182-2.292 2.367-4.585l6.26-12.127 3.4-6.59-.523.523c.066-.04.132-.082.2-.12 1.344-.76 2.673-1.541 4.035-2.27q1.639-.876 3.309-1.692.9-.44 1.815-.857.5-.226 1-.444l.466-.2c.238-.1-.054.021.185-.078a39.7 39.7 0 0 1 3.663-1.34 23.024 23.024 0 0 1 1.71-.455c.285-.063.571-.12.859-.168.139-.022.413-.053.106-.019.106-.012.212-.025.318-.035a4.655 4.655 0 0 0 1.825-.235c.1-.052.185-.121.276-.181l1.639-1.077L72 106.428l2.409-1.583a16.117 16.117 0 0 0 1.358-.892c.252-.2-.225.068-.209.072a1.306 1.306 0 0 0 .364-.051q.876-.123 1.754-.241l.344-.047h.022l.633-.085 1.5-.2q1.729-.224 3.46-.435c2.292-.278 4.586-.542 6.887-.739a49.92 49.92 0 0 1 2.65-.171c.314-.01.629-.017.943-.006.118 0 .236.017.354.021.263.007-.45-.089-.091-.007l-.872-.671c.1.16 1.243 1.851 1.223 1.866-.1.075-.089-.451-.045 0 .036.364.058-.292 0 .055-.018.118-.113.513.007.138-.029.094-.061.2-.082.3-.058.272.141-.171-.022.036a2.1 2.1 0 0 0-.168.276c-.093.13-.084.12.029-.029-.049.058-.1.116-.15.172-.083.082-.162.169-.248.249-.1.1-.211.189-.32.279-.185.152.282-.185-.055.037-.218.144-.432.292-.657.425a13.954 13.954 0 0 1-1.332.686c-.046.021-.548.238-.282.127-.125.052-.252.1-.378.153q-.31.123-.623.238c-.441.163-.886.316-1.331.466-.194.065-.856.166-.976.321.076-.1.51-.049.135-.026-.134.009-.267.019-.4.026-.814.045-1.628.067-2.443.094-.963.031-1.926.06-2.888.1a11.158 11.158 0 0 0-2.161.175 8.542 8.542 0 0 0-3.312 2.23c-1.144 1.072-2.154 2.273-3.339 3.3Z" transform="translate(-4.444 -3.126)" style="fill:#1b1464"/><path d="M62.539 111.42a1.462 1.462 0 0 0-1.475 2.522c.248.146.487.308.722.475.142.1.282.209.423.313.2.143-.238-.192.086.067l.159.127c.734.585 1.445 1.2 2.147 1.819a122.591 122.591 0 0 1 4.833 4.539 92.696 92.696 0 0 1 3.52 3.63q.323.354.635.716c.079.093.158.186.235.279s.2.379.119.144 0 0 .065.095a1.951 1.951 0 0 0 .109.174c.009.01.022.061.033.063-.111-.027-.156-.474-.159-.552.006.169-.072-.035.029-.168a1.047 1.047 0 0 0-.075.259c-.062.267.145-.234-.022.046-.061.1-.11.219-.168.325-.107.195-.221.386-.338.574-.247.4-.51.784-.774 1.168a13.911 13.911 0 0 0-1.331 2.258c-.669 1.492-1.248 3.021-1.812 4.555-.5 1.353-1.044 2.692-1.5 4.059a7.3 7.3 0 0 1-.54 1.293c-.1.2-.051 0 0 .014q-.181.177.043-.014l.184-.075c-.051.024-.108.018-.158.039.3-.124.229-.02.035-.032-.3-.019.273.1 0 0-.1-.035-.212-.05-.314-.081-.072-.021-.144-.052-.217-.071-.362-.095.253.135-.1-.036a8.692 8.692 0 0 1-1.12-.642c-.041-.028-.388-.285-.276-.2a7.306 7.306 0 0 1-.608-.557c-.08-.083-.416-.517-.214-.222-.093-.136-.167-.285-.26-.419.212.308.019.122.006-.044.036.472.03.264.034.172-.024.633.042-.169-.108.417 0-.019.335-.9.185-.406.027-.088.041-.183.061-.273l1.616-7.265a1.459 1.459 0 0 0-2.814-.775l-.943 4.24-.571 2.567c-.047.212-.117.431-.144.647-.034.282.192-.37.059-.148a2.123 2.123 0 0 0-.259 1c-.032 2.028 2.355 3.748 4 4.48a3.822 3.822 0 0 0 3.313.249c1.159-.607 1.585-2.06 1.971-3.213.491-1.464 1.081-2.9 1.617-4.353a31.754 31.754 0 0 1 1.78-4.329c.417-.761.985-1.448 1.459-2.175a5.6 5.6 0 0 0 1.2-2.865c-.018-1.224-1.259-2.3-2.022-3.127-1.282-1.4-2.624-2.743-3.982-4.068a115.787 115.787 0 0 0-4.623-4.294 26.128 26.128 0 0 0-3.745-2.921Z" transform="translate(-4.444 -3.126)" style="fill:#1b1464"/><path d="M47.8 123.256a1.472 1.472 0 0 0-.524 2 1.5 1.5 0 0 0 2 .524 15.751 15.751 0 0 0 2.478-1.274 8.679 8.679 0 0 0 1.982-1.984l-.523.524A3 3 0 0 0 54 122.5a3.559 3.559 0 0 0 .315-.4 1.55 1.55 0 0 1-.711.525.922.922 0 0 1-.494.021l.118.029c.131.053.282.077.418.118.078.024.417.143.359.117-.165-.073.249.139.218.121.048.028.373.256.16.089a2.621 2.621 0 0 1 .2.179 3.382 3.382 0 0 1 .27.291c-.17-.209 0 .014.04.074.064.113.129.225.192.338.037.066.132.33.036.065a5.306 5.306 0 0 1 .186.615c.029.125.052.251.073.377-.05-.308-.005-.03 0 .051.009.227.021.451.011.679 0 .119-.017.238-.026.356.024-.319.022-.123.005-.046-.042.194-.077.385-.135.575-.015.048-.135.378-.042.148s-.022.04-.04.073c-.17.3-.345.595-.543.88-.4.583-.866 1.122-1.251 1.716-.324.5-.524 1.058-.823 1.57a4 4 0 0 1-.634.861 26.892 26.892 0 0 0-1.876 2.172 3.215 3.215 0 0 0-.573 2.719 4.764 4.764 0 0 0 2.338 2.517 5.586 5.586 0 0 0 5.723.192 13.107 13.107 0 0 0 3.882-4.055c.52-.734 1.019-1.482 1.556-2.2.054-.072.107-.144.162-.215a6.109 6.109 0 0 1 .174-.207c.114-.135.232-.267.351-.4.338-.372.685-.734 1.024-1.105 1.151-1.258 3.041-3.245 2.347-5.124a17.373 17.373 0 0 0-2.637-4.142c-1.067-1.421-2.161-2.835-3.357-4.151a1.473 1.473 0 0 0-2.063 0 1.49 1.49 0 0 0 0 2.063 44.139 44.139 0 0 1 1.743 2.07q.278.346.552.7c.2.26.137.175.329.427q.5.658.986 1.329a23.888 23.888 0 0 1 1.509 2.287c.081.146.146.3.23.448-.152-.263-.036-.216-.023-.008s-.081-.409-.035-.231c-.06-.238.029-.114-.035.041-.127.308.048-.01-.092.228-.05.087-.095.176-.146.263a14.077 14.077 0 0 1-1.933 2.344 23.186 23.186 0 0 0-1.846 2.242c-.56.775-1.089 1.571-1.652 2.344a12.764 12.764 0 0 1-1.578 1.842c-.1.09-.194.178-.293.264-.03.025-.367.278-.106.091a5.33 5.33 0 0 1-.414.277c-.082.049-.61.3-.3.179a4.984 4.984 0 0 1-.568.179c-.088.023-.432.04-.086.023-.082 0-.162.011-.244.013-.1 0-.207 0-.311-.009-.24-.007.339.087-.061 0a3.8 3.8 0 0 1-1.022-.349 4.211 4.211 0 0 1-1.272-.915c-.133-.154.23.107-.033-.065-.089-.057-.02-.27.017.045-.04-.335-.043.245 0 .037.023-.111.083-.3-.014.039.027-.091.152-.353 0-.049a2.109 2.109 0 0 1 .1-.2c.05-.074.372-.526.2-.305.259-.323.546-.624.828-.928a10.088 10.088 0 0 0 1.874-2.469 26.653 26.653 0 0 1 2.037-3.17 6.5 6.5 0 0 0 .741-5.4 5.344 5.344 0 0 0-1.592-2.54 5.226 5.226 0 0 0-3.183-1.3 1.75 1.75 0 0 0-.855.245 1.157 1.157 0 0 0-.339.276c-.122.126-.461.566-.085.107-.015.018-.109.108-.109.109-.014-.082.211-.157-.065 0a2.755 2.755 0 0 0-.72.712 8.979 8.979 0 0 1-3.289 2.057Zm18.21-14.387a1.459 1.459 0 1 0-1.472 2.52c3.085 1.635 6.048 3.478 9.072 5.218 1.523.876 3.092 1.673 4.573 2.621.582.372 1.212.805 1.726 1.205a5.272 5.272 0 0 1 .8.725c.153.179.129.13.168.277.036.169.038.179.006.033v.3c0-.028-.054.485-.023.268-.051.351-.139.7-.219 1.043a13.711 13.711 0 0 0-.369 2.041 20.742 20.742 0 0 0 .575 5.217 45.78 45.78 0 0 1 .847 4.564 4.3 4.3 0 0 1-.021.957 1.272 1.272 0 0 1-.277.6c.193-.252-.058.042-.1.066.335-.193-.045.015-.074.02.392-.068-.006-.007-.056 0-.354.027.244 0 .012 0-.092 0-.488-.054-.118.016a3.787 3.787 0 0 1-.698-.199c.309.119-.082-.048-.12-.067a6.225 6.225 0 0 1-.577-.344c-.014-.01-.379-.274-.15-.1a5.8 5.8 0 0 1-.32-.267 7.792 7.792 0 0 1-.681-.679c-.059-.066-.116-.135-.173-.2-.276-.322.146.225-.085-.116-.134-.2-.237-.415-.371-.611-.188-.277.054.265-.023-.042-.023-.093-.059-.184-.083-.278-.46-1.822-3.274-1.046-2.814.776a6.876 6.876 0 0 0 2.378 3.4 5.633 5.633 0 0 0 4.386 1.57 3.632 3.632 0 0 0 2.833-3.213 16.4 16.4 0 0 0-.641-5.266 24.333 24.333 0 0 1-.735-5.722.889.889 0 0 1 .042-.312q.058-.3.126-.591c.079-.349.165-.7.238-1.047a5.778 5.778 0 0 0 .1-2.588c-.426-1.666-2.248-2.761-3.581-3.656-1.609-1.081-3.346-1.951-5.024-2.916-3.025-1.741-5.987-3.584-9.073-5.218Z" transform="translate(-4.444 -3.126)" style="fill:#1b1464"/><path d="M80.956 123.738a1.46 1.46 0 0 0 2.814.775c.075-.257-.208.328-.064.136a1.641 1.641 0 0 0 .094-.163c.033-.058.193-.286.024-.043s-.018.024.034-.029a9.59 9.59 0 0 1 .812-.762c.082-.068.167-.135.25-.2.277-.224-.144.1.04-.032s.386-.288.581-.429c.41-.3.826-.585 1.243-.872a47.69 47.69 0 0 0 4.818-3.562c1.219-1.09 2.5-2.6 2.084-4.358a3.449 3.449 0 0 0-1.734-2.063 6.32 6.32 0 0 0-4.2-.672c-2.9.438-5.421 2.279-7.856 3.778-1.6.984-.131 3.507 1.473 2.52 1.253-.772 2.477-1.589 3.781-2.276.357-.187.718-.366 1.086-.53a9.154 9.154 0 0 1 .9-.342 9.055 9.055 0 0 1 1.1-.287c.026 0 .306-.051.169-.032s.085-.008.093-.008c.166-.01.331-.023.5-.023.118 0 .233.01.35.012.016 0 .243.026.081 0a2.529 2.529 0 0 0 .279.062c.134.034.263.08.394.121.227.069-.191-.093-.021-.012.042.02.087.038.128.06.178.092.347.19.517.3.266.165-.063-.048-.058-.052a1.751 1.751 0 0 1 .15.137c.248.212-.08.068-.025-.061-.008.018.086.12.092.145.058.22-.018-.061-.054-.151a.834.834 0 0 1 .051.177c.018.119 0-.35-.029-.234a.618.618 0 0 0 .006.078c.014 0-.007.141 0 .158.029.195.11-.383.013-.146-.019.049-.032.111-.046.163-.07.272-.047-.055.048-.1-.036.017-.077.155-.1.2-.066.118-.145.228-.217.342-.165.26.21-.241.007-.005l-.149.175a7.282 7.282 0 0 1-.36.385c-.272.274-.561.533-.856.782-.171.145-.346.285-.521.425-.129.1-.207.155-.018.015l-.281.213c-1.428 1.069-2.934 2.028-4.377 3.077-1.127.819-2.621 1.793-3.037 3.215Zm-56.742 48.099a1.46 1.46 0 1 0-2.814-.777q-.231 1.048-.466 2.095c-1.378 6.156-2.874 12.292-4.147 18.47-2.235 10.845-4.373 21.711-6.242 32.625-.8 4.692-1.482 9.407-2.363 14.085-.747 3.972-1.566 7.93-2.241 11.915-1.359 8.027-2.294 16.388-.529 24.429a29.65 29.65 0 0 0 4.721 10.881 43.584 43.584 0 0 0 4.2 4.89 7.687 7.687 0 0 0 5.783 2.787c1.875-.065 1.878-2.983 0-2.919a3.471 3.471 0 0 1-2.322-.679 12.921 12.921 0 0 1-2.025-1.923c-.707-.769-1.432-1.525-2.1-2.327a25.283 25.283 0 0 1-3.088-4.733A31.2 31.2 0 0 1 7.622 270.2c-.845-7.972.465-15.852 1.938-23.63.709-3.75 1.487-7.49 2.116-11.256.863-5.168 1.673-10.344 2.6-15.5 1.73-9.67 3.545-19.348 5.657-28.943 1.4-6.35 2.882-12.68 4.285-19.03Zm28.747 6.907a1.459 1.459 0 0 0-2.917 0q0 1.688-.024 3.375c-.128 9.237-.756 18.462-1.706 27.648-.956 9.245-2.576 18.423-3.1 27.708a39.193 39.193 0 0 0-.147 6.425 15.974 15.974 0 0 0 1.488 5.128c1.4 2.965 3.568 5.477 5.348 8.211 1.737 2.668 3.5 5.839 2.582 9.069q-.129.459-.3.906c-.032.085-.165.413-.127.324s-.116.247-.15.316a9.306 9.306 0 0 1-.518.891c-.135.21.142-.117-.1.116-.09.087-.174.176-.269.259.061-.054.21-.154.055-.059-.209.128.059-.027.1-.032-.169.022.153.022.153.022.018 0 .241.126.1.029-.174-.118.1.15-.114-.1-.163-.192-.079-.053-.2-.268a8.812 8.812 0 0 1-.234-.426c-.126-.253-.057-.12-.031-.059-.04-.094-.075-.193-.109-.289-.054-.151-.1-.3-.149-.458a18.046 18.046 0 0 1-.658-4.675 55.718 55.718 0 0 0-.5-6.4 21.058 21.058 0 0 0-1.824-6.039c-.766-1.59-1.7-3.216-1.612-4.991a1.473 1.473 0 0 0-1.459-1.459 1.491 1.491 0 0 0-1.459 1.459 8.118 8.118 0 0 0 .458 2.982c.648 1.9 1.813 3.592 2.373 5.521a29.239 29.239 0 0 1 1.028 6.627c.1 1.867.107 3.712.378 5.566a9.2 9.2 0 0 0 1.844 4.871 2.734 2.734 0 0 0 4.157.025 9.257 9.257 0 0 0 1.978-3.882c1.084-3.837-.535-7.591-2.555-10.815-1.81-2.889-4.1-5.483-5.6-8.566a12.614 12.614 0 0 1-1.219-4.5 60.235 60.235 0 0 1 .276-6.911c.3-4.864.965-9.664 1.605-14.492q.944-7.116 1.648-14.262c.933-9.567 1.5-19.175 1.506-28.789Zm90.207 108.764a1.453 1.453 0 0 0 1.124-.148 1.459 1.459 0 0 0 .523-2 1.556 1.556 0 0 0-.872-.671 5.651 5.651 0 0 1-.416-.159q.174.072.348.147c-1.084-.467-2.057-1.152-3.122-1.66a1.645 1.645 0 0 0-1.124-.147 1.473 1.473 0 0 0-.872.671 1.491 1.491 0 0 0-.147 1.124 1.463 1.463 0 0 0 .671.872 37.259 37.259 0 0 0 3.887 1.967Zm-8.14-4.987a1.459 1.459 0 0 0 0-2.918h-.07l.388.052a1.236 1.236 0 0 1-.289-.088l.349.147a13.766 13.766 0 0 1-1.874-1.117 8.961 8.961 0 0 0-.926-.534 4.125 4.125 0 0 0-.679-.275 2.19 2.19 0 0 0-1-.022 1.4 1.4 0 0 0-.872.671 1.458 1.458 0 0 0 .524 2 1.6 1.6 0 0 0 1.124.147h.016l-.388.052a.538.538 0 0 1 .106 0l-.388-.052a1.376 1.376 0 0 1 .325.1l-.349-.147a13.515 13.515 0 0 1 1.807 1.076 4.331 4.331 0 0 0 2.2.915Z" transform="translate(-4.444 -3.126)" style="fill:#1b1464"/><path d="M57.655 291.92a10.283 10.283 0 0 1-10.283-10.283v-.819h177.751a11.1 11.1 0 0 1-11.1 11.1Z" transform="translate(-4.444 -3.126)" style="fill:#fff"/><path d="M57.655 290.5a1.419 1.419 0 0 0 0 2.836h.288c2.273.045 4.551 0 6.825 0H213.2a15.794 15.794 0 0 0 3.957-.4 12.645 12.645 0 0 0 9.383-12.123 1.439 1.439 0 0 0-1.418-1.418h-.3c-2.3-.043-4.61 0-6.913 0H47.372a1.439 1.439 0 0 0-1.418 1.418 12.543 12.543 0 0 0 2.876 8.5 11.8 11.8 0 0 0 8.825 4.024 1.419 1.419 0 0 0 0-2.836 9.015 9.015 0 0 1-6.819-3.193 9.578 9.578 0 0 1-2.045-6.491l-1.418 1.418h.3c2.292.112 4.618 0 6.913 0h170.537l-1.418-1.418a9.663 9.663 0 0 1-2.517 6.515 9.934 9.934 0 0 1-7.438 3.169H57.655Z" transform="translate(-4.444 -3.126)" style="fill:#1b1464"/><path d="M154.536 192.17a6.145 6.145 0 0 0-6.006-4.845H31.891a6.145 6.145 0 0 0-6.006 7.445l19.977 92.3a6.145 6.145 0 0 0 6.006 4.845h124.257Z" transform="translate(-4.444 -3.126)" style="fill:#fff"/><path d="M176.125 293.338a1.42 1.42 0 0 0 0-2.838H52.246a5.344 5.344 0 0 1-2.954-.761 5.065 5.065 0 0 1-2.141-3.395l-1.17-5.411q-1.148-5.3-2.3-10.605l-3.044-14.066q-1.708-7.9-3.418-15.792t-3.416-15.785l-3.039-14.042-2.286-10.566q-.581-2.678-1.159-5.355a4.814 4.814 0 0 1 4.78-5.981c1.447-.005 2.894 0 4.34 0h111.677a5.373 5.373 0 0 1 2.816.656 5.024 5.024 0 0 1 2.3 3.455l1.082 5 2.159 9.977 2.915 13.471 3.35 15.478 3.463 16q1.633 7.551 3.268 15.1l2.722 12.574 1.868 8.634q.348 1.6.695 3.208c.386 1.786 3.12 1.026 2.735-.754q-.328-1.521-.658-3.041l-1.862-8.6-2.723-12.579-3.278-15.15-3.494-16.144q-1.691-7.806-3.379-15.612l-2.934-13.554q-1.074-4.968-2.15-9.935c-.352-1.628-.7-3.258-1.057-4.885a7.738 7.738 0 0 0-7.737-6.133H32.062a7.688 7.688 0 0 0-5.77 2.481 7.773 7.773 0 0 0-1.743 6.909c.339 1.6.694 3.2 1.04 4.806q1.111 5.138 2.224 10.274l3.021 13.96 3.433 15.863 3.444 15.914 3.1 14.334 2.359 10.9 1.23 5.681a7.749 7.749 0 0 0 7.633 6.313c1.347.006 2.694 0 4.041 0h120.051Z" transform="translate(-4.444 -3.126)" style="fill:#1b1464"/><path d="m105.544 242.368-1.023-6.575a5.331 5.331 0 0 0-5.064-4.382h-7.67a3.668 3.668 0 0 0-3.7 4.382l1.023 6.575a5.331 5.331 0 0 0 5.064 4.382h7.67a3.669 3.669 0 0 0 3.7-4.382Z" transform="translate(-4.444 -3.126)" style="fill:#fff"/><path d="M101.843 248.168a1.419 1.419 0 0 0 0-2.837h-7.467a3.658 3.658 0 0 1-2.189-.646 3.939 3.939 0 0 1-1.712-2.706c-.088-.518-.162-1.039-.243-1.558-.252-1.624-.55-3.248-.758-4.879a2.951 2.951 0 0 1-.005-.783c.025-.249-.036.166.015-.073.016-.073.032-.146.051-.218.014-.051.124-.388.053-.211a2.654 2.654 0 0 1 .2-.381c.029-.049.229-.324.108-.175a3.232 3.232 0 0 1 .347-.355c.117-.106.016-.023-.011 0a2.159 2.159 0 0 1 .179-.121 3.591 3.591 0 0 1 .379-.211c.149-.069.03-.011 0 0 .069-.026.142-.05.213-.069s.459-.111.3-.088a3.872 3.872 0 0 1 .482-.027h.1c1.555-.008 3.112 0 4.668 0h2.357a4.264 4.264 0 0 1 1.849.267 4.139 4.139 0 0 1 2.221 2.351 11.237 11.237 0 0 1 .33 1.73l.8 5.123c.023.147.054.295.069.443a3.1 3.1 0 0 1-.151 1.2 2.117 2.117 0 0 1-.8 1 2.266 2.266 0 0 1-1.378.395 1.419 1.419 0 0 0 0 2.836 5.7 5.7 0 0 0 2.494-.6 4.985 4.985 0 0 0 2.608-3.748 8.711 8.711 0 0 0-.153-2.587l-.849-5.459a6.79 6.79 0 0 0-5.377-5.668 30.835 30.835 0 0 0-5-.112h-2.87a9.65 9.65 0 0 0-2.224.157 5.016 5.016 0 0 0-3.458 2.979 6.02 6.02 0 0 0-.245 3.344l.851 5.473a8.555 8.555 0 0 0 .65 2.4 6.919 6.919 0 0 0 3.7 3.4c1.628.661 3.621.428 5.343.428Z" transform="translate(-4.444 -3.126)" style="fill:#1b1464"/></svg></g><g transform="translate(394.5 682.5) rotate(0.0 561.75 384.0) scale(2.7505012595753433 2.7620335471991253)"><svg width="408.471" height="278.056" viewBox="0 0 408.471 278.056"><g fill="#1b1464"><path d="M80.133 103.778c0-18.924-15.959-27.93-31.393-36.639C33.977 58.81 20.033 50.94 20.033 35.104c0-15.255 11.627-30.698 33.851-30.698 10.205 0 18.437 2.756 23.804 7.968 4.505 4.376 6.987 10.499 6.987 17.244 0 11.77-7.853 24.474-20.538 24.474a2.203 2.203 0 1 0 0 4.406c15.408 0 24.945-14.991 24.945-28.88 0-7.946-2.956-15.193-8.324-20.405C74.552 3.186 65.259 0 53.884 0 28.767 0 15.626 17.659 15.626 35.104c0 18.41 15.733 27.288 30.948 35.873 14.991 8.46 29.151 16.45 29.151 32.801 0 19.661-15.374 32.871-38.255 32.871-22.84 0-33.063-13.641-33.063-27.159 0-13.764 10.376-27.698 30.208-27.698a2.203 2.203 0 1 0 0-4.406c-10.377 0-19.247 3.466-25.651 10.024C3.267 93.245 0 101.292 0 109.49c0 15.712 11.586 31.565 37.471 31.565 25.517.001 42.662-14.98 42.662-37.277zm215.171-72.226a2.204 2.204 0 0 0 2.518-1.836l3.602-23.013a2.204 2.204 0 0 0-1.836-2.518 2.196 2.196 0 0 0-2.518 1.836l-3.602 23.013a2.203 2.203 0 0 0 1.836 2.518z"/><path d="M406.578 64.836a2.208 2.208 0 0 0-2.492 1.872c-.249 1.75-.49 3.478-.729 5.181-3.407 24.363-6.098 43.608-17.634 43.608-2.321 0-4.146-.754-5.424-2.24-2.024-2.354-2.752-6.571-1.996-11.569.524-3.462 2.226-13.856 4.33-26.575.382-2.196.768-4.41 1.172-6.644.034-.189.035-.375.021-.559 4.549-27.429 10.182-61.058 10.271-61.591a2.203 2.203 0 0 0-1.809-2.537 2.198 2.198 0 0 0-2.538 1.809c-.097.58-6.771 40.422-11.46 68.771-.047.273-.098.553-.146.825-3.766 21.63-7.017 40.31-18.245 40.31-2.307 0-4.118-.746-5.383-2.218-2.016-2.343-2.735-6.568-1.976-11.592 1.689-11.167 10.078-59.777 10.162-60.267a2.204 2.204 0 0 0-4.342-.75c-.025.147-.8 4.637-1.917 11.148-2.917-6.62-8.367-12.976-17.55-12.976-15.677 0-26.474 17.855-29.913 37.918-.018.066-.043.128-.055.196-.306 1.753-.606 3.66-.92 5.66-2.184 13.876-5.174 32.88-15.456 32.88-2.057 0-3.632-.669-4.815-2.046-2.032-2.362-2.754-6.65-1.98-11.764 1.689-11.167 10.078-59.777 10.162-60.267a2.204 2.204 0 0 0-4.33-.82c-7.042 34.167-20.776 74.896-46.21 74.896-7.388 0-13.082-2.699-16.923-8.021-3.471-4.809-5.306-11.589-5.306-19.605 0-4.452.562-9.014 1.597-13.442.329-1.182.635-2.307.919-3.354.025-.091.032-.181.045-.272 4.467-14.984 14.385-27.554 26.558-27.554 11.159 0 15.135 8.65 15.135 16.745 0 6.197-2.159 12.497-5.922 17.283-2.918 3.712-8.105 8.136-16.25 8.136a2.203 2.203 0 1 0 0 4.406c16.417 0 26.579-15.481 26.579-29.825 0-12.849-7.671-21.151-19.542-21.151-15.722 0-27.643 16.363-31.861 34.731-4.385 15.667-13.22 41.924-35.568 41.924-7.47 0-13.222-2.756-17.096-8.19-3.492-4.898-5.338-11.801-5.338-19.96 0-1.071.033-2.151.099-3.237 3.237 4.832 9.167 10.392 19.312 10.392 16.635 0 26.932-17.367 26.932-33.458 0-6.111-1.527-11.407-4.416-15.315-3.329-4.504-8.289-6.885-14.344-6.885-15.682 0-27.969 18.785-31.172 38.563-1.018 4.368-5.301 18.917-17.148 18.917-.417 0-.827-.015-1.23-.043 3.073-8.132 4.73-17.483 4.73-26.562 0-8.45-1.465-15.761-4.238-21.142-3.281-6.368-8.25-9.733-14.369-9.733-11.827 0-20.104 10.197-25.898 24.312l3.004-21.808a2.203 2.203 0 0 0-1.882-2.483 2.202 2.202 0 0 0-2.484 1.882L85.46 141.214a2.203 2.203 0 1 0 4.366.601l4.909-35.634c3.238-23.503 11.678-62.932 31.825-62.932 4.424 0 7.94 2.472 10.452 7.346 2.417 4.691 3.748 11.482 3.748 19.123 0 8.872-1.696 17.997-4.74 25.741-1.706-.495-3.399-1.157-5.212-1.867-4.335-1.696-9.25-3.619-15.886-3.619-11.247 0-17.316 8.04-17.316 15.604 0 3.858 1.525 7.403 4.295 9.984 3.049 2.841 7.423 4.342 12.65 4.342 10.523 0 18.816-8.067 24.101-19.382.972.134 1.975.208 3.016.208 7.965 0 13.142-4.675 16.438-9.887.481 7.586 2.547 14.111 6.048 19.022 4.682 6.567 11.834 10.038 20.685 10.038 17.975 0 28.033-14.025 34.053-28.178.529 7.297 2.563 13.585 5.988 18.331 4.65 6.442 11.737 9.848 20.496 9.848 16.012 0 29.163-13.008 39.289-38.771-1.454 8.631-2.716 16.247-3.268 19.896-.98 6.479.083 11.911 2.996 15.298 2.014 2.341 4.834 3.578 8.157 3.578 8.879 0 13.474-8.45 16.269-18.567 2.425 11.802 9.086 18.567 18.825 18.567 9.457 0 15.815-6.381 20.209-14.731-.048 4.554 1.081 8.374 3.323 10.981 2.11 2.453 5.127 3.75 8.725 3.75 6.55 0 10.909-3.92 14.086-10.311.504 2.602 1.5 4.826 2.972 6.537 2.124 2.469 5.154 3.773 8.766 3.773 15.37 0 18.295-20.919 21.999-47.404.238-1.699.479-3.425.727-5.172a2.206 2.206 0 0 0-1.873-2.491zM189.989 43.249c4.666 0 8.3 1.716 10.799 5.098 2.291 3.1 3.553 7.608 3.553 12.696 0 14.029-9.051 29.052-22.525 29.052-13.257 0-17.59-11.446-18.325-13.74 3.29-17.05 13.714-33.106 26.498-33.106zm-75.437 72.248c-4.092 0-7.428-1.093-9.646-3.16-1.865-1.737-2.892-4.139-2.892-6.76 0-5.564 4.434-11.198 12.909-11.198 5.805 0 10.114 1.687 14.28 3.317 1.637.641 3.298 1.29 5.035 1.823-4.616 9.427-11.44 15.978-19.686 15.978zm213.092 0c-13.931 0-15.435-17.506-15.435-25.032 0-22.802 10.723-47.216 26.685-47.216 12.901 0 15.504 16.234 15.821 18.667a9728.31 9728.31 0 0 0-1.941 11.4v.002c-2.583 13.69-7.957 42.179-25.13 42.179zM86.951 233.851c8.05 0 15.466-3.164 21.448-9.152 8.229-8.238 13.133-21.21 13.119-34.699-.029-27.457-18.032-43.849-48.158-43.849-20.074 0-32.056 7.372-38.574 13.557-7.948 7.542-12.507 17.781-12.507 28.091 0 15.776 10.414 26.795 25.325 26.795a2.203 2.203 0 1 0 0-4.406c-14.45 0-20.918-11.245-20.918-22.389 0-9.106 4.058-18.18 11.133-24.895 8.512-8.077 20.801-12.347 35.54-12.347 39.45 0 43.738 27.586 43.75 39.446.013 12.347-4.409 24.152-11.83 31.581-5.137 5.142-11.475 7.86-18.33 7.86-12.987 0-18.076-7.871-19.166-9.886 3.237-23.526 6.784-50.577 6.835-50.963a2.204 2.204 0 0 0-4.37-.573c-.072.55-7.249 55.266-10.494 76.681-2.951 19.477-10.92 28.945-24.362 28.945-12.471 0-18.053-8.482-18.053-16.889 0-8.351 5.717-16.804 16.644-16.804a2.203 2.203 0 1 0 0-4.406c-6.389 0-11.818 2.309-15.702 6.676-3.449 3.879-5.349 9.041-5.349 14.534 0 10.256 7.028 21.295 22.459 21.295 15.77 0 25.432-10.999 28.719-32.691.766-5.056 1.751-11.962 2.809-19.572 3.392 3.678 9.615 8.06 20.032 8.06zm34.87-.794a2.203 2.203 0 1 0 0 4.406c12.403 0 20.268-15.394 25.407-49.843.357.013.72.019 1.089.019 9.829 0 16.35-4.053 20.507-8.37-2.564 13.592-6.785 36.256-8.926 49.367-1.067 6.534-.115 11.772 2.754 15.147 2.042 2.402 4.932 3.672 8.356 3.672 9.409 0 13.836-8.689 16.608-20.023.833 3.748 2.074 7.089 3.703 9.915 3.812 6.612 9.584 10.107 16.693 10.107 18.092 0 29.291-25.421 29.291-48.974 0-8.802-1.623-16.406-4.692-21.992-3.63-6.604-9.141-10.094-15.938-10.094-16.529 0-27.491 19.76-29.83 40.549l-.331 2.112c-2.603 16.711-5.295 33.992-15.502 33.992-2.122 0-3.803-.714-4.998-2.12-1.977-2.325-2.603-6.438-1.763-11.582 3.178-19.46 10.963-60.092 11.042-60.5a2.205 2.205 0 0 0-4.268-1.072c-.2.631-5.087 15.458-22.705 15.458-.164 0-.326-.002-.487-.005 1.339-11.61-.111-20.482-4.142-25.131-1.953-2.252-4.474-3.441-7.291-3.441-5.922 0-10.221 5.416-10.221 12.879 0 4.975 1.926 9.895 5.284 13.497 2.172 2.33 5.775 5.007 11.384 6.102-4.629 30.894-11.513 45.925-21.024 45.925zm94.851-62.255c5.164 0 9.227 2.628 12.076 7.811 2.674 4.866 4.147 11.923 4.147 19.869 0 21.522-9.999 44.567-24.883 44.567-5.521 0-9.852-2.659-12.875-7.902-2.814-4.881-4.363-11.959-4.363-19.93 0-2.565.153-5.151.442-7.718.261-1.66.524-3.317.798-4.952.026-.157.034-.313.027-.466 3.208-16.743 12.307-31.279 24.631-31.279zm-81.987 7.224c-2.606-2.796-4.101-6.62-4.101-10.492 0-4.08 1.819-8.473 5.813-8.473 1.544 0 2.839.629 3.96 1.922 3.126 3.605 4.248 11.65 3.089 21.77-3.558-.743-6.538-2.341-8.761-4.727zm235.611-10.302c-15.056 0-25.37 16.879-28.514 35.678-4.204 24.628-6.999 40.889-15.819 40.889-5.578 0-6.749-5.332-6.749-9.805 0-6.408 2.185-16.504 4.297-26.268 2.07-9.568 4.026-18.605 4.026-24.4 0-9.527-6.175-16.182-15.017-16.182-10.399 0-17.035 7.64-21.96 20.644.065-1.063.101-1.993.101-2.764 0-11.196-5.647-17.88-15.105-17.88-9.289 0-17.13 8.182-23.65 24.818l3.454-22.277a2.205 2.205 0 0 0-1.84-2.516 2.21 2.21 0 0 0-2.515 1.84l-11.68 75.332-.013.08a2.205 2.205 0 0 0 4.355.676l.013-.086c9.425-60.711 22.535-73.461 31.875-73.461 9.308 0 10.698 8.441 10.698 13.474 0 10.027-6.467 49.979-7.925 58.862l-.213 1.29-.077.467a2.204 2.204 0 0 0 4.347.72l.001-.004.001-.006c.045-.269.205-1.232.452-2.737 6.683-40.45 12.222-72.066 29.681-72.066 7.831 0 10.61 6.344 10.61 11.775 0 5.323-1.996 14.548-3.926 23.469-2.161 9.989-4.396 20.319-4.396 27.199 0 8.898 4.17 14.211 11.156 14.211 8.589 0 12.647-7.876 15.877-21.773.85 4.309 2.186 8.155 4.015 11.362 3.915 6.868 9.818 10.498 17.071 10.498 17.497 0 29.25-25.079 29.25-48.504 0-8.946-1.723-16.671-4.983-22.338-3.848-6.684-9.69-10.217-16.898-10.217zm-7.37 76.654c-5.657 0-10.113-2.784-13.243-8.274-2.908-5.102-4.51-12.44-4.51-20.663 0-3.838.343-7.726.991-11.516l.067-.389c2.954-16.704 11.89-31.405 24.065-31.405 5.619 0 10.019 2.695 13.076 8.01 2.835 4.929 4.396 12.081 4.396 20.141.001 20.856-10.202 44.096-24.842 44.096zm13.927 19.883H79.12a2.203 2.203 0 1 0 0 4.406h297.733a2.203 2.203 0 1 0 0-4.406z"/><path d="M391.924 133.398H105.718a2.203 2.203 0 1 0 0 4.406h286.206a2.203 2.203 0 1 0 0-4.406z"/></g></svg></g><g transform="translate(103.5 1597.5) rotate(0.0 346.5 6.75) scale(2.2359959861774796 2.19583604424203)"><svg width="309.929" height="6.148" viewBox="0 0 309.929 6.148"><path d="M306.929 6.148h-.004C205.508 6 102.559 6 3 6a3 3 0 1 1 0-6c99.561 0 202.512 0 303.934.148a3 3 0 0 1-.005 6z" fill="#1b1464"/></svg></g><g transform="translate(735.0 1597.5) rotate(0.0 346.5 6.75) scale(2.2359959861774796 2.19583604424203)"><svg width="309.929" height="6.148" viewBox="0 0 309.929 6.148"><path d="M306.929 6.148h-.004C205.508 6 102.559 6 3 6a3 3 0 1 1 0-6c99.561 0 202.512 0 303.934.148a3 3 0 0 1-.005 6z" fill="#1b1464"/></svg></g><g transform="translate(1309.5 1597.5) rotate(0.0 346.5 6.75) scale(2.2359959861774796 2.19583604424203)"><svg width="309.929" height="6.148" viewBox="0 0 309.929 6.148"><path d="M306.929 6.148h-.004C205.508 6 102.559 6 3 6a3 3 0 1 1 0-6c99.561 0 202.512 0 303.934.148a3 3 0 0 1-.005 6z" fill="#1b1464"/></svg></g><g transform="translate(1941.0 1597.5) rotate(0.0 346.5 6.75) scale(2.2359959861774796 2.19583604424203)"><svg width="309.929" height="6.148" viewBox="0 0 309.929 6.148"><path d="M306.929 6.148h-.004C205.508 6 102.559 6 3 6a3 3 0 1 1 0-6c99.561 0 202.512 0 303.934.148a3 3 0 0 1-.005 6z" fill="#1b1464"/></svg></g></svg>