<svg xmlns="http://www.w3.org/2000/svg" viewBox="0 0 3000 2307" width="3000" height="2307"><g transform="translate(927.6923076923077 -12.0) rotate(28.837503150431 933.2307692307693 878.3076923076924) scale(0.8959455473068221 0.8959201383473946)"><svg width="2083.231" height="1960.683" viewBox="0 0 2083.231 1960.683"><path d="m2044.137 1203.5-1348.25 743.97a65.928 65.928 0 0 1-89.58-25.88L51.567 916.257l-38.35-69.49a65.936 65.936 0 0 1 25.87-89.58l1348.26-743.97a65.93 65.93 0 0 1 89.58 25.88l38.55 69.87 554.54 1004.95a65.937 65.937 0 0 1-25.88 89.583z" fill="#fff"/><path d="M664.135 1960.7a71.244 71.244 0 0 1-19.785-2.819A70.467 70.467 0 0 1 601.928 1924L47.189 918.671 8.838 849.182a71.025 71.025 0 0 1 27.831-96.373L1384.93 8.838a71.02 71.02 0 0 1 96.37 27.842l38.551 69.87L2074.4 1111.5a70.936 70.936 0 0 1-27.844 96.374L698.3 1951.844a70.56 70.56 0 0 1-34.165 8.856zM1419.089 10.024a60.542 60.542 0 0 0-29.328 7.57L41.5 761.564a61.011 61.011 0 0 0-23.908 82.787l38.353 69.489 554.739 1005.33a60.927 60.927 0 0 0 82.787 23.918l1348.25-743.969a60.937 60.937 0 0 0 23.918-82.787L1511.1 111.382l-38.551-69.871a61 61 0 0 0-53.46-31.487z" fill="#66ADED"/><path d="M1518.477 108.967 54.567 916.257l-38.35-69.49a65.936 65.936 0 0 1 25.87-89.58l1348.26-743.97a65.93 65.93 0 0 1 89.58 25.88z" fill="#66ADED"/><g fill="#fff"><circle cx="1415.48" cy="79.377" r="20.42"/><circle cx="1354.674" cy="112.957" r="20.42"/><circle cx="1293.867" cy="146.536" r="20.42"/></g></svg></g><g transform="translate(1690.1538461538462 1245.2307692307693) rotate(0.0 180.0 71.53846153846155) scale(0.9641393717025095 0.9629621959679842)"><svg width="373.39" height="148.58" viewBox="0 0 373.39 148.58"><path d="M355.89 0H17.49A17.51 17.51 0 0 0 0 17.49V131.1a17.51 17.51 0 0 0 17.49 17.48h338.4a17.51 17.51 0 0 0 17.5-17.48V17.49A17.52 17.52 0 0 0 355.89 0z" fill="#66B0F0"/><g fill="#fff"><circle cx="161.54" cy="120.27" r="7.02"/><circle cx="197.73" cy="120.27" r="7.02"/><path d="M243 24.39h-6.6a8.29 8.29 0 0 0-8.08 6.51l-2.72 12.32h-94.36a2.89 2.89 0 0 0-2.83 3.61l6.91 29c2 6.75 5.81 8.79 11.15 8.79h69.32l-2.52 10.51c-.78 3.22-2.51 5.81-7 5.57H147a2.08 2.08 0 0 0-2 2v1.34a2.08 2.08 0 0 0 2 2l60.44.55a11.35 11.35 0 0 0 11.23-8.87l15.15-66.07a2.28 2.28 0 0 1 2.28-1.8h6.9a2.08 2.08 0 0 0 2-2v-1.27a2 2 0 0 0-2-2.19z"/></g></svg></g><g transform="translate(2011.3846153846155 1402.1538461538462) rotate(0.0 282.46153846153845 336.46153846153857) scale(1.4478932896336636 1.4482956946976788)"><svg width="390.169" height="464.631" viewBox="0 0 390.169 464.631"><g fill="#ffcf2d"><path d="M178.3 134.363a175.369 175.369 0 0 1-38.694-4.25c-17.476-4.05-30.463-10.6-36.57-18.435a18.18 18.18 0 0 1-3.189-17.7c2.135-6.279 8.7-10.82 17.553-12.148 8.728-1.307 39.99-1.713 75.939 48.062a2.5 2.5 0 0 1-1.824 3.956c-4.297.343-8.728.515-13.215.515zm-55.565-47.912a31.177 31.177 0 0 0-4.591.32c-6.866 1.03-12.063 4.407-13.561 8.812-1.584 4.658-.8 8.917 2.4 13.022 10.477 13.446 45.534 22.344 79.607 20.556-28.303-37.461-52.544-42.71-63.855-42.71z"/><path d="M193.752 132.6a2.494 2.494 0 0 1-1.642-.616c-20.083-17.5-36.675-41.253-45.521-65.162-8.713-23.551-8.986-44.107-.749-56.4 6.261-9.343 14.949-12.62 23.84-8.987 11.358 4.639 20.985 19.44 26.414 40.606 4.4 17.167 8 46.458.115 88.518a2.5 2.5 0 0 1-2.457 2.04zM162.611 4.982c-5.728 0-9.915 4.195-12.616 8.226-14.079 21.008 1.7 74.771 42.089 112.04 6.673-38.805 3.29-65.885-.834-81.962-4.958-19.33-13.728-33.244-23.461-37.22a13.643 13.643 0 0 0-5.178-1.084z"/><path d="M194.173 134.116a2.5 2.5 0 0 1-2.137-3.8c17.893-29.523 38.443-46 52.532-54.631 17.078-10.457 33.707-14.9 44.477-11.881 6.708 1.878 10.551 6.717 10.544 13.279-.031 28.431-51.242 56.145-105.375 57.029zm87.586-66.211c-8.048 0-20.03 3.138-34.58 12.048-12.979 7.947-31.647 22.817-48.414 49.019 49.025-2.254 95.8-27.233 95.824-51.891 0-4.331-2.314-7.177-6.892-8.459a22.22 22.22 0 0 0-5.938-.717z"/></g><path d="M390.169 134.156v330.476H0V134.156z" fill="#FFCF2D"/><path d="M390.169 282.116v30.24H0v-30.24z" fill="#FFF"/><path d="M212.953 134.155v324.616h-38.88V134.155z" fill="#FFF"/></svg></g><g transform="translate(1217.5384615384617 445.84615384615387) rotate(0.0 652.6153846153846 359.53846153846155) scale(4.897290529567161 4.911257960829723)"><svg width="266.521" height="146.414" viewBox="0 0 266.521 146.414"><path d="M112.6 129.933c4.941 0 8.134-3.354 10.224-7.528 1.28 4.471 4.024 7.528 8.781 7.528 4.786 0 8.071-3.414 10.333-7.969 1.321 4.838 4.2 7.969 9.3 7.969 4.829 0 8.065-3.567 10.228-8.057 2.331 4.8 6.683 8.137 13.431 8.137 25.678 0 33.382-38.266 21.489-38.266a5.132 5.132 0 0 0-3.848 1.864 3.153 3.153 0 0 0-.521 3.33c1.847 4.388-2.272 23.594-16.563 23.594-4.9 0-6.971-3.774-7.255-8.46a9.029 9.029 0 0 0 6.467 2.632c15.131 0 18.476-27.119 2.562-27.119-8.706 0-14.831 8.032-16.993 17.106l-.01.049c-.1.434-.195.87-.28 1.308-1.327 6.19-3.308 14.569-6.876 14.569-3.654 0-2.366-12.461.789-24.176 2.5-9.3 6.144-18.091 8.718-20.714a3.213 3.213 0 0 0 .67-3.533 4.788 4.788 0 0 0-4.531-3.223c-5.364 0-11.122 12.229-14.728 25.732a106.41 106.41 0 0 0-.953 3.868l-.011.063a93.638 93.638 0 0 0-.858 4.22c-1.427 6.411-4.488 17.759-8.3 17.759-4.792 0 .173-21.973 3.688-26.342a3.233 3.233 0 0 0 .575-3.137 4.823 4.823 0 0 0-4.649-3.549c-2.391 0-4.628 2.2-6.485 5.6a9.191 9.191 0 0 0-8.759-5.934c-16.607-.004-24.878 42.679-5.635 42.679Zm64.193-35.686c5.76 0 2.973 12.553-2.437 12.553a5.522 5.522 0 0 1-4.988-3.384c1.555-5.008 4.42-9.169 7.425-9.169Zm-57 .977c2.488 0 3.713 3.15 4.268 5.349q-.23.788-.436 1.6l-.019.082a57.372 57.372 0 0 0-.7 3.139c-1.252 5.412-3.937 15.176-8 15.176-6.306-.005-1.587-25.346 4.884-25.346Z" transform="translate(-1.789 -1.091)" style="fill:#9b3c82"/><path d="M76.32 88.464c0-5 3.271-8.985 7.793-8.985 7.092 0 7.162 9.168 3.286 11.572a3.169 3.169 0 0 0-1.215 3.809c1.051 2.847 3.425 6.541 8.661 6.541 13.449 0 16.426-30.6-9.931-30.6-13.1 0-20.267 8.868-20.267 17.438 0 15.817 22.652 24.854 22.652 36.14 0 5.207-3.622 9.372-9.636 9.372-9.271 0-9.628-10.563-4-12.911a3.294 3.294 0 0 0 1.811-3.933c-.961-3.446-3.524-8.215-10.355-8.215-18.974 0-21.729 37.018 9.809 37.018 14.937 0 23.611-9.9 23.611-20.035-.002-16.225-22.219-23.639-22.219-37.211Zm99.127 43.897c-17.594 0-30.925 4.375-55.048 4.375-8.937 0-12.951-2.33-14.75-4.326a3.235 3.235 0 0 0-4.777-.134c-5.656 6.032-4.232 15.229 17.2 15.229 22.543 0 37.334-5.452 57.616-5.452 5.615 0 8.584 1.347 10.128 2.591a3.2 3.2 0 0 0 4.439-.494c4.191-4.986 2.981-11.789-14.808-11.789Z" transform="translate(-1.789 -1.091)" style="fill:#9b3c82"/><path d="M63.206 42.414C65.5 28.827 69.516 15.3 73.115 12A3.211 3.211 0 0 0 74 8.453c-.746-1.875-2.242-4.007-5.186-4.007-7.729 0-13.491 17.816-16.819 36.252a184.357 184.357 0 0 0-.873 5.272 39.088 39.088 0 0 0-6.844-3.492C47.232 21.841 47.011 1.091 27.1 1.091c-26.7 0-28.746 33.445-12.122 33.445 6.3 0 8.915-4.5 9.978-7.705a3.112 3.112 0 0 0-1.239-3.664c-3.724-2.2-1.85-11.01 4.24-11.01 7.119 0 7.755 11.537 5.242 27.676a45.37 45.37 0 0 0-4.532-.231C-3.365 39.6-6.71 83.67 18.328 83.67c13.372 0 20.878-14.67 24.45-32.29A37.742 37.742 0 0 1 50 55.362c-1.174 14.082.422 25.582 7.951 25.582a6.843 6.843 0 0 0 6.231-4.116 3.178 3.178 0 0 0-.514-3.576c-3.033-3.332-2.71-17.494-.462-30.838ZM18.767 71.608c-9.19 0-6.623-23.213 9.326-23.213a37.2 37.2 0 0 1 3.529.185c-2.771 13.465-6.638 23.028-12.855 23.028Z" transform="translate(-1.789 -1.091)" style="fill:#f94f46"/><path d="M257.62 47.99c-6.452 0-9.74 4.758-11.252 8.094a3.183 3.183 0 0 0 1.157 3.887C251.282 62.716 249.1 72.6 238.8 72.6c-.549 0-1.1-.022-1.645-.056 1.73-5.862 2.918-12.345 4.145-18.725 2.1-10.924 4.063-20.429 6.614-22.921a3.236 3.236 0 0 0 .631-3.556 4.7 4.7 0 0 0-4.472-3.206c-5.447 0-8.022 8.758-10.07 18.686h-.022c-1.018 5.122-3.37 14.344-7.16 14.344-4.792 0 .173-21.973 3.688-26.342a3.233 3.233 0 0 0 .575-3.137 4.823 4.823 0 0 0-4.649-3.549c-4.771 0-8.927 8.754-10.672 18.3s-2.608 14.727-7.119 14.727c-4.793 0 .172-21.973 3.687-26.342a3.233 3.233 0 0 0 .575-3.137 4.82 4.82 0 0 0-4.648-3.549c-2.392 0-4.629 2.2-6.486 5.6a9.19 9.19 0 0 0-8.759-5.934c-8.225 0-14.438 10.334-16.338 20.833-.982 4.314-2.906 12.537-6.044 12.537-3.348 0-2.363-12.461.792-24.176 2.5-9.295 6.143-18.091 8.718-20.713a3.215 3.215 0 0 0 .67-3.534 4.788 4.788 0 0 0-4.531-3.223c-5.03 0-10.406 10.753-14.03 23.226a8.979 8.979 0 0 0-8.269-4.95c-7.831 0-13.82 9.381-15.991 19.347h-.009s-2.743 14.02-6.935 14.02c-4.793 0 .172-21.973 3.687-26.342a3.233 3.233 0 0 0 .575-3.137 4.821 4.821 0 0 0-4.648-3.549c-4.438 0-8.342 7.573-10.271 16.314-1.485 6.685-3.82 16.716-7.465 16.716s-2.432-12.472.636-24.211c2.56-9.814 5.94-18.115 8.44-20.661a3.247 3.247 0 0 0 .708-3.57 4.783 4.783 0 0 0-4.523-3.205c-4.323 0-8.9 7.942-12.4 18.092-1.822 5.045-4.506 11.475-8.881 15.523-.8-8.107-4.561-14.866-11.246-14.866-6.345 0-10.333 5.056-11.314 10.7-10.684 4.885-12.6 31.506 6.094 31.506 9.577 0 15-9.326 16.313-19.211a23.807 23.807 0 0 0 4.2-3.317c-1.46 12.173.481 22.528 9.763 22.528 4.2 0 7.3-2.786 9.583-6.644 1.381 3.982 4.06 6.644 8.494 6.644 4.359 0 7.505-3.047 9.751-6.923 1.639 4.14 4.75 6.923 9.661 6.923 5.486 0 8.909-4.051 11.069-8.758 1.164 5.284 3.961 8.758 9.1 8.758 4.147 0 7.145-2.677 9.319-6.418 1.68 3.86 4.728 6.418 9.436 6.418 5.025 0 8.286-3.47 10.424-7.744 1.253 4.586 4.005 7.744 8.836 7.744 4.294 0 7.411-2.957 9.65-6.751 1.37 4.04 4.055 6.751 8.529 6.751a8.9 8.9 0 0 0 4.842-1.434 88.648 88.648 0 0 1-1.642 5.831c-4.273-1.037-8.55-2.158-12.873-2.158-20.426 0-20.891 25.689-1.294 25.689 10.91 0 16.977-5.89 20.838-14.381a54.624 54.624 0 0 0 11.33 1.149c25.875 0 28.984-33.186 11.853-33.186ZM85.5 30.4c2.894 0 4 6.127 3.358 12.551a13.751 13.751 0 0 1-1.466.085C79.818 43.039 81.107 30.4 85.5 30.4Zm-5.119 27.067c-5.939 0-6.506-8.182-4.946-13.653 1.767 3.679 5.332 6.406 10.977 6.406.311 0 .614-.018.919-.032-1.431 4.139-3.746 7.279-6.95 7.279Zm70.112-.354c-6.615 0-1.4-25.342 4.679-25.342 2.889 0 4.287 4.25 4.8 6.322-.615 2.571-4.318 19.02-9.479 19.02Zm39.4 0c-6.773 0-2.11-25.342 4.678-25.342 2.488 0 3.714 3.15 4.268 5.349q-.228.788-.436 1.6c0 .022-.012.053-.017.077a53.78 53.78 0 0 0-.831 3.845c-1.264 5.506-3.778 14.471-7.667 14.471Zm24.484 27.2c-7.537 0-6.649-8.956.515-8.956 3.489 0 6.643.934 10.159 2.051-2.521 4.553-5.798 6.906-10.679 6.906Z" transform="translate(-1.789 -1.091)" style="fill:#f94f46"/><path d="M133.176 21.834c3.966 0 4.561-5.887 6.022-7.928a3.279 3.279 0 0 0 .412-3.258 4.6 4.6 0 0 0-4.41-2.937c-6.724 0-8.528 14.123-2.024 14.123Zm51.357-2.987a3.183 3.183 0 0 0 4.847.846c1.5-1.331 4.4-2.792 9.948-2.792 14.294 0 23.244 3.52 36.987 3.52 14.512 0 17.569-7.622 12.709-12.677a3.239 3.239 0 0 0-4.442-.186c-1.546 1.31-4.7 2.768-11.1 2.768-13.233 0-25.786-2.768-35.243-2.768-12.334 0-16.295 6.712-13.706 11.289Z" transform="translate(-1.789 -1.091)" style="fill:#f94f46"/></svg></g><g transform="translate(1644.923076923077 1687.3846153846155) rotate(0.0 236.76923076923083 193.84615384615392) scale(0.8608225077957856 0.8600095556617299)"><svg width="550.1" height="450.8" viewBox="0 0 550.1 450.8"><path d="M21.6 4.9h506.8v445.9H21.6z" fill="#66B0F0"/><path d="M528.4 112.3v338.5H318.9l1.6-1.1c48.8-34.1 91.7-80.3 127.5-137.2 3.3-5.4 6.6-10.8 9.8-16.4 11.5-20 21.9-40.6 31.2-61.8 3.5-7.9 6.8-16 10-24.2 11.6-30.1 21.1-61.1 28.3-92.6zM0 0h550.1v64H0z" fill="#66B0F0"/><path d="M21.6 64h506.9v4.3H21.6z" fill="#B0DCF7"/><g fill="#B0DCF7"><path d="M21.6 210.1h506.8v86H21.6z"/><path d="M232.1 64h86v386.8h-86z"/></g></svg></g><g transform="translate(291.69230769230774 497.53846153846155) rotate(0.0 853.3846153846155 819.2307692307693) scale(1.0116586039767832 1.011833223282615)"><svg width="1687.1" height="1619.3" viewBox="0 0 1687.1 1619.3"><path d="M569.5 561.1c1.6 11 8.2 44.2 9.5 54.3 0 0-112.6 51.3-275.3-14.9 0 0 39-71.6 54.4-234.1l200.6 77.3s1.5 21 6.2 48.2c-.8 18.1 2.1 51.7 4.6 69.2z" fill="#f4ada2"/><path d="M564.9 491.8c-.7 18.8.7 29.8 2.1 47-5.1 3.1-13.7 3.2-27.5-2-55.8-20.9-55.7-62.8-47.6-70.9 35.5 19.9 68.7 25.9 73 25.9zM690.7 78.2c-15.4-11.7-40.9-18.9-66.7-10.1-10.6-78.4-109.6-88.4-132.1-33.7-59-63.1-155 8.1-137.5 75.2 6.4 24.6 16.2 83.7 7.4 122.6 30.5 20.4 70.2 102.3 70.2 102.3s138.6-140.3 198-136.2c93.5 6.4 101.3-89.2 60.7-120.1z" fill="#5b2448"/><path d="M585.9 95.8c.6-.2 1.1-.5 1.4-1 8.9-12.8 21.8-22.3 36.7-27-.3-1.9-.6-3.7-.9-5.5-16.3 5-30.4 15.3-40.2 29.3-.9 1.2-.6 3 .7 3.8.6.5 1.4.7 2.3.4z" fill="#9b3c82"/><path d="M357.3 374.8c-50 2-97.6-61.5-80.4-114.5 9.8-30.2 45.3-46.9 76.1-37.6 31.6 9.5 45.7 30.2 66.7 60.9 23.8 34.7 35.7 10 51.5-21 10.1-19.9 21.7-42.4 38.9-53.5 39-25.1 120-10.8 120-10.8s-1.1 10.8-1.5 24.5c-.6 18.1 0 41.3 5.8 51.1 10.2 17.2 22.8 16.1 21.9 26.4-.8 8.9-11.9 18.4-18.2 22.3-4 60.8 45.8 63.5 42.9 112.4-1.2 21-15.1 41.1-38.3 50.5-32.8 13.2-70.7 10.1-98.6 4.5-22.1-4.5-43-13.5-61.6-26.4z" fill="#f4ada2"/><path d="M516.2 230.6c.2-1.2.4-2.1.7-3s.5-1.9.8-2.8c.6-1.8 1.3-3.5 2.2-5.2 1.7-3.4 3.7-6.7 6.1-9.6 4.9-6.3 11.2-11.4 18.3-14.9 7.5-3.9 15.9-5.6 24.4-5 4.1.3 8.2 1.4 12 3 3.7 1.5 7.1 3.8 10 6.6 3 3 3 7.8 0 10.8-1 1-2.2 1.7-3.6 2l-.9.2c-6.6 1.6-11.7 2.5-16.3 3.9-2.3.6-4.5 1.4-6.6 2.1s-4.3 1.6-6.5 2.5c-4.7 2.1-9.2 4.5-13.6 7.1-2.4 1.4-4.8 2.9-7.3 4.5-1.2.8-2.5 1.6-3.8 2.4l-2 1.2c-.6.4-1.3.7-2 1l-3.3 1c-3.6 1.1-7.4-1-8.5-4.6-.4-1-.4-2.1-.1-3.2zm33.3 32.6c9.4-1.9 32-5.8 53-16.2 2.9-1.4 6.4-.3 7.8 2.6l.1.2c3.6 7.7 7.2 21.2-8 26.5-18.7 6.4-48.5 0-54.8-8.2-1-1.4-.7-3.3.7-4.3.4-.3.8-.5 1.2-.6z" fill="#5b2448"/><ellipse cx="499.2" cy="346.9" fill="#e57281" opacity=".52" rx="40.1" ry="39.5" transform="matrix(.2563 -.9666 .9666 .2563 35.9482 740.5472)"/><path d="M615 376.1c-2.9 2.1-6.2 3.7-9.7 4.4-3.4.8-7 1-10.5.7a35.1 35.1 0 0 1-26.9-15c-2-2.9-3.6-6.1-4.7-9.5-2.3-6.7-2.1-14 .5-20.7.6-1.6 2.5-2.3 4-1.7 1.3.5 2.1 1.9 1.9 3.3v.1c-1.4 10.9 3 21.7 11.6 28.5 4.3 3.2 9.4 5.3 14.7 6.1 5.3 1 10.8.5 15.8-1.6h.1c1.6-.6 3.4.2 4 1.8.6 1.4.2 2.7-.8 3.6zm-237.5-57.8c-1.8.6-3.7-.4-4.3-2.2-.1-.2-.1-.3-.1-.5-8.9-55.3-52.6-58.5-54.5-58.6s-3.4-1.7-3.2-3.6c.1-1.9 1.7-3.3 3.6-3.2.5 0 51.1 3.4 60.9 64.4.2 1.5-.8 3.2-2.4 3.7zm-5.8 59.9c5.7-1.8 11.3-4.2 16.5-7.2 1.6-1 2.1-3.1 1.2-4.7-1-1.6-3-2.1-4.7-1.2-8.9 5-18.6 8.3-28.7 9.7h1.3c-.2 2.3-.5 4.6-.7 6.9 5.1-.8 10.2-1.9 15.1-3.5z" fill="#9b3c82"/><path d="M1223.8 886.5c-71.1 24.7-476.8 195.2-509.4 208.5 13.7 13.2 25.8 28.1 35.9 44.2 16.6 26.1 30.4 55.2 35.3 85.8 14.8 92.8-111.3 173.5-125.7 179.1 102.7 22.7 243.7-20.5 348.2-78.4 141.7-78.6 235.3-242.6 290.9-301.5zm0 0c58-24.1 250.8-86.1 246.7-67.3-5.6 25.1-161.2 123.2-176.8 131" fill="#f4ada2"/><path d="M1200.7 1149.4c40.8-46.7 147.1-118.1 203-142.9 12.9-2.6 23.8-9.4 27.9-11.5 23.7-12.6 7.1-33.9 7.1-33.9 19.7-39.6-13.6-49.8-13.6-49.8-4.9-31.5-39-29.9-57.4-30.7-2.3-.1-40.1-12.8-57-13.2-19.1-.5-73.5 13.9-86.9 19.1-15 5.9-23.1 262.9-23.1 262.9z" fill="#f4ada2"/><g fill="#9b3c82"><path d="M1425.1 911.2c.7 10.8-2.9 22.7-10.3 34.5-6.9 10.8-15.7 20.3-26 28-11.3 8.5-20.5 11.6-23.8 10.3-2.9-1.1-5.2-3.6-6-6.6-2.1-6.3-.8-16.5 3.7-29.4 3-8.6 6.8-16.9 11.4-24.7.7-1.2.4-2.7-.8-3.4s-2.7-.4-3.4.8c-3.8 6-21.6 40.2-15.6 58.3 1.3 4.4 4.6 8 8.9 9.7 1.2.4 2.4.6 3.6.6 6.1 0 15-4.1 25-11.6 18.3-13.7 38.6-38.3 38.4-64.2-1.6-.8-3.3-1.6-5.1-2.3 0 .1 0 .1 0 0z"/><path d="M1441.7 965.9c-.8-1.7-1.8-3.2-2.9-4.7-9.2 16.2-34.2 31.2-46.8 30.8-5.2-.2-8.7-2.5-10.8-7-.4-1.3-1.9-2-3.2-1.6s-2 1.9-1.6 3.2c0 .1.1.3.2.4 2.8 6.3 8.1 9.8 15.2 10h.8c16.9 0 39.9-17.5 49.1-31.1z"/><path d="M1388.4 1002.7c-2-2-2.8-4.6-2.3-8.1.2-1.4-.8-2.6-2.2-2.8s-2.6.8-2.8 2.2c-.6 5 .7 9.2 3.8 12.2 2.6 2.4 5.9 4 9.4 4.6 3.3-1.6 6.5-3.1 9.5-4.4l.3-.1c-7 .7-12.7-.6-15.7-3.6zm8.8-119.5c-21.5 12.6-79.4 49.9-80 50.3-1.2.7-1.6 2.3-.8 3.4.7 1.2 2.3 1.6 3.4.8 0 0 .1 0 .1-.1.7-.4 66.9-43 83.7-52.4.1 0 .1-.1.2-.1-2.2-.7-4.4-1.4-6.6-1.9z"/></g><path d="M1209 966.6s54.8-20.7 89.6-27.5c65.8-12.8 107.7-9.3 113.3 12.8 7.2 28.2-61.1 46.2-92.4 73.2-37.4 32.3-71.3 71.6-71.3 71.6z" fill="#f4ada2"/><path d="M1055.5 1577.5c-109.3-375.8-146.6-509.2-249.7-701-100.3-186.3-227.2-264.9-227.2-264.9-189.7 39.2-268-26.3-268-26.3S28.6 769.7 10.5 1568c0 0 143.2 37.8 454.5 37.8 148.1 0 590.5-28.3 590.5-28.3z" fill="#f94f46"/><path d="M385.9 1183c-65 22.1-146 63.6-143.7 94.2 2.2 30.9 118.8 129.6 566.2-147.2-.1 0-81.2-62.9-422.5 53z" fill="#5b2448"/><path d="M783.6 1090.9S542.3 657.4 406.1 666.1c-222.6 14.1-62.5 540.7-52.3 568.3l.4 1.1c57.7 155.2 193.3 336.3 415 333.7 173.2-55.1 95.7-344.9 95.7-344.9z" fill="#f4ada2"/><path d="M808.3 1130c-262 2.3-426.5 141.5-435.8 149.3-15-28.1-34.8-91.4-40.3-116.7-.4-2 193.4-114.1 337.5-95.1 82.2 11 138.6 62.5 138.6 62.5z" fill="#9b3c82"/><path d="M808.3 1130c-81.6-26.2-283.5 2.5-428.8 56.1-60.1 22.2-116.6 48.8-133.9 73.6-4 5.7-5.9 11.2-5.4 16.4 0-.2-.2-1.3-.6-3.2-2.2-13.4-87.6-544.7 114.3-613.2 107.6-36.5 285.6 52.6 454.4 470.3z" fill="#f94f46"/><path d="M1652.8 1516.5c-17.6-18.8-49.5-46.7-68.3-61.3 48.1 25.3 115.9 38.5 89.2 5.6-37.9-46.8-117.5-73.2-196.6-96.2-252.6-73.7-700.6-157.5-700.6-157.5S450 1441.8 562 1509.6c137.7 83.4 219.5 86 379.1 97.7 158.5 11.6 357.6-26.3 497.5-22.2 43.4 1.3 67.2 8.8 106.5 24.5 65.9 26.3 61.5-3.8-9-56.9 3.5 1.9 166.5 89.2 114.7 15 0 0 80.3 32.3 2-51.2z" fill="#f4ada2"/><path d="M1513.1 1421.1c-1.8-.5-3.7.5-4.3 2.3-.5 1.8.5 3.7 2.3 4.3.6.2 54.7 16.2 96.7 46-5.3-4.8-10.4-9.5-15.2-13.9 5.7 2.7 11.5 5 17.4 7.1-42.6-29.7-96.4-45.6-96.9-45.8zm149 147.3c-40.1-42.8-117.3-91.7-175.8-111.3-1.8-.6-3.8.4-4.4 2.2s.4 3.8 2.2 4.4c54.4 18.2 128.2 64.3 168.3 104.6 2.1.8 6.1 2.2 10.5 3.3.4-1.1 0-2.3-.8-3.2zm-191.9-61.1c-1.8-.7-3.8.2-4.5 1.9-.7 1.6 0 3.5 1.6 4.3.6.3 46.7 21.6 78.2 44 6.3 3.2 15.4 7.8 25.7 12.7-26-28.1-97.9-61.4-101-62.9zM865 1224.2l-3.6-6c-48.6 18.5-106.1 62.6-108.6 64.5-.8.7-1.3 1.7-1.3 2.7 0 1.9 1.5 3.4 3.5 3.4.8 0 1.5-.2 2.1-.7.5-.4 60-46.1 107.9-63.9z" fill="#9b3c82"/><path d="M816.5 1131.6v-.2C704.8 855.2 609 710.6 505.9 662.8c-1.1-.5-26.3-11.5-61.9-16.6-59.8-8.7-100.3 6.4-123.7 20.5-56.4 34-88.8 104-96.2 208-11.1 156.6 10.4 346.5 16.5 395.1.8 5.4 1.4 8.7 1.5 9.6 0 0 1.3-10.6 4.5-16.7-6.9-56.6-26.4-237.3-15.7-387.4 7.2-101.6 38.5-169.7 92.8-202.5 78-47.1 178.3-4 179.3-3.6 50.5 23.4 99.1 71 148.5 145.3 49.8 75 101.1 178.2 156.8 315.4 2.8.4 5.6 1.1 8.2 1.7z" fill="#fcb6b1"/><path d="M663.1 732.3c8.5-2.3 11.7-7.6 12.8-11.6 2.7-8.9-1.5-21.1-8-33.2-8-8.1-15.6-15.6-22.8-22.3 13 17.4 27.9 41.3 24.2 53.5-1 3.5-3.7 5.7-8.1 6.9-24.5 6.7-112-38.8-143.6-57l-3.4 6c4.4 2.5 102.5 58.5 141.6 58.5 2.5.1 5-.2 7.3-.8zM272.8 619.5c15.5 13 49.8 35.5 74.5 41.2l1.5-6.7c-23.2-5.3-56.4-27-71.3-39.4-1.5 1.5-3.1 3.1-4.7 4.9z" fill="#fcb6b1"/><path d="M1260.8 1074.9c-1.4 0-2.5-1.1-2.5-2.5 0-.8.4-1.6 1.1-2.1.2-.2 21.7-15.3 58.5-47.1 11.6-10 28-18.7 43.8-27.1 26.7-14.2 51.9-27.5 47.8-43.6-5-19.7-45.2-23.6-110.4-10.9-13.3 2.8-26.4 6.2-39.3 10.3-1.3.5-2.7-.2-3.2-1.5s.2-2.7 1.5-3.2c.1 0 .2-.1.3-.1 13.1-4.2 26.4-7.7 39.8-10.5 70.1-13.7 110.3-8.6 116.2 14.6 5.1 19.8-21.8 34.1-50.3 49.2-15.6 8.3-31.8 16.8-42.9 26.5-37.1 32-58.7 47.3-58.9 47.4-.5.4-1 .6-1.5.6z" fill="#9b3c82"/></svg></g></svg>