<svg xmlns="http://www.w3.org/2000/svg" viewBox="0 0 3000 2244" width="3000" height="2244"><g transform="translate(1491.6 200.4) rotate(0.0 636.5999999999999 442.2) scale(1.2006789890607314 1.2007983598321814)"><svg width="1060.4" height="736.51" viewBox="0 0 1060.4 736.51"><linearGradient id="a" gradientUnits="userSpaceOnUse" x1="914.294" x2="-738.896" y1="76.744" y2="1331.442"><stop offset=".086" stop-color="#fffaeb"/><stop offset=".893" stop-color="#94bded"/></linearGradient><linearGradient id="b" gradientUnits="userSpaceOnUse" x1="54.115" x2="1001.077" y1="401.644" y2="401.644"><stop offset=".042" stop-color="#1c7e8e"/><stop offset=".99" stop-color="#dbe7de"/></linearGradient><linearGradient id="c" gradientUnits="userSpaceOnUse" x1="532.428" x2="-47.964" y1="-150.389" y2="585.664"><stop offset=".072" stop-color="#fff"/><stop offset=".805" stop-color="#fff9e9" stop-opacity="0"/></linearGradient><linearGradient id="d" gradientUnits="userSpaceOnUse" x1="1289.535" x2="648.077" y1="-31.766" y2="714.76"><stop offset=".219" stop-color="#fff"/><stop offset=".805" stop-color="#fff9e9" stop-opacity="0"/></linearGradient><path d="M1060.4 31.241V705.26c0 17.252-13.988 31.25-31.25 31.25H31.25C13.997 736.51 0 722.513 0 705.26V31.241C0 13.989 13.997 0 31.25 0h997.9c4.59 0 8.951.987 12.882 2.77 10.834 4.901 18.368 15.808 18.368 28.471z" fill="url(#a)"/><ellipse cx="56.312" cy="53.993" fill="#ff593b" rx="17.882" ry="17.654"/><ellipse cx="113.057" cy="53.993" fill="#f9e79b" rx="17.882" ry="17.654"/><ellipse cx="169.803" cy="53.993" fill="#1c7e8e" rx="17.882" ry="17.654"/><path d="M61.533 253.309h-.02a5 5 0 0 1-.014-10c.256-.01 6.206-.312 15.691-6.02 9.058-5.449 23.215-17.03 39.22-41.252 17.036-25.78 30.047-43.099 42.188-56.154 15.775-16.962 30.098-26.46 43.789-29.038 11.248-2.118 22.125.461 32.328 7.662 11.585 8.178 20.729 17.865 29.573 27.234 19.149 20.287 34.275 36.309 64.8 26.812 47.977-14.927 73.06-.256 93.213 11.532 1.036.606 2.062 1.206 3.079 1.795 9.519 5.513 15.401 1.16 24.979-7.005 5.449-4.645 11.083-9.447 18.248-11.687 11.286-3.525 21.332.222 31.048 3.847 7.193 2.684 14.632 5.459 23.234 5.804 7.595.322 14.195-18.675 19.514-33.924 6.589-18.891 12.813-36.733 24.708-41.115 4.864-1.792 12.117-1.633 19.048 9.311 4.04 6.377 7.473 15.238 11.107 24.619 5.993 15.469 13.451 34.72 23.065 36.781 11.392 2.443 25.436-6.262 41.699-16.342 15.06-9.334 32.129-19.912 52.522-25.521 43.622-11.994 74.116-17.699 99.527 11.178 6.588 7.486 12.341 15.871 17.905 23.98 15.821 23.062 26.357 36.823 42.854 29.49 7.699-3.421 17.311-10.895 27.488-18.807 27.662-21.506 62.087-48.272 97.23-28.188a5 5 0 1 1-4.961 8.681c-29.328-16.756-59.506 6.702-86.131 27.401-10.672 8.297-20.752 16.134-29.565 20.051-24.938 11.085-40.303-11.312-55.162-32.972-5.396-7.865-10.975-15.997-17.165-23.032-20.895-23.743-44.378-20.514-89.369-8.141-19.002 5.225-35.42 15.4-49.905 24.378-18.101 11.219-33.734 20.915-49.064 17.619-14.892-3.193-22.721-23.402-30.293-42.945-5.22-13.475-11.717-30.235-17.374-28.16-7.465 2.75-13.707 20.646-18.723 35.026-7.395 21.198-14.379 41.216-29.356 40.622-10.2-.408-18.77-3.605-26.33-6.427-9.248-3.45-16.552-6.178-24.569-3.671-5.215 1.63-9.844 5.575-14.744 9.752-9.078 7.739-20.376 17.371-36.477 8.049-1.03-.597-2.069-1.204-3.118-1.817-19.418-11.357-41.428-24.229-85.194-10.615-36.486 11.351-55.214-8.49-75.042-29.497-8.505-9.011-17.3-18.329-28.067-25.929-8.02-5.661-16.102-7.624-24.711-6.005-26.137 4.922-53.648 41.78-79.484 80.879-33.732 51.053-61.765 51.761-63.219 51.761z" fill="#71dba3"/><path d="M156.831 391.58c-9.145 0-18.823-4.864-30.305-15.197-30.915-27.824-66.063-38.532-66.414-38.637a5 5 0 0 1 2.851-9.585c1.52.451 37.591 11.393 70.253 40.788 9.988 8.989 17.784 13.017 24.52 12.604 10.125-.585 19.725-11.475 33.012-26.546 2.629-2.982 5.348-6.066 8.276-9.307 3.347-3.703 6.43-7.183 9.412-10.549 22.84-25.778 36.627-41.339 62.542-32.699 14.052 4.683 20.678-5.742 30.327-23.141 8.079-14.568 17.237-31.081 35.318-28.587 33.589 4.633 48.543 23.626 72.084 56.797 5.098 7.183 10.134 15.383 15.466 24.064 13.241 21.557 28.248 45.989 41.355 47.404 3.913.429 7.737-1.377 11.699-5.498 13.655-14.201 30.593-22.876 47.694-24.427 17.067-1.552 33.129 3.983 45.231 15.574 2.654 2.543 4.924 3.638 6.746 3.255 7.8-1.639 17.296-24.553 27.35-48.812 6.324-15.258 13.491-32.553 22.355-50.586 24.621-50.09 40.751-80.983 61.253-84.805 8.355-1.554 16.523 1.479 24.975 9.281 9.071 8.374 15.425 11.871 19.994 10.995 9.514-1.816 19.935-23.492 34.359-53.492 25.282-52.587 42.722-75.619 60.197-79.499 7.484-1.664 14.727.319 21.531 5.886 11.375 9.308 14.391 22.383 17.307 35.026 3.806 16.502 7.741 33.566 29.421 47.259 42.195 26.649 64.266 62.696 78.87 86.549 13.098 21.392 23.095 23.251 23.195 23.267a1.32 1.32 0 0 0-.174-.02l-.906 9.959c-1.464-.133-14.765-2.051-30.643-27.984-14.12-23.061-35.458-57.911-75.682-83.315-25.159-15.891-29.763-35.854-33.825-53.467-2.771-12.014-5.164-22.39-13.895-29.533-4.431-3.626-8.573-4.855-13.032-3.863-17.604 3.908-37.759 41.637-53.352 74.069-18.743 38.984-27.614 56.332-41.496 58.981-10.265 1.965-20.244-5.709-28.651-13.47-5.973-5.514-11.324-7.732-16.36-6.798-16.613 3.097-34.827 40.153-54.111 79.385-8.723 17.747-15.825 34.884-22.091 50.004-12.989 31.341-21.57 52.046-34.532 54.769-5.248 1.105-10.536-.854-15.719-5.818-9.983-9.562-23.267-14.118-37.411-12.838-14.703 1.333-29.402 8.934-41.388 21.399-6.165 6.411-12.89 9.276-19.98 8.508-17.987-1.94-33.653-27.446-48.804-52.112-5.243-8.536-10.195-16.599-15.101-23.511-24.413-34.4-37.154-48.796-65.295-52.678-10.535-1.453-16.55 7.92-25.207 23.53-8.728 15.738-19.592 35.328-42.235 27.777-18.697-6.229-27.935 2.803-51.895 29.845a1407.506 1407.506 0 0 1-9.477 10.622c-2.887 3.194-5.585 6.255-8.195 9.215-14.888 16.889-25.646 29.091-39.937 29.916-.491.031-.985.046-1.48.046z" fill="#ff7eb8"/><path d="M59.707 616.329a5 5 0 0 1-3.689-8.373c.454-.496 45.58-49.931 66.67-77.348 11.213-14.577 21.549-22.047 32.528-23.508 9.624-1.28 19.129 2.032 30.82 10.74 3.294 2.454 5.544 2.42 6.951 2.182 7.767-1.319 17.174-15.242 27.133-29.982 4.754-7.035 9.669-14.311 15.241-21.654 12.71-16.755 24.07-20.218 35.055-23.567 10.768-3.282 21.904-6.677 37.19-22.982 15.167-16.178 29.297-29.633 48.656-30.42 17.973-.725 39.441 9.485 71.791 34.157 29.977 22.864 60.892 36.576 89.404 39.655 27.368 2.957 51.41-3.994 69.527-20.098 9.916-8.813 20.324-19.562 30.391-29.955 31.162-32.174 60.595-62.562 83.149-46.59 28.163 19.947 50.117 21.014 71.185 3.459 11.11-9.259 24.401-13.037 38.441-10.925 26.141 3.933 54.373 28.136 81.643 69.993 25.904 39.761 55.336 63.036 78.76 62.182 9.747-.343 17.407-5.04 22.154-13.584a5.002 5.002 0 0 1 8.742 4.858c-6.448 11.605-17.295 18.255-30.544 18.721-12.942.447-47.369-5.136-87.49-66.717-32.427-49.772-58.549-63.126-74.752-65.563-11.292-1.694-21.572 1.235-30.552 8.718-24.474 20.395-51.743 19.418-83.367-2.98-15.556-11.018-43.328 17.656-70.185 45.387-10.194 10.526-20.735 21.41-30.93 30.473-20.283 18.028-46.992 25.831-77.244 22.565-30.326-3.275-62.967-17.676-94.395-41.646-30.339-23.139-49.873-32.706-65.32-32.117-14.161.576-25.604 10.028-41.767 27.269-17.112 18.253-30.105 22.214-41.569 25.708-10.755 3.279-19.25 5.868-30.005 20.045-5.406 7.126-10.243 14.286-14.921 21.21-12.158 17.994-21.761 32.207-33.746 34.242-4.974.841-9.885-.509-14.599-4.021-21.968-16.362-34.327-8.812-49.448 10.846-21.348 27.752-66.758 77.497-67.214 77.996a5 5 0 0 1-3.694 1.624z" fill="#ff593b"/><path d="M997.077 690.062H58.115a4 4 0 0 1-4-4V117.225a4 4 0 0 1 8 0v564.837h934.963a4 4 0 1 1-.001 8z" fill="url(#b)"/><path d="M595.118 0 0 696.529V294.944L252.01 0z" fill="url(#c)"/><path d="M1060.4 52.562v356.739L786.064 736.51H486.959z" fill="url(#d)"/></svg></g><g transform="translate(412.8 532.8) rotate(0.0 400.79999999999995 400.79999999999995) scale(0.961517700993904 0.961517700993904)"><svg width="833.682" height="833.682" viewBox="0 0 833.682 833.682"><radialGradient id="e" cx="10306.904" cy="1545.898" gradientTransform="matrix(-.9743 -.2254 -.2254 .9743 10806.9697 1233.7317)" gradientUnits="userSpaceOnUse" r="710.487"><stop offset="0" stop-color="#f4d240"/><stop offset=".728" stop-color="#fff" stop-opacity="0"/></radialGradient><circle cx="416.841" cy="416.841" fill="url(#e)" r="416.748"/></svg></g><g transform="translate(244.79999999999998 963.5999999999999) rotate(0.0 270.6 270.6) scale(1.2007561302460974 1.2007561302460974)"><svg width="450.716" height="450.716" viewBox="0 0 450.716 450.716"><clipPath id="f"><path d="m225.329 305.768-106.025-71.592L225.329 47.005l106.084 187.171z"/></clipPath><clipPath id="g"><path d="m119.304 257.215 106.025 74.922 106.084-74.922-106.055 146.497z"/></clipPath><circle cx="225.358" cy="225.358" fill="#71dba3" r="225.358"/><path d="m119.304 257.215 106.025 74.922 106.084-74.922-106.055 146.497z" fill="#fff9e9"/><path d="m225.329 305.768-106.025-71.592L225.329 47.005l106.084 187.171z" fill="#fff9e9"/><g fill="#c7e2cd"><path clip-path="url(#f)" d="M225.329 307.419a5 5 0 0 1-5-5V50.026a5 5 0 1 1 10 0V302.42a5 5 0 0 1-5 4.999z"/><path clip-path="url(#f)" d="M119.307 239.177a5 5 0 0 1-2.099-9.54l106.025-48.954a4.996 4.996 0 0 1 4.123-.032l104.625 46.381a5 5 0 0 1-4.053 9.143L225.371 190.71 121.4 238.715a4.975 4.975 0 0 1-2.093.462z"/><path clip-path="url(#g)" d="M225.358 416.029a5 5 0 0 1-5-5V321.42a5 5 0 1 1 10 0v89.609a5 5 0 0 1-5 5z"/></g></svg></g><g transform="translate(459.59999999999997 589.1999999999999) rotate(0.0 1065.0 645.0) scale(1.195809613635598 1.1961722488038278)"><svg width="1781.22" height="1078.44" viewBox="0 0 1781.22 1078.44"><linearGradient id="i" gradientUnits="userSpaceOnUse" x1="-347.812" x2="1737.057" y1="680.567" y2="1194.741"><stop offset=".067" stop-color="#dbe7de"/><stop offset=".87" stop-color="#94bded"/></linearGradient><linearGradient id="h"><stop offset=".038" stop-color="#7da4d7"/><stop offset=".947" stop-color="#303158"/></linearGradient><linearGradient xmlns:xlink="http://www.w3.org/1999/xlink" id="j" gradientUnits="userSpaceOnUse" x1="173.879" x2="3249.532" xlink:href="#h" y1="860.389" y2="1158.563"/><linearGradient id="k" gradientUnits="userSpaceOnUse" x1="-153.097" x2="1232.12" y1="-249.287" y2="668.713"><stop offset=".067" stop-color="#c7e2cd"/><stop offset=".878" stop-color="#94bded"/></linearGradient><linearGradient xmlns:xlink="http://www.w3.org/1999/xlink" id="l" gradientUnits="userSpaceOnUse" x1="106.314" x2="3027.01" xlink:href="#h" y1="839.297" y2="1665.732"/><linearGradient xmlns:xlink="http://www.w3.org/1999/xlink" id="m" gradientUnits="userSpaceOnUse" x1="1040.95" x2="529.124" xlink:href="#h" y1="1120.873" y2="917.787"/><linearGradient id="n" gradientUnits="userSpaceOnUse" x1="1331.823" x2="697.467" y1="-79.613" y2="896.639"><stop offset=".067" stop-color="#fffaeb"/><stop offset=".704" stop-color="#e6f0e9" stop-opacity="0"/></linearGradient><linearGradient id="o" gradientUnits="userSpaceOnUse" x1="830.006" x2="231.565" y1="-91.981" y2="808.091"><stop offset=".067" stop-color="#fffaeb"/><stop offset=".689" stop-color="#e6f0e9" stop-opacity="0"/></linearGradient><path d="M1574.61 860.873c-431.456-48.735-890.819-42.059-1368 0L8.828 1046.812c-6.421 6.036-2.173 16.818 6.64 16.852l1745.097 6.805c13.138.051 19.549-16.013 9.986-25.022z" fill="url(#i)"/><path d="M1607.375 976.115H173.845c-11.162 0-17.527-2.696-14.244-5.995l91.044-91.482c2.495-2.507 12.306-4.526 21.931-4.526h1236.069c9.625 0 19.436 2.018 21.931 4.526l91.044 91.482c3.282 3.298-3.083 5.995-14.245 5.995z" fill="url(#j)"/><path d="M1159.698 1032.877H621.522c-8.474 0-14.557-2.206-13.592-4.91l13.678-38.341c.868-2.433 8.026-4.393 15.994-4.393h506.016c7.968 0 15.126 1.961 15.994 4.393l13.678 38.341c.965 2.704-5.118 4.91-13.592 4.91z" fill="#dbe7de"/><path d="M1574.61 51.66v809.21h-1368V51.66C206.61 23.13 229.74 0 258.27 0h1264.69c28.53 0 51.65 23.13 51.65 51.66z" fill="url(#k)"/><path d="M1781.22 1061.22c0 4.75-1.93 9.06-5.04 12.18a17.196 17.196 0 0 1-12.18 5.04H17.22c-9.51 0-17.22-7.71-17.22-17.22 0-4.75 1.93-9.06 5.04-12.18 3.12-3.11 7.42-5.04 12.18-5.04H1764c9.51 0 17.22 7.71 17.22 17.22z" fill="url(#l)"/><path d="M206.61 813.13h1368v47.74h-1368z" fill="#7ca6e3"/><path d="M256.696 64.175h1267.83v718.43H256.696z" fill="#fff9e9"/><path d="M1094.87 1061.22c0 9.51-7.71 17.22-17.22 17.22H703.57c-9.51 0-17.22-7.71-17.22-17.22 0-9.51 7.71-17.22 17.22-17.22h374.08c9.51 0 17.22 7.71 17.22 17.22z" fill="url(#m)"/><path d="M378.198 438.651h56.348v142.043h-56.348zm88.043-120.913h56.348v171.391h-56.348z" fill="#71dba3"/><path d="M554.285 334.173h56.348v92.736h-56.348zm88.043 79.299h56.348v137.875h-56.348z" fill="#ff593b"/><path d="M730.372 327.776h56.348v141.397h-56.348z" fill="#71dba3"/><path d="M818.415 349.434h56.348v116.217h-56.348z" fill="#ff593b"/><path d="M906.459 243.782h56.348v194.87h-56.348zm88.043-15.261h56.348v152.02h-56.348z" fill="#71dba3"/><path d="M1082.546 263.738h56.348v116.803h-56.348zm88.043 103.304h56.348v184.304h-56.348zm88.043 108.65h56.348v99.133h-56.348z" fill="#ff593b"/><g fill="#71dba3"><path d="M1346.676 403.434h56.348v129.13h-56.348zm-940.304 83.975a5 5 0 0 1-5-5v-78.976a5 5 0 1 1 10 0v78.976a5 5 0 0 1-5 5zm88.043-115.367a5 5 0 0 1-5-5v-93.913a5 5 0 1 1 10 0v93.913a5 5 0 0 1-5 5z"/></g><path d="M582.458 464.195a5 5 0 0 1-5-5v-67.5a5 5 0 1 1 10 0v67.5a5 5 0 0 1-5 5zm88.044 159.065a5 5 0 0 1-5-5v-99.783a5 5 0 1 1 10 0v99.783a5 5 0 0 1-5 5z" fill="#ff593b"/><path d="M758.546 379.086a5 5 0 0 1-5-5v-64.565a5 5 0 1 1 10 0v64.565a5 5 0 0 1-5 5z" fill="#71dba3"/><path d="M846.589 403.475a5 5 0 0 1-5-5V281.347a5 5 0 1 1 10 0v117.128a5 5 0 0 1-5 5z" fill="#ff593b"/><path d="M934.633 487.409a5 5 0 0 1-5-5V228.521a5 5 0 1 1 10 0V482.41a5 5 0 0 1-5 4.999zm88.043-39.488a5 5 0 0 1-5-5V294.26a5 5 0 1 1 10 0v148.661a5 5 0 0 1-5 5z" fill="#71dba3"/><path d="M1110.719 403.475a5 5 0 0 1-5-5v-56.672a5 5 0 1 1 10 0v56.672a5 5 0 0 1-5 5zm88.044 182.22a5 5 0 0 1-5-5V349.434a5 5 0 1 1 10 0v231.261a5 5 0 0 1-5 5zm88.043 37.565a5 5 0 0 1-5-5V442.921a5 5 0 1 1 10 0V618.26a5 5 0 0 1-5 5z" fill="#ff593b"/><path d="M1374.85 562.216a5 5 0 0 1-5-5V367.042a5 5 0 1 1 10 0v190.174a5 5 0 0 1-5 5z" fill="#71dba3"/><path d="M442.309 124.047h-135.13c-5.835 0-10.565-4.73-10.565-10.565 0-5.835 4.73-10.565 10.565-10.565h135.13c5.835 0 10.565 4.73 10.565 10.565 0 5.834-4.73 10.565-10.565 10.565zm268.956 0H497.874c-5.835 0-10.565-4.73-10.565-10.565 0-5.835 4.73-10.565 10.565-10.565h213.391c5.835 0 10.565 4.73 10.565 10.565 0 5.834-4.73 10.565-10.565 10.565z" fill="#7ca6e3"/><path d="M1443.45 64.18 925.57 782.61H566.5l517.88-718.43z" fill="url(#n)"/><path d="m925.006 64.175-517.88 718.43h-150.43v-311.35l309.25-407.08z" fill="url(#o)"/></svg></g><g transform="translate(547.1999999999999 363.59999999999997) rotate(0.0 217.8 217.79999999999998) scale(1.2016584873337581 1.201658487333758)"><svg width="362.499" height="362.499" viewBox="0 0 362.499 362.499"><circle cx="181.25" cy="181.25" fill="#ff7eb8" r="181.25"/><g fill="#fff9e9"><path d="M257.359 219.887c0 16.349-4.933 30.397-14.799 42.142-10.43 12.31-23.678 18.464-39.746 18.464-6.014 0-15.058-.141-27.132-.423-12.075-.282-21.119-.423-27.132-.423-4.417 0-11.064.189-19.943.564-8.879.376-15.528.564-19.943.564-2.35 0-3.524-1.08-3.524-3.242 0-10.335.493-25.863 1.48-46.582s1.48-36.245 1.48-46.582c0-10.899-.493-27.273-1.48-49.119s-1.48-38.218-1.48-49.119c0-2.066 1.174-3.101 3.524-3.101 8.362 0 20.953.048 37.773.141 16.819.094 29.457.141 37.914.141 19.732 0 35.47 3.665 47.216 10.994 14.282 8.927 21.423 22.786 21.423 41.578 0 6.483-1.88 13.226-5.638 20.225-3.759 7.001-8.316 12.286-13.671 15.856-2.726 1.786-4.087 2.96-4.087 3.524s1.362 1.598 4.087 3.101c7.14 3.946 12.872 9.749 17.195 17.406 4.321 7.66 6.483 15.624 6.483 23.891zm-39.605-80.901c0-13.249-5.92-22.175-17.759-26.779-7.142-2.724-18.84-4.087-35.095-4.087-15.786 0-23.678 1.175-23.678 3.524 0 3.101-.141 7.752-.423 13.953s-.423 10.901-.423 14.094c0 2.162.047 5.497.141 10.007.093 4.51.141 7.893.141 10.148 0 2.726 10.617 4.087 31.853 4.087 30.162 0 45.243-8.316 45.243-24.947zm3.805 79.492c0-11.463-5.122-19.215-15.363-23.256-6.483-2.63-16.585-3.946-30.303-3.946-23.678 0-35.518 1.268-35.518 3.805v23.115c0 3.383.093 8.551.282 15.504.187 6.954.282 12.169.282 15.645 0 .94 3.006 1.645 9.02 2.114 6.013.471 14.94.705 26.779.705 14.846 0 25.511-1.925 31.994-5.779 8.551-5.074 12.827-14.376 12.827-27.907z"/><path d="M143.376 302.684a9 9 0 0 1-9-9V68.814c0-4.971 4.029-9 9-9s9 4.029 9 9v224.87a9 9 0 0 1-9 9zm29.393 0a9 9 0 0 1-9-9v-27.131c0-4.971 4.029-9 9-9s9 4.029 9 9v27.131a9 9 0 0 1-9 9zm0-199.304a9 9 0 0 1-9-9V68.814c0-4.971 4.029-9 9-9s9 4.029 9 9V94.38a9 9 0 0 1-9 9z"/></g></svg></g><g transform="translate(2089.2 1848.0) rotate(0.0 118.20000000000005 61.799999999999955) scale(1.199725950924916 1.2089793123685617)"><svg width="197.045" height="102.235" viewBox="0 0 197.045 102.235"><linearGradient id="p"><stop offset=".15" stop-color="#fff9e9"/><stop offset=".947" stop-color="#f9e79b" stop-opacity="0"/></linearGradient><linearGradient xmlns:xlink="http://www.w3.org/1999/xlink" id="q" gradientUnits="userSpaceOnUse" x1="168.403" x2="92.328" xlink:href="#p" y1="-8.514" y2="89.293"/><linearGradient xmlns:xlink="http://www.w3.org/1999/xlink" id="r" gradientUnits="userSpaceOnUse" x1="117.839" x2="12.515" xlink:href="#p" y1="-29.04" y2="99.439"/><ellipse cx="98.523" cy="68.155" fill="#f4d240" rx="98.519" ry="34.08"/><path d="M.004 36.187h197.038v31.968H.004z" fill="#f4d240"/><path d="M197.045 34.079c0 13.982-24.342 25.999-59.166 31.249-12.055 1.824-25.366 2.83-39.357 2.83-7.763 0-15.313-.307-22.564-.903-8.024-.642-15.676-1.638-22.815-2.923-9.104-1.638-17.37-3.742-24.528-6.236C10.928 51.933 0 43.443 0 34.079 0 17.305 35.028 3.37 81.152.531A277.625 277.625 0 0 1 98.522 0c4.431 0 8.787.102 13.06.298 8.201.372 16.095 1.098 23.532 2.131 19.827 2.746 36.471 7.652 47.493 13.879 9.16 5.176 14.438 11.264 14.438 17.771z" fill="#f9e79b"/><path d="m182.607 16.309-44.728 49.019c-12.055 1.824-25.366 2.83-39.357 2.83-7.763 0-15.313-.307-22.564-.903L135.114 2.43c19.828 2.746 36.471 7.651 47.493 13.879z" fill="url(#q)"/><path d="M111.582.298 53.143 64.332c-9.104-1.638-17.37-3.742-24.528-6.236L81.152.531A277.625 277.625 0 0 1 98.522 0c4.431 0 8.788.102 13.06.298z" fill="url(#r)"/></svg></g><g transform="translate(2371.2 1640.3999999999999) rotate(0.0 137.4000000000001 147.0) scale(1.2014585391873112 1.202370387335032)"><svg width="228.722" height="244.517" viewBox="0 0 228.722 244.517"><linearGradient id="s"><stop offset=".15" stop-color="#fffaeb"/><stop offset=".947" stop-color="#fbe89b" stop-opacity="0"/></linearGradient><linearGradient xmlns:xlink="http://www.w3.org/1999/xlink" id="t" gradientUnits="userSpaceOnUse" x1="200.081" x2="124.005" xlink:href="#s" y1="-8.514" y2="89.293"/><linearGradient xmlns:xlink="http://www.w3.org/1999/xlink" id="u" gradientUnits="userSpaceOnUse" x1="149.517" x2="44.193" xlink:href="#s" y1="-29.04" y2="99.439"/><ellipse cx="98.519" cy="210.438" fill="#f4d240" rx="98.519" ry="34.08"/><path d="M0 178.469h197.038v31.968H0z" fill="#f6d33f"/><ellipse cx="98.519" cy="176.358" fill="#fbe89b" rx="98.519" ry="34.08"/><path d="M197.038 176.358c0 18.822-44.109 37.316-98.519 37.316S0 195.18 0 176.358s44.109-34.08 98.519-34.08 98.519 15.258 98.519 34.08z" fill="#f6d33f"/><path d="M0 144.389h197.038v31.968H0z" fill="#f6d33f"/><ellipse cx="98.519" cy="142.278" fill="#f9e79b" rx="98.519" ry="34.08"/><ellipse cx="123.451" cy="144.389" fill="#f6d33f" rx="98.519" ry="34.08"/><path d="M24.931 112.421h197.038v31.968H24.931z" fill="#f6d33f"/><ellipse cx="123.451" cy="110.31" fill="#f9e79b" rx="98.519" ry="34.08"/><ellipse cx="98.519" cy="108.199" fill="#f6d33f" rx="98.519" ry="34.08"/><path d="M0 76.23h197.038v31.968H0z" fill="#f6d33f"/><ellipse cx="98.519" cy="74.119" fill="#f9e79b" rx="98.519" ry="34.08"/><ellipse cx="130.201" cy="68.155" fill="#f6d33f" rx="98.519" ry="34.08"/><path d="M31.682 36.187H228.72v31.968H31.682z" fill="#f6d33f"/><path d="M228.722 34.079c0 13.982-24.342 25.999-59.166 31.249-12.055 1.824-25.366 2.83-39.357 2.83-7.763 0-15.313-.307-22.564-.903-8.024-.642-15.676-1.638-22.815-2.923-9.104-1.638-17.37-3.742-24.528-6.236-17.686-6.162-28.615-14.652-28.615-24.016 0-16.774 35.028-30.709 81.152-33.548A276.884 276.884 0 0 1 130.2 0c4.431 0 8.788.102 13.06.298 8.201.372 16.095 1.098 23.532 2.131 19.827 2.746 36.471 7.652 47.493 13.879 9.159 5.176 14.437 11.264 14.437 17.771z" fill="#f9e79b"/><path d="m214.285 16.309-44.728 49.019c-12.055 1.824-25.366 2.83-39.357 2.83-7.763 0-15.313-.307-22.564-.903L166.792 2.43c19.827 2.746 36.471 7.651 47.493 13.879z" fill="url(#t)"/><path d="M143.26.298 84.82 64.332c-9.104-1.638-17.37-3.742-24.528-6.236L112.83.531C118.471.177 124.27 0 130.2 0c4.431 0 8.787.102 13.06.298z" fill="url(#u)"/></svg></g></svg>