<svg xmlns="http://www.w3.org/2000/svg" enable-background="new 0 0 325 225" viewBox="0 0 325 225" id="education-with-artificial-intelligence"><linearGradient id="a" x1="1486.437" x2="1687.595" y1="76.527" y2="164.015" gradientTransform="matrix(-.9333 .00017 -.00017 .9419 1661.88 11.548)" gradientUnits="userSpaceOnUse"><stop offset="0" stop-color="#007487"></stop><stop offset="1" stop-color="#00536b"></stop></linearGradient><path fill="url(#a)" d="M275.1,140.38c-6.69,12.06-25.77,37.58-108.56,38.51c-98.56,1.1-92.05-37.94-87.61-50.42
		c8.31-23.39,42.94-13.1,63.81-38.08c22.32-26.72,59.2-58.52,104.36-37.44C292.26,74.02,282.97,126.22,275.1,140.38z"></path><linearGradient id="b" x1="1486.437" x2="1687.595" y1="76.527" y2="164.015" gradientTransform="matrix(-.9333 .00017 -.00017 .9419 1661.88 11.548)" gradientUnits="userSpaceOnUse"><stop offset="0" stop-color="#007487"></stop><stop offset="1" stop-color="#00536b"></stop></linearGradient><path fill="url(#b)" d="M275.1,140.38c-6.69,12.06-25.77,37.58-108.56,38.51c-98.56,1.1-92.05-37.94-87.61-50.42
		c8.31-23.39,42.94-13.1,63.81-38.08c22.32-26.72,59.2-58.52,104.36-37.44C292.26,74.02,282.97,126.22,275.1,140.38z"></path><linearGradient id="c" x1="84.974" x2="262.485" y1="144.317" y2="147.763" gradientUnits="userSpaceOnUse"><stop offset="0" stop-color="#00536b"></stop><stop offset="1" stop-color="#003955"></stop></linearGradient><path fill="url(#c)" d="M275.1,140.38c2.31-4.15,4.73-11.58,5.87-20.54c-14.51-11.18-30.3-1.71-67.91,4.6
		c-46.8,7.85-59.69,21-88.66,2.68c-19.72-12.47-34.59-8.25-44.25-1.48c-0.45,0.89-0.88,1.81-1.23,2.82
		c-4.43,12.48-10.94,51.53,87.61,50.42C249.33,177.97,268.41,152.44,275.1,140.38z" opacity=".25"></path><linearGradient id="d" x1="20.911" x2="228.282" y1="176.629" y2="176.629" gradientUnits="userSpaceOnUse"><stop offset=".002" stop-color="#021111" stop-opacity="0"></stop><stop offset=".455" stop-color="#021111"></stop><stop offset="1" stop-color="#021111" stop-opacity="0"></stop></linearGradient><ellipse cx="123.99" cy="176.63" fill="url(#d)" opacity=".15" rx="103.52" ry="2.1"></ellipse><path fill="#0FBAB6" d="M241.13,59.58H128.35c-3.33,0-6.05,2.72-6.05,6.05v82.51c0,3.33,2.72,6.05,6.05,6.05h4.99h10.22h97.57
			c3.33,0,6.05-2.72,6.05-6.05V65.63C247.19,62.3,244.46,59.58,241.13,59.58z"></path><path fill="#0FBAB6" d="M241.13,59.58H128.35c-3.33,0-6.05,2.72-6.05,6.05v82.51c0,3.33,2.72,6.05,6.05,6.05h4.99h10.22h97.57
			c3.33,0,6.05-2.72,6.05-6.05V65.63C247.19,62.3,244.46,59.58,241.13,59.58z"></path><path fill="#FFF" d="M128.35,151.72c-1.98,0-3.59-1.61-3.59-3.59V65.63c0-1.98,1.61-3.59,3.59-3.59h112.78
			c1.98,0,3.59,1.61,3.59,3.59v82.51c0,1.98-1.61,3.59-3.59,3.59H128.35z"></path><path fill="#0FBAB6" d="M151.47,164.26c0,1.96,1.2,2.5,2.67,1.21l12.87-11.29h-15.54V164.26z"></path><linearGradient id="e" x1="128.862" x2="154.005" y1="143.389" y2="143.389" gradientUnits="userSpaceOnUse"><stop offset=".002" stop-color="#fff"></stop><stop offset=".455" stop-color="#021111"></stop><stop offset="1" stop-color="#fff"></stop></linearGradient><ellipse cx="141.36" cy="143.39" fill="url(#e)" opacity=".1" rx="12.55" ry=".53"></ellipse><linearGradient id="f" x1="173.754" x2="222.398" y1="143.389" y2="143.389" gradientUnits="userSpaceOnUse"><stop offset=".002" stop-color="#fff"></stop><stop offset=".455" stop-color="#021111"></stop><stop offset="1" stop-color="#fff"></stop></linearGradient><ellipse cx="197.93" cy="143.39" fill="url(#f)" opacity=".1" rx="24.28" ry=".53"></ellipse><g opacity=".75"><path fill="#0FBAB6" d="M174.39,94.87c0,0.54-0.44,0.98-0.98,0.98h-44.97c-0.54,0-0.98-0.44-0.98-0.98V65.72
				c0-0.54,0.44-0.98,0.98-0.98h44.97c0.54,0,0.98,0.44,0.98,0.98V94.87z"></path><path fill="#079992" d="M129.5,95.85h0.13v-1.25h2.25v1.25h0.13v-1.25h2.25v1.25h0.13v-1.25h2.25v1.25h0.13v-1.25H139v1.25h0.13
				v-1.25h2.25v1.25h0.13v-1.25h2.25v1.25h0.13v-1.25h2.25v1.25h0.13v-1.25h2.25v1.25h0.13v-1.25h2.25v1.25H151v-1.25h2.25v1.25
				h0.13v-1.25h2.25v1.25h0.13v-1.25h2.25v1.25h0.13v-1.25h2.25v1.25h0.13v-1.25h2.25v1.25h0.13v-1.25h2.25v1.25h0.13v-1.25h2.25
				v1.25h0.13v-1.25h2.25v1.25H170v-1.25h2.25v1.25h0.13v-1.25h2.02v-0.13h-2.02v-2.25h2.02V92.1h-2.02v-2.25h2.02v-0.13h-2.02
				v-2.25h2.02v-0.13h-2.02v-2.25h2.02v-0.13h-2.02v-2.25h2.02v-0.13h-2.02v-2.25h2.02v-0.13h-2.02v-2.25h2.02v-0.13h-2.02v-2.25
				h2.02v-0.13h-2.02v-2.25h2.02v-0.13h-2.02v-2.25h2.02v-0.13h-2.02v-2.25h2.02v-0.13h-2.02v-2.25h2.02v-0.13h-2.02v-1.25h-0.13
				v1.25H170v-1.25h-0.13v1.25h-2.25v-1.25h-0.13v1.25h-2.25v-1.25h-0.13v1.25h-2.25v-1.25h-0.13v1.25h-2.25v-1.25h-0.13v1.25h-2.25
				v-1.25h-0.13v1.25h-2.25v-1.25h-0.13v1.25h-2.25v-1.25h-0.13v1.25H151v-1.25h-0.13v1.25h-2.25v-1.25h-0.13v1.25h-2.25v-1.25
				h-0.13v1.25h-2.25v-1.25h-0.13v1.25h-2.25v-1.25h-0.13v1.25h-2.25v-1.25H139v1.25h-2.25v-1.25h-0.13v1.25h-2.25v-1.25h-0.13v1.25
				h-2.25v-1.25h-0.13v1.25h-2.25v-1.25h-0.13v1.25h-2.04v0.13h2.04v2.25h-2.04v0.13h2.04v2.25h-2.04v0.13h2.04v2.25h-2.04v0.13
				h2.04v2.25h-2.04v0.13h2.04v2.25h-2.04v0.13h2.04v2.25h-2.04v0.13h2.04v2.25h-2.04v0.13h2.04v2.25h-2.04v0.13h2.04v2.25h-2.04
				v0.13h2.04v2.25h-2.04v0.13h2.04v2.25h-2.04v0.13h2.04v2.25h-2.04v0.13h2.04V95.85z M170,66.11h2.25v2.25H170V66.11z M170,68.49
				h2.25v2.25H170V68.49z M170,70.86h2.25v2.25H170V70.86z M170,73.24h2.25v2.25H170V73.24z M170,75.61h2.25v2.25H170V75.61z
				 M170,77.99h2.25v2.25H170V77.99z M170,80.36h2.25v2.25H170V80.36z M170,82.73h2.25v2.25H170V82.73z M170,85.11h2.25v2.25H170
				V85.11z M170,87.48h2.25v2.25H170V87.48z M170,89.86h2.25v2.25H170V89.86z M170,92.23h2.25v2.25H170V92.23z M167.62,66.11h2.25
				v2.25h-2.25V66.11z M167.62,68.49h2.25v2.25h-2.25V68.49z M167.62,70.86h2.25v2.25h-2.25V70.86z M167.62,73.24h2.25v2.25h-2.25
				V73.24z M167.62,75.61h2.25v2.25h-2.25V75.61z M167.62,77.99h2.25v2.25h-2.25V77.99z M167.62,80.36h2.25v2.25h-2.25V80.36z
				 M167.62,82.73h2.25v2.25h-2.25V82.73z M167.62,85.11h2.25v2.25h-2.25V85.11z M167.62,87.48h2.25v2.25h-2.25V87.48z
				 M167.62,89.86h2.25v2.25h-2.25V89.86z M167.62,92.23h2.25v2.25h-2.25V92.23z M165.25,66.11h2.25v2.25h-2.25V66.11z
				 M165.25,68.49h2.25v2.25h-2.25V68.49z M165.25,70.86h2.25v2.25h-2.25V70.86z M165.25,73.24h2.25v2.25h-2.25V73.24z
				 M165.25,75.61h2.25v2.25h-2.25V75.61z M165.25,77.99h2.25v2.25h-2.25V77.99z M165.25,80.36h2.25v2.25h-2.25V80.36z
				 M165.25,82.73h2.25v2.25h-2.25V82.73z M165.25,85.11h2.25v2.25h-2.25V85.11z M165.25,87.48h2.25v2.25h-2.25V87.48z
				 M165.25,89.86h2.25v2.25h-2.25V89.86z M165.25,92.23h2.25v2.25h-2.25V92.23z M162.87,66.11h2.25v2.25h-2.25V66.11z
				 M162.87,68.49h2.25v2.25h-2.25V68.49z M162.87,70.86h2.25v2.25h-2.25V70.86z M162.87,73.24h2.25v2.25h-2.25V73.24z
				 M162.87,75.61h2.25v2.25h-2.25V75.61z M162.87,77.99h2.25v2.25h-2.25V77.99z M162.87,80.36h2.25v2.25h-2.25V80.36z
				 M162.87,82.73h2.25v2.25h-2.25V82.73z M162.87,85.11h2.25v2.25h-2.25V85.11z M162.87,87.48h2.25v2.25h-2.25V87.48z
				 M162.87,89.86h2.25v2.25h-2.25V89.86z M162.87,92.23h2.25v2.25h-2.25V92.23z M160.5,66.11h2.25v2.25h-2.25V66.11z M160.5,68.49
				h2.25v2.25h-2.25V68.49z M160.5,70.86h2.25v2.25h-2.25V70.86z M160.5,73.24h2.25v2.25h-2.25V73.24z M160.5,75.61h2.25v2.25h-2.25
				V75.61z M160.5,77.99h2.25v2.25h-2.25V77.99z M160.5,80.36h2.25v2.25h-2.25V80.36z M160.5,82.73h2.25v2.25h-2.25V82.73z
				 M160.5,85.11h2.25v2.25h-2.25V85.11z M160.5,87.48h2.25v2.25h-2.25V87.48z M160.5,89.86h2.25v2.25h-2.25V89.86z M160.5,92.23
				h2.25v2.25h-2.25V92.23z M158.12,66.11h2.25v2.25h-2.25V66.11z M158.12,68.49h2.25v2.25h-2.25V68.49z M158.12,70.86h2.25v2.25
				h-2.25V70.86z M158.12,73.24h2.25v2.25h-2.25V73.24z M158.12,75.61h2.25v2.25h-2.25V75.61z M158.12,77.99h2.25v2.25h-2.25V77.99z
				 M158.12,80.36h2.25v2.25h-2.25V80.36z M158.12,82.73h2.25v2.25h-2.25V82.73z M158.12,85.11h2.25v2.25h-2.25V85.11z
				 M158.12,87.48h2.25v2.25h-2.25V87.48z M158.12,89.86h2.25v2.25h-2.25V89.86z M158.12,92.23h2.25v2.25h-2.25V92.23z
				 M155.75,66.11h2.25v2.25h-2.25V66.11z M155.75,68.49h2.25v2.25h-2.25V68.49z M155.75,70.86h2.25v2.25h-2.25V70.86z
				 M155.75,73.24h2.25v2.25h-2.25V73.24z M155.75,75.61h2.25v2.25h-2.25V75.61z M155.75,77.99h2.25v2.25h-2.25V77.99z
				 M155.75,80.36h2.25v2.25h-2.25V80.36z M155.75,82.73h2.25v2.25h-2.25V82.73z M155.75,85.11h2.25v2.25h-2.25V85.11z
				 M155.75,87.48h2.25v2.25h-2.25V87.48z M155.75,89.86h2.25v2.25h-2.25V89.86z M155.75,92.23h2.25v2.25h-2.25V92.23z
				 M153.37,66.11h2.25v2.25h-2.25V66.11z M153.37,68.49h2.25v2.25h-2.25V68.49z M153.37,70.86h2.25v2.25h-2.25V70.86z
				 M153.37,73.24h2.25v2.25h-2.25V73.24z M153.37,75.61h2.25v2.25h-2.25V75.61z M153.37,77.99h2.25v2.25h-2.25V77.99z
				 M153.37,80.36h2.25v2.25h-2.25V80.36z M153.37,82.73h2.25v2.25h-2.25V82.73z M153.37,85.11h2.25v2.25h-2.25V85.11z
				 M153.37,87.48h2.25v2.25h-2.25V87.48z M153.37,89.86h2.25v2.25h-2.25V89.86z M153.37,92.23h2.25v2.25h-2.25V92.23z M151,66.11
				h2.25v2.25H151V66.11z M151,68.49h2.25v2.25H151V68.49z M151,70.86h2.25v2.25H151V70.86z M151,73.24h2.25v2.25H151V73.24z
				 M151,75.61h2.25v2.25H151V75.61z M151,77.99h2.25v2.25H151V77.99z M151,80.36h2.25v2.25H151V80.36z M151,82.73h2.25v2.25H151
				V82.73z M151,85.11h2.25v2.25H151V85.11z M151,87.48h2.25v2.25H151V87.48z M151,89.86h2.25v2.25H151V89.86z M151,92.23h2.25v2.25
				H151V92.23z M148.63,66.11h2.25v2.25h-2.25V66.11z M148.63,68.49h2.25v2.25h-2.25V68.49z M148.63,70.86h2.25v2.25h-2.25V70.86z
				 M148.63,73.24h2.25v2.25h-2.25V73.24z M148.63,75.61h2.25v2.25h-2.25V75.61z M148.63,77.99h2.25v2.25h-2.25V77.99z
				 M148.63,80.36h2.25v2.25h-2.25V80.36z M148.63,82.73h2.25v2.25h-2.25V82.73z M148.63,85.11h2.25v2.25h-2.25V85.11z
				 M148.63,87.48h2.25v2.25h-2.25V87.48z M148.63,89.86h2.25v2.25h-2.25V89.86z M148.63,92.23h2.25v2.25h-2.25V92.23z
				 M146.25,66.11h2.25v2.25h-2.25V66.11z M146.25,68.49h2.25v2.25h-2.25V68.49z M146.25,70.86h2.25v2.25h-2.25V70.86z
				 M146.25,73.24h2.25v2.25h-2.25V73.24z M146.25,75.61h2.25v2.25h-2.25V75.61z M146.25,77.99h2.25v2.25h-2.25V77.99z
				 M146.25,80.36h2.25v2.25h-2.25V80.36z M146.25,82.73h2.25v2.25h-2.25V82.73z M146.25,85.11h2.25v2.25h-2.25V85.11z
				 M146.25,87.48h2.25v2.25h-2.25V87.48z M146.25,89.86h2.25v2.25h-2.25V89.86z M146.25,92.23h2.25v2.25h-2.25V92.23z
				 M143.88,66.11h2.25v2.25h-2.25V66.11z M143.88,68.49h2.25v2.25h-2.25V68.49z M143.88,70.86h2.25v2.25h-2.25V70.86z
				 M143.88,73.24h2.25v2.25h-2.25V73.24z M143.88,75.61h2.25v2.25h-2.25V75.61z M143.88,77.99h2.25v2.25h-2.25V77.99z
				 M143.88,80.36h2.25v2.25h-2.25V80.36z M143.88,82.73h2.25v2.25h-2.25V82.73z M143.88,85.11h2.25v2.25h-2.25V85.11z
				 M143.88,87.48h2.25v2.25h-2.25V87.48z M143.88,89.86h2.25v2.25h-2.25V89.86z M143.88,92.23h2.25v2.25h-2.25V92.23z M141.5,66.11
				h2.25v2.25h-2.25V66.11z M141.5,68.49h2.25v2.25h-2.25V68.49z M141.5,70.86h2.25v2.25h-2.25V70.86z M141.5,73.24h2.25v2.25h-2.25
				V73.24z M141.5,75.61h2.25v2.25h-2.25V75.61z M141.5,77.99h2.25v2.25h-2.25V77.99z M141.5,80.36h2.25v2.25h-2.25V80.36z
				 M141.5,82.73h2.25v2.25h-2.25V82.73z M141.5,85.11h2.25v2.25h-2.25V85.11z M141.5,87.48h2.25v2.25h-2.25V87.48z M141.5,89.86
				h2.25v2.25h-2.25V89.86z M141.5,92.23h2.25v2.25h-2.25V92.23z M139.13,66.11h2.25v2.25h-2.25V66.11z M139.13,68.49h2.25v2.25
				h-2.25V68.49z M139.13,70.86h2.25v2.25h-2.25V70.86z M139.13,73.24h2.25v2.25h-2.25V73.24z M139.13,75.61h2.25v2.25h-2.25V75.61z
				 M139.13,77.99h2.25v2.25h-2.25V77.99z M139.13,80.36h2.25v2.25h-2.25V80.36z M139.13,82.73h2.25v2.25h-2.25V82.73z
				 M139.13,85.11h2.25v2.25h-2.25V85.11z M139.13,87.48h2.25v2.25h-2.25V87.48z M139.13,89.86h2.25v2.25h-2.25V89.86z
				 M139.13,92.23h2.25v2.25h-2.25V92.23z M136.75,66.11H139v2.25h-2.25V66.11z M136.75,68.49H139v2.25h-2.25V68.49z M136.75,70.86
				H139v2.25h-2.25V70.86z M136.75,73.24H139v2.25h-2.25V73.24z M136.75,75.61H139v2.25h-2.25V75.61z M136.75,77.99H139v2.25h-2.25
				V77.99z M136.75,80.36H139v2.25h-2.25V80.36z M136.75,82.73H139v2.25h-2.25V82.73z M136.75,85.11H139v2.25h-2.25V85.11z
				 M136.75,87.48H139v2.25h-2.25V87.48z M136.75,89.86H139v2.25h-2.25V89.86z M136.75,92.23H139v2.25h-2.25V92.23z M134.38,66.11
				h2.25v2.25h-2.25V66.11z M134.38,68.49h2.25v2.25h-2.25V68.49z M134.38,70.86h2.25v2.25h-2.25V70.86z M134.38,73.24h2.25v2.25
				h-2.25V73.24z M134.38,75.61h2.25v2.25h-2.25V75.61z M134.38,77.99h2.25v2.25h-2.25V77.99z M134.38,80.36h2.25v2.25h-2.25V80.36z
				 M134.38,82.73h2.25v2.25h-2.25V82.73z M134.38,85.11h2.25v2.25h-2.25V85.11z M134.38,87.48h2.25v2.25h-2.25V87.48z
				 M134.38,89.86h2.25v2.25h-2.25V89.86z M134.38,92.23h2.25v2.25h-2.25V92.23z M132.01,66.11h2.25v2.25h-2.25V66.11z
				 M132.01,68.49h2.25v2.25h-2.25V68.49z M132.01,70.86h2.25v2.25h-2.25V70.86z M132.01,73.24h2.25v2.25h-2.25V73.24z
				 M132.01,75.61h2.25v2.25h-2.25V75.61z M132.01,77.99h2.25v2.25h-2.25V77.99z M132.01,80.36h2.25v2.25h-2.25V80.36z
				 M132.01,82.73h2.25v2.25h-2.25V82.73z M132.01,85.11h2.25v2.25h-2.25V85.11z M132.01,87.48h2.25v2.25h-2.25V87.48z
				 M132.01,89.86h2.25v2.25h-2.25V89.86z M132.01,92.23h2.25v2.25h-2.25V92.23z M129.63,66.11h2.25v2.25h-2.25V66.11z
				 M129.63,68.49h2.25v2.25h-2.25V68.49z M129.63,70.86h2.25v2.25h-2.25V70.86z M129.63,73.24h2.25v2.25h-2.25V73.24z
				 M129.63,75.61h2.25v2.25h-2.25V75.61z M129.63,77.99h2.25v2.25h-2.25V77.99z M129.63,80.36h2.25v2.25h-2.25V80.36z
				 M129.63,82.73h2.25v2.25h-2.25V82.73z M129.63,85.11h2.25v2.25h-2.25V85.11z M129.63,87.48h2.25v2.25h-2.25V87.48z
				 M129.63,89.86h2.25v2.25h-2.25V89.86z M129.63,92.23h2.25v2.25h-2.25V92.23z"></path><path fill="#78D9D6" d="M165.14,92.13c-2.46,0-2.72-2.86-2.95-5.39c-0.23-2.54-0.48-4.2-1.78-4.2c-1.9,0-2.08-1.3-2.25-2.45
					c-0.18-1.27-0.34-2.37-2.43-2.37c-1.82,0-2.04,1.79-2.18,4.53c-0.11,2.32-0.24,4.96-2.63,4.96c-2.35,0-2.37-3.41-2.39-7.02
					c-0.02-3.54-0.04-7.19-2.3-7.19c-2.12,0-2.32,1.9-2.37,4.79c-0.04,2.33-0.09,4.74-2.35,4.74c-2.3,0-2.47-1.45-2.61-2.62
					c-0.15-1.23-0.26-2.2-2.21-2.2c-2.04,0-2.26,2.48-2.47,4.89c-0.2,2.26-0.41,4.59-2.29,4.59c-2,0-2.39-1.51-2.71-2.72
					c-0.33-1.27-0.59-2.05-1.77-2.05v-0.59c1.69,0,2.03,1.32,2.34,2.49c0.32,1.23,0.59,2.28,2.14,2.28c1.26,0,1.49-1.6,1.71-4.05
					c0.22-2.54,0.48-5.42,3.05-5.42c2.47,0,2.64,1.51,2.79,2.71c0.14,1.18,0.25,2.1,2.03,2.1c1.57,0,1.72-1.57,1.77-4.17
					c0.05-2.52,0.1-5.37,2.96-5.37c2.84,0,2.86,3.95,2.88,7.78c0.02,3.31,0.03,6.43,1.8,6.43c1.71,0,1.91-1.66,2.05-4.4
					c0.11-2.39,0.24-5.09,2.76-5.09c2.6,0,2.83,1.6,3.02,2.88c0.18,1.24,0.34,1.94,1.66,1.94c1.93,0,2.15,2.41,2.36,4.73
					c0.27,2.93,0.58,4.86,2.37,4.86c1.78,0,1.89-3.43,1.99-6.75c0.12-3.76,0.24-7.66,2.79-7.66c2.6,0,2.68,2.81,2.76,5.29
					c0.08,2.61,0.24,4.2,1.7,4.2v0.59c-2.14,0-2.21-2.42-2.29-4.77c-0.09-2.85-0.29-4.72-2.17-4.72c-1.98,0-2.1,3.6-2.21,7.09
					C167.6,88.57,167.49,92.13,165.14,92.13z"></path><path fill="#00416D" d="M132.95,86.9c0-0.56-0.45-1.01-1.01-1.01c-0.56,0-1.01,0.45-1.01,1.01c0,0.56,0.45,1.01,1.01,1.01
					C132.5,87.91,132.95,87.46,132.95,86.9z"></path><path fill="#0FBAB6" d="M132.55,86.9c0-0.34-0.27-0.61-0.61-0.61c-0.34,0-0.61,0.27-0.61,0.61
					c0,0.34,0.27,0.61,0.61,0.61C132.28,87.51,132.55,87.24,132.55,86.9z" opacity=".5"></path><path fill="#00416D" d="M137.71,77.43c0-0.56-0.45-1.01-1.01-1.01c-0.56,0-1.01,0.45-1.01,1.01c0,0.56,0.45,1.01,1.01,1.01
					C137.26,78.44,137.71,77.99,137.71,77.43z"></path><path fill="#0FBAB6" d="M137.31,77.43c0-0.34-0.27-0.61-0.61-0.61c-0.34,0-0.61,0.27-0.61,0.61
					c0,0.34,0.27,0.61,0.61,0.61C137.04,78.04,137.31,77.76,137.31,77.43z" opacity=".5"></path><path fill="#00416D" d="M142.53,82.25c0-0.56-0.45-1.01-1.01-1.01c-0.56,0-1.01,0.45-1.01,1.01c0,0.56,0.45,1.01,1.01,1.01
					C142.08,83.25,142.53,82.8,142.53,82.25z"></path><path fill="#0FBAB6" d="M142.13,82.25c0-0.34-0.27-0.61-0.61-0.61c-0.34,0-0.61,0.27-0.61,0.61
					c0,0.34,0.27,0.61,0.61,0.61C141.86,82.86,142.13,82.58,142.13,82.25z" opacity=".5"></path><path fill="#00416D" d="M147.25,72.71c0-0.56-0.45-1.01-1.01-1.01s-1.01,0.45-1.01,1.01c0,0.56,0.45,1.01,1.01,1.01
					S147.25,73.27,147.25,72.71z"></path><path fill="#0FBAB6" d="M146.85,72.71c0-0.34-0.27-0.61-0.61-0.61c-0.34,0-0.61,0.27-0.61,0.61
					s0.27,0.61,0.61,0.61C146.58,73.32,146.85,73.05,146.85,72.71z" opacity=".5"></path><path fill="#00416D" d="M151.93,86.92c0-0.56-0.45-1.01-1.01-1.01c-0.56,0-1.01,0.45-1.01,1.01c0,0.56,0.45,1.01,1.01,1.01
					C151.48,87.93,151.93,87.48,151.93,86.92z"></path><path fill="#0FBAB6" d="M151.54,86.92c0-0.34-0.27-0.61-0.61-0.61c-0.34,0-0.61,0.27-0.61,0.61
					c0,0.34,0.27,0.61,0.61,0.61C151.26,87.53,151.54,87.26,151.54,86.92z" opacity=".5"></path><path fill="#00416D" d="M156.74,77.43c0-0.56-0.45-1.01-1.01-1.01c-0.56,0-1.01,0.45-1.01,1.01c0,0.56,0.45,1.01,1.01,1.01
					C156.29,78.44,156.74,77.99,156.74,77.43z"></path><path fill="#0FBAB6" d="M156.34,77.43c0-0.34-0.27-0.61-0.61-0.61c-0.34,0-0.61,0.27-0.61,0.61
					c0,0.34,0.27,0.61,0.61,0.61C156.07,78.04,156.34,77.76,156.34,77.43z" opacity=".5"></path><path fill="#00416D" d="M161.42,82.25c0-0.56-0.45-1.01-1.01-1.01c-0.56,0-1.01,0.45-1.01,1.01c0,0.56,0.45,1.01,1.01,1.01
					C160.97,83.25,161.42,82.8,161.42,82.25z"></path><circle cx="160.41" cy="82.25" r=".61" fill="#0FBAB6" opacity=".5"></circle><g><path fill="#00416D" d="M166.15,91.84c0-0.56-0.45-1.01-1.01-1.01c-0.56,0-1.01,0.45-1.01,1.01c0,0.56,0.45,1.01,1.01,1.01
					C165.7,92.84,166.15,92.39,166.15,91.84z"></path><path fill="#0FBAB6" d="M165.75,91.84c0-0.34-0.27-0.61-0.61-0.61s-0.61,0.27-0.61,0.61
					c0,0.34,0.27,0.61,0.61,0.61S165.75,92.17,165.75,91.84z" opacity=".5"></path></g><g><path fill="#00416D" d="M170.94,77.43c0-0.56-0.45-1.01-1.01-1.01c-0.56,0-1.01,0.45-1.01,1.01c0,0.56,0.45,1.01,1.01,1.01
					C170.49,78.44,170.94,77.99,170.94,77.43z"></path><path fill="#0FBAB6" d="M170.54,77.43c0-0.34-0.27-0.61-0.61-0.61c-0.34,0-0.61,0.27-0.61,0.61
					c0,0.34,0.27,0.61,0.61,0.61C170.27,78.04,170.54,77.76,170.54,77.43z" opacity=".5"></path></g></g><path fill="#FCBC8F" d="M219.65,77.04c0,0-0.27,1.41-0.27,1.84c0,0.31,0.49,0.63,0.91,0.36c0.22-0.14,0.59-0.93,0.8-1.74
							C221.25,76.88,219.74,76.95,219.65,77.04z"></path><linearGradient id="g" x1="1373.508" x2="1372.416" y1="691.858" y2="694.646" gradientTransform="scale(-1 1) rotate(-34.863 -406.783 2922.95)" gradientUnits="userSpaceOnUse"><stop offset="0" stop-color="#101719"></stop><stop offset="1" stop-color="#243137"></stop></linearGradient><path fill="url(#g)" d="M221.93,74.76c0.11,1.29,0.13,2.23,0.01,3.17c-0.6,0.42-1.84,0.35-2.46-0.2
							c0.12-0.77,0.17-1.09,0.34-2.07c0.18-1.03,0.24-1.98,1.16-2.01C221.47,73.64,221.86,74.02,221.93,74.76z"></path><linearGradient id="h" x1="45.648" x2="46.41" y1="29.12" y2="39.495" gradientTransform="scale(-1 1) rotate(10.872 -380.068 -1346.44)" gradientUnits="userSpaceOnUse"><stop offset="0" stop-color="#101719"></stop><stop offset="1" stop-color="#243137"></stop></linearGradient><path fill="url(#h)" d="M219.86,83.07c0.05-0.57,0.01-1.9,1.08-1.99c1.45-0.13,2.68,0.73,2.58,3.13
						c-0.1,2.47-0.81,4.14-1.05,4.49c-0.4,0.59-2.81,0.53-2.87-0.56C219.52,86.91,219.78,84.02,219.86,83.07z"></path><linearGradient id="i" x1="-382.396" x2="-385.581" y1="109.77" y2="113.056" gradientTransform="scale(-1 1) rotate(-.676 -1450.97 -13208.74)" gradientUnits="userSpaceOnUse"><stop offset="0" stop-color="#ffd1ae"></stop><stop offset="1" stop-color="#f9ac78"></stop></linearGradient><path fill="url(#i)" d="M225.28,97.4L225,95.96c0,0,1.16-0.22,1.18-0.02c0.02,0.14,0.09,0.99,0.11,1.27
								C226.23,97.36,225.31,97.42,225.28,97.4z"></path><linearGradient id="j" x1="68.566" x2="67.677" y1="85.312" y2="90.53" gradientTransform="matrix(-1 0 0 1 292.646 0)" gradientUnits="userSpaceOnUse"><stop offset="0" stop-color="#101719"></stop><stop offset="1" stop-color="#243137"></stop></linearGradient><path fill="url(#j)" d="M226.32,96.53c0,0-0.32-6.35-0.32-7.9c0-0.85-0.12-2.37-1.66-2.01
								c-1.54,0.36-1.28,1.45-1.05,2.38c0.52,2.12,1.79,7.71,1.79,7.71L226.32,96.53z"></path><path fill="#E2E2E2" d="M225.76,98.59c-0.41-0.01-0.76-0.04-0.95-0.1c0,0.02,0,0.03,0,0.05c0,0,0,0,0,0
								c0-0.21,0.01-0.46,0.03-0.7c0.02-0.25,0.06-0.42,0.12-0.55c0.03-0.07,0.06-0.13,0.1-0.17c0.06-0.08,0.1-0.04,0.18-0.01
								c0.15,0.06,0.22,0.24,0.51,0.24c0.29,0,0.44-0.13,0.53-0.24c0.05-0.06,0.12-0.07,0.18,0.01c0.04,0.05,0.07,0.11,0.1,0.17
								c0.06,0.13,0.1,0.3,0.12,0.55c0.02,0.22,0.02,0.45,0.03,0.65C226.52,98.56,226.17,98.59,225.76,98.59z"></path><path fill="#1C5268" d="M224.81,98.49c0.19,0.07,0.54,0.1,0.95,0.1c0.41-0.01,0.76-0.04,0.95-0.1c0,0.02,0,0.05,0,0.08
								c0,0.08-0.01,0.17-0.02,0.26c-0.01,0.11-0.07,0.16-0.22,0.18c-0.14,0.02-0.37,0.01-0.72,0.01c-0.34,0.01-0.57,0.01-0.72-0.01
								c-0.15-0.02-0.21-0.07-0.22-0.18c-0.01-0.09-0.02-0.17-0.02-0.26C224.81,98.54,224.81,98.52,224.81,98.49z"></path><path fill="#BCBCBC" d="M225.77,97.97c0,0,0.01,0,0.01,0c0,0,0.01,0,0.01,0c0.35,0,0.55,0.02,0.55,0.18
								c0,0.03-0.01,0.07-0.04,0.11c-0.09,0.11-0.26,0.17-0.5,0.17c-0.01,0-0.01,0-0.02,0c0,0-0.01,0-0.01,0c0,0-0.01,0-0.01,0
								c-0.01,0-0.01,0-0.02,0c-0.24,0-0.41-0.06-0.5-0.17c-0.03-0.04-0.04-0.08-0.04-0.11C225.22,97.99,225.42,97.97,225.77,97.97z
								"></path><path fill="#1C5268" d="M225.33,97.16c0,0,0.16-0.12,0.46-0.12c0.29,0,0.43,0.14,0.43,0.14s-0.04,0.19-0.09,0.58
								c-0.02,0.14-0.03,0.29-0.03,0.36c0,0-0.15-0.03-0.31-0.03c-0.17,0-0.33,0.03-0.33,0.03c-0.01-0.07-0.01-0.22-0.03-0.36
								C225.37,97.37,225.33,97.16,225.33,97.16z"></path><path fill="#7CD8CF" d="M225.35,97.26c0,0.03,0.01,0.06,0.01,0.09c0.32-0.24,0.71-0.08,0.83-0.02
								c0.01-0.04,0.01-0.06,0.02-0.09C226.05,97.18,225.68,97.03,225.35,97.26z M225.42,97.75c0,0.01,0,0.01,0,0.02
								c0,0.02,0.01,0.05,0.01,0.07c0.25-0.14,0.54-0.07,0.68-0.02c0-0.02,0-0.03,0.01-0.05c0-0.01,0-0.02,0.01-0.04
								C225.97,97.68,225.68,97.62,225.42,97.75z M225.38,97.5c0,0.03,0.01,0.06,0.01,0.09c0.28-0.19,0.62-0.08,0.75-0.02
								c0-0.03,0.01-0.06,0.01-0.09C226.01,97.42,225.68,97.33,225.38,97.5z M225.45,98c0,0.03,0,0.06,0.01,0.09
								c0.23-0.11,0.5-0.06,0.64-0.02c0-0.03,0-0.06,0.01-0.09C225.95,97.94,225.69,97.9,225.45,98z"></path><linearGradient id="k" x1="70.979" x2="70.091" y1="120.807" y2="126.025" gradientTransform="scale(-1 1) rotate(-3.078 -747.54 5599.86)" gradientUnits="userSpaceOnUse"><stop offset="0" stop-color="#101719"></stop><stop offset="1" stop-color="#243137"></stop></linearGradient><path fill="url(#k)" d="M222.28,82.89c-0.05-0.56-0.31-1.87,0.72-2.15c1.4-0.38,3.12,0.34,3.19,2.74
						c0.04,1.35-0.05,4.08-0.3,4.68c-0.58,1.39-2.46,1.31-2.72,0.3C222.87,87.25,222.37,83.87,222.28,82.89z"></path><path fill="#92EAE4" d="M220.12,75.88c0.05-1.15,0.06-1.31,0.08-1.63c0.02-0.31,0.24-0.51,0.76-0.63
						c0.79-0.18,1.96-0.17,2.86-0.09c1.67,0.15,1.88,0.65,2,1.37c0.63,3.69,0.39,8.26,0.39,8.26s-0.22,0.54-1.91,0.54
						c-2.76,0-3.97-0.38-4.46-0.78C219.98,80.1,220.07,77.07,220.12,75.88z"></path><path fill="none" stroke="#00425A" stroke-miterlimit="10" stroke-width=".086" d="M221.47,97.4"></path><path fill="#E2E2E2" d="M218.84,98.25c0.17-0.08,0.43-0.13,0.76-0.26c0.01,0.02,0.06,0.1,0.28,0.07c0.26-0.04,0.7-0.25,1-0.5
							s0.44-0.29,0.59-0.15c0,0,0.05-0.06,0.07-0.13c0.09,0.07,0.26,0.17,0.49,0.15c0.23-0.02,0.36-0.18,0.45-0.25
							c0.06-0.04,0.11-0.06,0.16,0c0.1,0.12,0.18,0.28,0.21,0.59c0.02,0.19,0.03,0.4,0.03,0.57c-0.06,0-0.96,0.06-1.72,0.16
							c-0.78,0.11-2.1,0.17-2.53,0.01C218.66,98.41,218.71,98.31,218.84,98.25z"></path><path fill="#1C5268" d="M218.64,98.51c0.43,0.15,1.75,0.1,2.53-0.01c0.76-0.11,1.66-0.16,1.72-0.16c0,0.14,0,0.27,0.01,0.34
							c0,0.16-0.04,0.29-0.4,0.29c-0.36,0.01-2.1,0.03-2.86,0.04c-0.76,0.01-0.97,0.05-0.99-0.18
							C218.65,98.73,218.63,98.61,218.64,98.51z"></path><path fill="#E54600" d="M221.54,97.3c-0.03,0.06-0.06,0.11-0.06,0.11s0.22,0.25,0.57,0.21c0.26-0.03,0.38-0.31,0.48-0.43
							c0.01-0.01,0-0.02-0.01-0.01c-0.02,0.02-0.05,0.04-0.07,0.06c-0.09,0.08-0.21,0.18-0.4,0.2c-0.02,0-0.04,0-0.06,0h0
							C221.78,97.45,221.63,97.36,221.54,97.3z"></path><path fill="#BC5000" d="M221.12 97.38c.01 0 .01-.01.02-.01 0 0 0 0 0 0 0 0 0 0 0 0C221.13 97.37 221.13 97.37 221.12 97.38 221.12 97.38 221.12 97.38 221.12 97.38zM222.97 98.04L222.97 98.04c0-.01 0-.02 0-.03C222.97 98.02 222.97 98.03 222.97 98.04zM220.96 97.39C220.96 97.39 220.96 97.39 220.96 97.39c-.01 0-.01.01-.02.01 0 0 0 0 0 0C220.95 97.4 220.96 97.4 220.96 97.39z"></path><linearGradient id="l" x1="-347.154" x2="-350.207" y1="159.971" y2="163.121" gradientTransform="scale(-1 1) rotate(-14.614 -532.703 -361.042)" gradientUnits="userSpaceOnUse"><stop offset="0" stop-color="#ffd1ae"></stop><stop offset="1" stop-color="#f9ac78"></stop></linearGradient><path fill="url(#l)" d="M222.04,97.62c-0.35,0.03-0.57-0.21-0.57-0.21c-0.04-0.03-0.06-0.07-0.08-0.09l-0.09-1.23
							c0,0,1.17-0.16,1.18,0.04c0.01,0.14,0.03,0.61,0.03,1.08C222.42,97.32,222.29,97.59,222.04,97.62z"></path><path fill="#1C5268" d="M220.88,97.55c-0.3,0.25-0.74,0.47-1,0.5c-0.22,0.03-0.27-0.05-0.28-0.07
								c0.18-0.07,0.39-0.17,0.6-0.31c0.61-0.39,0.91-0.7,1.11-0.7c0.2,0,0.26,0.17,0.22,0.29c-0.02,0.07-0.07,0.13-0.07,0.13
								C221.33,97.26,221.18,97.3,220.88,97.55z"></path><path fill="#7CD8CF" d="M220.62,97.39l0.22,0.19c0.01-0.01,0.02-0.02,0.04-0.03c0.02-0.01,0.03-0.03,0.05-0.04l-0.23-0.19
									c-0.01-0.01-0.02-0.01-0.03,0c-0.02,0.01-0.03,0.02-0.05,0.04C220.61,97.36,220.61,97.38,220.62,97.39z M220.45,97.5
									c-0.01-0.01-0.02-0.01-0.03,0c-0.02,0.01-0.03,0.02-0.05,0.03c-0.01,0.01-0.01,0.03,0,0.04l0.2,0.21
									c0.03-0.02,0.06-0.04,0.1-0.06L220.45,97.5z M220.87,97.21l0.23,0.18c0.04-0.02,0.08-0.04,0.11-0.05l-0.25-0.2
									c-0.01-0.01-0.02-0.01-0.03,0c-0.02,0.01-0.03,0.02-0.05,0.04C220.86,97.18,220.86,97.2,220.87,97.21z M220.18,97.68
									c-0.01-0.01-0.02-0.01-0.03-0.01c-0.02,0.01-0.03,0.02-0.05,0.03c-0.01,0.01-0.02,0.02-0.01,0.04l0.15,0.2
									c0.03-0.01,0.07-0.03,0.1-0.05L220.18,97.68z M219.85,97.84c-0.02,0.01-0.04,0.02-0.06,0.03c-0.01,0.01-0.02,0.02-0.01,0.04
									l0.1,0.15c0.04-0.01,0.07-0.01,0.12-0.03l-0.12-0.18C219.88,97.84,219.86,97.83,219.85,97.84z"></path><linearGradient id="m" x1="53.739" x2="54.498" y1="114.564" y2="124.897" gradientTransform="scale(-1 1) rotate(11.122 68.4 -1309.384)" gradientUnits="userSpaceOnUse"><stop offset="0" stop-color="#101719"></stop><stop offset="1" stop-color="#243137"></stop></linearGradient><path fill="url(#m)" d="M222.56,96.56c0,0-0.1-6.35-0.1-7.9c0-1.52-0.05-2.37-1.6-2.05c-1.55,0.32-1.41,0.97-1,3.11
							c0.41,2.14,1.46,6.98,1.46,6.98L222.56,96.56z"></path><path fill="#BCBCBC" d="M220,98.03C220,98.03,220,98.03,220,98.03L220,98.03C220,98.03,220,98.03,220,98.03
							c0.04-0.01,0.08-0.02,0.12-0.04c0.01,0.05,0.01,0.16-0.06,0.26c-0.08,0.11-0.23,0.16-0.45,0.17c-0.01,0-0.02,0-0.02,0
							c-0.54,0.01-0.81-0.05-0.88-0.07c0.03-0.04,0.07-0.07,0.13-0.1c0.17-0.08,0.43-0.13,0.76-0.26c0.01,0.01,0.02,0.04,0.06,0.05
							c0.04,0.02,0.11,0.03,0.22,0.01C219.92,98.05,219.96,98.04,220,98.03L220,98.03z"></path><linearGradient id="n" x1="222.668" x2="222.668" y1="72.659" y2="75.481" gradientUnits="userSpaceOnUse"><stop offset="0" stop-color="#101719"></stop><stop offset="1" stop-color="#243137"></stop></linearGradient><path fill="url(#n)" d="M223.88,73.3c-0.36,0-1.26,0.09-1.76,0.03c-0.43-0.05-0.64-0.03-0.75,0.14
						c-0.18,0.43-0.19,0.9,0,1.2c0.14,0.22,0.35,0.34,0.61,0.34c0.16,0,0.32,0,0.48,0.01c0.17,0,0.35,0.01,0.53,0.01
						c0.82,0,0.93-0.71,0.99-1.05c0.01-0.07,0.03-0.17,0.04-0.22C224.09,73.47,224.23,73.3,223.88,73.3z"></path><linearGradient id="o" x1="70.072" x2="70.072" y1="69.799" y2="75.641" gradientTransform="matrix(-1 -.00187 -.00187 1 292.864 1.065)" gradientUnits="userSpaceOnUse"><stop offset="0" stop-color="#ffd1ae"></stop><stop offset="1" stop-color="#f9ac78"></stop></linearGradient><path fill="url(#o)" d="M223.62,73.51c-0.25,0.19,0.05,1.05-0.79,1.05c-0.34,0-0.35-0.01-0.67-0.01
						c-0.49,0-0.59-0.53-0.33-1.06C222.58,73.43,222.75,73.43,223.62,73.51z"></path><linearGradient id="p" x1="64.381" x2="64.381" y1="81.624" y2="88.007" gradientTransform="scale(-1 1) rotate(5.762 31.578 -2772.72)" gradientUnits="userSpaceOnUse"><stop offset="0" stop-color="#ffd1ae"></stop><stop offset="1" stop-color="#f9ac78"></stop></linearGradient><path fill="url(#p)" d="M221.76,72.87c0,0,0.15,0.44,0.24,1.08c0.06,0.39,0.57,0.32,0.97,0.23
						c0.63-0.13,0.54-0.61,0.54-0.61s-0.28-1.41-0.4-1.88C223.01,71.27,221.77,72.42,221.76,72.87z"></path><linearGradient id="q" x1="76.189" x2="76.189" y1="59.716" y2="66.116" gradientTransform="scale(-1 1) rotate(-4.962 50.255 3503.53)" gradientUnits="userSpaceOnUse"><stop offset="0" stop-color="#ffd1ae"></stop><stop offset="1" stop-color="#f9ac78"></stop></linearGradient><path fill="url(#q)" d="M220.17,70.86c0.09,0.62,0.41,1.91,0.89,2.25c0.46,0.32,2.24-0.22,2.23-1.13
						c-0.01-0.59-0.15-1.36-0.25-1.82c-0.06-0.27-0.26-0.47-0.53-0.52C221.68,69.49,219.96,69.35,220.17,70.86z"></path><linearGradient id="r" x1="75.217" x2="76.759" y1="62.382" y2="57.895" gradientTransform="scale(-1 1) rotate(-4.962 50.255 3503.53)" gradientUnits="userSpaceOnUse"><stop offset="0" stop-color="#101719"></stop><stop offset="1" stop-color="#243137"></stop></linearGradient><path fill="url(#r)" d="M223.63,69.16c-0.16-0.1-0.43-0.01-0.43-0.01s0.05-0.26-0.29-0.44
						c-0.44-0.23-1.11-0.23-1.62-0.06c-0.82,0.27-1.64,0.22-1.87,0.66c-0.34,0.63,0.28,1.44,0.5,1.55c0.8,0.39,1.85-0.5,2.26-0.34
						c0.2,0.08,0.3,0.42,0.3,0.42s0.41-0.5,0.63-0.09c0.21,0.39-0.39,0.75-0.39,0.75s0.23,1,0.52,0.99c0.15,0,0.86-0.63,0.96-1.83
						C224.26,69.96,224.09,69.45,223.63,69.16z"></path><rect width="20.39" height="3.93" x="212.02" y="77.33" fill="#0FBAB6" transform="rotate(45.001 222.224 79.294)"></rect><path fill="#00416D" d="M216.75 74.54l.71-.71c.15-.15.39-.15.53 0l9.7 9.7c.15.15.15.39 0 .53l-.71.71c-.15.15-.39.15-.53 0l-9.7-9.7C216.61 74.92 216.61 74.68 216.75 74.54zM234.94 85.63c1.12 1.13 1.53 2.7 1.22 4.14-.05.21-.31.29-.47.13l-2.13-2.13c-.15-.15-.36-.2-.55-.15l-1.62.43c-.2.05-.35.21-.41.41l-.43 1.62c-.05.2 0 .41.15.55l2.13 2.13c.15.15.08.42-.13.47-1.45.31-3.02-.1-4.14-1.22-1.78-1.78-1.76-4.67.05-6.43C230.36 83.87 233.2 83.89 234.94 85.63z"></path><path fill="#FFF" d="M234.94,85.63c1.12,1.13,1.53,2.7,1.22,4.14c-0.05,0.21-0.31,0.29-0.47,0.13l-2.13-2.13
							c-0.15-0.15-0.36-0.2-0.55-0.15l-1.62,0.43c-0.2,0.05-0.35,0.21-0.41,0.41l-0.43,1.62c-0.05,0.2,0,0.41,0.15,0.55l2.13,2.13
							c0.15,0.15,0.08,0.42-0.13,0.47c-1.45,0.31-3.02-0.1-4.14-1.22c-1.78-1.78-1.76-4.67,0.05-6.43
							C230.36,83.87,233.2,83.89,234.94,85.63z" opacity=".15"></path><path fill="#0FBAB6" d="M230.13,87.91l0.71-0.71c0.15-0.15,0.15-0.39,0-0.53l-0.74-0.74c-0.15-0.15-0.39-0.15-0.53,0
						l-0.71,0.71c-0.15,0.15-0.15,0.39,0,0.53l0.74,0.74C229.74,88.06,229.98,88.06,230.13,87.91z"></path><path fill="#FFB83B" d="M215.89,66.58c-1.13-1.12-2.7-1.53-4.14-1.22c-0.21,0.05-0.29,0.31-0.13,0.47l2.13,2.13
							c0.15,0.15,0.2,0.36,0.15,0.55l-0.43,1.62c-0.05,0.2-0.21,0.35-0.41,0.41l-1.62,0.43c-0.2,0.05-0.41,0-0.55-0.15l-2.13-2.13
							c-0.15-0.15-0.42-0.08-0.47,0.13c-0.31,1.45,0.1,3.02,1.22,4.14c1.78,1.78,4.67,1.76,6.43-0.05
							C217.65,71.16,217.63,68.32,215.89,66.58z"></path><path fill="#00416D" d="M215.89,66.58c-1.13-1.12-2.7-1.53-4.14-1.22c-0.21,0.05-0.29,0.31-0.13,0.47l2.13,2.13
							c0.15,0.15,0.2,0.36,0.15,0.55l-0.43,1.62c-0.05,0.2-0.21,0.35-0.41,0.41l-1.62,0.43c-0.2,0.05-0.41,0-0.55-0.15l-2.13-2.13
							c-0.15-0.15-0.42-0.08-0.47,0.13c-0.31,1.45,0.1,3.02,1.22,4.14c1.78,1.78,4.67,1.76,6.43-0.05
							C217.65,71.16,217.63,68.32,215.89,66.58z"></path><path fill="#FFF" d="M215.89,66.58c-1.13-1.12-2.7-1.53-4.14-1.22c-0.21,0.05-0.29,0.31-0.13,0.47l2.13,2.13
							c0.15,0.15,0.2,0.36,0.15,0.55l-0.43,1.62c-0.05,0.2-0.21,0.35-0.41,0.41l-1.62,0.43c-0.2,0.05-0.41,0-0.55-0.15l-2.13-2.13
							c-0.15-0.15-0.42-0.08-0.47,0.13c-0.31,1.45,0.1,3.02,1.22,4.14c1.78,1.78,4.67,1.76,6.43-0.05
							C217.65,71.16,217.63,68.32,215.89,66.58z" opacity=".15"></path><path fill="#0FBAB6" d="M213.61,71.39l0.71-0.71c0.15-0.15,0.39-0.15,0.53,0l0.74,0.74c0.15,0.15,0.15,0.39,0,0.53l-0.71,0.71
						c-0.15,0.15-0.39,0.15-0.53,0l-0.74-0.74C213.46,71.77,213.46,71.54,213.61,71.39z"></path><path fill="#FCBC8F" d="M227.39,76.66c0,0,0.61,1.3,0.73,1.71c0.08,0.3-0.32,0.73-0.79,0.57c-0.25-0.08-0.8-0.76-1.21-1.48
						C225.81,76.91,227.29,76.59,227.39,76.66z"></path><linearGradient id="s" x1="1430.624" x2="1429.575" y1="982.717" y2="985.396" gradientTransform="rotate(-47.318 -208.035 1904.317)" gradientUnits="userSpaceOnUse"><stop offset="0" stop-color="#101719"></stop><stop offset="1" stop-color="#243137"></stop></linearGradient><path fill="url(#s)" d="M224.77,75.64c0.17,1.28,0.36,1.47,0.81,2.39c0.79,0.21,1.73-0.09,2.22-0.76
						c-0.35-0.82-0.52-1-0.91-1.64c-0.54-0.89-1.28-1.58-1.6-1.72C224.8,74.01,224.67,74.92,224.77,75.64z"></path><path fill="#FCBC8F" d="M227.08,78.11c0.53-0.3,0.87-0.16,1.03,0.29c0.1,0.28-0.49,0.78-0.9,1.09
						c-0.79,0.59-2.33,1.58-3.76,2.58c-0.16,0.11-0.28,0.06-0.37-0.07l0,0c-0.08-0.12-0.08-0.28,0.05-0.4
						C224.73,80.06,225.79,78.85,227.08,78.11z"></path><linearGradient id="t" x1="1541.51" x2="1542.074" y1="628.203" y2="628.644" gradientTransform="scale(-1 1) rotate(-45 -.403 2484.357)" gradientUnits="userSpaceOnUse"><stop offset="0" stop-color="#fcbc8f"></stop><stop offset="1" stop-color="#fba05f"></stop></linearGradient><path fill="url(#t)" d="M222.35,81.24c-0.19-0.02-0.43,0-0.46,0.15c-0.04,0.2,0.36,0.2,0.74,0.42
						c0.25,0.14,0.65,0.02,0.48-0.16C222.87,81.42,222.68,81.27,222.35,81.24z"></path><linearGradient id="u" x1="1541.274" x2="1541.274" y1="628.578" y2="629.294" gradientTransform="scale(-1 1) rotate(-45 -.403 2484.357)" gradientUnits="userSpaceOnUse"><stop offset="0" stop-color="#fcbc8f"></stop><stop offset="1" stop-color="#fba05f"></stop></linearGradient><path fill="url(#u)" d="M223.34,81.88c0.34,0.34-0.16,0.83-0.5,0.95c-0.39,0.15-1.52-1.04-1.28-1.24
						c0.14-0.11,0.34,0.17,0.37,0.2c0.26-0.25,0.81-0.51,1.15-0.16C223.24,81.78,223.21,81.75,223.34,81.88z"></path><linearGradient id="v" x1="230.106" x2="230.106" y1="117.629" y2="142.503" gradientUnits="userSpaceOnUse"><stop offset="0" stop-color="#048e87"></stop><stop offset="1" stop-color="#fff"></stop></linearGradient><path fill="url(#v)" d="M240.64,143.38l-1.54-5.75l-9.44,0l1.54,5.75h-0.4l-11.63-43.43h0.4l1.19,4.43l9.44,0l-1.19-4.43
				h0.4l11.63,43.43H240.64z M229.56,137.24l9.44,0l-1.65-6.19l-9.44,0L229.56,137.24z M227.8,130.67l9.44,0l-1.65-6.19l-9.44,0
				L227.8,130.67z M226.04,124.1l9.44,0l-1.65-6.19l-9.44,0L226.04,124.1z M224.28,117.52l9.44,0l-1.65-6.19l-9.44,0L224.28,117.52z
				 M222.52,110.95l9.44,0l-1.66-6.19l-9.44,0L222.52,110.95z"></path><polygon fill="#CC5946" points="219.33 99.02 217.53 99.02 217.28 99.95 219.58 99.95"></polygon><polygon fill="#EA816A" points="219.33 99.02 219.58 99.95 229.41 99.95 229.16 99.02"></polygon><linearGradient id="w" x1="217.406" x2="217.406" y1="137.498" y2="120.838" gradientUnits="userSpaceOnUse"><stop offset="0" stop-color="#fff"></stop><stop offset="1" stop-color="#00776e"></stop></linearGradient><path fill="url(#w)" d="M207.7,137.24l1.65-6.19l9.44,0l-1.66,6.19h0.4l9.98-37.29h-0.4l-1.18,4.43l-9.44,0l1.18-4.43
				h-0.4l-9.98,37.29H207.7z M216.39,104.77l9.44,0l-1.66,6.19l-9.44,0L216.39,104.77z M214.63,111.34l9.44,0l-1.65,6.19l-9.44,0
				L214.63,111.34z M212.87,117.91l9.44,0l-1.66,6.19l-9.44,0L212.87,117.91z M211.11,124.48l9.44,0l-1.65,6.19l-9.44,0
				L211.11,124.48z"></path><g><linearGradient id="x" x1="93.59" x2="83.083" y1="136.782" y2="134.089" gradientUnits="userSpaceOnUse"><stop offset="0" stop-color="#e72100"></stop><stop offset="1" stop-color="#e93701"></stop></linearGradient><path fill="url(#x)" d="M91.65,132.56c0.42-1.62-2.22-4.89-5.1-2.88c-2.92,2.03-3.54,6.97-2.94,9.34
				c0.72,2.87,5.11,3.41,5.84,0.56S91.42,133.46,91.65,132.56z"></path><linearGradient id="y" x1="95.17" x2="89.546" y1="137.236" y2="135.795" gradientUnits="userSpaceOnUse"><stop offset="0" stop-color="#101719"></stop><stop offset="1" stop-color="#243137"></stop></linearGradient><path fill="url(#y)" d="M94.5,133.56l-2.93-1.03c0,0-1.1,0.79-1.67,3.39c-0.57,2.61-0.44,3.64-0.44,3.64l3.15,0.79
				L94.5,133.56z"></path><linearGradient id="z" x1="101.27" x2="101.27" y1="129.812" y2="157.638" gradientUnits="userSpaceOnUse"><stop offset="0" stop-color="#e72100"></stop><stop offset="1" stop-color="#e93701"></stop></linearGradient><path fill="url(#z)" d="M110.45,134.69c-0.6-4.25-5.15-4.96-9.13-4.87c-2.68,0.06-4.89,0.46-6.98,2.92
				c-1.38,1.62-2.44,5.5-2.37,8.86c0.04,2.29,0.93,4.16,2.2,5.19c3.66,2.97,9.05,3.02,11.68,1.75
				C109.11,146.97,111.12,139.39,110.45,134.69z"></path><linearGradient id="A" x1="123.915" x2="115.346" y1="165.458" y2="167.517" gradientUnits="userSpaceOnUse"><stop offset="0" stop-color="#fcbc8f"></stop><stop offset="1" stop-color="#fba05f"></stop></linearGradient><path fill="url(#A)" d="M112.36,163.2c0,0,3.49,5.17,4.17,6.87c0.49,1.22-1.24,3.26-3.32,2.81
					c-1.1-0.23-3.75-2.8-5.82-5.67C105.8,165.02,111.88,162.97,112.36,163.2z"></path><linearGradient id="B" x1="839.446" x2="834.808" y1="422.102" y2="433.94" gradientTransform="scale(-1 1) rotate(-5.359 -2492.388 10365.317)" gradientUnits="userSpaceOnUse"><stop offset="0" stop-color="#101719"></stop><stop offset="1" stop-color="#243137"></stop></linearGradient><path fill="url(#B)" d="M107.17,152.15c2.99,4.61,5.19,9.05,6.72,12.75c-1.33,2.8-7.92,5.18-11.36,4.46
					c-1.18-3.11-3.92-9.16-5.17-13.18C96.28,152.74,104.02,147.31,107.17,152.15z"></path><linearGradient id="C" x1="124.571" x2="116.002" y1="168.191" y2="170.249" gradientUnits="userSpaceOnUse"><stop offset="0" stop-color="#fcbc8f"></stop><stop offset="1" stop-color="#fba05f"></stop></linearGradient><path fill="url(#C)" d="M114.18,168.18c-2.46,0.89-2.92,2.35-1.91,4.14c0.3,0.53,1.17,0.68,2.22,0.65
				c1.2-0.04,2.64-0.31,3.78-0.57c4.07-0.93,14.46-3.78,21.58-5.65c0.81-0.21,1.36-0.87,1.19-1.52l0,0
				c-0.16-0.61-0.68-1.02-1.45-0.94C130.27,165.23,120.12,166.02,114.18,168.18z"></path><path fill="none" stroke="#00425A" stroke-miterlimit="10" stroke-width=".115" d="M26.73,132.21"></path><path fill="#E2E2E2" d="M15.03,131.26c0.78,0.17,1.92,0.13,3.41,0.34c0.02-0.1,0.16-0.48,1.1-0.56
						c1.09-0.09,3.12,0.37,4.61,1.13c1.48,0.76,2.12,0.77,2.59,0.04c0,0,0.25,0.19,0.42,0.47c0.31-0.38,0.93-0.96,1.89-1.08
						c0.97-0.13,1.64,0.39,2.11,0.6c0.29,0.13,0.5,0.14,0.67-0.18c0.31-0.59,0.47-1.33,0.29-2.64c-0.12-0.82-0.28-1.68-0.43-2.39
						c-0.25,0.04-4.02,0.69-7.26,0.97c-3.34,0.29-8.86,1.34-10.49,2.39C14.1,130.78,14.41,131.12,15.03,131.26z"></path><path fill="#01121C" d="M13.94,130.35c1.63-1.05,7.15-2.1,10.49-2.39c3.24-0.28,7.01-0.93,7.26-0.97
						c-0.13-0.6-0.24-1.1-0.31-1.41c-0.15-0.67-0.42-1.15-1.92-0.83c-1.49,0.32-8.72,1.9-11.86,2.58c-3.14,0.68-4.04,0.74-3.91,1.68
						C13.75,129.47,13.79,129.95,13.94,130.35z"></path><path fill="#E54600" d="M28.79,131.55L28.79,131.55c0.08-0.02,0.16-0.03,0.24-0.04c0.81-0.1,1.41,0.22,1.86,0.45
						c0.13,0.07,0.25,0.13,0.35,0.17c0.04,0.02,0.07-0.04,0.03-0.06c-0.53-0.38-1.32-1.44-2.41-1.3c-1.46,0.19-2.13,1.43-2.13,1.43
						c0,0,0.2,0.16,0.37,0.39C27.4,132.24,27.95,131.73,28.79,131.55z"></path><path fill="#BC5000" d="M25.3,132.67c0.03,0.01,0.07,0.02,0.1,0.03c0,0,0,0,0,0c0,0,0,0,0,0
						C25.36,132.68,25.32,132.67,25.3,132.67C25.29,132.66,25.29,132.66,25.3,132.67z"></path><path fill="#BCBCBC" d="M20.06,130.03c-0.43-0.36-1.11-0.45-2.01-0.26c-0.03,0.01-0.06,0.01-0.09,0.02
						c-2.32,0.51-3.38,1.04-3.6,1.16c0.17,0.14,0.39,0.24,0.67,0.31c0.78,0.17,1.92,0.13,3.41,0.34c0.02-0.1,0.16-0.48,1.1-0.56
						c0.29-0.02,0.63-0.01,1.02,0.04c0,0,0,0,0,0c0,0,0,0,0,0C20.55,130.89,20.48,130.37,20.06,130.03z"></path><path fill="#BC5000" d="M31.93 128.24L31.93 128.24c.01.05.02.09.02.14C31.95 128.33 31.94 128.29 31.93 128.24zM25.18 132.63C25.18 132.63 25.18 132.63 25.18 132.63c-.03-.01-.07-.02-.11-.04 0 0 0 0 0 0C25.11 132.61 25.14 132.62 25.18 132.63z"></path><linearGradient id="D" x1="-898.155" x2="-911.216" y1="199.615" y2="213.09" gradientTransform="rotate(152.276 -426.754 282.57)" gradientUnits="userSpaceOnUse"><stop offset="0" stop-color="#ffd1ae"></stop><stop offset="1" stop-color="#f9ac78"></stop></linearGradient><path fill="url(#D)" d="M28.87,130.78c-1.46,0.19-2.13,1.43-2.13,1.43c-0.13,0.18-0.19,0.33-0.24,0.45l2.69,5.77
						c0,0,4.48-2.23,4.05-2.96c-0.31-0.53-1.41-2.42-1.99-3.43C30.71,131.64,29.93,130.64,28.87,130.78z"></path><path fill="#01121C" d="M24.14,132.18c-1.48-0.76-3.51-1.22-4.61-1.13c-0.94,0.08-1.08,0.45-1.1,0.56
							c0.83,0.12,1.76,0.33,2.8,0.7c2.9,1.04,4.44,2,5.28,1.82c0.84-0.18,0.92-0.97,0.64-1.43c-0.17-0.28-0.42-0.48-0.42-0.48
							C26.26,132.95,25.63,132.94,24.14,132.18z"></path><path fill="#7CD8CF" d="M23.27,133.25c0.08,0.04,0.17,0.07,0.25,0.1c0.05,0.02,0.1,0,0.13-0.04l0.75-1.01
								c-0.08-0.04-0.16-0.08-0.25-0.13c-0.06-0.03-0.12-0.06-0.18-0.09l-0.74,1C23.19,133.14,23.21,133.22,23.27,133.25z
								 M23.02,131.69c-0.15-0.06-0.3-0.11-0.46-0.16l-0.61,1.05c-0.03,0.06-0.01,0.13,0.05,0.15c0.08,0.03,0.16,0.06,0.25,0.09
								c0.05,0.02,0.1,0,0.13-0.05L23.02,131.69z M24.48,133.75c0.09,0.04,0.17,0.07,0.25,0.1c0.04,0.02,0.09,0,0.12-0.03l0.86-1.07
								c-0.15-0.01-0.32-0.05-0.52-0.11l-0.76,0.95C24.39,133.64,24.42,133.72,24.48,133.75z M21.57,131.26
								c-0.16-0.04-0.32-0.07-0.47-0.1l-0.42,0.98c-0.02,0.06,0.01,0.12,0.07,0.14c0.08,0.03,0.16,0.05,0.25,0.08
								c0.05,0.02,0.11-0.01,0.13-0.06L21.57,131.26z M19.73,131.9l0.32-0.86c-0.18-0.01-0.35-0.01-0.51,0.01l-0.27,0.72
								c-0.02,0.06,0.01,0.13,0.08,0.14c0.09,0.02,0.17,0.04,0.25,0.06C19.66,131.98,19.71,131.95,19.73,131.9z"></path><linearGradient id="E" x1="65.829" x2="27.271" y1="172.282" y2="144.808" gradientUnits="userSpaceOnUse"><stop offset="0" stop-color="#101719"></stop><stop offset="1" stop-color="#243137"></stop></linearGradient><path fill="url(#E)" d="M32.44,133.76c0,0,11.68,17.48,15.41,22.91c3.66,5.34,8.67,13.51,2.46,16.11
					c-6.21,2.59-10.02-6.11-13.71-14.6c-3.68-8.5-8.87-21.94-8.87-21.94L32.44,133.76z"></path><linearGradient id="F" x1="67.579" x2="29.022" y1="169.825" y2="142.351" gradientUnits="userSpaceOnUse"><stop offset="0" stop-color="#101719"></stop><stop offset="1" stop-color="#243137"></stop></linearGradient><path fill="url(#F)" d="M64.08,154.55c2.36-0.49,7.91-1.8,10.02,2.25c2.85,5.47,4.51,10.9-5.4,13.38
				c-5.83,1.46-7.51,1.74-12.77,3.06c-8.66,2.17-11.5-0.6-12.58-4.63C41.54,161.8,50.79,157.31,64.08,154.55z"></path><linearGradient id="G" x1="71.588" x2="57.065" y1="166.826" y2="167.474" gradientUnits="userSpaceOnUse"><stop offset="0" stop-color="#101719"></stop><stop offset="1" stop-color="#243137"></stop></linearGradient><path fill="url(#G)" d="M69.12,157.23c2.41,0,7.98,3.43,8.96,7.9c1.31,6.02,1.49,11.7-8.72,11.5
					c-6.01-0.12-7.7-0.29-13.12-0.4c-8.93-0.18-10.94-3.59-10.92-7.77C45.35,161.4,58.49,157.23,69.12,157.23z"></path><path fill="none" stroke="#00425A" stroke-miterlimit="10" stroke-width=".115" d="M47.93,128.06"></path><path fill="#E2E2E2" d="M37.95,121.86c0.61,0.51,1.65,0.99,2.87,1.86c0.07-0.08,0.36-0.35,1.23,0.01
							c1.01,0.42,2.61,1.75,3.58,3.11c0.97,1.36,1.53,1.65,2.29,1.22c0,0,0.13,0.29,0.16,0.61c0.45-0.2,1.27-0.43,2.18-0.1
							c0.92,0.33,1.28,1.1,1.61,1.5c0.2,0.24,0.38,0.35,0.68,0.15c0.54-0.38,1.03-0.97,1.46-2.22c0.27-0.78,0.52-1.62,0.71-2.32
							c-0.24-0.08-3.89-1.22-6.9-2.45c-3.11-1.27-8.49-2.86-10.42-2.67C37.35,121.01,37.46,121.45,37.95,121.86z"></path><path fill="#01121C" d="M37.4,120.56c1.93-0.19,7.31,1.4,10.42,2.67c3.01,1.23,6.66,2.38,6.9,2.45
							c0.16-0.59,0.29-1.09,0.37-1.4c0.18-0.67,0.15-1.22-1.33-1.61s-8.63-2.3-11.73-3.13c-3.1-0.83-3.93-1.19-4.25-0.29
							C37.64,119.69,37.45,120.13,37.4,120.56z"></path><path fill="#E54600" d="M50.06,128.41L50.06,128.41c0.08,0.02,0.16,0.05,0.24,0.07c0.76,0.28,1.16,0.84,1.45,1.25
							c0.08,0.12,0.16,0.23,0.23,0.31c0.03,0.03,0.07,0,0.06-0.04c-0.3-0.58-0.52-1.88-1.55-2.25c-1.39-0.5-2.55,0.3-2.55,0.3
							c0,0,0.11,0.23,0.15,0.51C48.51,128.39,49.23,128.19,50.06,128.41z"></path><path fill="#BC5000" d="M46.44,127.8c0.03,0.02,0.05,0.05,0.08,0.07c0,0,0,0,0,0c0,0,0,0,0,0
							C46.49,127.85,46.46,127.82,46.44,127.8C46.44,127.8,46.44,127.8,46.44,127.8z"></path><path fill="#BCBCBC" d="M42.99,123.06c-0.22-0.52-0.78-0.9-1.67-1.15c-0.03-0.01-0.06-0.02-0.09-0.02
							c-2.3-0.61-3.48-0.62-3.73-0.61c0.09,0.2,0.23,0.39,0.46,0.58c0.61,0.51,1.65,0.99,2.87,1.86c0.07-0.08,0.36-0.35,1.23,0.01
							c0.26,0.11,0.57,0.28,0.89,0.5c0,0,0,0,0,0c0,0,0,0,0,0C43.03,124.06,43.2,123.56,42.99,123.06z"></path><path fill="#BC5000" d="M54.37 126.9L54.37 126.9c-.01.04-.03.09-.04.13C54.34 126.99 54.35 126.95 54.37 126.9zM46.35 127.72C46.35 127.72 46.36 127.72 46.35 127.72c-.02-.02-.05-.05-.08-.08 0 0 0 0 0 0C46.3 127.66 46.33 127.69 46.35 127.72z"></path><linearGradient id="H" x1="-874.006" x2="-887.067" y1="435.101" y2="448.576" gradientTransform="matrix(-1 .00907 -.00907 -1 -822.025 576.15)" gradientUnits="userSpaceOnUse"><stop offset="0" stop-color="#ffd1ae"></stop><stop offset="1" stop-color="#f9ac78"></stop></linearGradient><path fill="url(#H)" d="M50.48,127.76c-1.39-0.5-2.55,0.3-2.55,0.3c-0.2,0.1-0.32,0.21-0.42,0.29l-0.25,6.36
							c0,0,5,0.07,4.95-0.78c-0.04-0.61-0.14-2.8-0.2-3.96C51.72,129.37,51.49,128.12,50.48,127.76z"></path><path fill="#01121C" d="M45.64,126.84c-0.97-1.36-2.57-2.69-3.58-3.11c-0.87-0.36-1.17-0.09-1.23-0.01
								c0.68,0.49,1.42,1.09,2.17,1.9c2.1,2.25,3.04,3.81,3.87,4.03c0.83,0.22,1.26-0.44,1.22-0.98c-0.02-0.33-0.16-0.62-0.16-0.62
								C47.17,128.49,46.61,128.2,45.64,126.84z"></path><path fill="#7CD8CF" d="M44.38,127.39c0.06,0.07,0.12,0.14,0.17,0.2c0.03,0.04,0.08,0.05,0.13,0.03l1.13-0.56
									c-0.05-0.07-0.11-0.15-0.17-0.23c-0.04-0.05-0.08-0.11-0.12-0.16l-1.11,0.55C44.35,127.26,44.33,127.34,44.38,127.39z
									 M44.87,125.9c-0.11-0.12-0.22-0.23-0.33-0.35l-1.02,0.66c-0.06,0.04-0.07,0.11-0.02,0.16c0.06,0.07,0.12,0.13,0.17,0.2
									c0.03,0.04,0.09,0.05,0.14,0.02L44.87,125.9z M45.22,128.4c0.06,0.07,0.12,0.14,0.18,0.21c0.03,0.04,0.08,0.05,0.12,0.03
									l1.25-0.56c-0.13-0.08-0.27-0.19-0.41-0.34l-1.11,0.5C45.19,128.26,45.18,128.34,45.22,128.4z M43.77,124.85
									c-0.13-0.11-0.25-0.21-0.38-0.3l-0.82,0.68c-0.05,0.04-0.05,0.11-0.01,0.16c0.06,0.06,0.12,0.12,0.18,0.18
									c0.04,0.04,0.1,0.04,0.14,0.01L43.77,124.85z M41.84,124.58l0.68-0.62c-0.16-0.09-0.31-0.17-0.45-0.23l-0.57,0.52
									c-0.05,0.04-0.05,0.12,0.01,0.16c0.07,0.06,0.13,0.11,0.2,0.17C41.74,124.62,41.8,124.62,41.84,124.58z"></path><linearGradient id="I" x1="49.943" x2="50.12" y1="197.667" y2="179.449" gradientUnits="userSpaceOnUse"><stop offset="0" stop-color="#101719"></stop><stop offset="1" stop-color="#243137"></stop></linearGradient><path fill="url(#I)" d="M52.29,132.04c0,0,2.4,20.89,3.23,27.42c0.82,6.42,1.53,15.98-5.18,15.45
						c-6.71-0.53-6.12-10.01-5.52-19.25c0.61-9.24,2.14-23.57,2.14-23.57L52.29,132.04z"></path><linearGradient id="J" x1="136.359" x2="142.456" y1="222.862" y2="193.733" gradientTransform="rotate(-2.292 -993.55 1479.126)" gradientUnits="userSpaceOnUse"><stop offset="0" stop-color="#e72100"></stop><stop offset="1" stop-color="#e93701"></stop></linearGradient><path fill="url(#J)" d="M106.37,151.18c2.91,3.97,3.47,12.18-1.17,19.18c-1.98,2.99-4.71,6.27-10.18,6.27
				c-5.81,0-25.98,0-25.98,0s-1.13-3.71-1.3-10.83c-0.07-3.11-0.28-8.38,2.52-11.69c3.91,0.37,6.72,2.04,10.8,2.04
				c6.61,0,4.08-2.11,8.04-5.38c1.04-0.86,2.54-0.9,4.7-1.14C98.54,149.09,105.13,149.49,106.37,151.18z"></path><path fill="#FCBC8F" d="M88.5,171.33c-2.57,0.47-3.27,1.83-2.57,3.76c0.21,0.57,1.04,0.87,2.09,1.01
				c1.19,0.16,2.66,0.13,3.82,0.06c4.17-0.24,14.89-1.33,22.22-1.99c0.83-0.07,1.49-0.63,1.43-1.3l0,0
				c-0.05-0.62-0.5-1.12-1.27-1.17C104.86,171.09,94.72,170.19,88.5,171.33z"></path><path fill="#FCBC8F" d="M92.13 167.6c0 0-1.68 5.86-2.49 7.5-.58 1.18-3.07 1.45-4.13-.39-.56-.97-.42-4.66.32-8.12C86.4 163.95 91.98 167.1 92.13 167.6zM103.7 147.08c0 0-.37 1.79-.11 4.53.16 1.67-2.01 1.95-3.76 1.95-3.07 0-2.88-2.52-2.88-2.52s-.04-5.67-.04-7.71C96.91 141.51 103.19 145.23 103.7 147.08z"></path><path fill="#FCBC8F" d="M109.43,137.93c-0.03,2.67-1.33,8.06-3.16,9.73c-1.78,1.61-8.91,0.51-9.35-3.34
				c-0.28-2.49-0.11-5.79,0.05-7.82c0.09-1.15,0.86-2.13,1.95-2.48C102.35,132.93,109.5,131.43,109.43,137.93z"></path><linearGradient id="K" x1="-642.546" x2="-642.546" y1="139.299" y2="158.701" gradientTransform="scale(-1 1) rotate(9.904 -327.353 3263.154)" gradientUnits="userSpaceOnUse"><stop offset="0" stop-color="#e72100"></stop><stop offset="1" stop-color="#e93701"></stop></linearGradient><path fill="url(#K)" d="M110.21,136.67c0.02,0.56-0.19,0.83-0.51,0.86c-0.64,0.08-1.71-0.78-2.05-1.89
				c-2.83,3.73-5.18,0.91-6.81,1.8c-0.78,0.43-1.03,1.93-1.03,1.93s-1.93-1.72-2.64,0.13c-0.67,1.75,2.02,2.81,2.02,2.81
				s-1.48,4.38-4.81,4.05c-0.61-0.16,0.28-4.48,0.4-9.06c0.12-4.83,2.14-5.58,7.9-5.7C103.89,131.59,109.97,129.71,110.21,136.67z"></path><linearGradient id="L" x1="101.323" x2="101.323" y1="152.886" y2="160.479" gradientUnits="userSpaceOnUse"><stop offset="0" stop-color="#fcbc8f"></stop><stop offset="1" stop-color="#fba05f"></stop></linearGradient><path fill="url(#L)" d="M98.4,153.1c0.83,3.58-0.71,7.13,4.01,7.13c5.28,0,3.92-4.07,3.2-6.84
				c-0.47-1.8-1.27-2.79-1.96-3.46c-2-0.44-4.73-0.59-7.32-0.48C97.04,150.03,97.94,151.11,98.4,153.1z"></path><path fill="#6B1105" d="M97.14,157.14c-0.16,3.83,1.35,4.65,5.34,4.67c3.99,0.02,5.8-0.86,5.17-5.11
				c-0.49-3.28-1.29-5.2-2.96-6.49c-0.32-0.11-0.67-0.2-1.05-0.28c0.69,0.67,1.49,1.67,1.96,3.46c0.72,2.77,2.08,6.84-3.2,6.84
				c-4.72,0-3.18-3.55-4.01-7.13c-0.46-1.99-1.35-3.07-2.07-3.65c-0.83,0.03-1.64,0.09-2.41,0.17
				C96.72,149.71,97.29,153.59,97.14,157.14z"></path><linearGradient id="M" x1="1071.015" x2="1066.05" y1="193.959" y2="206.633" gradientTransform="scale(-1 1) rotate(-47.472 444.91 1498.485)" gradientUnits="userSpaceOnUse"><stop offset="0" stop-color="#101719"></stop><stop offset="1" stop-color="#243137"></stop></linearGradient><path fill="url(#M)" d="M96.33,156.44c-0.73,5.45-2.51,10.2-3.85,13.97c-2.86,1.19-7.49-0.38-9.56-3.22
				c1.21-3.1,2.83-10.54,4.76-14.28C89.9,148.61,97.28,149.3,96.33,156.44z"></path><linearGradient id="N" x1="118.103" x2="91.101" y1="172.599" y2="174.81" gradientUnits="userSpaceOnUse"><stop offset="0" stop-color="#ffd1ae"></stop><stop offset="1" stop-color="#f9ac78"></stop></linearGradient><path fill="url(#N)" d="M117.73,173.6c0.73-0.3,2.17-0.94,2.14-1.57c-0.05-0.98-1.75-0.44-3.62-0.7
				c-1.21-0.17-3,3-1.94,3C115.14,174.33,116.43,174.14,117.73,173.6z"></path><linearGradient id="O" x1="116.956" x2="120.858" y1="172.42" y2="170.787" gradientUnits="userSpaceOnUse"><stop offset="0" stop-color="#fcbc8f"></stop><stop offset="1" stop-color="#fba05f"></stop></linearGradient><path fill="url(#O)" d="M117.73,173.6c0.73-0.3,2.17-0.94,2.14-1.57c-0.05-0.98-1.75-0.44-3.62-0.7
					c-1.21-0.17-3,3-1.94,3C115.14,174.33,116.43,174.14,117.73,173.6z"></path><linearGradient id="P" x1="116.01" x2="116.026" y1="171.562" y2="167.269" gradientUnits="userSpaceOnUse"><stop offset="0" stop-color="#fcbc8f"></stop><stop offset="1" stop-color="#fba05f"></stop></linearGradient><path fill="url(#P)" d="M113.5,174.23c-1.98-0.46-1.74-3.14-1-4.46c0.87-1.54,7.71-1.15,7.56,0.51
					c-0.07,0.76-1.58,0.39-1.76,0.38C118.13,172.61,116.23,174.86,113.5,174.23z"></path><g><path fill="#E2E2E2" d="M120.81,175.61c-0.1,0.58,0.3,1.02,0.89,1.02h21.31c0.59,0,1.16-0.44,1.27-1.02l2.72-15.21
					c0.1-0.58-0.3-1.06-0.89-1.06H124.8c-0.59,0-1.16,0.48-1.27,1.06L120.81,175.61z"></path><path fill="#E2E2E2" d="M146.85,159.68l-0.02-0.03C146.83,159.67,146.83,159.68,146.85,159.68L146.85,159.68z M106.41,176.02
					v0.27c0,0.22,0.17,0.33,0.38,0.33h13.72v0l1.19,0c-0.59,0-0.99-0.44-0.89-1.02l2.72-15.21c0.1-0.58,0.67-1.06,1.27-1.06h21.31
					c0.29,0,0.54,0.12,0.7,0.31l-0.55-0.67c0,0,0,0,0,0l-0.01-0.02l-0.01,0c-0.16-0.18-0.4-0.3-0.68-0.3h-21.31
					c-0.59,0-1.16,0.48-1.27,1.06l-2.19,12.24h0l-0.65,3.62h-13.34C106.58,175.59,106.41,175.81,106.41,176.02z"></path><linearGradient id="Q" x1="261.952" x2="261.952" y1="178.089" y2="160.213" gradientTransform="matrix(-1 0 0 1 395.862 0)" gradientUnits="userSpaceOnUse"><stop offset="0" stop-color="#d2d4d5"></stop><stop offset="1" stop-color="#d9dadb"></stop></linearGradient><path fill="url(#Q)" d="M120.81,175.61c-0.1,0.58,0.3,1.02,0.89,1.02h21.31c0.59,0,1.16-0.44,1.27-1.02l2.72-15.21
					c0.1-0.58-0.3-1.06-0.89-1.06H124.8c-0.59,0-1.16,0.48-1.27,1.06L120.81,175.61z"></path><path fill="#FFF" d="M130.82,167.98c-0.29,1.71,0.85,3.09,2.56,3.09c1.71,0,3.33-1.38,3.62-3.09
						c0.29-1.71-0.85-3.09-2.56-3.09C132.73,164.9,131.11,166.28,130.82,167.98z"></path><linearGradient id="R" x1="260.717" x2="262.25" y1="165.179" y2="171.22" gradientTransform="matrix(-1 0 0 1 395.862 0)" gradientUnits="userSpaceOnUse"><stop offset="0" stop-color="#ccc"></stop><stop offset="1" stop-color="#ededed"></stop></linearGradient><path fill="url(#R)" d="M132.95,170.65c1.71,0,3.33-1.38,3.62-3.09c0.14-0.83-0.06-1.58-0.5-2.14
					c0.73,0.55,1.11,1.5,0.92,2.56c-0.29,1.71-1.91,3.09-3.62,3.09c-0.88,0-1.6-0.37-2.06-0.95
					C131.75,170.45,132.31,170.65,132.95,170.65z" opacity=".25"></path></g></g><g><path fill="#A0EAE4" d="M206.49,117.96c-2.57,0-5.35,0.29-8.35,1.21c-1.68,0.5-3.03,1-4.21,1.5c-0.6,0.25-1.14,0.5-1.66,0.75
					c0.11,0.2,0.21,0.41,0.3,0.62c0.21,0.52,0.36,1.07,0.44,1.62c0.08,0.42,0.09,0.88,0.04,1.31c1.36,1.82,3.17,3.27,5.3,4.19
					c1.66,0.7,3.47,1.07,5.36,1.01c0.88-0.03,1.76-0.15,2.61-0.34c2.47-0.6,4.65-1.91,6.33-3.66c0.67-0.71,1.26-1.51,1.76-2.38
					c0.62-1.1,1.11-2.29,1.39-3.54c0.14-0.59,0.21-1.2,0.26-1.82C213.41,118.5,210.19,117.96,206.49,117.96z"></path><path fill="#AFEFEC" d="M192.28,121.42c-1.25,0.61-2.31,1.22-3.37,1.85c-1.28,0.78-2.6,1.6-4.35,2.5
					c-0.87,0.43-1.84,0.9-2.95,1.39c0.84,1.65,2.38,2.88,4.2,3.23c1.12,0.23,2.29,0.13,3.33-0.27c0.87-0.32,1.67-0.87,2.31-1.54
					c0.57-0.61,1.04-1.34,1.31-2.17c0.24-0.69,0.35-1.42,0.33-2.17c-0.02-0.59-0.1-1.14-0.28-1.66
					C192.68,122.18,192.49,121.79,192.28,121.42z"></path><path fill="#0FBAB6" d="M198.58,134.11c0.04-0.77,0.04-1.57,0.02-2.37c0-0.86-0.05-1.72-0.13-2.56c-0.03-0.01-0.06-0.02-0.1-0.04
				c-2.12-0.92-3.93-2.36-5.3-4.19h-0.03c-0.04,0.49-0.12,0.98-0.28,1.45c-0.27,0.83-0.74,1.56-1.31,2.17
				c-0.38,0.4-0.82,0.75-1.29,1.04c1.19,1.03,2.48,2.41,2.87,5.85c0.04,0.32,0.08,0.65,0.15,0.97c0.32,1.71,0.87,3.26,1.56,4.45
				c0.41,0.73,0.9,1.3,1.39,1.73c0.52,0.43,1.06,0.71,1.62,0.75c0.5,0.04,1.03-0.06,1.56-0.4c0.93-0.62,1.09-1.16,0.92-1.89
				C199.88,139.76,198.46,137.91,198.58,134.11z"></path><path fill="#00416D" d="M147.29,113.61c0.89,1.68,2.14,3.64,4.07,4.17c0.71,0.21,1.5,0.32,2.25,0.32c0.43,0,0.86-0.04,1.28-0.11
					c0.29-0.04,0.53-0.07,0.82-0.11c0.14,0.21,0.32,0.43,0.46,0.68c0.46,0.64,1.07,1.11,1.78,1.36c0.5,0.18,1.07,0.25,1.75,0.25
					c0.21,0,0.46,0,0.68-0.04c0.39-0.04,0.82-0.07,1.21-0.11c0.07,0.39,0.14,0.82,0.18,1.21c0.21,1.46,1.25,5.03,5.74,6.7
					c0.75,0.29,1.46,0.5,2.14,0.68c1.43,0.39,2.78,0.57,4.07,0.57c1.85,0,3.71-0.36,5.88-1.18c2.03-0.82,3.6-1.57,4.96-2.25
					c1.75-0.89,3.07-1.71,4.35-2.5c1.5-0.89,2.96-1.75,5.03-2.6c1.18-0.5,2.53-1,4.21-1.5c3-0.93,5.78-1.21,8.34-1.21
					c5.21,0,9.49,1.11,12.55-0.04c0.25-0.11,0.5-0.21,0.75-0.32c0.21-0.11,0.39-0.25,0.61-0.36c0.86-0.53,1.43-1.43,1.82-2.85
					c0.82-3,0.14-4.74-0.57-5.67c-0.18-0.25-0.39-0.5-0.57-0.75c0.18-0.25,0.32-0.53,0.5-0.78c0.29-0.43,0.61-1.07,0.93-1.89
					c0.53-1.43,0.93-3.42,0.68-6.06c-0.39-4.53-2.85-5.71-3.89-5.99c-0.25-0.07-0.5-0.14-0.78-0.21c-0.11-0.46-0.18-0.93-0.29-1.39
					c-0.53-2.1-1.93-5.99-5.46-8.38c-3.07-2.07-5.49-2.53-6.95-2.53c-0.36,0-0.71,0-1.11,0c-0.07-0.36-0.14-0.71-0.21-1.07
					c-0.21-1.11-0.86-2.57-2.89-3.1c-0.43-0.11-0.89-0.18-1.36-0.18c-1.43,0-2.78,0.57-3.64,1.07c-0.43,0.25-0.86,0.46-1.28,0.71
					c-0.18-0.46-0.39-0.89-0.57-1.36c-0.39-0.86-0.96-1.6-1.71-2.18c-0.82-0.61-1.78-1.03-2.82-1.03c-1.32,0-2.46,0.68-3.17,1.25
					c-0.25,0.21-0.5,0.39-0.75,0.61c-0.25-0.18-0.53-0.36-0.78-0.53c-0.78-0.53-1.82-0.82-3.07-0.82c-0.21,0-0.43,0-0.61,0.04
					c-2.1,0.14-3.42,1.03-4.17,1.75c-0.11,0.11-0.21,0.21-0.36,0.32c-0.11,0.11-0.18,0.18-0.29,0.29c-0.25-0.11-0.53-0.21-0.78-0.36
					c-1-0.43-2.67-0.93-5.06-0.93c-1.03,0-2.14,0.11-3.25,0.29c-4.92,0.89-6.92,3.53-7.67,5.06c-0.11,0.21-0.21,0.39-0.32,0.61
					c-0.21,0.04-0.43,0.07-0.68,0.11c-1.36,0.21-4.24,1.18-8.24,5.17c-1.75,1.75-2.96,3.74-3.74,5.42
					c-0.78,1.71-1.18,3.14-1.32,3.74c-0.04,0.11-0.04,0.21-0.07,0.29c-0.07,0.07-0.14,0.14-0.18,0.25
					c-0.64,0.78-2.32,3.14-2.92,6.53c-0.18,1.03-0.25,2.14-0.18,3.35c0.36,4.89,3.14,6.81,4.32,7.42
					C147.04,113.46,147.18,113.54,147.29,113.61z"></path><path fill="#230810" d="M201.64 76.55c.07.04.14.04.21.07C201.78 76.59 201.71 76.55 201.64 76.55zM183.13 74.13c-.07 0-.14 0-.21 0C182.99 74.09 183.06 74.13 183.13 74.13zM179.24 128.16c-.04 0-.11.04-.18.07C179.14 128.19 179.21 128.16 179.24 128.16zM152.36 85.15c.11-.07.18-.14.32-.25C152.57 84.97 152.46 85.08 152.36 85.15zM222.89 97.45c0-.04-.04-.11-.04-.14C222.93 97.84 222.97 97.99 222.89 97.45zM222.22 114.36c0-.04.04-.11.04-.14-.04.07-.04.14-.04.21C222.22 114.39 222.22 114.39 222.22 114.36z"></path><linearGradient id="S" x1="219.189" x2="213.253" y1="93.35" y2="104.289" gradientUnits="userSpaceOnUse"><stop offset="0" stop-color="#00416d"></stop><stop offset="1" stop-color="#fff"></stop></linearGradient><path fill="url(#S)" d="M213.09,109.16V98.89l5.76-5.76c-0.11-0.03-0.22-0.06-0.34-0.09c-0.03-0.12-0.05-0.24-0.07-0.36
					l-5.96,5.96v10.53c-0.41,0.13-0.71,0.51-0.71,0.96c0,0.56,0.46,1.02,1.02,1.02c0.56,0,1.02-0.46,1.02-1.02
					C213.8,109.66,213.5,109.29,213.09,109.16z M212.78,110.52c-0.22,0-0.41-0.18-0.41-0.41s0.18-0.41,0.41-0.41
					c0.22,0,0.41,0.18,0.41,0.41S213,110.52,212.78,110.52z"></path><linearGradient id="T" x1="220.197" x2="217.101" y1="108.329" y2="112.781" gradientUnits="userSpaceOnUse"><stop offset="0" stop-color="#00416d"></stop><stop offset="1" stop-color="#fff"></stop></linearGradient><path fill="url(#T)" d="M218.03,113.81v-5.53h3.28c-0.08-0.1-0.16-0.21-0.23-0.31c0.07-0.1,0.13-0.2,0.2-0.31h-3.86
							v6.14c-0.41,0.13-0.71,0.51-0.71,0.96c0,0.56,0.46,1.02,1.02,1.02s1.02-0.46,1.02-1.02
							C218.74,114.31,218.44,113.94,218.03,113.81z M217.72,115.17c-0.22,0-0.41-0.18-0.41-0.41s0.18-0.41,0.41-0.41
							s0.41,0.18,0.41,0.41S217.95,115.17,217.72,115.17z"></path><path fill="#FFF" d="M204.71,109.54c-0.56,0-1.02,0.46-1.02,1.02c0,0.45,0.3,0.83,0.71,0.96v2.31h-9.47l-2.61,2.61
					c-0.14-0.07-0.29-0.12-0.45-0.12c-0.56,0-1.02,0.46-1.02,1.02c0,0.56,0.46,1.02,1.02,1.02c0.56,0,1.02-0.46,1.02-1.02
					c0-0.17-0.06-0.33-0.13-0.47l2.42-2.43h9.83v-2.92c0.41-0.13,0.71-0.5,0.71-0.96C205.73,110,205.27,109.54,204.71,109.54z
					 M191.87,117.75c-0.22,0-0.41-0.18-0.41-0.41s0.18-0.41,0.41-0.41c0.22,0,0.41,0.18,0.41,0.41S192.09,117.75,191.87,117.75z
					 M204.71,110.97c-0.22,0-0.41-0.18-0.41-0.41s0.18-0.41,0.41-0.41s0.41,0.18,0.41,0.41S204.93,110.97,204.71,110.97z"></path><linearGradient id="U" x1="145.777" x2="156.438" y1="99.668" y2="99.668" gradientUnits="userSpaceOnUse"><stop offset="0" stop-color="#00416d"></stop><stop offset="1" stop-color="#fff"></stop></linearGradient><path fill="url(#U)" d="M157.73,101.78v-6.2h-11.76c0,0.01,0,0.02-0.01,0.02c-0.04,0.11-0.04,0.21-0.07,0.29
					c-0.07,0.07-0.14,0.14-0.18,0.25c-0.01,0.02-0.03,0.04-0.05,0.06h11.44v5.59c-0.41,0.13-0.71,0.5-0.71,0.96
					c0,0.56,0.46,1.02,1.02,1.02c0.56,0,1.02-0.46,1.02-1.02C158.45,102.28,158.14,101.91,157.73,101.78z M157.43,103.15
					c-0.22,0-0.41-0.18-0.41-0.41s0.18-0.41,0.41-0.41c0.22,0,0.41,0.18,0.41,0.41S157.65,103.15,157.43,103.15z"></path><linearGradient id="V" x1="191.174" x2="191.174" y1="75.388" y2="89.259" gradientUnits="userSpaceOnUse"><stop offset="0" stop-color="#00416d"></stop><stop offset="1" stop-color="#fff"></stop></linearGradient><path fill="url(#V)" d="M195.67,89.8v-3.59h-9.05V75.2c-0.1,0.08-0.21,0.16-0.31,0.25c-0.1-0.07-0.2-0.14-0.31-0.21
					v11.59h9.05v2.96c-0.43,0.12-0.75,0.5-0.75,0.97c0,0.56,0.46,1.02,1.02,1.02c0.56,0,1.02-0.46,1.02-1.02
					C196.35,90.31,196.06,89.94,195.67,89.8z M195.33,91.16c-0.22,0-0.41-0.18-0.41-0.41c0-0.22,0.18-0.41,0.41-0.41
					c0.22,0,0.41,0.18,0.41,0.41C195.73,90.97,195.55,91.16,195.33,91.16z"></path><linearGradient id="W" x1="149.999" x2="153.649" y1="116.035" y2="112.277" gradientUnits="userSpaceOnUse"><stop offset="0" stop-color="#00416d"></stop><stop offset="1" stop-color="#fff"></stop></linearGradient><path fill="url(#W)" d="M160.35,108.55c-0.45,0-0.83,0.3-0.96,0.71h-8.19l-4.19,4.19c0.1,0.04,0.2,0.09,0.29,0.14
					c0.05,0.09,0.1,0.19,0.15,0.28l4-4h7.94c0.13,0.41,0.5,0.71,0.96,0.71c0.56,0,1.02-0.46,1.02-1.02
					C161.37,109.01,160.91,108.55,160.35,108.55z M160.35,109.98c-0.22,0-0.41-0.18-0.41-0.41c0-0.22,0.18-0.41,0.41-0.41
					c0.22,0,0.41,0.18,0.41,0.41C160.75,109.8,160.57,109.98,160.35,109.98z"></path><linearGradient id="X" x1="158.627" x2="162.72" y1="82.564" y2="86.569" gradientUnits="userSpaceOnUse"><stop offset="0" stop-color="#00416d"></stop><stop offset="1" stop-color="#fff"></stop></linearGradient><path fill="url(#X)" d="M164.47,88.73v-3.49l-4.37-4.37c-0.05,0.09-0.1,0.18-0.15,0.28c-0.12,0.02-0.25,0.04-0.38,0.06
					l4.28,4.28v3.23c-0.41,0.13-0.71,0.51-0.71,0.96c0,0.56,0.46,1.02,1.02,1.02c0.56,0,1.02-0.46,1.02-1.02
					C165.18,89.23,164.88,88.86,164.47,88.73z M164.16,90.09c-0.22,0-0.41-0.18-0.41-0.41s0.18-0.41,0.41-0.41
					c0.22,0,0.41,0.18,0.41,0.41S164.39,90.09,164.16,90.09z"></path><linearGradient id="Y" x1="162.154" x2="170.117" y1="123.308" y2="122.207" gradientUnits="userSpaceOnUse"><stop offset="0" stop-color="#00416d"></stop><stop offset="1" stop-color="#fff"></stop></linearGradient><path fill="url(#Y)" d="M176.96,124.25c-0.17,0-0.32,0.05-0.46,0.12l-6.23-6.23h-7.23l-1.92,1.92
					c0.16-0.01,0.32-0.03,0.48-0.04c0.02,0.12,0.03,0.25,0.06,0.38l1.65-1.65h6.72l6.05,6.05c-0.07,0.14-0.12,0.29-0.12,0.46
					c0,0.56,0.46,1.02,1.02,1.02c0.56,0,1.02-0.46,1.02-1.02C177.99,124.71,177.53,124.25,176.96,124.25z M176.96,125.68
					c-0.22,0-0.41-0.18-0.41-0.41c0-0.22,0.18-0.41,0.41-0.41c0.22,0,0.41,0.18,0.41,0.41
					C177.37,125.49,177.19,125.68,176.96,125.68z"></path><linearGradient id="Z" x1="157.773" x2="160.957" y1="120.003" y2="116.544" gradientUnits="userSpaceOnUse"><stop offset="0" stop-color="#00416d"></stop><stop offset="1" stop-color="#fff"></stop></linearGradient><path fill="url(#Z)" d="M165.88,113.51c-0.45,0-0.83,0.3-0.96,0.71h-5.98l-3.73,3.73c0.16-0.02,0.33-0.04,0.5-0.07
					c0.05,0.08,0.12,0.17,0.18,0.26l3.31-3.31h5.73c0.13,0.41,0.5,0.71,0.96,0.71c0.56,0,1.02-0.46,1.02-1.02
					C166.9,113.96,166.44,113.51,165.88,113.51z M165.88,114.93c-0.22,0-0.41-0.18-0.41-0.41c0-0.22,0.18-0.41,0.41-0.41
					s0.41,0.18,0.41,0.41C166.28,114.75,166.1,114.93,165.88,114.93z"></path><linearGradient id="aa" x1="180.071" x2="180.071" y1="76.29" y2="80.901" gradientUnits="userSpaceOnUse"><stop offset="0" stop-color="#00416d"></stop><stop offset="1" stop-color="#fff"></stop></linearGradient><path fill="url(#aa)" d="M182.4,81.31c-0.45,0-0.83,0.3-0.96,0.71h-4.09v-5.85c-0.01,0.01-0.01,0.01-0.02,0.02
					c-0.11,0.11-0.18,0.18-0.29,0.29c-0.1-0.04-0.2-0.1-0.31-0.14v6.3h4.71c0.13,0.41,0.5,0.71,0.96,0.71
					c0.56,0,1.02-0.46,1.02-1.02C183.42,81.77,182.96,81.31,182.4,81.31z M182.4,82.74c-0.22,0-0.41-0.18-0.41-0.41
					c0-0.22,0.18-0.41,0.41-0.41c0.22,0,0.41,0.18,0.41,0.41C182.8,82.56,182.62,82.74,182.4,82.74z"></path><linearGradient id="ab" x1="195.328" x2="195.328" y1="78.316" y2="81.971" gradientUnits="userSpaceOnUse"><stop offset="0" stop-color="#00416d"></stop><stop offset="1" stop-color="#fff"></stop></linearGradient><path fill="url(#ab)" d="M195.64,82.21v-4.22c-0.1,0.06-0.21,0.11-0.31,0.17c-0.1-0.25-0.2-0.49-0.31-0.73v4.78
					c-0.41,0.13-0.71,0.51-0.71,0.96c0,0.56,0.46,1.02,1.02,1.02c0.56,0,1.02-0.46,1.02-1.02
					C196.35,82.71,196.05,82.34,195.64,82.21z M195.33,83.57c-0.22,0-0.41-0.18-0.41-0.41c0-0.22,0.18-0.41,0.41-0.41
					c0.22,0,0.41,0.18,0.41,0.41C195.73,83.39,195.55,83.57,195.33,83.57z"></path><linearGradient id="ac" x1="204.707" x2="204.707" y1="81.073" y2="88.113" gradientUnits="userSpaceOnUse"><stop offset="0" stop-color="#00416d"></stop><stop offset="1" stop-color="#fff"></stop></linearGradient><path fill="url(#ac)" d="M205.02,88.34v-7.61h-0.31c-0.07-0.36-0.14-0.71-0.21-1.07c-0.02-0.13-0.06-0.26-0.09-0.39v9.07
					c-0.41,0.13-0.71,0.51-0.71,0.96c0,0.56,0.46,1.02,1.02,1.02s1.02-0.46,1.02-1.02C205.73,88.84,205.43,88.47,205.02,88.34z
					 M204.71,89.7c-0.22,0-0.41-0.18-0.41-0.41s0.18-0.41,0.41-0.41s0.41,0.18,0.41,0.41S204.93,89.7,204.71,89.7z"></path><path fill="#00293F" d="M150.43,93.99c0.34,0,0.63-0.21,0.75-0.5h9.14v-6.69l-1.71-1.71c0.04-0.1,0.06-0.2,0.06-0.31
					c0-0.45-0.36-0.81-0.81-0.81c-0.45,0-0.81,0.36-0.81,0.81c0,0.45,0.36,0.81,0.81,0.81c0.11,0,0.22-0.02,0.31-0.06l1.53,1.53
					v5.82h-8.53c-0.12-0.29-0.41-0.5-0.75-0.5c-0.45,0-0.81,0.36-0.81,0.81S149.98,93.99,150.43,93.99z M153.77,103v-4.23h-5.04
					c-0.12-0.31-0.41-0.53-0.76-0.53c-0.45,0-0.81,0.36-0.81,0.81c0,0.45,0.36,0.81,0.81,0.81c0.33,0,0.61-0.2,0.74-0.48h4.44v3.36
					l-4.94,4.93c-0.12-0.06-0.24-0.11-0.38-0.11c-0.45,0-0.81,0.36-0.81,0.81c0,0.45,0.36,0.81,0.81,0.81
					c0.45,0,0.81-0.36,0.81-0.81c0-0.08-0.02-0.15-0.04-0.22L153.77,103z M162.54,112.58c0.12,0.29,0.41,0.5,0.75,0.5
					c0.45,0,0.81-0.36,0.81-0.81c0-0.45-0.36-0.81-0.81-0.81c-0.34,0-0.63,0.21-0.75,0.5h-6.73l-2.65,2.65
					c-0.1-0.04-0.2-0.06-0.31-0.06c-0.45,0-0.81,0.36-0.81,0.81c0,0.45,0.36,0.81,0.81,0.81c0.45,0,0.81-0.36,0.81-0.81
					c0-0.11-0.02-0.22-0.06-0.31l2.47-2.47H162.54z M182.41,122.49c-0.1,0-0.19,0.02-0.27,0.06l-6.03-6.03h-14.2
					c-0.12-0.3-0.41-0.5-0.75-0.5c-0.45,0-0.81,0.36-0.81,0.81c0,0.45,0.36,0.81,0.81,0.81c0.34,0,0.63-0.21,0.75-0.5h13.95
					l5.83,5.83c-0.05,0.1-0.08,0.22-0.08,0.34c0,0.45,0.36,0.81,0.81,0.81c0.45,0,0.81-0.36,0.81-0.81
					C183.22,122.86,182.86,122.49,182.41,122.49z M171.86,125.89c-0.11,0-0.2,0.02-0.3,0.06l-4.12-4.12
					c0.04-0.09,0.06-0.19,0.06-0.3c0-0.45-0.36-0.81-0.81-0.81c-0.45,0-0.81,0.36-0.81,0.81c0,0.45,0.36,0.81,0.81,0.81
					c0.12,0,0.23-0.03,0.33-0.07l4.11,4.11c-0.04,0.1-0.07,0.21-0.07,0.33c0,0.45,0.36,0.81,0.81,0.81c0.45,0,0.81-0.36,0.81-0.81
					C172.68,126.26,172.31,125.89,171.86,125.89z M193.29,109.75c-0.45,0-0.81,0.36-0.81,0.81c0,0.13,0.04,0.25,0.1,0.36l-6.97,6.97
					h-3.46c-0.12-0.3-0.41-0.5-0.75-0.5c-0.45,0-0.81,0.36-0.81,0.81c0,0.45,0.36,0.81,0.81,0.81c0.34,0,0.63-0.21,0.75-0.5h3.71
					l7.19-7.19c0.08,0.03,0.16,0.05,0.24,0.05c0.45,0,0.81-0.36,0.81-0.81C194.11,110.11,193.74,109.75,193.29,109.75z
					 M210.47,94.64c-0.45,0-0.81,0.36-0.81,0.81c0,0.34,0.21,0.63,0.5,0.75v11.42l-2.23,2.23v4.83c-0.29,0.12-0.5,0.41-0.5,0.75
					c0,0.45,0.36,0.81,0.81,0.81c0.45,0,0.81-0.36,0.81-0.81c0-0.34-0.21-0.63-0.5-0.75v-4.57l2.23-2.23V96.2
					c0.3-0.12,0.5-0.41,0.5-0.75C211.28,95.01,210.92,94.64,210.47,94.64z M213.42,92.19c-0.1,0-0.19,0.02-0.28,0.06l-5-5v-3.09
					c0.28-0.13,0.48-0.41,0.48-0.73c0-0.45-0.36-0.81-0.81-0.81c-0.45,0-0.81,0.36-0.81,0.81c0,0.35,0.22,0.64,0.53,0.76v3.33
					l5.16,5.16c-0.05,0.1-0.08,0.22-0.08,0.34c0,0.45,0.36,0.81,0.81,0.81c0.45,0,0.81-0.36,0.81-0.81
					C214.23,92.55,213.87,92.19,213.42,92.19z M220.48,99.17c-0.45,0-0.81,0.36-0.81,0.81c0,0.12,0.03,0.22,0.07,0.32l-3.72,3.72
					c-0.1-0.04-0.21-0.07-0.32-0.07c-0.45,0-0.81,0.36-0.81,0.81c0,0.45,0.36,0.81,0.81,0.81c0.45,0,0.81-0.36,0.81-0.81
					c0-0.11-0.02-0.21-0.06-0.3l3.74-3.74c0.09,0.04,0.19,0.06,0.3,0.06c0.45,0,0.81-0.36,0.81-0.81
					C221.3,99.53,220.93,99.17,220.48,99.17z M200.99,79.68c0-0.45-0.36-0.81-0.81-0.81c-0.45,0-0.81,0.36-0.81,0.81
					c0,0.34,0.21,0.63,0.5,0.75v8.23c-0.29,0.12-0.5,0.41-0.5,0.75c0,0.45,0.36,0.81,0.81,0.81c0.45,0,0.81-0.36,0.81-0.81
					c0-0.34-0.21-0.63-0.5-0.75v-8.23C200.78,80.3,200.99,80.01,200.99,79.68z M189.47,83.17c0,0.45,0.36,0.81,0.81,0.81
					c0.45,0,0.81-0.36,0.81-0.81c0-0.34-0.21-0.63-0.5-0.75v-4.38c0.29-0.12,0.5-0.41,0.5-0.75c0-0.45-0.36-0.81-0.81-0.81
					c-0.45,0-0.81,0.36-0.81,0.81c0,0.34,0.21,0.63,0.5,0.75v4.38C189.68,82.54,189.47,82.83,189.47,83.17z M165.1,80.35
					c0.11,0,0.22-0.02,0.31-0.06l4.1,4.1h5.01v-4.54c0.3-0.12,0.5-0.41,0.5-0.75c0-0.45-0.36-0.81-0.81-0.81
					c-0.45,0-0.81,0.36-0.81,0.81c0,0.34,0.21,0.63,0.5,0.75v3.92h-4.14l-3.92-3.92c0.04-0.1,0.06-0.2,0.06-0.31
					c0-0.45-0.36-0.81-0.81-0.81c-0.45,0-0.81,0.36-0.81,0.81C164.29,79.99,164.65,80.35,165.1,80.35z"></path><path fill="#FFF" d="M207.29,100.68c0,3.93-3.19,7.11-7.11,7.11c-3.93,0-7.11-3.19-7.11-7.11c0-3.93,3.19-7.11,7.11-7.11
						C204.11,93.57,207.29,96.75,207.29,100.68z"></path><path fill="#FFF" d="M202.04 94.36l-.5-1.87c-.04-.15-.18-.25-.33-.25l-2.07 0c-.16 0-.29.1-.33.25-.15.56-.5 1.87-.5 1.87 0 0 0 0 0 0H202.04zM198.32 107l.5 1.87c.04.15.17.25.33.25.53 0 1.54 0 2.07 0 .16 0 .29-.1.33-.25l.5-1.87c0 0 0 0 0 0H198.32zM197.02 94.89l-1.67-.97c-.13-.08-.3-.06-.41.05l-1.46 1.46c-.11.11-.13.28-.05.41.29.5.97 1.67.97 1.67 0 0 0 0 0 0L197.02 94.89zM203.33 106.47l1.67.97c.13.08.3.06.41-.05.38-.38 1.09-1.09 1.46-1.47.11-.11.13-.28.05-.41l-.97-1.67c0 0 0 0 0 0L203.33 106.47zM193.85 98.82l-1.87.5c-.15.04-.25.18-.25.33l0 2.07c0 .16.1.29.25.33.56.15 1.87.5 1.87.5 0 0 0 0 0 0V98.82zM206.5 102.54l1.87-.5c.15-.04.25-.17.25-.33 0-.53 0-1.54 0-2.07 0-.16-.1-.29-.25-.33l-1.87-.5c0 0 0 0 0 0V102.54zM194.39 103.84l-.97 1.67c-.08.13-.06.3.05.41l1.46 1.46c.11.11.28.13.41.05.5-.29 1.67-.97 1.67-.97 0 0 0 0 0 0L194.39 103.84zM205.97 97.52l.97-1.67c.08-.13.06-.3-.05-.41-.38-.38-1.09-1.09-1.47-1.46-.11-.11-.28-.13-.41-.05l-1.67.97c0 0 0 0 0 0L205.97 97.52z"></path><path fill="#0FBAB6" d="M200.18,105.33c-2.56,0-4.65-2.08-4.65-4.65s2.08-4.65,4.65-4.65c2.56,0,4.65,2.08,4.65,4.65
						S202.74,105.33,200.18,105.33z"></path><path fill="#00416D" d="M200.18,97.23c-1.9,0-3.45,1.55-3.45,3.45c0,1.9,1.55,3.45,3.45,3.45c1.9,0,3.45-1.55,3.45-3.45
						C203.63,98.78,202.08,97.23,200.18,97.23z"></path><path fill="#0FBAB6" d="M188.1,95.82c2.68,6.48-0.39,13.91-6.87,16.59c-6.48,2.68-13.91-0.39-16.59-6.87
							c-2.68-6.48,0.39-13.91,6.87-16.59C177.99,86.26,185.42,89.34,188.1,95.82z"></path><path fill="#0FBAB6" d="M175.25 89.01l-2.05-2.69c-.16-.22-.45-.29-.7-.19l-3.67 1.52c-.25.1-.4.36-.36.63.14 1.01.45 3.35.45 3.35 0 0 0 0 0 0L175.25 89.01zM177.49 112.35l2.05 2.69c.16.22.45.29.7.19.86-.36 2.81-1.17 3.68-1.52.25-.1.4-.36.36-.63l-.45-3.35c0 0 0 0 0 0L177.49 112.35zM167.33 93.22l-3.35-.45c-.27-.04-.53.11-.63.36l-1.52 3.67c-.1.25-.03.54.19.7.81.62 2.69 2.05 2.69 2.05 0 0 0 0 0 0L167.33 93.22zM185.42 108.14l3.35.45c.27.04.53-.11.63-.36.36-.86 1.17-2.81 1.52-3.68.1-.25.02-.54-.19-.7l-2.69-2.05c0 0 0 0 0 0L185.42 108.14zM164.7 101.8l-2.69 2.05c-.22.16-.29.45-.19.7l1.52 3.67c.1.25.36.4.63.36 1.01-.14 3.35-.45 3.35-.45 0 0 0 0 0 0L164.7 101.8zM188.04 99.56l2.69-2.05c.22-.16.29-.45.19-.7-.36-.86-1.17-2.81-1.52-3.68-.1-.25-.36-.4-.63-.36l-3.35.45c0 0 0 0 0 0L188.04 99.56zM168.91 109.73l-.45 3.35c-.04.27.11.53.36.63l3.67 1.52c.25.1.54.03.7-.19.62-.81 2.05-2.69 2.05-2.69 0 0 0 0 0 0L168.91 109.73zM183.83 91.63l.45-3.35c.04-.27-.11-.53-.36-.63-.86-.36-2.81-1.17-3.68-1.52-.25-.1-.54-.02-.7.19l-2.05 2.69c0 0 0 0 0 0L183.83 91.63z"></path><path fill="#FFF" d="M183.78,97.61c1.69,4.09-0.25,8.78-4.34,10.47c-4.09,1.69-8.78-0.25-10.47-4.34
						c-1.69-4.09,0.25-8.78,4.34-10.47C177.39,91.58,182.08,93.52,183.78,97.61z"></path></g><g><linearGradient id="ad" x1="139.247" x2="139.247" y1="141.173" y2="129.607" gradientUnits="userSpaceOnUse"><stop offset="0" stop-color="#fcbc8f"></stop><stop offset="1" stop-color="#fba05f"></stop></linearGradient><path fill="url(#ad)" d="M139.54,131.33c-1.29-0.33-1.49,0.46-1.59,1.31c-0.15,1.39-0.27,9.17-0.27,9.17l0.94,0.26
					c0,0,1.69-7.06,2.17-9.19C140.89,132.4,140.7,131.63,139.54,131.33z"></path><path fill="#E2E2E2" d="M138.21,142.96c-0.41-0.01-0.76-0.04-0.95-0.1c0,0.02,0,0.03,0,0.05c0,0,0,0,0,0
					c0-0.21,0.01-0.46,0.03-0.7c0.02-0.25,0.06-0.42,0.12-0.55c0.03-0.07,0.1-0.21,0.25-0.21c0.1,0,0.25,0.22,0.54,0.22
					c0.29,0,0.5-0.2,0.6-0.21c0.11-0.01,0.18,0.13,0.21,0.19c0.06,0.13,0.1,0.3,0.12,0.55c0.02,0.22,0.02,0.45,0.03,0.65
					C138.97,142.93,138.61,142.96,138.21,142.96z"></path><path fill="#1C5268" d="M137.26,142.86c0.19,0.07,0.54,0.1,0.95,0.1c0.41-0.01,0.76-0.04,0.95-0.1c0,0.02,0,0.05,0,0.08
					c0,0.08-0.01,0.17-0.02,0.26c-0.01,0.11-0.07,0.16-0.22,0.18c-0.14,0.02-0.37,0.01-0.72,0.01c-0.34,0.01-0.57,0.01-0.72-0.01
					c-0.15-0.02-0.21-0.07-0.22-0.18c-0.01-0.09-0.02-0.17-0.02-0.26C137.26,142.91,137.25,142.89,137.26,142.86z"></path><linearGradient id="ae" x1="138.817" x2="138.817" y1="141.173" y2="129.607" gradientUnits="userSpaceOnUse"><stop offset="0" stop-color="#fcbc8f"></stop><stop offset="1" stop-color="#fba05f"></stop></linearGradient><path fill="url(#ae)" d="M139.52,133.64c-0.55,0-1.04-0.26-1.36-0.72c-0.37-0.53-1.03-3.22-1.26-4.5
				c-0.19-1.01-0.02-1.87,0.48-2.47c0.44-0.53,1.13-0.83,1.88-0.83c0.05,0,0.1,0,0.15,0c0.93,0.05,1.04,1.1,1.1,1.73
				c0.01,0.07,0.01,0.13,0.02,0.19c0.12,0.97,0.33,4.37,0.28,5.63C140.79,133.21,140.22,133.64,139.52,133.64L139.52,133.64z"></path><linearGradient id="af" x1="139.301" x2="139.838" y1="132.86" y2="137.153" gradientUnits="userSpaceOnUse"><stop offset="0" stop-color="#101719"></stop><stop offset="1" stop-color="#243137"></stop></linearGradient><path fill="url(#af)" d="M137.32,132.54c0.4,0.06,2.25,0.18,3.53-0.13c0.01-1.41-0.18-4.46-0.29-5.37
				c-0.07-0.56-0.08-1.89-1.16-1.95c-1.45-0.08-2.8,0.95-2.62,3.34C136.89,129.81,137.11,131.23,137.32,132.54z"></path><path fill="#FCBC8F" d="M142.64,131.33c-1.27,0.3-1.36,0.93-1.24,1.92c0.17,1.42,1.23,8.73,1.23,8.73l0.93,0.09
				c0,0,0.4-7.42,0.54-9.64C144.11,132.33,144.09,131,142.64,131.33z"></path><path fill="#FCBC8F" d="M142.15,133.62c-0.26,0-0.67-0.21-0.75-0.34c-0.29-0.43-1.37-2.38-1.74-4.24
				c-0.22-1.14-0.13-2.03,0.33-2.64c0.36-0.48,0.94-0.77,1.66-0.82c0.03,0,0.05,0,0.08,0c0.9,0,1.2,1.26,1.35,1.87l0.04,0.14
				c0.09,0.34,0.84,3.34,0.99,4.7c0.02,0.23-0.06,0.44-0.24,0.64C143.46,133.38,142.68,133.62,142.15,133.62L142.15,133.62z"></path><linearGradient id="ag" x1="141.496" x2="142.157" y1="128.714" y2="131.993" gradientUnits="userSpaceOnUse"><stop offset="0" stop-color="#101719"></stop><stop offset="1" stop-color="#243137"></stop></linearGradient><path fill="url(#ag)" d="M144.04,131.6c-0.22-1.32-0.69-3.24-0.89-4.02c-0.14-0.55-0.43-2.12-1.5-2.04
				c-1.45,0.11-2.47,1.15-2.11,3.01c0.35,1.84,0.51,2.97,0.8,4.17C140.85,132.68,143.15,132.75,144.04,131.6z"></path><path fill="#0FBAB6" d="M130.33,127.13h21.64c0.11,0,0.19-0.09,0.19-0.19v-3.39c0-0.11-0.09-0.19-0.19-0.19h-21.64
						c-0.31,0-0.56,0.25-0.56,0.56v2.65C129.76,126.88,130.01,127.13,130.33,127.13z"></path><path fill="#00416D" d="M131.43,124.41h17.11c0.46,0,0.83,0.37,0.83,0.83l0,0c0,0.46-0.37,0.83-0.83,0.83h-17.11
						c-0.46,0-0.83-0.37-0.83-0.83l0,0C130.6,124.79,130.97,124.41,131.43,124.41z"></path><path fill="#FFF" d="M131.35,125.23l0,0.02c0,0.09,0.07,0.16,0.16,0.16l0,0l0.09,0
						c0.09,0,0.16-0.07,0.16-0.16l0-0.02c0-0.09-0.07-0.16-0.16-0.16l-0.09,0c-0.04,0-0.08,0.02-0.11,0.05
						C131.37,125.15,131.35,125.19,131.35,125.23z M148.25,125.12c-0.03,0.03-0.05,0.07-0.05,0.11l0,0.02
						c0,0.09,0.07,0.16,0.16,0.16l0,0l0.09,0c0.09,0,0.16-0.07,0.16-0.16l0-0.02c0-0.09-0.07-0.16-0.16-0.16l-0.09,0
						C148.32,125.08,148.28,125.09,148.25,125.12z M132.35,125.12c-0.03,0.03-0.05,0.07-0.05,0.11l0,0.02
						c0,0.09,0.07,0.16,0.16,0.16l0,0l1.02,0c0.09,0,0.16-0.07,0.16-0.16v-0.02c0-0.09-0.07-0.16-0.16-0.16l-1.02,0
						C132.42,125.08,132.38,125.09,132.35,125.12z M134.24,125.12c-0.03,0.03-0.05,0.07-0.05,0.11l0,0.02
						c0,0.09,0.07,0.16,0.16,0.16l0,0l11.25,0c0.09,0,0.16-0.07,0.16-0.16v-0.02c0-0.09-0.07-0.16-0.16-0.16l-11.25,0
						C134.31,125.08,134.28,125.09,134.24,125.12z M146.36,125.12c-0.03,0.03-0.05,0.07-0.05,0.11l0,0.02
						c0,0.09,0.07,0.16,0.16,0.16l1.02,0c0.09,0,0.16-0.07,0.16-0.16l0-0.02c0-0.09-0.07-0.16-0.16-0.16l-1.02,0
						C146.43,125.08,146.39,125.09,146.36,125.12z" opacity=".5"></path><path fill="#0FBAB6" d="M153.97,127.25c0,0,1.65,1.65,2.21,2.2c0.24,0.24,0.02,0.32-0.1,0.34c-0.33,0.07-0.66,0.11-1.01,0.11
					c-1.09,0-2.09-0.37-2.88-1c-0.04-0.03-0.12-0.07-0.01-0.18c0.39-0.39,1.47-1.47,1.47-1.47
					C153.73,127.16,153.88,127.16,153.97,127.25z"></path><path fill="#00416D" d="M153.64,127.25C153.65,127.25,153.65,127.24,153.64,127.25l-0.19-0.21c-0.51,0.51-1.14,1.14-1.45,1.45
					l0.2,0.2C152.61,128.28,153.64,127.25,153.64,127.25z"></path><path fill="#0FBAB6" d="M159.85,125.36c0,0.45-0.06,0.89-0.18,1.3c-0.03,0.12-0.15,0.32-0.3,0.17c-0.6-0.6-2.41-2.41-2.41-2.41
					c-0.24-0.24-0.64-0.24-0.89,0l-1.85,1.85l0,0c0,0-1.68,1.68-2.23,2.23c-0.08,0.08-0.16,0.05-0.19,0.02
					c-0.77-0.83-1.24-1.94-1.24-3.16c0-2.57,2.08-4.65,4.65-4.65C157.77,120.71,159.85,122.79,159.85,125.36z"></path><path fill="#00416D" d="M152.58,122.74c0.7-0.7,1.63-1.09,2.63-1.09c0.55,0,1.08,0.12,1.55,0.34c0.14,0.06,0.17,0.25,0.06,0.36
						c-0.88,0.88-3.68,3.68-4.63,4.64c-0.11,0.11-0.29,0.08-0.36-0.06c-0.22-0.48-0.34-1.01-0.34-1.55
						C151.49,124.37,151.87,123.44,152.58,122.74z" opacity=".5"></path><path fill="#00416D" d="M150.55,125.36c0-0.88,0.25-1.7,0.68-2.41h-0.57c-0.21,0-0.4,0.12-0.48,0.31
					c-0.28,0.66-0.42,1.37-0.42,2.1c0,0.63,0.11,1.25,0.32,1.83c0.07,0.2,0.27,0.33,0.49,0.33h0.52
					C150.75,126.88,150.55,126.15,150.55,125.36z"></path><path fill="#FFF" d="M153.97,127.25c0,0,1.65,1.65,2.21,2.2c0.24,0.24,0.02,0.32-0.1,0.34
					c-0.33,0.07-0.66,0.11-1.01,0.11c-1.09,0-2.09-0.37-2.88-1c-0.04-0.03-0.12-0.07-0.01-0.18c0.39-0.39,1.47-1.47,1.47-1.47
					C153.73,127.16,153.88,127.16,153.97,127.25z" opacity=".5"></path><path fill="#FCBC8F" d="M136.83,122.15c-0.51-0.34-0.85-0.22-1.05,0.22c-0.12,0.28,0.44,0.81,0.83,1.14
					c0.75,0.64,2.23,1.73,3.59,2.81c0.15,0.12,0.28,0.08,0.38-0.05l0,0c0.09-0.11,0.1-0.27-0.03-0.41
					C139.06,124.25,138.08,122.97,136.83,122.15z"></path><path fill="#FCBC8F" d="M136.67,120.71c0,0-0.73,1.23-0.88,1.64c-0.11,0.29,0.25,0.76,0.73,0.65c0.26-0.06,0.97-0.84,1.44-1.53
						C138.32,120.94,136.78,120.65,136.67,120.71z"></path><linearGradient id="ah" x1="2282.901" x2="2281.862" y1="2026.345" y2="2028.995" gradientTransform="scale(-1 1) rotate(-50.14 -966.078 3661.153)" gradientUnits="userSpaceOnUse"><stop offset="0" stop-color="#101719"></stop><stop offset="1" stop-color="#243137"></stop></linearGradient><path fill="url(#ah)" d="M139.05,121.21c-0.36,0.78-0.47,0.82-0.79,1.31c-0.81-0.1-1.67-0.44-2.12-0.97
						c0.39-0.8,0.66-1.13,1.09-1.76c0.59-0.86,1.25-1.62,1.62-1.51C139.25,118.39,139.73,119.74,139.05,121.21z"></path><linearGradient id="ai" x1="-1237.375" x2="-1237.375" y1="294.047" y2="300.43" gradientTransform="rotate(8.708 627.873 9257.811)" gradientUnits="userSpaceOnUse"><stop offset="0" stop-color="#ffd1ae"></stop><stop offset="1" stop-color="#f9ac78"></stop></linearGradient><path fill="url(#ai)" d="M141.71,117.37c0,0-0.17,0.43-0.3,1.06c-0.08,0.39-0.58,0.29-0.98,0.18
				c-0.63-0.16-0.51-0.64-0.51-0.64s0.35-1.39,0.49-1.85C140.55,115.71,141.73,116.92,141.71,117.37z"></path><linearGradient id="aj" x1="-1242.36" x2="-1242.36" y1="26.214" y2="32.614" gradientTransform="rotate(-1.985 1947.324 -39241.68)" gradientUnits="userSpaceOnUse"><stop offset="0" stop-color="#ffd1ae"></stop><stop offset="1" stop-color="#f9ac78"></stop></linearGradient><path fill="url(#aj)" d="M143.4,115.45c-0.12,0.62-0.5,1.89-1,2.2c-0.48,0.3-2.23-0.33-2.17-1.24
				c0.04-0.59,0.22-1.35,0.34-1.81c0.07-0.26,0.29-0.46,0.56-0.49C141.97,114,143.69,113.95,143.4,115.45z"></path><linearGradient id="ak" x1="-1243.331" x2="-1241.79" y1="28.878" y2="24.393" gradientTransform="rotate(-1.985 1947.324 -39241.68)" gradientUnits="userSpaceOnUse"><stop offset="0" stop-color="#101719"></stop><stop offset="1" stop-color="#243137"></stop></linearGradient><path fill="url(#ak)" d="M140.04,113.56c0.17-0.1,0.43,0.02,0.43,0.02s-0.04-0.26,0.32-0.42
				c0.45-0.21,1.12-0.17,1.62,0.03c0.8,0.31,1.62,0.3,1.84,0.75c0.31,0.65-0.35,1.42-0.58,1.52c-0.82,0.35-0.85-0.23-1.26-0.09
				c-0.2,0.07-0.32,0.4-0.32,0.4s-0.38-0.52-0.62-0.12c-0.23,0.38,0.35,0.77,0.35,0.77s-0.09,0.88-1.55,0.59
				c-0.15-0.03-0.83-0.67-0.87-1.87C139.37,114.34,139.56,113.83,140.04,113.56z"></path><linearGradient id="al" x1="1539.137" x2="1539.137" y1="153.351" y2="156.368" gradientTransform="scale(-1 1) rotate(-2.946 -4.585 32798.337)" gradientUnits="userSpaceOnUse"><stop offset="0" stop-color="#101719"></stop><stop offset="1" stop-color="#243137"></stop></linearGradient><path fill="url(#al)" d="M139.82,117.78c0.36,0.02,1,0.04,1.51,0.07c0.43,0.02,0.63,0.15,0.73,0.32
				c0.16,0.44,0.14,0.91-0.06,1.2c-0.15,0.21-0.37,0.32-0.63,0.31c-0.16-0.01-0.32-0.01-0.48-0.02c-0.17-0.01-0.35-0.01-0.52-0.02
				c-0.82-0.04-0.89-0.75-0.93-1.1c-0.01-0.07-0.02-0.18-0.03-0.22C139.35,118.03,139.47,117.76,139.82,117.78z"></path><path fill="#92EAE4" d="M143.19,120.64c0.01-1.15-0.02-1.16,0-1.48c0.02-0.46-0.56-0.77-1.09-0.87c-0.51-0.1-1.8-0.13-2.71-0.17
				c-1.13-0.06-1.72,0.97-1.91,1.96c-0.71,3.67-0.75,7.52-0.75,7.52s0.19,0.55,1.88,0.64c2.76,0.14,4.03-0.27,4.54-0.65
				C143.16,124.75,143.18,121.83,143.19,120.64z"></path><path fill="#FCBC8F" d="M143.71,123.13c-0.56-0.25-0.88-0.08-1,0.39c-0.08,0.29,0.56,0.73,1.01,0.99
					c0.84,0.5,2.48,1.34,3.99,2.19c0.17,0.1,0.29,0.03,0.37-0.11l0,0c0.07-0.13,0.05-0.28-0.09-0.4
					C146.24,124.83,145.07,123.73,143.71,123.13z"></path><path fill="#FCBC8F" d="M143.73,121.75c0,0,0.12,1.43,0.08,1.86c-0.03,0.31-0.56,0.58-0.94,0.26c-0.2-0.17-0.5-1.18-0.63-2
						C142.14,121.24,143.65,121.65,143.73,121.75z"></path><linearGradient id="am" x1="1189.918" x2="1188.88" y1="1199.349" y2="1201.999" gradientTransform="rotate(-24.245 -1847.596 3097.788)" gradientUnits="userSpaceOnUse"><stop offset="0" stop-color="#101719"></stop><stop offset="1" stop-color="#243137"></stop></linearGradient><path fill="url(#am)" d="M141.36,121.16c-0.02,0.86,0.06,0.94,0.14,1.53c0.77,0.26,1.7,0.33,2.33,0.05
						c0-0.89-0.1-1.31-0.21-2.06c-0.15-1.03-0.42-2-0.8-2.07C142.42,118.54,141.39,119.55,141.36,121.16z"></path><linearGradient id="an" x1="148.716" x2="149.28" y1="126.508" y2="126.949" gradientUnits="userSpaceOnUse"><stop offset="0" stop-color="#fcbc8f"></stop><stop offset="1" stop-color="#fba05f"></stop></linearGradient><path fill="url(#an)" d="M149.11,126.45c0.15,0.12,0.3,0.31,0.22,0.43c-0.11,0.17-0.4-0.11-0.82-0.23
					c-0.28-0.07-0.47-0.45-0.22-0.45C148.61,126.21,148.85,126.24,149.11,126.45z"></path><linearGradient id="ao" x1="148.479" x2="148.479" y1="126.883" y2="127.599" gradientUnits="userSpaceOnUse"><stop offset="0" stop-color="#fcbc8f"></stop><stop offset="1" stop-color="#fba05f"></stop></linearGradient><path fill="url(#ao)" d="M147.95,126.21c-0.48,0-0.47,0.7-0.32,1.03c0.17,0.38,1.82,0.34,1.78,0.03
					c-0.02-0.18-0.36-0.12-0.41-0.12c0-0.36-0.21-0.93-0.7-0.93C148.1,126.21,148.13,126.21,147.95,126.21z"></path><path fill="#1C5268" d="M143.49 141.69c0 .01.01.02.01.02 0 .01.01.01.01.02.02.04.04.06.04.06.15-.15.4-.23.7.02.3.25.69.47.94.53.16.04.2.03.22.02.01-.01.01-.01.01-.02-.18-.07-.39-.16-.61-.3-.62-.38-.92-.68-1.12-.68-.2 0-.26.18-.22.3C143.48 141.68 143.49 141.68 143.49 141.69zM146.41 142.86c-.43.16-1.75.13-2.53.03-.76-.1-1.66-.14-1.72-.14 0 .14 0 .27 0 .34 0 .16.04.29.4.29s2.1 0 2.86 0c.76 0 .97.03.98-.19C146.4 143.07 146.42 142.96 146.41 142.86z"></path><path fill="#E2E2E2" d="M146.2,142.6c-0.17-0.08-0.44-0.12-0.77-0.25c-0.01,0.02-0.02,0.05-0.23,0
				c-0.25-0.06-0.64-0.28-0.94-0.53s-0.56-0.17-0.7-0.02c0,0-0.15,0.16-0.41,0.12c-0.23-0.03-0.27-0.35-0.64-0.37
				c-0.17-0.01-0.31,0.32-0.33,0.63c-0.01,0.19-0.02,0.4-0.02,0.57c0.06,0,0.96,0.04,1.72,0.14c0.78,0.1,2.1,0.13,2.53-0.03
				C146.39,142.76,146.34,142.66,146.2,142.6z"></path><path fill="#7CD8CF" d="M144.52,142.01c0.04,0.02,0.07,0.05,0.11,0.07c0.01-0.05,0.01-0.1,0.01-0.15
				c-0.04-0.03-0.08-0.05-0.12-0.08C144.53,141.89,144.53,141.95,144.52,142.01z M145.1,142.2c0.01,0.03,0.01,0.07,0.01,0.12
				c0.03,0.01,0.07,0.03,0.09,0.03c0.01,0,0.01,0,0.02,0.01c0-0.03,0-0.07,0-0.1C145.18,142.24,145.14,142.22,145.1,142.2z
				 M144.8,142.03c0.01,0.04,0.01,0.09,0.01,0.15c0.04,0.02,0.08,0.04,0.11,0.06c0.01-0.05,0.01-0.1,0.01-0.14
				c-0.03-0.02-0.06-0.03-0.1-0.05C144.82,142.05,144.81,142.04,144.8,142.03z M144.26,141.82c0.03,0.03,0.07,0.05,0.11,0.08
				c0.01-0.05,0.01-0.11,0.01-0.15c-0.04-0.03-0.09-0.06-0.13-0.09C144.26,141.7,144.26,141.75,144.26,141.82z M143.95,141.67
				c0.04,0.01,0.07,0.02,0.11,0.03c0.01-0.06,0.01-0.11,0.01-0.16c-0.05-0.03-0.09-0.06-0.13-0.08
				C143.96,141.51,143.96,141.57,143.95,141.67z"></path><path fill="#BCBCBC" d="M146.2,142.6c-0.17-0.08-0.44-0.12-0.77-0.25c0,0-0.01,0.01-0.01,0.02c-0.02,0.01-0.06,0.02-0.22-0.02
				c-0.06-0.02-0.14-0.04-0.22-0.08c0,0,0,0,0,0c-0.03,0.22,0.29,0.33,0.51,0.35C146.09,142.7,146.26,142.63,146.2,142.6z"></path></g><g><rect width="5.77" height="27.78" x="247.19" y="77.34" fill="#00416D"></rect><path fill="#EA816A" d="M261.59,107.65h-7.27c-0.75,0-1.36-0.61-1.36-1.36V76.16c0-0.75,0.61-1.36,1.36-1.36h7.27
				c0.75,0,1.36,0.61,1.36,1.36v30.13C262.94,107.05,262.34,107.65,261.59,107.65z"></path></g><g><path fill="#0FBAB6" d="M311.29,122.42l-0.11-2.23c-0.78-11.92-6.78-23.44-16.13-30.85c-4.65-3.73-10.08-6.51-15.85-8.08
					c-1.45-0.38-2.89-0.77-4.38-0.95c-1.48-0.24-2.95-0.46-4.44-0.49l-2.23-0.1c-0.41-0.02-0.67-0.02-0.95-0.02h-4.25v21.04h4.25
					c0.28,0,0.59,0,0.75,0.02l1.16,0.07c0.78-0.01,1.54,0.13,2.3,0.26c0.77,0.07,1.51,0.3,2.26,0.49c2.97,0.8,5.77,2.23,8.19,4.16
					c4.89,3.86,7.93,9.79,8.34,15.95l0.06,1.16c0.01,0.22,0.04,0.33,0.03,0.64v20.33c0,1.57-1.05,3.15-3.15,3.15h21.04
					c2.1,0,3.15-1.57,3.15-3.15v-20.33C311.33,123.22,311.3,122.77,311.29,122.42z"></path><linearGradient id="ap" x1="285.379" x2="270.247" y1="95.701" y2="90.985" gradientUnits="userSpaceOnUse"><stop offset="0" stop-color="#0fbab6"></stop><stop offset="1" stop-color="#00416d"></stop></linearGradient><path fill="url(#ap)" d="M295.04,89.34c-4.65-3.73-10.08-6.51-15.85-8.08c-1.45-0.38-2.89-0.77-4.38-0.95
					c-1.48-0.24-2.95-0.46-4.44-0.49l-2.23-0.1c-0.41-0.02-0.67-0.02-0.95-0.02h-4.25v21.04h4.25c0.28,0,0.59,0,0.75,0.02l1.16,0.07
					c0.78-0.01,1.54,0.13,2.3,0.26c0.77,0.07,1.51,0.3,2.26,0.49c2.97,0.8,5.77,2.23,8.19,4.16c0.81,0.64,1.55,1.36,2.26,2.11
					l14.9-14.9C297.76,91.66,296.44,90.45,295.04,89.34z" opacity=".2"></path><linearGradient id="aq" x1="299.227" x2="299.227" y1="127.062" y2="146.639" gradientUnits="userSpaceOnUse"><stop offset="0" stop-color="#0fbab6"></stop><stop offset="1" stop-color="#00416d"></stop></linearGradient><path fill="url(#aq)" d="M290.28,125.9v17.91c0,1.57-1.05,3.15-3.15,3.15h21.04c2.1,0,3.15-1.57,3.15-3.15
					V125.9H290.28z" opacity=".2"></path><linearGradient id="ar" x1="287.203" x2="287.203" y1="101.003" y2="182.54" gradientUnits="userSpaceOnUse"><stop offset="0" stop-color="#fff"></stop><stop offset="1" stop-color="#0fbab6"></stop></linearGradient><path fill="url(#ar)" d="M293.24,98.88l4.85-4.64c-0.41-0.47-0.85-0.91-1.32-1.32l-4.64,4.85
					C292.53,98.11,292.9,98.48,293.24,98.88z M292.32,94.81l2.87-3.32c-0.45-0.43-0.93-0.83-1.44-1.19l-2.72,3.45
					C291.49,94.07,291.92,94.43,292.32,94.81z M297.69,99.65l3.03-2.39c-0.36-0.51-0.76-0.98-1.19-1.44l-2.92,2.52
					C296.99,98.75,297.36,99.19,297.69,99.65z M295.91,105.12l7.14-4.61c-0.31-0.54-0.67-1.05-1.05-1.54l-6.92,4.92
					C295.37,104.28,295.66,104.68,295.91,105.12z M290.08,94.96l-2.65,3.35c0.39,0.27,0.75,0.57,1.09,0.9l2.8-3.23
					C290.93,95.61,290.52,95.27,290.08,94.96z M296.48,100.6c-0.31-0.44-0.66-0.86-1.04-1.25l-5.02,4.34
					c0.31,0.32,0.6,0.66,0.85,1.03L296.48,100.6z M287.82,104.07l4.31-4.13c-0.33-0.38-0.68-0.73-1.06-1.06l-4.13,4.31
					C287.26,103.46,287.56,103.75,287.82,104.07z M280.63,94.91l4.5-9.87c-0.56-0.27-1.12-0.54-1.72-0.74l-4.05,10.06
					C279.8,94.5,280.21,94.71,280.63,94.91z M281.4,83.55c-0.59-0.21-1.17-0.44-1.78-0.58l-1.16,3.93c0.55,0.12,1.07,0.34,1.6,0.53
					L281.4,83.55z M288.68,86.87c-0.53-0.33-1.07-0.64-1.64-0.9l-1.53,2.96c0.52,0.24,1.02,0.53,1.51,0.83L288.68,86.87z
					 M288.02,94.7l4.03-5.67c-0.49-0.38-1-0.74-1.54-1.05l-3.78,5.84C287.18,94.08,287.61,94.38,288.02,94.7z M273.62,81.69
					c-0.62-0.08-1.23-0.2-1.85-0.25l-0.27,2.87c0.58,0.04,1.15,0.16,1.72,0.23L273.62,81.69z M282.9,99.75
					c0.37,0.2,0.7,0.44,1.03,0.7l3.2-4.5c-0.39-0.31-0.8-0.59-1.23-0.84L282.9,99.75z M300.47,129.54h4.89v-1.47h-4.89V129.54z
					 M303.37,116.37c-0.06-0.54-0.24-1.05-0.36-1.57l-11.89,2.86c0.08,0.35,0.22,0.68,0.25,1.04L303.37,116.37z M299.09,121.85
					l-7.34,0.34l0.06,1.07l7.35-0.01L299.09,121.85z M291.82,126.39h4.4v-1.47h-4.4V126.39z M291.82,129.54h7.11v-1.47h-7.11V129.54
					z M298.79,114.12l9.26-2.73c-0.14-0.61-0.38-1.19-0.58-1.78l-9.13,3.15C298.49,113.21,298.69,113.65,298.79,114.12z
					 M300.67,110.04l6.06-2.44c-0.2-0.59-0.48-1.15-0.75-1.71l-5.94,2.71C300.27,109.07,300.5,109.54,300.67,110.04z M301.84,105.63
					l3.22-1.67c-0.26-0.57-0.58-1.1-0.9-1.64l-3.14,1.81C301.31,104.62,301.6,105.11,301.84,105.63z M304.88,116.07l4.12-0.8
					c-0.08-0.62-0.28-1.21-0.42-1.82l-4.08,0.98C304.63,114.98,304.82,115.52,304.88,116.07z M297.76,126.39h5.73v-1.47h-5.73
					V126.39z M295.96,120.55l13.62-1.31c-0.05-0.62-0.17-1.23-0.25-1.85l-13.55,1.91C295.83,119.72,295.93,120.13,295.96,120.55z
					 M291.65,112.42l-2.01,0.92c0.16,0.32,0.33,0.63,0.43,0.98l2.05-0.83C292,113.12,291.82,112.77,291.65,112.42z M293.81,104.78
					l-6.46,4.59c0.22,0.28,0.44,0.57,0.6,0.88l6.66-4.3C294.38,105.54,294.11,105.15,293.81,104.78z M286.48,99.52l-3.85,4.88
					c0.3,0.2,0.57,0.43,0.83,0.68l4.07-4.7C287.19,100.06,286.85,99.77,286.48,99.52z M290.82,116.47l6.49-1.92
					c-0.09-0.45-0.28-0.87-0.43-1.3l-6.4,2.2C290.6,115.8,290.76,116.12,290.82,116.47z M294.42,120.7
					c-0.03-0.4-0.12-0.79-0.17-1.18l-2.71,0.38c0.05,0.35,0.13,0.7,0.16,1.06L294.42,120.7z M285.88,104.31l-1.53,1.6
					c0.28,0.23,0.53,0.48,0.76,0.76l1.6-1.53C286.46,104.83,286.18,104.56,285.88,104.31z M289.26,104.7l-3.32,2.87
					c0.25,0.25,0.49,0.53,0.68,0.82l3.44-2.72C289.83,105.32,289.55,105,289.26,104.7z M293.98,108.2l-5.39,3.11
					c0.19,0.3,0.38,0.6,0.52,0.93l5.52-2.86C294.45,108.96,294.22,108.58,293.98,108.2z M299.68,104.91l-4.37,2.52
					c0.25,0.4,0.5,0.8,0.68,1.24l4.48-2.32C300.25,105.84,299.97,105.37,299.68,104.91z M305.03,124.92v1.47h4.75v-1.47H305.03z
					 M306.9,129.54h2.88v-1.47h-2.88V129.54z M300.71,123.24l9.07-0.02l-0.08-1.86l-9.06,0.42L300.71,123.24z M264.62,99.2h1.47
					v-7.35h-1.47V99.2z M293.54,112.91l5.7-2.3c-0.16-0.48-0.38-0.93-0.6-1.38l-5.59,2.55
					C293.23,112.15,293.42,112.52,293.54,112.91z M267.77,93.27l1.33,0.07l0.26-5.73l-1.59-0.08L267.77,93.27z M267.78,85.99
					l1.65,0.08l0.22-4.75l-1.86-0.08L267.78,85.99z M270.06,99.33c0.36,0.02,0.71,0.11,1.06,0.16l0.99-7.04
					c-0.46-0.06-0.91-0.16-1.37-0.19L270.06,99.33z M271.35,85.84l-0.47,4.87c0.48,0.04,0.96,0.14,1.44,0.2l0.68-4.84
					C272.45,85.99,271.9,85.89,271.35,85.84z M267.76,99.21l1.07,0.06l0.2-4.4l-1.27-0.07L267.76,99.21z M264.62,90.32h1.47v-9.07
					h-1.47V90.32z M272.32,99.66c0.36,0.03,0.69,0.17,1.04,0.25l0.81-3.37c-0.4-0.09-0.78-0.24-1.19-0.28L272.32,99.66z
					 M275.73,82.02l-2.46,12.73c0.43,0.04,0.84,0.2,1.26,0.29l3.02-12.6C276.95,82.3,276.35,82.1,275.73,82.02z M278.03,88.38
					l-3.49,11.82c0.35,0.06,0.68,0.22,1.01,0.34l4.01-11.65C279.06,88.71,278.56,88.5,278.03,88.38z M284.81,90.29l-6.03,11.63
					c0.33,0.14,0.64,0.32,0.94,0.52l6.54-11.35C285.78,90.79,285.31,90.51,284.81,90.29z M282.06,101.04l-1.3,2.02
					c0.32,0.17,0.61,0.38,0.88,0.6l1.39-1.96C282.73,101.46,282.41,101.23,282.06,101.04z M278.78,95.78l-2.08,5.17
					c0.34,0.1,0.66,0.27,0.98,0.43l2.31-5.07C279.6,96.12,279.2,95.92,278.78,95.78z M291.82,135.83h3.86v-1.47h-3.86V135.83z
					 M309.78,134.36h-4.39v1.47h4.39V134.36z M291.82,132.69h8.5v-1.47h-8.5V132.69z M297.22,135.83h6.64v-1.47h-6.64V135.83z
					 M309.78,131.22h-7.93v1.47h7.93V131.22z M309.78,140.66h-6.22v1.47h6.22V140.66z M298.53,137.51h-6.71v1.47h6.71V137.51z
					 M309.78,137.51h-2.21v1.47h2.21V137.51z M297.75,142.13h4.27v-1.47h-4.27V142.13z M296.21,140.66h-4.39v1.47h4.39V140.66z
					 M306.04,137.51h-5.97v1.47h5.97V137.51z M303.49,143.81h-5.73c0,0.37-0.06,0.73-0.17,1.08h5.73
					C303.44,144.54,303.49,144.18,303.49,143.81z M296.22,143.81h-4.4c0,0.37-0.06,0.73-0.17,1.08h4.4
					C296.16,144.54,296.22,144.18,296.22,143.81z M305.21,146.65h2.88c0.36-0.17,0.66-0.4,0.91-0.68h-2.88
					C305.87,146.25,305.57,146.48,305.21,146.65z M304.86,144.89h4.75c0.11-0.35,0.17-0.71,0.17-1.08h-4.75
					C305.03,144.18,304.97,144.54,304.86,144.89z M298.78,146.65h4.89c0.36-0.17,0.66-0.4,0.91-0.68h-4.89
					C299.44,146.25,299.14,146.48,298.78,146.65z M290.13,146.65h7.11c0.36-0.17,0.66-0.4,0.91-0.68h-7.11
					C290.79,146.25,290.48,146.48,290.13,146.65z" opacity=".5"></path><path fill="#078E87" d="M305.19,143.81v-7c0-1.57-1.05-3.15-3.15-3.15c-7.01,0-14.03,0-21.04,0c2.1,0,3.15,1.57,3.15,3.15v7
				c0,1.57,1.05,3.15,3.15,3.15c7.01,0,14.03,0,21.04,0C306.24,146.96,305.19,145.38,305.19,143.81z"></path><path fill="#0FBAB6" d="M299.07,136.81c0-1.57,1.05-3.15,3.15-3.15h-21.04c-2.1,0-3.15,1.57-3.15,3.15l0,0v28.33h0v1.68h-0.01
					v0.76c0,0.25,0.26,0.42,0.48,0.31c0.6-0.29,0.76-1.07,1.62-1.07c1.05,0,1.05,1.17,2.1,1.17c1.05,0,1.05-1.17,2.1-1.17
					c1.05,0,1.05,1.17,2.11,1.17c1.05,0,1.05-1.17,2.1-1.17c1.05,0,1.05,1.17,2.11,1.17c1.05,0,1.05-1.17,2.11-1.17
					c1.05,0,1.05,1.17,2.1,1.17c1.06,0,1.06-1.17,2.11-1.17c0.86,0,1.02,0.78,1.63,1.07c0.22,0.1,0.48-0.06,0.48-0.31v-2.43h0
					V136.81L299.07,136.81z"></path><linearGradient id="as" x1="290.085" x2="290.085" y1="151.331" y2="134.586" gradientTransform="translate(.257 -1.28)" gradientUnits="userSpaceOnUse"><stop offset="0" stop-color="#0fbab6"></stop><stop offset="1" stop-color="#00416d"></stop></linearGradient><path fill="url(#as)" d="M299.06,151.83l0.02-15.01c0-1.57,1.05-3.15,3.15-3.14l-21.04-0.03
					c-2.1,0-3.15,1.57-3.15,3.14l-0.02,15.01L299.06,151.83z" opacity=".2"></path><linearGradient id="at" x1="289.398" x2="289.398" y1="101.003" y2="182.54" gradientUnits="userSpaceOnUse"><stop offset="0" stop-color="#fff"></stop><stop offset="1" stop-color="#0fbab6"></stop></linearGradient><path fill="url(#at)" d="M284.14,133.97h-2.88c-0.36,0.17-0.66,0.4-0.91,0.68h2.88
					C283.48,134.37,283.78,134.14,284.14,133.97z M284.49,135.73h-4.75c-0.11,0.35-0.17,0.71-0.17,1.08h4.75
					C284.32,136.44,284.38,136.07,284.49,135.73z M290.57,133.97h-4.89c-0.36,0.17-0.66,0.4-0.91,0.68h4.89
					C289.91,134.37,290.21,134.14,290.57,133.97z M285.86,136.81h5.73c0-0.37,0.06-0.73,0.17-1.08h-5.73
					C285.92,136.07,285.86,136.44,285.86,136.81z M292.11,133.97c-0.36,0.17-0.66,0.4-0.91,0.68h7.11c0.25-0.28,0.55-0.51,0.91-0.68
					H292.11z M293.13,136.81h4.4c0-0.37,0.06-0.73,0.17-1.08h-4.4C293.19,136.07,293.13,136.44,293.13,136.81z M284.97,143.11h6.64
					v-1.47h-6.64V143.11z M293.79,144.78h-5.97v1.47h5.97V144.78z M288.07,152.55h5.52v-1.47h-5.52V152.55z M283.43,141.64h-3.86
					v1.47h3.86V141.64z M286.28,144.78h-6.71v1.47h6.71V144.78z M283.96,147.93h-4.39v1.47h4.39V147.93z M295.33,146.25h2.21v-1.47
					h-2.21V146.25z M289.61,139.96h7.93v-1.47h-7.93V139.96z M288.07,138.49h-8.5v1.47h8.5V138.49z M285.5,149.4h4.27v-1.47h-4.27
					V149.4z M293.14,143.11h4.39v-1.47h-4.39V143.11z M286.53,151.08h-6.96v1.47h6.96V151.08z M284.44,155.7h13.1v-1.47h-13.1V155.7
					z M291.96,158.85h5.58v-1.47h-5.58V158.85z M295.13,152.55h2.4v-1.47h-2.4V152.55z M291.32,149.4h6.22v-1.47h-6.22V149.4z
					 M285.21,161.99h12.33v-1.47h-12.33V161.99z M290.42,157.38h-10.85v1.47h10.85V157.38z M294.07,165.14h3.46v-1.47h-3.46V165.14z
					 M282.9,154.23h-3.33v1.47h3.33V154.23z M279.57,165.14h12.96v-1.47h-12.96V165.14z M283.67,160.52h-4.1v1.47h4.1V160.52z" opacity=".5"></path></g><g><linearGradient id="au" x1="98.318" x2="98.318" y1="79.3" y2="92.441" gradientUnits="userSpaceOnUse"><stop offset="0" stop-color="#e8beb8"></stop><stop offset="1" stop-color="#e1aaa2"></stop></linearGradient><path fill="url(#au)" d="M103.28,80.91h-0.02c-0.57-2.2-2.56-3.84-4.94-3.84c-2.38,0-4.37,1.63-4.93,3.84h-0.03
						c-2.47,0-4.47,2-4.47,4.47c0,2.46,2,4.46,4.47,4.46h9.92c2.47,0,4.46-2,4.46-4.46C107.74,82.91,105.75,80.91,103.28,80.91z"></path><linearGradient id="av" x1="65.892" x2="65.892" y1="79.3" y2="92.441" gradientUnits="userSpaceOnUse"><stop offset="0" stop-color="#e8beb8"></stop><stop offset="1" stop-color="#e1aaa2"></stop></linearGradient><path fill="url(#av)" d="M70.85,80.91h-0.02c-0.57-2.2-2.56-3.84-4.94-3.84c-2.38,0-4.37,1.63-4.93,3.84h-0.03
						c-2.47,0-4.47,2-4.47,4.47c0,2.46,2,4.46,4.47,4.46h9.92c2.47,0,4.46-2,4.46-4.46C75.32,82.91,73.33,80.91,70.85,80.91z"></path><linearGradient id="aw" x1="82.105" x2="82.105" y1="74.551" y2="94.411" gradientUnits="userSpaceOnUse"><stop offset="0" stop-color="#ea816a"></stop><stop offset="1" stop-color="#e24e2e"></stop></linearGradient><path fill="url(#aw)" d="M91.44,73.04h-0.05c-1.08-4.14-4.81-7.21-9.28-7.21c-4.48,0-8.21,3.07-9.28,7.21h-0.05
					c-4.64,0-8.4,3.76-8.4,8.41c0,4.62,3.77,8.38,8.4,8.38h18.66c4.65,0,8.4-3.76,8.4-8.38C99.83,76.8,96.09,73.04,91.44,73.04z"></path><linearGradient id="ax" x1="82.105" x2="82.105" y1="77.021" y2="99.759" gradientUnits="userSpaceOnUse"><stop offset="0" stop-color="#4abdec"></stop><stop offset="1" stop-color="#219cd7"></stop></linearGradient><path fill="url(#ax)" d="M82.11,77.42c-3.4,0-6.16,0.51-6.16,1.14v14.82c0,0.63,2.76,1.14,6.16,1.14
						c3.4,0,6.16-0.51,6.16-1.14V78.56C88.26,77.93,85.51,77.42,82.11,77.42z"></path><path fill="#00416D" d="M82.11,77.42c-3.4,0-6.16,0.51-6.16,1.14v14.82c0,0.63,2.76,1.14,6.16,1.14c3.4,0,6.16-0.51,6.16-1.14
						V78.56C88.26,77.93,85.51,77.42,82.11,77.42z"></path><path fill="#003654" d="M88.26,78.56c0,0.63-2.76,1.14-6.16,1.14c-3.4,0-6.16-0.51-6.16-1.14s2.76-1.14,6.16-1.14
						C85.51,77.42,88.26,77.93,88.26,78.56z"></path><path fill="#F4F5F5" d="M82.11,86.82c-3.68,0-5.82-0.64-6.16-1.05v0.71c1.19,0.62,3.74,0.91,6.16,0.91
						c2.42,0,4.97-0.29,6.16-0.91v-0.71C87.92,86.18,85.78,86.82,82.11,86.82z M82.11,83.12c-3.68,0-5.82-0.64-6.16-1.05v0.71
						c1.19,0.62,3.74,0.91,6.16,0.91c2.42,0,4.97-0.29,6.16-0.91v-0.71C87.92,82.48,85.78,83.12,82.11,83.12z M82.11,90.53
						c-3.68,0-5.82-0.64-6.16-1.05v0.71c1.19,0.62,3.74,0.91,6.16,0.91c2.42,0,4.97-0.29,6.16-0.91v-0.71
						C87.92,89.89,85.78,90.53,82.11,90.53z" opacity=".5"></path><path fill="#FFF" d="M83.74,90.11h-3.27c-0.15,0-0.28-0.12-0.28-0.28v-2.76c0-0.15,0.12-0.28,0.28-0.28h3.27
							c0.15,0,0.28,0.12,0.28,0.28v2.76C84.02,89.98,83.89,90.11,83.74,90.11z"></path><path fill="#FFF" d="M81.08,86.93v-1.35c0-0.59,0.48-1.07,1.07-1.07c0.59,0,1.07,0.48,1.07,1.07v0.83h0.4v-0.83
							c0-0.81-0.66-1.47-1.47-1.47c-0.81,0-1.47,0.66-1.47,1.47v1.35H81.08z"></path><polygon fill="#0FBAB6" points="81.81 89.26 81.14 88.59 81.49 88.23 81.81 88.55 82.72 87.65 83.07 88"></polygon><linearGradient id="ay" x1="1310.434" x2="1282.647" y1="145.385" y2="145.385" gradientTransform="rotate(180 701.18 106.283)" gradientUnits="userSpaceOnUse"><stop offset="0" stop-color="#0fbab6"></stop><stop offset="1" stop-color="#0fbab6" stop-opacity="0"></stop></linearGradient><path fill="url(#ay)" d="M94.71,70.46c0.26,0.22,0.66,0.03,0.66-0.31l0-1.73l24.57,0v-2.46H95.37l0-1.73
				c0-0.34-0.4-0.53-0.66-0.31l-3.64,2.96c-0.2,0.16-0.2,0.47,0,0.63L94.71,70.46z"></path><linearGradient id="az" x1="118.286" x2="90.499" y1="71.716" y2="71.716" gradientTransform="translate(.654 21.694)" gradientUnits="userSpaceOnUse"><stop offset="0" stop-color="#0fbab6"></stop><stop offset="1" stop-color="#0fbab6" stop-opacity="0"></stop></linearGradient><path fill="url(#az)" d="M116.15,90.14c-0.26-0.22-0.66-0.03-0.66,0.31l0,1.73l-24.57,0l0,2.46h24.57l0,1.73
				c0,0.34,0.4,0.53,0.66,0.31l3.64-2.96c0.2-0.16,0.2-0.47,0-0.63L116.15,90.14z"></path></g></svg>