<svg xmlns="http://www.w3.org/2000/svg" viewBox="0 0 4680 3120" id="email-service-providers-offer-advanced-spam-and-virus-protection"><g data-name="9"><rect width="4680" height="3120" fill="#fff" data-name="9" opacity="0"></rect><path fill="#caebff" d="M3828.22,2363.15c32.53-179.08-19.62-331.82-32.63-507.41-12.31-166.23,41-306,70.61-464.37,26.33-140.91,17.56-300.51-15.5-439-45.13-189.07-149.06-364.15-298.81-470.89-233.32-166.3-544.5-146.72-802.23-32.33-108,47.92-212.52,111.68-328.13,127.81-168.62,23.51-332.74-57-497-105.22-223.6-65.71-469.06-70.59-680,33.13-239.2,117.59-409.28,383-389.4,675.4,9,132.48,55.06,263.21,38.76,394.82-16.54,133.48-88.17,245.14-126.08,370.85-.54,1.78-1.08,3.58-1.6,5.38-86.81,296.22,136.88,592.46,445.56,592.46H3772.21A778.84,778.84,0,0,0,3828.22,2363.15Z"></path><path fill="#157756" d="M362.25,1851.27c23.05,1.33,71.2-6.59,72.64-16.25,1.15,1.81,2.36,3.6,3.52,5.41a8.15,8.15,0,0,0,2.35,3.61q27.24,42.2,58.19,82.65c-15.63-9.54-56.88-20.79-77.81-25.23-26-4.92-47.67-1.21-48,9.74s21.19,24.76,47.7,29.45c25.71,5.07,80.52,3.7,84-6.23.51.65,1,1.32,1.51,2,1.71,3.1,3.44,5.44,5.18,6.59q29.61,37.44,62.33,73.1c-16.82-9.3-64.75-18.39-88.62-21.64-28.77-3.23-52,2.5-51.31,14.47s25.46,25.27,54.82,28.19c29.2,3.52,91-3.09,91.07-14.69q39.76,42.66,83.95,82.34c-9.81-11-73.75-21.73-103.48-25.25-31.67-3-57.08,3.44-56.15,16.2s28.48,26.76,60.92,29.42c32.7,3.42,102.17-5.28,100-18a4.47,4.47,0,0,0-1.13-2.2q40.16,36,83.82,69.21l.27.2c-25.54-4-74.28-1.76-99.45.47-33.54,3.84-58,16.5-53.42,30.17s36.8,22.56,70.91,18c30.76-3.38,88.87-23.61,97.38-37.29Q805,2216.22,849.55,2244c-27.61-4.16-82.2-1.17-110.19,1.33-36.71,4.29-63.6,17.65-58.77,32.07s40.18,23.75,77.72,18.76c35.06-3.8,102.24-27.44,107.66-42q36.4,21.93,74.74,41.79c-28.94,3.65-82.2,22.84-108.87,33.85-34.54,15.38-55.22,37.76-44.23,51.68s49.49,13,84.09-3.65c30.19-13.66,81.13-53.06,88.14-72.07q14.1,7,28.44,13.85,40.32,18.95,82.55,35.41c-33.78,1.85-90.66,14.15-120.52,21.33-41.34,11.26-69.62,30.74-61.18,46.09s51.07,19.76,93.34,7.41c38.14-10,106.58-46.54,114.75-64.77,31.46,11.58,63.61,22.15,96.5,31.47-36.27,5.18-95.48,23-126.64,32.89-43.35,15.35-72,38.18-61.49,53.72s56.75,16.69,101.1,0c40.11-13.81,110.23-58.48,117.34-78.49,14.63,3.76,29.35,7.37,44.25,10.65q2.52-7.48,5-15c-7.73-1.6-15.36-3.39-23-5.13a8.77,8.77,0,0,0,3-.22c18.77-6.34-11-89.75-27.76-125.17-17.61-35.3-43.69-59.66-60.77-54.55s-19.88,38.4-3.86,74.6c13,31.86,58.61,93.43,83.23,104A1325.64,1325.64,0,0,1,994.53,2309c-40.38-18.37-79.33-38.6-116.88-60.34,12.52-16.48,22.18-69.35,23.45-95.76,1.26-32-8.65-59-23-60.83s-29,22-31.74,53.94c-2.28,22.5,1.86,66,10.42,90.26q-53.6-32.32-103.08-68.79-34.17-25.23-66.17-52.32c11.64-10,21.85-61.52,23.84-86.26,1.92-28-5.68-51.93-18-54s-25.36,18.47-28.21,46.49c-2.46,20.29.72,60.43,8,81.64q-39-33.79-74.73-70.08c11.39-5.11,23.07-56.66,25.78-80.76,2.55-26-3.72-48.34-15-50.58s-23.8,16.51-27.12,42.49c-2.85,19.39-.72,58.67,5.86,78q-37.34-38.76-70.93-79.93c8.41-9.27,11.47-55.84,11-77.63-1-24.48-9.43-44.54-19.94-45.41s-19.36,18.08-18.78,42.84c.06,14.48,4.61,40,10.67,58.71q-29.13-37.35-55.11-76.35c10.31-4.81,27.28-43.38,33.1-62.22,6.21-21.06,4.45-40.44-4.54-43.92s-22.19,10.23-28.93,31.18c-5.09,15-9.4,45.57-7.7,62.89q-15.39-23.68-29.55-47.91c5.17-8.91,4-44.83,1.92-61.66-2.66-19.22-10.77-34.52-18.85-34.44s-13.09,15.83-10.51,35.42a151.77,151.77,0,0,0,4.64,21.65c-7.12-9.19-14.83-18.21-20.32-24-14.37-14.81-30.26-23-35.94-17.69s1.34,22.51,16.08,37.73c12.14,12.92,40.64,34.16,52.89,37.42,2.71,4.8,5.36,7.82,7.58,7.66a2.19,2.19,0,0,0,.77-.34q12.82,22.44,26.61,44.48c-11.54-7.93-54-14.5-74.41-16.12-23.36-1.39-41.69,5-40.55,15.46S338.68,1850.31,362.25,1851.27Z"></path><path fill="#157756" d="M785.55 2184.52c14.26-.95 11.31-70 7.05-100.05-4.83-30.2-18.29-53.87-31.66-53.45s-22.26 25-18.31 55.52C745.83 2117 770.44 2185.39 785.55 2184.52zM1003.49 2311.1c16.8-2.72 5.12-80.23-3.55-113.74-9.38-33.56-27.85-58.74-43.25-56.73s-22.83 30.82-14.79 64.83C949.08 2239.49 985.68 2313.86 1003.49 2311.1zM1124.91 2358.35c17.84-4.43-2.46-85.36-15-120-13.32-34.66-35.48-59.65-51.77-56.17s-21.58 34.6-9.71 69.92C1059.3 2287.48 1106 2362.93 1124.91 2358.35z"></path><path fill="#3ecaa1" d="M1095.75,2001.77c112.69,205,67.77,446.06,67.77,446.06s-227.61-91.26-340.3-296.24-67.76-446.06-67.76-446.06S983.07,1796.79,1095.75,2001.77Z"></path><path fill="#1fa47c" d="M1163.52,2447.83c-16.63-27-32.5-54.53-48.77-81.78l-47.51-82.47c-31.55-55-62-110.68-93.08-166-30.09-55.85-60.7-111.41-90.3-167.53l-44.16-84.31c-14.29-28.34-29-56.46-42.9-85,16.64,27,32.51,54.52,48.78,81.76L893.1,1945c31.52,55.06,62,110.68,93.06,166,30.06,55.87,60.71,111.41,90.28,167.55l44.17,84.3C1134.9,2391.17,1149.59,2419.29,1163.52,2447.83Z"></path><path fill="#1fa47c" d="M767.84 1870.43c12.63-2.15 25.32-3.42 38-4.67s25.39-2 38.1-2.54l-2.73 1.64c11.54-18.83 23.5-37.42 37-55.09-9.24 20.21-20 39.52-31.18 58.57l-.9 1.54-1.83.1c-12.71.71-25.43 1.17-38.17 1.29S780.63 1871.31 767.84 1870.43zM1008.18 2307.63c12.64-2.15 25.32-3.42 38-4.66s25.39-2 38.1-2.54l-2.73 1.64c11.54-18.84 23.5-37.42 37-55.1-9.24 20.22-20 39.52-31.17 58.58l-.91 1.53-1.83.11c-12.71.71-25.43 1.17-38.17 1.28S1021 2308.51 1008.18 2307.63zM799 1976.69c17.42-3 34.91-4.71 52.39-6.43s35-2.73 52.54-3.51L900.2 1969c7.95-13 15.92-26 24.53-38.55 8.43-12.7 17.08-25.27 26.45-37.41-6.29 14-13.3 27.54-20.53 41-7 13.53-14.73 26.67-22.45 39.8l-1.24 2.12-2.53.14c-17.52 1-35 1.62-52.62 1.78S816.67 1977.9 799 1976.69zM930 2214.94c17.42-3 34.9-4.72 52.39-6.44s35-2.72 52.54-3.5l-3.77 2.26c7.95-13 15.92-26 24.53-38.55 8.43-12.7 17.08-25.27 26.45-37.41-6.29 14-13.3 27.54-20.53 41-7 13.52-14.73 26.67-22.45 39.8l-1.24 2.12-2.52.14c-17.53 1-35.07 1.61-52.63 1.78S947.64 2216.15 930 2214.94zM840.35 2101.35c11.1-2 22.24-3.21 33.36-4.78q16.69-2 33.42-3.47 33.45-2.94 67-4.43l-4.81 2.88c20.23-33.13 41.24-65.79 65-96.82-16.18 35.57-35.08 69.49-54.78 102.94l-1.59 2.7-3.22.19q-33.5 1.89-67.08 2.3-16.79.18-33.6-.11C862.8 2102.31 851.59 2102.21 840.35 2101.35zM901 2255.53c149.32 62.26 229 212 229 212s-162.43 48.8-311.76-13.46-229-212-229-212S751.64 2193.28 901 2255.53z"></path><path fill="#157756" d="M1130,2467.52c-20.66-7.46-41.09-15.47-61.63-23.19l-61.26-24.11c-40.79-16.16-81.26-33.11-121.91-49.63-40.36-17.23-80.87-34.07-121.07-51.66l-60.24-26.54c-20-9.17-40-18-59.85-27.47,20.66,7.45,41.09,15.46,61.64,23.18l61.25,24.1c40.79,16.19,81.27,33.11,121.91,49.65,40.35,17.25,80.87,34.07,121.07,51.67l60.23,26.54C1090,2449.23,1110.11,2458.09,1130,2467.52Z"></path><path fill="#157756" d="M667 2325.91c5.9-6.61 12.21-12.77 18.53-18.91s12.88-12 19.51-17.8l-.77 2.06a449.82 449.82 0 01-3.76-45.73 449.53 449.53 0 018.4 45.11l.17 1.22-.94.84q-9.85 8.81-20.09 17.16C681.19 2315.37 674.3 2320.87 667 2325.91zM985.5 2458.69c5.9-6.61 12.21-12.76 18.53-18.91s12.88-12 19.51-17.8l-.77 2.06a449.58 449.58 0 01-3.76-45.73 449.53 449.53 0 018.4 45.11l.18 1.22-.95.85c-6.57 5.86-13.25 11.6-20.08 17.15S992.79 2453.65 985.5 2458.69zM729.7 2369.92c8.14-9.12 16.84-17.6 25.55-26.07s17.76-16.57 26.9-24.55l-1.06 2.84c-1.31-10.45-2.59-20.9-3.36-31.42-.92-10.51-1.66-21-1.83-31.64 2.64 10.28 4.68 20.63 6.56 31s3.54 20.78 5 31.21l.24 1.68-1.31 1.16q-13.57 12.13-27.69 23.66C749.25 2355.39 739.75 2363 729.7 2369.92zM903.25 2442.28c8.15-9.12 16.85-17.61 25.56-26.08s17.76-16.56 26.9-24.55l-1.06 2.85c-1.31-10.45-2.59-20.9-3.36-31.43s-1.66-21-1.83-31.63c2.63 10.28 4.68 20.63 6.56 31s3.54 20.78 5 31.2l.24 1.69-1.3 1.16q-13.58 12.14-27.69 23.66C922.81 2427.74 913.31 2435.33 903.25 2442.28zM805.79 2419.51c5.14-5.86 10.64-11.32 16-17s11-10.94 16.58-16.29q16.81-16 34.3-31.28l-1.35 3.63c-3.35-26.64-6.07-53.36-6.61-80.38 6.59 26.21 11 52.71 14.76 79.29l.31 2.15-1.66 1.48q-17.29 15.46-35.28 30.17-9 7.33-18.22 14.43C818.34 2410.35 812.24 2415.13 805.79 2419.51zM1416.06 2205c-75.12 167.4-247.3 253.16-247.3 253.16s-50.38-185.64 24.74-353 247.31-253.16 247.31-253.16S1491.19 2037.56 1416.06 2205z"></path><path fill="#1fa47c" d="M1168.76,2458.11c9.08-23.19,18.79-46.11,28.17-69.17l29.19-68.71c19.57-45.76,40-91.13,60-136.71,20.76-45.23,41.09-90.64,62.25-135.69l31.93-67.49c11-22.33,21.67-44.82,33-67-9.08,23.19-18.79,46.11-28.16,69.17l-29.19,68.72c-19.59,45.75-40,91.13-60,136.7-20.78,45.21-41.08,90.65-62.27,135.68l-31.92,67.49C1190.71,2413.42,1180.05,2435.91,1168.76,2458.11Z"></path><path fill="#1fa47c" d="M1343.4 1937.56c7.32 6.9 14.1 14.24 20.87 21.59s13.23 15 19.59 22.66l-2.31-.93a508.1 508.1 0 0152-2.87 510.91 510.91 0 01-51.4 8.14l-1.39.17-.93-1.1q-9.68-11.43-18.84-23.29C1354.92 1954 1348.89 1946 1343.4 1937.56zM1183.16 2294.61c7.32 6.9 14.1 14.24 20.88 21.59s13.22 15 19.59 22.66l-2.32-.94a511.16 511.16 0 0152-2.87 508.75 508.75 0 01-51.41 8.15l-1.39.16-.92-1.09q-9.68-11.45-18.84-23.3C1194.68 2311 1188.65 2303 1183.16 2294.61zM1291.6 2007.3c10.09 9.51 19.44 19.63 28.78 29.77s18.24 20.63 27 31.24l-3.19-1.29c11.89-1.16 23.78-2.3 35.73-2.85 11.93-.72 23.89-1.24 35.92-1.11-11.73 2.67-23.53 4.68-35.35 6.49-11.8 2-23.66 3.38-35.53 4.75l-1.91.22-1.28-1.51q-13.33-15.77-26-32.12C1307.48 2029.91 1299.17 2018.91 1291.6 2007.3zM1204.28 2201.87c10.09 9.51 19.44 19.63 28.78 29.77s18.24 20.63 27 31.24l-3.19-1.29c11.89-1.16 23.78-2.3 35.73-2.85 11.93-.72 23.89-1.25 35.92-1.11-11.73 2.67-23.53 4.68-35.35 6.49-11.8 2-23.66 3.38-35.53 4.75l-1.91.22-1.28-1.51q-13.34-15.76-26-32.12C1220.16 2224.48 1211.85 2213.48 1204.28 2201.87zM1233.05 2092.06c6.49 6 12.52 12.41 18.75 18.63s12.07 12.79 18 19.29q17.65 19.56 34.42 39.85l-4.07-1.64c30.3-3 60.68-5.27 91.33-5.05-29.91 6.67-60.09 10.86-90.35 14.32l-2.44.28-1.63-1.92q-17-20.09-33.13-40.92-8.06-10.43-15.81-21.09C1243.05 2106.57 1237.82 2099.51 1233.05 2092.06z"></path><path fill="#157756" d="M4323.07,1658.92c-21.11,3-66-.49-68.12-9.27-.92,1.76-1.89,3.5-2.82,5.26a7.37,7.37,0,0,1-1.87,3.5q-21.78,41-47.08,80.63c13.63-10,50.71-23.59,69.63-29.31,23.56-6.57,43.77-4.85,44.93,5.2s-17.56,24.45-41.59,30.84c-23.26,6.68-73.81,9.71-77.81.84-.42.64-.82,1.29-1.23,1.93-1.34,3-2.75,5.28-4.25,6.48q-24.33,36.76-51.65,72.15c14.76-9.87,58.16-22,79.87-26.86,26.22-5.22,48-1.76,48.35,9.3s-21.45,25.26-48.24,30.24c-26.6,5.53-84,4.28-85-6.39q-33.26,42.38-70.8,82.35c8.16-10.91,66.17-25.77,93.25-31.34,28.91-5.22,52.8-1.31,52.94,10.52s-24.11,26.85-53.75,31.84c-29.83,5.71-94.45,3.14-93.43-8.78a4.23,4.23,0,0,1,.87-2.12q-34.12,36.25-71.72,70.26l-.23.2c23.19-5.66,68.22-7.43,91.56-7.35,31.17.91,54.66,10.64,51.53,23.58s-32.11,23.65-63.85,22.15c-28.58-.71-83.64-14.77-92.54-26.7q-35.85,31.4-74.69,60.43c25.09-6,75.56-7.52,101.52-7.41,34.11,1.08,59.91,11.27,56.59,24.91s-35.12,25-70,23.36c-32.57-.75-96.25-17.25-102.37-30.25q-31.78,23.05-65.52,44.32c26.92,1.09,77.44,14.58,102.84,22.63,33,11.45,53.78,30.42,44.75,44.09s-44.53,15.82-77.66,3.23c-28.85-10.2-78.83-42.48-86.76-59.43-8.29,5.07-16.63,10.08-25.09,15q-35.62,20.58-73.2,39.05c31.23-.94,84.54,5.93,112.59,10.2,38.92,7.12,66.47,22.83,59.91,37.62s-45.45,22.18-85.32,14.13c-35.89-6.26-101.73-34.49-110.67-50.63q-42.08,19.69-86.35,36.52c33.78,1.93,89.66,13.66,119.11,20.35,41.11,10.74,69.23,29.51,60.81,44.63s-50.93,19.8-93,7.92c-38-9.57-106-45.19-114.13-63-13.17,4.61-26.43,9.08-39.89,13.26q-2.91-6.69-5.76-13.41c7-2.08,13.88-4.32,20.79-6.52a8.55,8.55,0,0,1-2.76,0c-17.77-4.37,3.1-83.46,15.76-117.37,13.44-33.87,35.53-58.33,51.65-55s21.3,33.79,9.39,68.35c-9.51,30.34-46.62,90.57-68.46,102.2a1223.93,1223.93,0,0,0,223-97.62c35.72-20.07,70-41.73,102.84-64.68-12.82-14.18-25.85-62.09-29.08-86.29-3.68-29.38,3.33-55,16.43-57.79s28.42,18,33.44,47.16c3.86,20.53,3.46,60.87-2.52,83.89q46.79-34,89.48-71.39,29.46-25.89,56.79-53.33c-11.49-8.29-24.92-54.9-28.69-77.52-4-25.66,1.16-48.23,12.32-51.09s24.79,15,29.61,40.58c3.85,18.47,4.06,55.67-1,75.76q33.26-34.17,63.29-70.35c-10.88-3.81-25.67-50.34-30-72.3-4.38-23.73-.36-44.78,9.83-47.72s23.2,13.33,28.29,37c4.14,17.62,5.26,53.93.71,72.25q31.33-38.6,59-79.11c-8.46-7.87-14.92-50.49-16.16-70.58-1-22.62,5.19-41.73,14.79-43.35s19.23,15.12,20.64,38c1.09,13.33-1.11,37.15-5.22,54.86q23.9-36.64,44.74-74.57c-9.86-3.62-28.5-37.8-35.33-54.68-7.36-18.89-7.27-36.87.74-40.77s21.21,7.68,29.06,26.43c5.86,13.39,12.22,41.2,12,57.27,8.21-15.33,16-30.82,23.44-46.4-5.45-7.79-7.18-40.95-6.59-56.59.94-17.91,7.21-32.62,14.65-33.17s13.29,13.54,12.44,31.77a139.4,139.4,0,0,1-2.57,20.29c5.83-9,12.22-17.93,16.82-23.73,12.06-14.75,26-23.55,31.69-19.09s.53,20.81-11.85,36c-10.16,12.84-34.72,34.62-45.74,38.58-2.12,4.63-4.32,7.61-6.37,7.64a2,2,0,0,1-.74-.25q-10.05,21.64-21,43c10-8.21,48.54-17.58,67.22-20.67,21.39-3.11,38.77,1.38,38.53,11.05S4344.69,1656.19,4323.07,1658.92Z"></path><path fill="#157756" d="M3959.61 1998.76c-13.2.24-15.89-63.51-14.33-91.53 2.08-28.17 12.62-51 24.95-51.67s22.45 21.27 21.21 49.67C3990.87 1933.49 3973.58 1998.38 3959.61 1998.76zM3768.94 2132.32c-15.67-1.19-11-73.44-5.63-105 6-31.62 21-56.24 35.36-55.59s23.42 26.57 18.69 58.5C3813.42 2062.16 3785.55 2133.46 3768.94 2132.32zM3660.9 2185.31c-16.76-2.68-4.42-78.75 4.39-111.64 9.55-32.94 28-57.68 43.25-55.75s22.57 30.15 14.4 63.59C3715.74 2115 3678.69 2188 3660.9 2185.31z"></path><path fill="#3ecaa1" d="M3659.82,1854.87c-87.66,197.46-27.44,415.81-27.44,415.81s202.32-101.81,290-299.28,27.44-415.81,27.44-415.81S3747.47,1657.4,3659.82,1854.87Z"></path><path fill="#1fa47c" d="M3632.38,2270.68c13.19-26.2,25.64-52.73,38.48-79.08l37.26-79.62c24.73-53.13,48.41-106.72,72.67-160.06,23.32-53.75,47.13-107.28,70-161.25l34-81c10.93-27.21,22.25-54.23,32.82-81.59-13.19,26.19-25.64,52.72-38.49,79.07l-37.27,79.61c-24.69,53.15-48.42,106.72-72.64,160.07-23.29,53.77-47.15,107.28-70,161.26l-34,81C3654.28,2216.3,3643,2243.32,3632.38,2270.68Z"></path><path fill="#1fa47c" d="M3951.31 1708.32c-11.8-1-23.57-1.17-35.33-1.33s-23.52.18-35.27.65l2.64 1.29c-12.09-16.42-24.55-32.59-38.34-47.8 10.08 17.88 21.5 34.8 33.27 51.46l.95 1.35 1.7 0c11.75-.34 23.49-.92 35.22-1.81S3939.61 1710.12 3951.31 1708.32zM3764.36 2129.49c-11.8-1-23.57-1.16-35.34-1.32s-23.52.18-35.26.65l2.64 1.29c-12.1-16.43-24.55-32.59-38.34-47.8 10.08 17.88 21.49 34.8 33.27 51.46l1 1.34 1.7 0c11.75-.35 23.49-.92 35.22-1.81S3752.66 2131.3 3764.36 2129.49zM3930.92 1808.55c-16.27-1.37-32.5-1.61-48.72-1.82s-32.43.24-48.63.89l3.65 1.78c-8.33-11.33-16.69-22.64-25.6-33.56-8.75-11-17.69-21.91-27.27-32.35 6.88 12.38 14.4 24.3 22.1 36.08 7.54 11.9 15.65 23.4 23.78 34.88l1.31 1.85 2.33-.07c16.21-.47 32.4-1.26 48.57-2.48S3914.79 1811 3930.92 1808.55zM3829 2038.07c-16.26-1.37-32.49-1.61-48.72-1.83s-32.43.24-48.62.89l3.64 1.79c-8.33-11.33-16.68-22.65-25.6-33.56-8.75-11-17.69-21.92-27.26-32.35 6.88 12.37 14.39 24.3 22.1 36.08 7.54 11.9 15.64 23.4 23.77 34.87l1.31 1.86 2.34-.07c16.2-.47 32.39-1.26 48.57-2.49S3812.91 2040.56 3829 2038.07zM3902.66 1926.5c-10.37-1-20.72-1.21-31.07-1.78q-15.53-.51-31-.57-31-.09-62 1.17l4.65 2.27c-21.21-28.91-43.11-57.32-67.39-84 17.67 31.47 37.73 61.21 58.48 90.45l1.67 2.36 3-.08q31-.88 61.92-3.14 15.47-1.14 30.92-2.72C3882.08 1929.15 3892.38 1928.18 3902.66 1926.5zM3859 2073.15c-132.54 69-194.14 213-194.14 213s153.31 32.19 285.86-36.79 194.14-213 194.14-213S3991.5 2004.17 3859 2073.15z"></path><path fill="#157756" d="M3664.81,2286.17c18.43-8.48,36.6-17.45,54.91-26.17l54.48-27c36.28-18.07,72.2-36.84,108.31-55.22,35.79-19,71.76-37.69,107.38-57l53.36-29.15c17.64-10,35.41-19.73,52.93-30-18.43,8.47-36.6,17.44-54.91,26.15l-54.49,27c-36.27,18.09-72.2,36.83-108.3,55.24-35.78,19-71.76,37.68-107.37,57l-53.36,29.15C3700.11,2266.21,3682.33,2275.94,3664.81,2286.17Z"></path><path fill="#157756" d="M4079.77 2119.6c-5.95-5.63-12.24-10.8-18.54-15.95s-12.79-10.05-19.34-14.86l.87 1.84a419.19 419.19 0 00-.12-42.39 413.38 413.38 0 00-4.2 42.18l-.07 1.14.94.7c6.5 4.88 13.1 9.64 19.83 14.22S4072.67 2115.53 4079.77 2119.6zM3797.06 2266.74c-5.95-5.63-12.24-10.8-18.54-16s-12.79-10-19.35-14.85l.88 1.84a419.19 419.19 0 00-.12-42.39 413.38 413.38 0 00-4.2 42.18l-.07 1.13.94.71c6.5 4.88 13.1 9.64 19.83 14.21S3790 2262.67 3797.06 2266.74zM4025.52 2165c-8.2-7.76-16.88-14.88-25.56-22s-17.64-13.85-26.68-20.48l1.2 2.53c.39-9.72.75-19.44.64-29.18s-.12-19.48-.8-29.25c-1.62 9.66-2.69 19.34-3.61 29s-1.63 19.39-2.18 29.11l-.09 1.57 1.29 1q13.45 10.11 27.34 19.6C4006.39 2153.16 4015.72 2159.4 4025.52 2165zM3871.46 2245.19c-8.2-7.76-16.87-14.88-25.56-22s-17.63-13.85-26.67-20.48l1.2 2.53c.38-9.72.74-19.44.63-29.18s-.12-19.48-.8-29.25c-1.61 9.66-2.69 19.34-3.61 29s-1.62 19.4-2.18 29.11l-.09 1.57 1.29 1q13.45 10.11 27.34 19.61C3852.33 2233.34 3861.67 2239.58 3871.46 2245.19zM3959.38 2216.61c-5.19-5-10.68-9.59-16-14.37s-11-9.2-16.53-13.69q-16.72-13.43-34-26.09l1.53 3.23c1-24.78 1.41-49.59-.21-74.49-4 24.63-6 49.36-7.38 74.12l-.11 2 1.64 1.24q17.13 12.89 34.83 25 8.86 6 17.9 11.86C3947.11 2209.16 3953.1 2213.08 3959.38 2216.61zM3380.94 2066.93c82.25 148.18 247.42 213.62 247.42 213.62s31.83-174.79-50.41-323S3330.53 1744 3330.53 1744 3298.7 1918.76 3380.94 2066.93z"></path><path fill="#1fa47c" d="M3628.36,2280.55c-10.17-20.63-20.9-41-31.34-61.45l-32.25-60.95c-21.59-40.58-44-80.73-65.9-121.12-22.65-40-44.92-80.2-67.91-120l-34.67-59.6c-11.88-19.7-23.45-39.56-35.59-59.1,10.17,20.64,20.9,41,31.33,61.46l32.25,61c21.61,40.57,43.95,80.73,65.91,121.11,22.67,40,44.91,80.2,67.93,120l34.67,59.61C3604.66,2241.14,3616.23,2261,3628.36,2280.55Z"></path><path fill="#1fa47c" d="M3426.88 1815.17c-6.19 6.91-11.86 14.2-17.52 21.5s-11 14.81-16.26 22.39l2.06-1a473.43 473.43 0 00-48 1.43 473.37 473.37 0 0047.95 3.48l1.29 0 .77-1.09q8-11.28 15.51-22.91C3417.56 1831.16 3422.48 1823.35 3426.88 1815.17zM3602.3 2131.21c-6.19 6.92-11.86 14.21-17.52 21.5s-11 14.81-16.25 22.39l2.06-1a470.44 470.44 0 00-48.05 1.42 467.66 467.66 0 0047.94 3.48l1.29 0 .77-1.08q8-11.28 15.52-22.91C3593 2147.2 3597.91 2139.39 3602.3 2131.21zM3480 1875.29c-8.54 9.54-16.35 19.59-24.15 29.65s-15.18 20.42-22.42 30.87l2.84-1.44c-11-.14-22.06-.25-33.11.17-11 .27-22.08.73-33.14 1.79 11 1.54 22 2.47 33 3.21 11 .9 22 1.26 33.07 1.59l1.78 0 1.06-1.49q11-15.56 21.39-31.59C3467.17 1897.34 3474 1886.57 3480 1875.29zM3575.61 2047.51c-8.54 9.54-16.36 19.59-24.16 29.65s-15.17 20.42-22.41 30.87l2.84-1.44c-11-.14-22.07-.25-33.11.17s-22.08.73-33.14 1.8c11 1.53 22 2.46 33 3.2 11 .9 22 1.26 33.07 1.59l1.78.05 1.06-1.49c7.36-10.37 14.52-20.88 21.39-31.59S3569.55 2058.79 3575.61 2047.51zM3540.53 1948.71c-5.5 6-10.55 12.4-15.8 18.61q-7.65 9.48-15 19.16-14.7 19.38-28.55 39.37l3.62-1.83c-28.12-.38-56.26-.09-84.45 2.5 28.05 3.8 56.15 5.29 84.27 6.11l2.27.07 1.35-1.9q14.09-19.82 27.28-40.25 6.6-10.23 12.9-20.65C3532.46 1962.85 3536.72 1955.93 3540.53 1948.71z"></path><ellipse cx="2364.15" cy="2569.73" fill="#a53e7f" rx="1641.14" ry="190.27"></ellipse><path fill="#121a63" d="M2028.81,2276.67c-87.66-14.56-151.91-91.28-151.91-179.25a185,185,0,0,1,4.4-39.84l9.2-42.72,40.32-187.18h-422.3l-40.45,187.18-17,78.42c-25.28,113.73,61.24,221.57,177.72,221.57h430.24v-35.7A182.45,182.45,0,0,1,2028.81,2276.67Zm-393.71-318.3c7.46-51.83,55.54-93.81,107.32-93.81a89.35,89.35,0,0,1,20.19,2.27c40.62,9.33,66.6,46.77,60.11,91.54-3,21.23-12.9,40.8-27,56.49-15.73,17.48-36.74,30.21-59.63,35a96.66,96.66,0,0,1-20.66,2.27c-30.6,0-55.67-14.65-69.49-37.32C1636.24,1999.17,1632.05,1979.6,1635.1,1958.37Z"></path><path fill="#1f00bd" d="M2048.91,2237.52a179.1,179.1,0,0,1-25.37-24.41,183,183,0,0,1-26.11-40c-2.09-4.4-4-8.94-5.8-13.51a174.52,174.52,0,0,1-9.5-34.83,181.33,181.33,0,0,1,1.87-69.7l8.68-40.24L2033,1827.68H1548.58L1508,2014.86l-18.92,87.4a145.59,145.59,0,0,0-1,57.37,130.09,130.09,0,0,0,3.23,13.51,141.76,141.76,0,0,0,18.66,40A143.46,143.46,0,0,0,1629,2276.67h532.73A180.61,180.61,0,0,1,2048.91,2237.52Zm-373-279.15c6.45-44.86,43.28-82.3,86.66-91.54a96.52,96.52,0,0,1,20.66-2.27c51.83,0,87.79,42,80.29,93.81-3,21.23-12.9,40.8-27.07,56.49-20.35,22.67-49.65,37.32-80.25,37.32a89.33,89.33,0,0,1-20.18-2.27c-21.36-4.88-38.71-17.61-49.3-35C1677.08,1999.17,1672.9,1979.6,1676,1958.37Z"></path><rect width="520.16" height="38.18" x="1769.76" y="2276.67" fill="#1f00ff"></rect><path fill="#121a63" d="M2033,1827.7l-32.24,149.87H1818.05a108.76,108.76,0,0,0,4.66-19.23c6.53-44.76-19.48-82.2-60.12-91.51-43.37,9.25-80.2,46.69-86.62,91.51a94.28,94.28,0,0,0-.84,19.23h-199l32.36-149.87Z"></path><rect width="2089.33" height="1415.5" x="629.81" y="485.85" fill="#00527e" rx="106.11"></rect><path fill="#299fce" d="M2771.05,584.69V1802.51a98.84,98.84,0,0,1-98.83,98.82H780.55a98.83,98.83,0,0,1-98.82-98.82V584.69a98.79,98.79,0,0,1,98.82-98.82H2672.22a98.76,98.76,0,0,1,97.14,80.76A95.84,95.84,0,0,1,2771.05,584.69Z"></path><rect width="1948.52" height="1205.96" x="752.12" y="553.66" fill="#00527e" rx="80.05"></rect><rect width="1908.06" height="1174.08" x="738.91" y="585.18" fill="#fff" rx="80.05"></rect><path fill="#036ca3" d="M2647,660.07v12.27H738.91V660.07a74.54,74.54,0,0,1,74.54-74.54h1759A74.54,74.54,0,0,1,2647,660.07Z"></path><path fill="#fff" d="M856.07 628.94a20.57 20.57 0 11-20.56-20.57A20.55 20.55 0 01856.07 628.94zM928.34 628.94a20.57 20.57 0 11-20.56-20.57A20.56 20.56 0 01928.34 628.94zM1000.61 628.94a20.57 20.57 0 11-20.56-20.57A20.56 20.56 0 011000.61 628.94z"></path><ellipse cx="1774.15" cy="1831.53" fill="#121a63" rx="43.38" ry="44.19"></ellipse><ellipse cx="1769.19" cy="1831.53" fill="#1f00ff" rx="35.1" ry="35.76"></ellipse><rect width="529.7" height="58.74" x="1403.1" y="941.4" fill="#fdbb3b"></rect><rect width="404.57" height="58.74" x="929.25" y="941.4" fill="#ee6749"></rect><rect width="908.2" height="58.74" x="1503.78" y="1044.7" fill="#77caf0"></rect><rect width="908.2" height="58.74" x="1256.75" y="802.3" fill="#77caf0"></rect><rect width="220.75" height="58.74" x="1211.82" y="1044.7" fill="#fdbb3b"></rect><rect width="213.3" height="58.74" x="929.25" y="1044.7" fill="#ee6749"></rect><rect width="259.62" height="58.74" x="929.25" y="802.3" fill="#ee6749"></rect><rect width="479.19" height="58.74" x="1932.8" y="1147.99" fill="#77caf0"></rect><rect width="649.76" height="58.74" x="1211.82" y="1147.99" fill="#fdbb3b"></rect><rect width="294.16" height="58.74" x="1932.8" y="1251.29" fill="#fdbb3b"></rect><rect width="934.27" height="58.74" x="929.25" y="1251.29" fill="#ee6749"></rect><rect width="407.97" height="58.74" x="2004.01" y="1354.58" fill="#77caf0"></rect><rect width="720.97" height="58.74" x="1211.82" y="1354.58" fill="#fdbb3b"></rect><rect width="213.3" height="58.74" x="929.25" y="1354.58" fill="#ee6749"></rect><rect width="683.17" height="58.74" x="1728.81" y="1457.87" fill="#77caf0"></rect><rect width="254.5" height="58.74" x="1403.1" y="1457.87" fill="#fdbb3b"></rect><rect width="404.57" height="58.74" x="929.25" y="1457.87" fill="#ee6749"></rect><rect width="901.32" height="58.74" x="1211.82" y="1561.17" fill="#fdbb3b"></rect><rect width="213.3" height="58.74" x="929.25" y="1561.17" fill="#ee6749"></rect><rect width="658.88" height="422.35" x="3141.39" y="641.25" fill="#ffd648" transform="rotate(-37.17 3470.562 852.454)"></rect><polygon fill="#ff8c48" points="3080.71 883.12 3097.07 904.7 3523.3 921.64 3622.18 506.76 3605.82 485.19 3507.53 900.8 3080.71 883.12"></polygon><polygon fill="#ff8c48" points="3525.89 819.99 3845.76 833.26 3860.97 821.73 3854.47 813.15 3528.26 799.62 3525.89 819.99"></polygon><polygon fill="#ff8c48" points="3330.2 1212.24 3335.84 1219.68 3352.43 1207.11 3426.08 895.62 3405.83 892.4 3330.2 1212.24"></polygon><polygon fill="#ffc248" points="3605.82 485.16 3507.52 900.8 3080.69 883.11 3605.82 485.16"></polygon><ellipse cx="3593.61" cy="501.47" fill="#e33f40" rx="137.91" ry="127.98" transform="rotate(-37.08 3593.566 501.483)"></ellipse><path fill="#fff" d="M3607.74,567h0a14,14,0,0,1-9.74,2.8l-45.88-4.65a11.78,11.78,0,0,1-10.58-14,14.12,14.12,0,0,1,15.09-11.41l33,3.35,22.6-127.4a14.13,14.13,0,0,1,15.09-11.41,11.8,11.8,0,0,1,10.59,14l-24.86,140.1A13.94,13.94,0,0,1,3607.74,567Z"></path><path fill="#77caf0" d="M3747.69,1217.27H3138.5l30.09,510.1a79.15,79.15,0,0,0,79.15,79.15h388.81a79.15,79.15,0,0,0,79.15-79.15l33.89-543.4h-1.9Z"></path><rect width="660.43" height="63.49" x="3111.93" y="1055.95" fill="#0077b4"></rect><polygon fill="#0077b4" points="3747.69 1183.96 3136.6 1183.96 3136.6 1217.27 3138.5 1217.27 3747.69 1217.27 3747.69 1183.96"></polygon><path fill="#77caf0" d="M3778.06 1119.44H3106.23a32.27 32.27 0 000 64.53h671.83a32.27 32.27 0 000-64.53zM3778.06 1056a32.26 32.26 0 100-64.52H3106.23a32.26 32.26 0 000 64.52h671.83z"></path><path fill="#0077b4" d="M3249.92 1707.37h0c-17.35 1-32.31-13.44-33.41-32.27l-26.35-377.78c-1.1-18.84 12.08-34.93 29.43-35.94h0c17.35-1 32.31 13.44 33.41 32.28l26.36 377.77C3280.45 1690.27 3267.28 1706.36 3249.92 1707.37zM3379.91 1707.8h0c-17.38.29-31.72-14.78-32-33.64l-6.09-378.53c-.31-18.87 13.53-34.39 30.91-34.68h0c17.38-.28 31.72 14.78 32 33.64l6.09 378.54C3411.13 1692 3397.29 1707.51 3379.91 1707.8zM3501.15 1707.68h0c-17.37-.59-30.94-16.35-30.3-35.21l18.33-378.32c.64-18.86 15.24-33.66 32.61-33.08h0c17.38.59 30.94 16.35 30.3 35.21l-18.33 378.32C3533.12 1693.46 3518.52 1708.27 3501.15 1707.68zM3630.86 1707.44h0c-17.35-.93-30.61-17-29.6-35.8l27.9-377.9c1-18.84 15.89-33.36 33.25-32.43h0c17.36.93 30.61 17 29.6 35.8L3664.12 1675C3663.11 1693.85 3648.22 1708.37 3630.86 1707.44z"></path><path fill="#b91f1f" d="M2638.53,2170c-93.52-25.26-177.21-76.35-235.85-153.33a165.14,165.14,0,0,1-16-25.74c-2.57,39.92-5,80-5,119.92,0,121.73,94.54,118.61,94.54,118.61h607.68s26.88,1,50.8-19q-39.22-.52-78.43-1.71C2919.72,2204.55,2771,2205.79,2638.53,2170Z"></path><path fill="#e84b4b" d="M3171.11,2110.86c0-81.48-6.86-163.3-12.46-244.54-8-115.69-17.34-168.92-29.7-284.24-4.37-40.74-8-82-15-122.44-5.37-30.69-8.35-63.92-21.89-93q-2.34-5-5.09-9.81c-13.83-24.18-34.93-43.4-59.11-57.56-57-33.4-135.41-38.2-200.66-42-76.21-4.44-157.1-1.69-231.39,17.06-38.88,9.89-76.6,28.49-102.58,58.8-26.74,31.17-39,71.89-47.87,111.82-17.68,79.09-20.93,159.3-29,239.61-11.39,114-20.75,165.85-28,280.2q-.84,13.1-1.69,26.22a165.14,165.14,0,0,0,16,25.74c58.64,77,142.33,128.07,235.85,153.33,132.47,35.78,281.19,34.54,417.73,38.73q39.19,1.2,78.43,1.71C3153.85,2194.45,3171.11,2165,3171.11,2110.86Z"></path><path fill="#fff" d="M2699.75,1240.82s-77,18-95.9,76.08c-26.47,81.39,119.76,152.55,119.76,152.55l69.5-76.47,64.43,76.47s232.76-149.82,28.93-220Z"></path><path fill="#fbc5a9" d="M2854.92,1255.43c-33.5-9.65-127.74,21.06-155.17-.28v6.36c-1.27.67-2.54,1.34-3.76,2-24.22,13.73-39.18,32.57-39.18,53.36,0,16.37,20.68,31.53,45.92,43.94,39.58,19.45,90.38,32.14,90.38,32.14s136.3-34.06,136.3-76.08a43.46,43.46,0,0,0-1.28-10.42C2895.41,1277.42,2898.93,1268.11,2854.92,1255.43Z"></path><polygon points="2315.14 2189.13 3178.73 2196.39 3035.13 2399.64 2619.14 2399.64 2315.14 2189.13"></polygon><path fill="#4ba4ff" d="M3089.33,2263.14H2468.44a35.1,35.1,0,0,1-35.26-34.93h0a35.1,35.1,0,0,1,35.26-34.93h620.89a35.1,35.1,0,0,1,35.27,34.93h0A35.1,35.1,0,0,1,3089.33,2263.14Z"></path><path fill="#fff" d="M2689.81,2502.52l30.29,28.95s327.54,139.52,373.33-36.78c38.55-148.44-348.24-175.37-348.24-175.37Z"></path><path fill="#363251" d="M2691.89,2504.52l27.27,27.76S3008,2659,3041.71,2481.11c28.36-149.82-308.05-161.79-308.05-161.79Z"></path><path fill="#333" d="M2787.26,2323.69s-661.06-301.61-695.72-4.37,627.62,213,627.62,213Z"></path><path fill="#fff" d="M2776.51,2361.24c-32.94,36.38-45.82,87.27-33.5,134.68,4.55,17.5,31.91,10.08,27.35-7.46-9.71-37.4.11-78.54,26.2-107.36,12.16-13.42-7.84-33.35-20-19.86Z"></path><path fill="#fff" d="M2825.36,2373.73c-32.94,36.38-45.82,87.26-33.5,134.68,4.54,17.49,31.91,10.08,27.35-7.47-9.71-37.39.11-78.53,26.2-107.35,12.16-13.43-7.84-33.36-20-19.86Z"></path><path fill="#fff" d="M2874.77,2388.79c-32.93,36.38-45.81,87.26-33.49,134.68,4.54,17.49,31.91,10.08,27.35-7.47-9.71-37.39.11-78.53,26.2-107.35,12.16-13.43-7.84-33.36-20.06-19.86Z"></path><path d="M2717.43,2294.39s-230.13,11.09-317.32,80.8-97.65,148.56-97.65,148.56,142.82,31.43,267.83,14.79l125-16.65,103.51-202.2Z" opacity=".39"></path><path fill="#fff" d="M2859,2502.52l-30.3,28.95s-327.54,139.52-373.33-36.78C2416.79,2346.25,2805.59,2326,2805.59,2326Z"></path><path fill="#453b5d" d="M2856.88,2504.52l-27.27,27.76s-288.86,126.76-322.54-51.17c-28.37-149.82,308-161.79,308-161.79Z"></path><path fill="#333" d="M2815.11,2319.32s607.46-297.24,642.13,0-627.63,213-627.63,213Z"></path><path fill="#fff" d="M2772.27,2361.24c32.94,36.38,45.81,87.27,33.49,134.68-4.54,17.5-31.91,10.08-27.35-7.46,9.71-37.4-.11-78.54-26.2-107.36-12.16-13.42,7.84-33.35,20.06-19.86Z"></path><path fill="#fff" d="M2723.42,2373.73c32.94,36.38,45.81,87.26,33.49,134.68-4.54,17.49-31.9,10.08-27.35-7.47,9.72-37.39-.11-78.53-26.2-107.35-12.15-13.43,7.84-33.36,20.06-19.86Z"></path><path fill="#fff" d="M2674 2388.79c32.94 36.38 45.81 87.26 33.49 134.68-4.54 17.49-31.9 10.08-27.35-7.47 9.72-37.39-.11-78.53-26.2-107.35-12.15-13.43 7.84-33.36 20.06-19.86zM2180.15 2050.09c-7.22 30.91-6.59 54.23-2.17 71.74 79.13 39.12 170.18 35.41 170.18 35.41L2380 1953.7l-55.84-11S2204.15 1947.37 2180.15 2050.09z"></path><path fill="#e84b4b" d="M2564.25,1282.08c-232.56,50.86-531.81,512.9-496.73,699,13.72,72.8,59.64,115.59,110.46,140.72-4.42-17.51-5.05-40.83,2.17-71.74,24-102.72,144-107.42,144-107.42l75.35-106.47Z"></path><path fill="#f48121" d="M2323.09,1934.37c-60.69-41.5-143.4-33.16-194.6,19.26-4.95,5.07,2.87,12.84,7.84,7.75,48-49.13,124.42-56.34,181.17-17.54,5.88,4,11.43-5.48,5.59-9.47Z"></path><path fill="#f9b189" d="M2452.65,1974.23s-119.26-63.23-171,30.25,66.47,152.76,66.47,152.76l137.87.1Z"></path><path fill="#fff" d="M3371.94,2050.09c7.22,30.91,6.58,54.23,2.17,71.74-79.14,39.12-170.18,35.41-170.18,35.41l-31.25-199.74,55.25-14.83S3347.94,1947.37,3371.94,2050.09Z"></path><path fill="#e84b4b" d="M2987.84,1282.08c232.56,50.86,531.8,512.9,496.72,699-13.71,72.8-59.63,115.59-110.45,140.72,4.41-17.51,5-40.83-2.17-71.74-24-102.72-144-107.42-144-107.42l-75.35-106.47Z"></path><path fill="#f48121" d="M3234.59,1943.84c56.75-38.8,133.18-31.59,181.17,17.54,5,5.09,12.79-2.68,7.83-7.75-51.19-52.42-133.91-60.76-194.59-19.26-5.83,4-.3,13.5,5.59,9.47Z"></path><path fill="#f9b189" d="M3108.19,1974.23s110.51-63.23,162.21,30.25-66.47,152.76-66.47,152.76l-137.87.1Z"></path><path fill="#227bc4" d="M3128.76,1755.18H2434.58c-38.91,0-68.36,34.83-61.54,72.77l56.52,314.28a62.34,62.34,0,0,0,61.54,51.05h581.14a62.34,62.34,0,0,0,61.54-51.05L3190.3,1828C3197.12,1790,3167.67,1755.18,3128.76,1755.18Z"></path><ellipse cx="2778.89" cy="2004.48" fill="#fff" rx="69.72" ry="52.67"></ellipse><polygon fill="#b91f1f" points="2423.73 1754.54 2434.26 1517.19 2469.82 1755.84 2423.73 1754.54"></polygon><path fill="#b91f1f" d="M3128.76 1755.18l-4.31-254 63 287.27S3165.75 1758.43 3128.76 1755.18zM2131.4 1956.25s62.33-131.29 219.47-50.43l-26.71 36.85S2230.6 1872.78 2131.4 1956.25zM3223.74 1936.83s107.69-74.77 201.91 22c0 0-84.86-56.8-170.3-11.59l-29.85-4.06z"></path><path fill="#fbc5a9" d="M2689.87,1291.93c-8.73-24.17,0-167.88,0-167.88h196.45l.44,162a62.8,62.8,0,0,1-1.57,12.74c-4.85,21-53.07,43.24-99.8,71.06C2785.39,1369.88,2712.3,1354.05,2689.87,1291.93Z"></path><path fill="#f7a18a" d="M2894.27,1186.24l-204.4-62.19s-6.76,111.31-2.42,154.47C2729.3,1316.79,2852,1359.21,2894.27,1186.24Z"></path><path fill="#5b1e13" d="M2658.72,1022s-85.85-21.32-96.52-92.58c0,0-4.48-49.38,18.52-60,0,0-14.88-66.21,45.58-81.92,0,0-2.37-49.38,32.42-66.21s65.08-3.37,65.08-3.37,25.25-51.62,88.1-38.72,71.26,47.14,71.26,47.14,36.47-6.18,57.23,14,18.52,41.53,18.52,41.53a63.46,63.46,0,0,1,31.54,22.49c11.46,15.26,14.3,35.34,9.52,53.82a33.2,33.2,0,0,1-3.47,9s29.74,23.56,22.45,71.26-90.9,80.94-90.9,80.94Z"></path><path fill="#851e13" d="M2675.88,818.07s31.38,19.28,62.75,7.62S2771.36,793,2771.36,793s9.41,29.13,64.1,33.17S2910.77,780,2910.77,780s-37,39.75-87.65,25.13c-35.41-10.23-58-46.2-58-46.2S2761.05,826.14,2675.88,818.07Z"></path><ellipse cx="2605.55" cy="1031.59" fill="#fbc5a9" rx="49.66" ry="68.17" transform="rotate(-30 2605.564 1031.599)"></ellipse><path fill="#fbc5a9" d="M2920.61,1008.16c-18.82,32.6-14.83,70.15,8.92,83.87s58.27-1.61,77.09-34.22,14.84-70.15-8.91-83.87S2939.44,975.55,2920.61,1008.16Z"></path><path fill="#fbc5a9" d="M2939.69,904.94v211.63c0,82.85-77.67,149.75-169,141.56-79.42-7.11-138.74-71.09-138.74-144.84V909.07c15.18,7.46,38.43,14.76,65.15,9a81.39,81.39,0,0,0,38.55-20.79l15.27-14.46s32.79,19.08,64.35,11.22c0,0,52.21,35.91,88.63,1.13C2903.88,895.21,2920.32,905.68,2939.69,904.94Z"></path><path fill="#f7a18a" d="M2939.69,904.94v25.3a190,190,0,0,1-38.11-16.8c-48.84,29.47-84.22-10.11-84.22-10.11-28.22,15.15-61.49-1.27-61.49-1.27-63.92,55.07-107.69,39.47-123.94,29.84V909.07c15.18,7.46,38.43,14.76,65.15,9a81.39,81.39,0,0,0,38.55-20.79l15.27-14.46s32.79,19.08,64.35,11.22c0,0,52.21,35.91,88.63,1.13C2903.88,895.21,2920.32,905.68,2939.69,904.94Z"></path><path fill="#010003" d="M2674.09 921.35a2 2 0 01-.34 0c-42.58-7.18-51.95-33.18-52.33-34.28a2.06 2.06 0 013.89-1.34h0c0 .06 2.24 6.26 9.35 13.21 6.58 6.42 18.82 14.82 39.77 18.35a2.06 2.06 0 01-.34 4.09zM2798.19 898.12a32.51 32.51 0 01-4.25-.24 2.05 2.05 0 01.63-4.06c1.23.18 29.5 4.09 38.93-26.57a2.06 2.06 0 113.93 1.21C2829.21 895.16 2807.44 898.12 2798.19 898.12zM2925.88 906.72c-18.09 0-31.91-9.68-32.14-9.84a2.06 2.06 0 112.4-3.34h0a57.49 57.49 0 0021.74 8.51c16.75 2.74 31.69-3 44.42-17a2 2 0 113 2.75C2952.14 902.35 2938 906.72 2925.88 906.72z"></path><path fill="#f7a18a" d="M2795.17 1124.65c-5.68.3-12-.94-19-3.73a5.05 5.05 0 01-3.07-5.07l5.45-78.23a4.78 4.78 0 015-4.58 5 5 0 014.36 5.38l-5.18 74.37c9.56 3.14 16.78 2.44 22.53-2.15a4.56 4.56 0 016.61 1 5.17 5.17 0 01-.91 7A27 27 0 012795.17 1124.65zM2789.15 1176.36a104.38 104.38 0 01-48.44-9.48 5.15 5.15 0 01-2.17-6.69 4.59 4.59 0 016.31-2.26c2.35 1.22 56.06 28.21 98.85-18.38a4.53 4.53 0 016.67-.08 5.2 5.2 0 01.11 7.06C2830.64 1168.14 2808.4 1175.34 2789.15 1176.36zM2798.3 1204.47a68.85 68.85 0 01-20-1.91 5 5 0 01-3.42-6.08 4.67 4.67 0 015.71-3.59h0c.22.06 21.46 5.63 35.69-3.94a4.57 4.57 0 016.51 1.54 5.17 5.17 0 01-1.42 6.9C2814.14 1202.28 2805.74 1204.08 2798.3 1204.47z"></path><path fill="#5b1e13" d="M2685 987.65c9.83-6.3 24.26-14.21 38.53-17.19 7.67-1.61 12.1-10.1 9-17.75l-.62-1.55a12.21 12.21 0 00-13.24-7.85c-12.77 2.12-35.28 8.09-49.29 24.54a13.46 13.46 0 00-2.28 13.18h0C2669.84 988.66 2678.42 991.86 2685 987.65zM2879.89 977.34c-10.45-5.23-25.63-11.57-40.14-13-7.8-.79-13.09-8.77-10.87-16.7l.45-1.6a12.23 12.23 0 0112.34-9.21c12.93.77 35.94 4.33 51.61 19.21a13.51 13.51 0 013.66 12.87h0C2895 976.75 2886.85 980.83 2879.89 977.34z"></path><path fill="#f3888a" d="M2722 1072.56c.49 9.24-15.22 17.58-35.1 18.64s-36.38-5.59-36.87-14.84 15.23-17.58 35.1-18.63S2721.47 1063.32 2722 1072.56zM2919.18 1075c.49 9.24-15.23 17.59-35.1 18.64s-36.39-5.59-36.88-14.83 15.23-17.59 35.11-18.64S2918.69 1065.73 2919.18 1075z" opacity=".5"></path><path fill="#5b1e13" d="M2862.15 1026.26c.11 7.86-4.73 14.3-10.79 14.38s-11.07-6.23-11.17-14.09 4.73-14.31 10.79-14.39S2862.05 1018.4 2862.15 1026.26zM2732.48 1024.59c.1 7.86-4.73 14.3-10.8 14.38s-11.06-6.23-11.16-14.09 4.73-14.3 10.79-14.38S2732.38 1016.73 2732.48 1024.59z"></path><path fill="#fff" d="M2913.65 1006.3h27.78c7.13 0 7.14-11 0-11h-27.78c-7.12 0-7.13 11 0 11zM2771.25 1009.75h32.5c8.24 0 8.26-11 0-11h-32.5c-8.25 0-8.26 11 0 11zM2631.45 1009.75h24.68c7.13 0 7.14-11 0-11h-24.68c-7.13 0-7.14 11 0 11z"></path><path fill="#fff" d="M2713.55 965.41c-26.14.56-49.54 16-58.92 40.43-9.44 24.56-1.63 53.3 18.82 70 20.26 16.51 49.6 18.92 72.21 5.59a62.78 62.78 0 0029.77-65c-5.42-29.63-32-50.3-61.88-50.94-7.13-.16-7.13 10.81 0 11 28.29.61 51.88 22.94 51.88 51.38 0 28-23.58 51.38-51.88 51.38s-51.88-23.34-51.88-51.38c0-28.44 23.59-50.77 51.88-51.38C2720.67 976.22 2720.69 965.25 2713.55 965.41zM2861.89 975.08c28.29.62 51.89 22.95 51.89 51.39 0 28-23.59 51.38-51.89 51.38s-51.88-23.34-51.88-51.38c0-28.44 23.6-50.77 51.88-51.39 7.12-.15 7.15-11.12 0-11-26.13.57-49.53 16-58.91 40.44s-1.63 53.29 18.82 70c20.26 16.51 49.6 18.91 72.21 5.59a62.78 62.78 0 0029.77-65c-5.42-29.63-32-50.3-61.89-50.95C2854.76 964 2854.76 974.93 2861.89 975.08z"></path><path fill="#ff735d" d="M1435,2675.88l-259.18-670.35c-11.83-30.59-1.76-63,22.49-72.36l42-16.23c17.12-6.62,27.83-25.19,27.42-47.59l-.52-28.13c-.4-22.39,10.3-41,27.42-47.59l199.19-77c15.52-6,33.89-1.21,48.31,12.6l17.86,17.11c14.42,13.81,32.79,18.6,48.32,12.6l253.91-98.18c24.24-9.37,53.49,7.83,65.31,38.42l264.48,684Z"></path><path fill="#ff8c48" d="M1435,2675.88l-259.18-670.35c-11.83-30.59-1.76-63,22.49-72.36l42-16.23c17.12-6.62,27.83-25.19,27.42-47.59l-.52-28.13c-.4-22.39,10.3-41,27.42-47.59l199.19-77c15.52-6,33.89-1.21,48.31,12.6l17.86,17.11c14.42,13.81,32.79,18.6,48.32,12.6l253.91-98.18c24.24-9.37,53.49,7.83,65.31,38.42l264.48,684Z"></path><path fill="#ececec" d="M1429.33,2661.23,1263.9,2002.5c-4.53-22.22,4.32-42.76,21.21-49.29l651.8-252c25.74-10,55.94,16.59,57.29,50.36l85.71,640.11Z"></path><path fill="#fafafa" d="M1429.33,2661.23l-125.54-616.45c-4.52-22.21,4.32-42.75,21.22-49.29l651.79-252c25.75-10,55.94,16.58,57.3,50.36l24.67,615.21Z"></path><path fill="#ffd648" d="M1435,2675.88l757-292.67L2126,1775.61c-3.1-28.57-28.73-49.47-50.38-41.1L1403.71,1994.3c-19.76,7.65-31.29,30.17-28.79,56.23l46.52,484.29Z"></path><path fill="#ffc248" d="M1435,2675.88l757-292.67L2126,1775.61c-3.1-28.57-28.73-49.47-50.38-41.1l-139.77,54c31.95,15.36,86.58,55.43,104.15,153.56,25.37,141.72-43.35,379-309.4,506.33-126.62,60.6-232.75,81.31-309.2,86.38Z"></path><polygon fill="#7d1f1f" points="1618.28 2256.49 1645.86 2324.43 1748.93 2261.46 1648.33 2351.21 1721.3 2410.84 1625.77 2384.59 1593.35 2409.45 1590.37 2364.37 1526.07 2381.53 1573.25 2337.09 1545.22 2315.56 1593.42 2307.71 1618.28 2256.49"></polygon><polygon fill="#7d1f1f" points="1996.12 2228.99 2093.44 2219.1 2006.53 2279.47 2033.26 2297.85 1961.68 2313.19 1938.5 2348.35 1939.9 2273.84 1858.67 2291.37 1914.27 2248.3 1766.06 2170.75 1926.54 2218.9 1933.76 2176.42 1964.25 2204.32 1984.94 2176.29 1996.12 2228.99"></polygon><path fill="#77caf0" d="M2006.52,2279.52c64.16-157.6-23.59-238.45-15.29-316,1.89-19.59,11-45.13,30.35-52.62,9.46-3.66,24.19-3.25,37.83,1,21.35,9.3,52,38.86,81.94,36.35,27.61-2.32,45.89-29.72,40.84-61.21-4.06-25.38-22.05-45.66-43.33-51.37-15.21-8.63-39-25.7-59.61-32.89-103-34-178.83,32.85-189,135.89-7.55,66.23,19,124.18,32.25,173.32,10.74,42.7,8.2,69.87-9.47,113.27-.86,2.12-12.62,11-12.28,16.21a107.87,107.87,0,0,1,12.65,7.24l-54.67,42.63,80.88-17.51-1.49,75.13,23.94-35.55,34.79-7.6S2008.93,2281.07,2006.52,2279.52Z"></path><path d="M1978.81,2248.62c64.17-157.6-23.59-238.44-15.28-316,1.88-19.59,11-45.13,30.34-52.62,9.46-3.66,24.19-3.25,37.83,1,21.35,9.31,52,38.87,81.94,36.35,27.61-2.31,45.9-29.72,40.85-61.21a67.84,67.84,0,0,0-4.73-16.11c16.29,8.69,29.09,26.12,32.43,47,5,31.49-13.23,58.89-40.84,61.21-30,2.51-60.59-27-81.94-36.35-13.64-4.26-28.37-4.67-37.83-1-19.39,7.49-28.46,33-30.35,52.62-8.3,77.53,79.45,158.38,15.29,316,2.41,1.55-9.7,26.32-9.7,26.32l-34.79,7.6L1938.09,2349l1.34-67.56,29.69-6.49S1981.22,2250.18,1978.81,2248.62Z" opacity=".1"></path><path fill="#5db431" d="M1911.78,2247.7c-1.29-.83-3.31-2.07-5.81-3.46l5.9-1.28Z"></path><polygon fill="#7d1f1f" points="1911.73 2250.02 1911.14 2280.02 1858.7 2291.37 1911.73 2250.02"></polygon><path fill="#5db431" d="M1911.74,2250l0-2.32c1,.65,1.59,1,1.59,1Z"></path><path fill="#5360a6" d="M2079 1923.11l-.31-2.29c-2.84-38.63 15-77.4 32.56-100.8l.83-.72s-7.14-4.67-7.32-4.43c-17.93 24.13-35.84 63.49-33.73 103.33zM1995.8 1937.9l1.27 1 3.28-7c-28.24-25.22-48.67-66.55-52.88-107.25l-.17-3.27s-7.09 5.36-7 6.36C1945.45 1869.77 1966.53 1911.76 1995.8 1937.9zM1889.18 1976c34.12 22.63 70.89 29.74 103.45 20l-1.28-8.64-1.54.42c-31.15 9.33-66.33 2.19-99.06-20.1l-1.87-1.38z"></path><path fill="#77caf0" d="M1630.25,2286.59c-4-5.33-8.54-9-13.55-9.66-14.39-13.69-36.53-53.28-56.64-75-56.87-61.79-127-91.92-194.52-62.65-25.14,10.91-35.42,43.77-23,73.4s43,44.81,68.1,33.9c20.09-8.7,46.4-6.32,83.14,33.58,14.3,15.44,37.47,61.12,71.38,88.75,6.06,4.94,15.82,8.37,25.77,10.75.29,3.84,2.59,29.54,2.59,29.54l32.65-24.48,95.27,26.22-72.89-59.43,101.31-90.89-104.09,63.94Z"></path><path fill="#5360a6" d="M1919.34 2101.28c26.27 12.65 61.07 20.26 89.64 9.22a65.4 65.4 0 0013.86-7.12l-2.2-9.12-2 1.45c-29.11 20-70.67 11.29-99.85-3.56l-2.58-1.05zM2021.46 2235.17l2-8.45-3-.18c-36.36-4.25-63.91-18.55-89.35-46.38l-3.54-3.58-1.74 9.18C1952.72 2215.2 1983.14 2230.7 2021.46 2235.17zM1570 2372.2a55.93 55.93 0 005.84-1.89c15.78-6.1 29.37-19.75 38.1-38.61 8.65-18.7 10.74-38.56 5.43-54.07l-2.82-.94-5.2-5.72 2.68 7.82c4.73 13.8 2.8 32.31-5.16 49.52-9.47 20.45-25.68 34.77-43.37 38.31l-2.67.27zM1561 2202.86c0 .17.53 2.73.55 2.9 5.12 32.31-27.1 71.43-58 83.37-.47.18-1.59.5-2.06.67l4 5.61c31.69-12.25 63.83-50.31 62.2-84.62zM1477.68 2140.68c-8.72 4.79-15.54 16.34-19.19 23.7-10.85 21.88-18.56 56.44-10.27 81.47l7.42 3.29-1.75-3.74c-8-22.13-1.19-55.73 9.61-77.49 6.76-13.62 14.85-22.23 21.67-23l1.73.09-3.1-1.55z"></path><polygon fill="#b91f1f" points="1647.27 2334.31 1747.54 2262.97 1749.99 2260.5 1645.8 2323.43 1618.31 2254.12 1610.63 2270.31 1612.92 2272.9 1618.58 2260.2 1647.27 2334.31"></polygon><polygon fill="#b91f1f" points="1528.35 2380.87 1553.24 2358.05 1551.86 2356.49 1523.6 2382.3 1528.35 2380.87"></polygon><polygon fill="#b91f1f" points="1594.24 2408.84 1591.95 2379.82 1590.07 2379.46 1592.39 2410.28 1594.24 2408.84"></polygon><polygon fill="#b91f1f" points="1718.92 2410.18 1721.62 2410.94 1648.64 2351.49 1652.98 2365.66 1718.92 2410.18"></polygon><polygon fill="#b91f1f" points="1766.06 2170.75 1913.03 2225.57 1916.81 2216.01 1766.06 2170.75"></polygon><polygon fill="#b91f1f" points="2006.6 2279.49 2009.06 2286.66 2028.81 2298.89 2033.26 2297.85 2006.6 2279.49"></polygon><polygon fill="#b91f1f" points="1939.58 2273.86 1942.57 2282.44 1938.09 2348.99 1939.58 2273.86"></polygon><polygon fill="#b91f1f" points="1913.37 2248.74 1914.03 2255.33 1858.7 2291.45 1913.37 2248.74"></polygon><polygon fill="#b91f1f" points="2023.44 2226.2 2025.47 2235.61 2089.18 2222.09 2093.3 2219.15 2023.44 2226.2"></polygon><path d="M1355.51,2145.38a64.7,64.7,0,0,0,3.82,39.23c12.46,29.63,43,44.81,68.1,33.9,20.09-8.7,46.4-6.31,83.14,33.59,14.3,15.43,37.47,61.11,71.38,88.74,6.06,4.94,15.82,8.38,25.77,10.75.29,3.84,41.1-.18,41.1-.18l12.21,10.22,60.46,49.29-95.27-26.22-32.65,24.48s-2.3-25.7-2.59-29.54c-10-2.38-19.71-5.81-25.77-10.75-33.91-27.63-57.08-73.31-71.38-88.75-36.74-39.9-63-42.28-83.14-33.58-25.12,10.91-55.64-4.27-68.1-33.9C1331.94,2187.36,1337.89,2159.71,1355.51,2145.38Z" opacity=".1"></path><path fill="#7d1f1f" d="M1703.86,2288.88l46.05-28.28-77,69-7.61-6.2Z"></path><path fill="#ffab1d" d="M3725.13,2223.61v356.6c0,39.64-446.12,39.64-446.12,0v-356.6Z"></path><ellipse cx="3502.07" cy="2358.3" fill="#161310" rx="55.08" ry="59.86"></ellipse><path fill="#161310" d="M3479.5,2376.75h45.15a0,0,0,0,1,0,0v145.17a16.67,16.67,0,0,1-16.67,16.67h-11.81a16.67,16.67,0,0,1-16.67-16.67V2376.75A0,0,0,0,1,3479.5,2376.75Z"></path><path fill="gray" d="M3686,2223.61h-45.15v-49.42c0-83.2-62.27-150.88-138.8-150.88s-138.82,67.68-138.82,150.88v49.42h-45.15v-49.42c0-110.26,82.53-200,184-200s184,89.7,184,200Z"></path><path fill="#ff8d0f" d="M3725.13,2223.61v356.6c0,39.64-446.12,39.64-446.12,0v-13c86.14,13.8,342.26,3.25,361.87-51.6,23.14-64.71,4.83-292,4.83-292Z"></path><path fill="#fff" d="M3638,2085.35a6.48,6.48,0,0,1-5.67-3.31c-32.23-57.24-79-74.24-112.47-78.41a6.5,6.5,0,1,1,1.6-12.9c36.49,4.54,87.31,23,122.19,84.93a6.49,6.49,0,0,1-5.65,9.69Z"></path></g></svg>