<svg enable-background="new 0 0 1135.304 635.443" height="636" viewBox="0 0 1135.304 635.443" width="1136" xmlns="http://www.w3.org/2000/svg"><path d="m1067.103 325.403-392.559-127.809c-1.495-.487-3.111-.447-4.58.113l-607.573 231.647c-4.363 1.664-9.081-1.411-9.32-6.075l-4.596-89.609c-.23-4.487-4.631-7.553-8.92-6.214l-34.726 14.008c-3.19.996-5.203 4.142-4.77 7.456l4.635 94.991c.578 4.431 3.325 8.283 7.326 10.273l360.16 179.16c5.347 2.66 11.602 2.798 17.061.376l678.244-300.901c3.331-1.478 3.084-6.287-.382-7.416z" fill="#fdc93a"/><path d="m355.553 496.538-347.981-148.768 4.705 94.572 355.268 170.059c2.118 1.014 4.571 1.062 6.727.131l677.021-292.276-13.858-106.208z" fill="#f3ead9"/><path d="m1031.049 226.688c-.779-.597-.568-1.578-1.441-2.129.014 8.506-3.91 15.646-3.378 24.322 1.981.838 1.109-5.15 3.635-2.991-2.852 7.551-6.395 10.602-5.154 17.491-1.806-.427-2.739 1.22-4.016 2.064-.145 1.477 3.268 1.619 1.547 3.698-2.008-.31-.789-1.844-2.093-2.422-.263 3.03-.87 4.888-2.908 8.607 2.081-1.371 2.094.348 4.515.426 1.69-2.254-1.604-2.605.6-5.046 1.861 2.324-.542 6.27 1.886 8.388-.033.979-3.407-1.129-2.096-2.416-3.918-1.96-7.109 2.534-5.666 5.9.812.228 1.056-.924 1.479-1.634.332 1.654 2.235 2.721 1.943 4.621-2.097-1.132-3.871-.517-6.393.284.657 2.61-3.369 6.997-2.52 9.526 2.168-.01 1.708-6.288 4.844-3.977-3.63 1.87-2.142 4.088-1.423 6.968-3.144-2.383-7.347 8.656-3.343 11.449-.552 2.466-5.129 1.947-2.582 4.189-2.713.008-4.112 3.125-5.659 5.906 1.02.718 1.466.039 1.874-.709 1.708 2.199-7.596 4.595-3.848 8.956-.719-.437-1.235-.367-1.599.072.287 1.166 1.208.2 1.443 2.133-1.381 1.614-1.306.294-2.925-.494 1.269 2.369 1.597 5.099 2.157 7.746-1.019-.391-2.924-.595-4.015 2.063 4.282-2.093 2.303 4.85-.711 3.488-.034.26.028.739.171 1.229l8.673-3.744c.113-.616.209-1.414.404-2.607.657.282 1.32.566 1.982.851.433-1.576 1.163-2.41 2.031-2.915-1.833-.393-2.677-.144-3.024-2.056-1.481-.943-.888 3.067-2.813 1.056 1.196-1.036 2.44-1.95 3.633-2.98-.336 3.202 1.701 2.165 4.357 2.628-1.765.688-.761 1.578-1.371 3.199.23.146.438.239.636.306l1.898-.819c.535-.85.893-2.121 1.368-3.111.95.816.829 1.63.272 2.403l5.328-2.3c-1.71-1.165 1.505-4.201 1.665-6.074.902-.416 2.521.843 2.802-1.068.076 1.22 1.688 1.858.885 3.414-2.616-1.518-3.48 1.158-4.538 3.377l6.078-2.624c.364-.969.674-1.895.885-2.746.885.446.246 1.467.454 2.169l1.124-.485c.153-2.052-3.213-3.514-.204-4.881 1.095.652 1.031 1.747.225 3.125 3.394-1.186 1.528-7.039 3.291-7.678-.722-.429-1.235-.36-1.597.067 1.851-3.486 8.465-13.146 5.26-15.923.557-1.266 2.153-.041 2.425-1.987.444-1.192-.598-1.816-1.867-2.354-.51.068-1.03-.113-1.557-.638.502.219 1.047.422 1.557.638 3.168-.425 5.922-10.869 7.12-13.577 2.787 2.335-2.281 7.652.407 10.023 1.183-3.724 2.81-7.648 3.634-11.286l-3.922-30.056c-.219.508-.439 1.017-.655 1.524-.806-1.863-1.42-.27-2.916-.498-.967 1.973 3.568 1.859 1.268 4.343-1.614-.281-.417-1.627-1.438-2.135.63 2.872-.504 5.512-3.014 7.039-1.472-1.845.227-2.736 1.64-3.848-.953-1.054-1.114-2.424-2.478-3.333.76-.349 1.329-1.147 1.763-2.281.727.44.052 1.411-.164 2.208.643-1.071 5.969-4.168 4.067-5.828 1.384-1.406 1.241-.726 1.573.082l-.928-7.113c-.313.263-.685.517-1.1.766-1.176-.578.186-2.128.76-3.377l-3.816-29.244-4.05 1.678c-.561.788-1.126 1.513-1.695 2.144 2.586 2.31-1.967 3.667-.642 8.818zm-20.203 79.992c.28-.632.552-1.274.826-1.914.731.439.05 1.407-.169 2.197 2.583.468 4.033-5.551 2.089-6.67 1.246-.044 1.856-1.609 3.467-.788-1.679 4.681-2.889 6.064-3.455 9.88-.932-2.08-1.526-1.321-2.758-2.705zm2.932 9.601c.676 2.154-1 7.636-3.235 3.913 2.843.253.858-3.021 3.235-3.913zm-12.857 17.209c-.34-3.505 6.251-5.663 8.906-9.808-.413 4.215-5.582 8.236-8.906 9.808zm11.16-9.598c1.541-.546-1.657 5.249-1.42 6.969-2.689-2.117.136-4.26 1.42-6.969zm3.599 9.881c-1.839-1.32-1.077-.991-3.299-1.421 1.079-1.292 2.928-.768 4.005-2.062 1.486.51-.665 2.403-.706 3.483zm-.06-5.328c.436.189.879.375 1.32.566-3.593 1.806.316-7.272 3.136-5.475-1.885.695-2.874 3.512-4.456 4.909zm3.795-36.268c-1.101-.065-.549-3.189-1.705-1.49-1.657-3.288 3.56-.129 2.295-3.561 1.749 1.305 1.331 3.427 1.672 5.263-.455-.657-1.804-2.54-2.262-.212zm3.568-8.318c-1.226-.244-1.041-1.037-.776-1.85-.72-.435-1.232-.36-1.599.072-1.37-3.17 4.152-.878 2.375 1.778zm2.108 42.591c-.903-2.829 1.254-5.595 3.29-7.675-.058 2.503-2.816 3.836-3.29 7.675zm-.982-26.949c-.509-4.612 3.962-4.596 3.842-8.959 2.686 2.755-2.739 6.811-3.842 8.959zm2.732-15.497c.686-.829.733.614 1.982.85 1.642-2.189.673-4.548 2.197-5.119.769.599.557 1.572 1.433 2.132-1.575 1.238-3.937 5.184-5.612 2.137zm3.787-5.195c.364-.855.735-1.707 1.094-2.558.864 1.626.874.307 2.65 1.143-1.185.611-1.794 2.608-3.744 1.415zm5.05-9.958c-.435 1.544-1.188 2.343-2.416 1.998-.229 2.102.682 1.143 2.376 1.769-.373.855-.734 1.711-1.106 2.563-.666-4.139-1.609.67-3.852-.136 2.309-2.195 1.308-6.102 4.998-6.194zm-4.419-7.958c-.535-.053 1.71-7.237 1.309-8.535 2.649.1.06 8.67-1.309 8.535z" fill="#e9d9bb"/><path d="m596.131 515.673c-1.876-1.473-1.801 1.72-3.464.783.152-.354-.224-.957-.663-.285.909.431.797 1.247.771 2.031l3.061-1.321c-.048-.348-.021-.724.295-1.208z" fill="#e9d9bb"/><path d="m1041.644 311.595c.097 3.353.59 6.56 1.34 9.665-.971-.428-2.657 1.701-3.227 3.975l3.923-1.694c.023-.145.038-.289.069-.436.264-.435.752-.339 1.28-.147l6.262-2.704-2.526-19.359c-1.411 4.406-2.814 8.724-5.021 13.111-.841-.748-1.265-1.658-2.1-2.411z" fill="#e9d9bb"/><path d="m1008.361 338.79.597-.258c-.186-.128-.395-.247-.649-.349.034.231.049.427.052.607z" fill="#e9d9bb"/><path d="m1037.093 324.029c.49.59.617 1.32.489 2.145l1.179-.509c.08-1.035.155-1.901.201-2.34-.368.843-1.406.086-1.869.704z" fill="#e9d9bb"/><path d="m892.772 273.978-7.727 3.201c-1.297 3.852-2.113 8.15-2.624 12.935 1.932-4.951 6.819-10.333 10.351-16.136z" fill="#e9d9bb"/><path d="m619.253 467.25c-1.644.89-3.11 5.145-1.146 6.328.52-2.63 2.113-2.711 2.851-4.839-.838-.393-.563-1.208-1.705-1.489z" fill="#e9d9bb"/><path d="m612.386 483.248c1.641-1.687.798-2.986 2.862-4.835-2.268-1.407-4.935 3.664-2.862 4.835z" fill="#e9d9bb"/><path d="m654.738 408.232c-1.57.545-2.024 3.036-.988 4.121.745-.233 3.675-3.662.988-4.121z" fill="#e9d9bb"/><path d="m596.729 510.625c-1.519.574-2.52 3.677-.319 4.409.711-1.702 1.977-3.61.319-4.409z" fill="#e9d9bb"/><path d="m589.713 497.755c1.169-1.321 1.854-2.871 1.265-4.767-.418 2.526-3.559 3.016-1.265 4.767z" fill="#e9d9bb"/><path d="m596.286 504.367c-1.391.197-4.375 1.067-2.038 2.909.483-.749 3.265-2.303 2.038-2.909z" fill="#e9d9bb"/><path d="m915.668 279.909c-.219.594-.407 1.115-.542 1.53.343-.791.505-1.264.542-1.53z" fill="#e9d9bb"/><path d="m374.272 612.532 170.15-73.455c1.469-3.19 2.805-6.533 3.925-10.6 1.19 1.15 1.67 2.586.331 4.686 4.982-.544 4.345-8.224 6.81-12.223.526-.86 2.562-.883 3.089-1.708.553-.87-1.47-2.05-1.433-2.132.74-1.746 3.269-7.471 5.55-7.468-.796 2.444-2.998 5.425-2.357 7.327 3.56-.56 5.19-5.74 9.247-5.122-3.197 4.006-3.433 3.78-4.621 7.113-1.881-.358-2.267-1.282-1.162-2.774-.783-.152-.993 1.077-1.874.707 2.955 6.533-4.631 11.771-8.283 18.213l16.043-6.926c.532-1.063.964-2.365 1.449-3.537-1.015-.715-1.452-.035-1.865.717 1.569-4.363 3.687-12.511 8.175-15.437.225-.796-.968-1.057-1.705-1.49 7.259-5.113 9.236-11.584 13.576-20.693.388.566.788 1.129 1.713 1.494 1.557-2.817 1.031-5.083 4.618-7.109-2.073 5.268-.155 9.12-3.674 15.858 4.156-.915 3.308-7.372 8.085-7.903-5.245 1.19-.977-3.281 1.646-3.839-1.07-3.366 1.953-4.992 1.314-8.526 1.882-.231 1.774 2.713 2.645 1.141.973 2.479-5.86 9.365-1.363 12.298-.914 2.701-.865-.499-2.924-.503-.759 2.253 2.214 3.097 2.603 4.91-.339-4.094 4.877-7.018 2.795-10.166 5.463-6.65 10.624-16.06 8.939-22.682 1.767 1.624 2.036-.317 3.193-.147.112-6.277 7.215-12.626 1.961-17.345.48-1.437 2.472.716 3.583.779.321 9.103-6.276 13.369-4.266 20.907 1.816.546 2.569-4.245 3.744-1.421 1.796-9.149 9.449-20.64 10.473-28.092 3.044.097-.955 2.863.891 3.416 2.069-10.032 11.47-19.102 8.879-28.011 2.365.345-.003 2.494 1.816 3.048.153-5.675 8.75-5.76 6.155-12.51 1.02-.586 2.309-.525 3.464-.783.796-2.823.361-7.357 2.249-8.884.727.434.055 1.403-.161 2.2.644.255.844-.565 1.209-.992 6.175 7.571 8.3-17.815 9.606-22.402.687-.804.549.315 1.317.572 1.203-2.686 2.254-5.368 3.272-8.053l-40.56 16.803c-.278.601-.4 1.207-.099 1.699-1.267.842-.085-2.068-2.251-.214.363.932.751 1.858 1.157 2.772-4.046 1.566-4.392 6.682-5.987 10.314-4.156-3.823 2.774-8.99 2.018-12.017-4.805.3-3.385 8.883-7.467 11.948-.597 2.844 2.866.833 3.42 2.979-1.434 1.561-4.192 3.747-2.465 5.762-1.836 1.004-1.694-3.249-.066-5.335-.654-.253-.855.57-1.22.996-.629-.287-.173-.996-.109-1.563-1.463.379-2.246 2.406-3.63 2.987 2.594-5.844 5.062-11.217 7.447-16.496l-267.734 110.918-347.981-148.768 4.705 94.572 355.268 170.059c2.118 1.014 4.571 1.062 6.727.131zm191.09-83.563c-1.48-.831.831-2.974 1.374-3.197.662.284 1.328.569 1.987.859-.324 2.68-2.915-.057-3.361 2.338zm100.997-155.156c1.424.712-.881 2.84-.986 4.128-.419-.648-.851-1.282-1.322-.567-1.221-.964 1.989-2.009 2.308-3.561zm-30.401 36.198c.192 2.445.792 6.917-2.249 8.883-.297-2.561 1.878-6.07 2.249-8.883zm-5.896 2.773c.587-.78 1.887.181 2.924.496-.967 1.591.106 6.75-3.521 4.551 1.36-1.843 4.539-3.363.597-5.047zm-10.411 33.415c1.765 2.495.349 3.012-.206 5.98-1.547 1.225 1.023-3.553-1.545-3.704.407-1.176 1.385-.999 1.751-2.276zm-4.302-37.471c.887.378 1.771.762 2.65 1.137-1.661-.986-4.483 2.568-1.485 1.638 1.776 1.897-2.041.973-2.036 2.912-.708-1.515-.191-3.494.871-5.687zm-4.536 52.624c.422.642.847 1.27 1.32.566.755 2.027-1.916.579-1.651 3.837-1.656-.798-.395-2.704.331-4.403zm-.603 5.045c-.127 2.234-1.746 4.098-3.022 7.041-.942-1.782 2.043-5.064 1.426-6.967.733.433 1.239.359 1.596-.074zm-5.048 9.958c-2.897-3.495.993-8.136 2.017-12.023.992 3.486-3.422 7.793-2.017 12.023zm-.733-45.796c.725.437 1.23.365 1.596-.073 1.01 3.097-1.438 5.161-3.679 6.759-.729-2.121 2.186-3.734 2.083-6.686zm-1.715 29.581c.915 1.447-1.524 5.775-2.751 6.399-.909-1.445 1.527-5.78 2.751-6.399zm-2.182-16.853c1.086 1.194.379 3.075-.598 5.047-.159-2.108-1.264-3.485.598-5.047zm-1.773 24.252c1.492.426 3.565 4.769.885 3.407.182-.421.366-.847.555-1.275-1.027-.724-1.466-.039-1.878.702-1.458-.833-.79-2.36.438-2.834zm-21.173 21.965c2.478.129-.385 2.292 2.093 2.422-.429 1.559-2.213-.119-2.802 1.067-1.969-1.544.181-1.335.709-3.489zm-1.64 3.841c2.421 1.935-1.44 3.143-2.197 5.12-1.201-1.29 2.124-2.569 2.197-5.12zm-3.302 7.68c.922 2.579-1.122 9.301-3.451 9.884-1.117-1.003-1.03-2.467-.61-4.048.612 3.378 4.94-4.372.983-4.13.53-1.771 2.789.604 3.078-1.706zm-1.677-14.367c1.172 2.306-2.714 3.428-1.803 6.047-3.706-1.66.954-3.95 1.803-6.047zm-4.789.22c-1.266.42-1.696 2.848-2.965 3.273-1.044-2.076.194-4.44 2.965-3.273zm-26.372 43.23c.665.285 1.327.57 1.99.854-1.707-.181-1.284 4.693-3.633 2.986.546-1.277 1.096-2.561 1.643-3.84z" fill="#f3ead9"/><path d="m823.661 399.765c1.299-3.174 3.537-6.701.378-8.175-1.191 2.378-3.527 6.268-.378 8.175z" fill="#e9d9bb"/><path d="m874.901 305.833c.952-1.244 3.377-3.455 1.261-4.766-.64 1.984-3.523 3.102-1.261 4.766z" fill="#e9d9bb"/><path d="m825.317 405.027c-3.799 7.251 3.71-1.359.435-2.841-.526 1.093-.704 2.05-.435 2.841z" fill="#e9d9bb"/><path d="m847.689 372.957c1.318-6.161 2.363-8.752 1.792-15.148-1.575 4.175-1.241 7.609-3.615 12.087 3.021.108.654 2.252 1.823 3.061z" fill="#e9d9bb"/><path d="m658.743 397.066c-1.031 3.428-4.539 7.798-2.798 10.167 1.528-3.854 2.005-4.907 5.164-8.391-.871-1.693-1.497-.074-2.366-1.776z" fill="#e9d9bb"/><path d="m586.862 502.593c.924-1.784 1.221-3.328.321-4.414-2.009.758-1.739 3.388-.321 4.414z" fill="#e9d9bb"/><path d="m854.993 291.969c1.01.865 4.219.902 3.699 2.343-2.501-.838-4.26-1.949-5.68-3.193-2.232 2.81.861 3.596-.218 5.969-.766-.498-.925-1.575-1.589.071-1.065 1.913 2.607-.804 1.703 1.495-2.638 2.65-7.023 5.41-4.774 9.311-1.843-.515-3.039.514-3.627 2.989 2.25.108 2.613.68 2.753 2.704-3.612 1.915-9.13 15.841-8.895 18.915-.39 1.644-2.85-1.649-2.805 1.066-.027 3.75 1.497 9.754-2.137 10.449.784-1.543 1.46-3.053.054-3.763-1.558 2.375-.932 3.923-1.808 6.045 2.629.122 4.007 3.409 1.544 3.691.379-1.032 1.048-2.175-.495-2.485-.441-.191-.883-.38-1.326-.566-3.297 4.03-1.21 10.386-5.533 16.561 2.72.458 3.5-3.728 6.55-2.483-5.797 9.666-7.839 15.898-8.331 26.736 1.841-4.168 3.564-6.625 5.557-7.47-1.598 4.4-4.312 6.122-5.985 10.311 1.92 2.006 1.325-1.999 2.795-1.067-1.371 1.957.107 2.817 1.556 3.701 1.407-.089 2.81-.203 3.351-2.351-3.675-2.617 2.561-8.498 2.135-10.45.517 1.949-.191 4.363-1.424 6.965 11.429-3.772 9.598-20.046 13.511-26.023-.365.557.163 1.476.114 1.566 2.013-4.494 3.704-7.375 1.301-8.532.914 1.006-2.463 2.625-3.237 3.915 1.961-4.53.03-4.761 1.858-9.816 4.944-3.349 12.086-14.257 8.506-19.84 2.155-2.201 6.055-9.562 4.437-14.007 4.967-3.034 2.619-14.312 8.735-16.708.837-1.388-1.606-1.532-1.16-2.779 2.723.406 1.744-4.689 2.083-6.679 1.427.403 2.052-1.142 3.073-1.709-.572-1.441-.423-2.722.022-3.978l-12.951 5.365c.178.052.36.089.543.106-.99 1.956-3.359.609-3.905 3.625zm-20.226 61.79c.694.441.094.8-.277.639.416 1.093 1.388 1.975-.046 3.764-1.418-1.023-1.686-3.651.323-4.403zm-2.453 14.858c-.513-1.428 3.39-5.324 2.629-7.962 2.503 1.27-1.494 7.011-2.629 7.962zm10.719-46.925c1.247 1.667 2.921 3.177 1.387 5.905-.819-1.833-2.117-3.488-1.387-5.905zm.74 14.717c-.512-.36-.733-.018-.933.358-1.036-1.091-.587-3.578.977-4.126 1.289.764-.398 2.653.893 3.412-.115.6-.519.491-.937.356zm2.305-3.556c-.688.828-.733-.614-1.986-.856.809-1.106.538-2.506-.107-1.56.933-3.574 2.97-3.413 3.581.778-.209.69-3.408.07-1.488 1.638zm4.474-26.873c-.66-.284-1.322-.567-1.985-.858.428-1.572 1.163-2.41 2.031-2.915.324 1.362 1.732 3.141-.046 3.773zm5.258 15.145c-1.026-1.937.472-4.824 1.695-7.61 1.048-.186-.661 5.229-1.695 7.61zm7.288-27.948c.427-.703 1.432-.023 2.259.217-.318 2.286-1.898 1.528-2.696 2.629-2.253-1.17 2.405-2.318.437-2.846z" fill="#e9d9bb"/><path d="m912.332 265.875-3.249 1.346c-.109.499-.212 1.042-.306 1.637 2.101-.233 2.86-1.473 3.555-2.983z" fill="#e9d9bb"/><path d="m575.258 515.035c-1.206.472-1.856 1.994-1.371 3.198 2.832 1.604 3.61-2.412 1.371-3.198z" fill="#e9d9bb"/><path d="m913.333 265.515c-1.143 3.598 6.285.754 3.538 4.552-.634-.297-.176-1.004-.109-1.564-.823.203-1.505.729-2.15 1.353 3.018 2.622.4 5.929-1.749 11.371 1.015.022 2.952-2.384 2.804-1.318 1.491-4.036 4.526-11.574 3.785-14.038 1.105-.844 2.026-2.313 2.721-4.074l-2.113.875c-.526 1.379-1.129 2.789-1.819 4.19-1.968-1.534.189-1.325.717-3.479-.099-.059-.177-.093-.268-.143l-3.054 1.265c-.342.775-.848 1.418-2.303 1.01z" fill="#e9d9bb"/><path d="m1040.49 246.668c.415-.25.787-.504 1.1-.766l-.341-2.61c-.572 1.248-1.934 2.798-.759 3.376z" fill="#e9d9bb"/><path d="m1031.259 260.893c1.368.135 3.957-8.435 1.309-8.535.402 1.298-1.844 8.482-1.309 8.535z" fill="#e9d9bb"/><path d="m1031.723 276.25c-.359.851-.73 1.703-1.094 2.558 1.95 1.193 2.559-.803 3.744-1.415-1.777-.835-1.786.483-2.65-1.143z" fill="#e9d9bb"/><path d="m1020.607 282.082c.367-.432.879-.507 1.599-.072-.265.813-.45 1.606.776 1.85 1.778-2.657-3.744-4.949-2.375-1.778z" fill="#e9d9bb"/><path d="m1020.005 287.126c1.265 3.432-3.952.273-2.295 3.561 1.156-1.699.604 1.426 1.705 1.49.458-2.328 1.807-.445 2.261.212-.34-1.835.078-3.957-1.671-5.263z" fill="#e9d9bb"/><path d="m1024.109 299.501c1.103-2.148 6.528-6.204 3.842-8.959.12 4.363-4.351 4.347-3.842 8.959z" fill="#e9d9bb"/><path d="m1043.75 323.106c-.032.147-.046.291-.069.436l1.349-.582c-.527-.193-1.016-.289-1.28.146z" fill="#e9d9bb"/><path d="m1013.778 316.281c-2.376.892-.391 4.165-3.235 3.913 2.235 3.724 3.911-1.759 3.235-3.913z" fill="#e9d9bb"/><path d="m1012.081 323.892c-1.284 2.709-4.109 4.853-1.42 6.969-.238-1.721 2.961-7.515 1.42-6.969z" fill="#e9d9bb"/><path d="m1000.921 333.49c3.324-1.573 8.493-5.594 8.906-9.808-2.655 4.145-9.246 6.303-8.906 9.808z" fill="#e9d9bb"/><path d="m1016.386 330.29c-1.077 1.293-2.926.769-4.005 2.062 2.221.43 1.46.101 3.299 1.421.041-1.08 2.192-2.973.706-3.483z" fill="#e9d9bb"/><path d="m862.66 296.023c.798-1.102 2.379-.344 2.696-2.629-.827-.24-1.832-.92-2.259-.217 1.969.528-2.689 1.676-.437 2.846z" fill="#e9d9bb"/><path d="m848.567 305.122c.663.291 1.325.574 1.985.858 1.778-.631.37-2.411.046-3.773-.868.505-1.603 1.343-2.031 2.915z" fill="#e9d9bb"/><path d="m857.504 313.514c-1.222 2.787-2.721 5.673-1.695 7.61 1.035-2.38 2.744-7.795 1.695-7.61z" fill="#e9d9bb"/><path d="m843.033 321.692c-.73 2.417.568 4.072 1.387 5.905 1.534-2.728-.14-4.238-1.387-5.905z" fill="#e9d9bb"/><path d="m843.817 332.641c-1.564.548-2.014 3.035-.977 4.126.2-.376.421-.718.933-.358.418.135.822.244.937-.357-1.291-.757.396-2.647-.893-3.411z" fill="#e9d9bb"/><path d="m834.943 360.655c.761 2.638-3.141 6.534-2.629 7.962 1.135-.951 5.132-6.692 2.629-7.962z" fill="#e9d9bb"/><path d="m616.514 411.503c-2.998.93-.176-2.625 1.485-1.638-.879-.375-1.763-.759-2.65-1.137-1.063 2.194-1.58 4.172-.872 5.688-.004-1.94 3.813-1.016 2.037-2.913z" fill="#e9d9bb"/><path d="m600.532 443.287c-1.862 1.562-.758 2.939-.598 5.047.977-1.972 1.685-3.853.598-5.047z" fill="#e9d9bb"/><path d="m610.481 465.755c-.265-3.258 2.406-1.81 1.651-3.837-.473.704-.898.076-1.32-.566-.725 1.699-1.986 3.605-.331 4.403z" fill="#e9d9bb"/><path d="m599.964 466.539c1.227-.624 3.666-4.952 2.751-6.399-1.225.619-3.661 4.954-2.751 6.399z" fill="#e9d9bb"/><path d="m607.188 473.438c1.276-2.943 2.895-4.807 3.022-7.041-.358.433-.863.507-1.596.073.617 1.904-2.368 5.186-1.426 6.968z" fill="#e9d9bb"/><path d="m569.164 492.705c-.911-2.618 2.975-3.74 1.803-6.047-.849 2.097-5.509 4.387-1.803 6.047z" fill="#e9d9bb"/><path d="m576.878 492.992c.589-1.186 2.373.492 2.802-1.067-2.479-.129.385-2.293-2.093-2.422-.529 2.155-2.679 1.946-.709 3.489z" fill="#e9d9bb"/><path d="m566.178 486.878c-2.771-1.167-4.009 1.197-2.965 3.273 1.27-.425 1.699-2.853 2.965-3.273z" fill="#e9d9bb"/><path d="m569.565 502.731c3.958-.242-.371 7.508-.983 4.13-.42 1.581-.507 3.045.61 4.048 2.329-.583 4.373-7.305 3.451-9.884-.288 2.31-2.547-.065-3.078 1.706z" fill="#e9d9bb"/><path d="m565.362 528.969c.447-2.395 3.037.342 3.361-2.338-.66-.29-1.325-.575-1.987-.859-.543.222-2.855 2.366-1.374 3.197z" fill="#e9d9bb"/><path d="m541.796 530.962c-.663-.284-1.325-.569-1.99-.854-.547 1.279-1.097 2.563-1.643 3.84 2.35 1.707 1.926-3.167 3.633-2.986z" fill="#e9d9bb"/><path d="m668.509 372.466c-1.306 4.587-3.431 29.973-9.606 22.402-.365.427-.565 1.247-1.209.992.216-.797.888-1.766.161-2.2-1.888 1.526-1.453 6.061-2.249 8.884-1.156.258-2.444.197-3.464.783 2.595 6.75-6.002 6.836-6.155 12.51-1.819-.554.549-2.703-1.816-3.048 2.591 8.909-6.81 17.979-8.879 28.011-1.846-.553 2.154-3.319-.891-3.416-1.023 7.452-8.677 18.944-10.473 28.092-1.175-2.824-1.928 1.968-3.744 1.421-2.01-7.538 4.587-11.804 4.266-20.907-1.111-.063-3.103-2.216-3.583-.779 5.254 4.719-1.849 11.068-1.961 17.345-1.156-.17-1.425 1.771-3.193.147 1.685 6.622-3.476 16.033-8.939 22.682 2.082 3.149-3.134 6.072-2.795 10.166-.388-1.813-3.361-2.657-2.603-4.91 2.059.003 2.01 3.203 2.924.503-4.497-2.933 2.337-9.819 1.363-12.298-.871 1.572-.763-1.372-2.645-1.141.639 3.534-2.385 5.16-1.314 8.526-2.623.558-6.891 5.029-1.646 3.839-4.776.53-3.929 6.988-8.085 7.903 3.519-6.738 1.6-10.59 3.674-15.858-3.588 2.026-3.062 4.292-4.618 7.109-.925-.365-1.324-.928-1.713-1.494-4.34 9.108-6.317 15.58-13.576 20.693.737.433 1.93.693 1.705 1.49-4.488 2.926-6.606 11.074-8.175 15.437.414-.752.85-1.432 1.865-.717-.485 1.172-.917 2.474-1.449 3.537l23.087-9.967c.026-.785.137-1.601-.771-2.031.439-.672.815-.069.663.285 1.664.937 1.589-2.256 3.464-.783-.316.485-.342.86-.295 1.208l399.539-172.485c-.142-.49-.204-.969-.171-1.229 3.014 1.362 4.994-5.58.711-3.488 1.092-2.659 2.996-2.454 4.015-2.063-.56-2.647-.889-5.377-2.157-7.746 1.618.787 1.544 2.107 2.925.494-.235-1.934-1.156-.968-1.443-2.133.364-.439.88-.509 1.599-.072-3.748-4.361 5.556-6.757 3.848-8.956-.409.748-.854 1.427-1.874.709 1.547-2.781 2.946-5.898 5.659-5.906-2.547-2.242 2.03-1.724 2.582-4.189-4.004-2.793.198-13.832 3.343-11.449-.719-2.88-2.208-5.098 1.423-6.968-3.135-2.311-2.676 3.967-4.844 3.977-.849-2.528 3.178-6.916 2.52-9.526 2.522-.801 4.297-1.416 6.393-.284.292-1.9-1.612-2.967-1.943-4.621-.424.71-.667 1.862-1.479 1.634-1.443-3.366 1.748-7.859 5.666-5.9-1.312 1.287 2.062 3.395 2.096 2.416-2.428-2.118-.025-6.065-1.886-8.388-2.203 2.441 1.09 2.792-.6 5.046-2.421-.078-2.434-1.798-4.515-.426 2.038-3.719 2.645-5.577 2.908-8.607 1.305.578.085 2.112 2.093 2.422 1.721-2.079-1.692-2.22-1.547-3.698 1.277-.844 2.21-2.49 4.016-2.064-1.242-6.889 2.302-9.94 5.154-17.491-2.526-2.159-1.654 3.829-3.635 2.991-.532-8.676 3.392-15.815 3.378-24.322.873.552.662 1.532 1.441 2.129-1.324-5.15 3.229-6.508.64-8.819.57-.631 1.134-1.356 1.695-2.144l-111.211 46.073c-.695 1.761-1.616 3.23-2.721 4.074.741 2.464-2.294 10.002-3.785 14.038-.037.266-.198.739-.542 1.53.136-.415.323-.936.542-1.53.148-1.065-1.788 1.34-2.804 1.318 2.149-5.442 4.767-8.749 1.749-11.371.645-.624 1.327-1.15 2.15-1.353-.067.56-.526 1.267.109 1.564 2.748-3.798-4.68-.954-3.538-4.552 1.455.408 1.96-.236 2.303-1.009l-3.304 1.369c-.695 1.51-1.454 2.75-3.555 2.983.094-.595.197-1.137.306-1.637l-16.312 6.758c-3.531 5.802-8.418 11.185-10.351 16.136.511-4.785 1.328-9.083 2.624-12.935l-13.736 5.691c-.446 1.256-.595 2.537-.022 3.978-1.021.567-1.646 2.113-3.073 1.709-.339 1.99.64 7.085-2.083 6.679-.447 1.246 1.996 1.391 1.16 2.779-6.116 2.396-3.768 13.674-8.735 16.708 1.618 4.444-2.282 11.805-4.437 14.007 3.579 5.583-3.562 16.491-8.506 19.84-1.828 5.055.104 5.286-1.858 9.816.774-1.29 4.151-2.91 3.237-3.915 2.403 1.157.711 4.038-1.301 8.532.049-.09-.479-1.009-.114-1.566-3.913 5.977-2.082 22.251-13.511 26.023 1.233-2.602 1.941-5.016 1.424-6.965.426 1.951-5.81 7.833-2.135 10.45-.541 2.148-1.944 2.262-3.351 2.351-1.449-.885-2.926-1.745-1.556-3.701-1.47-.932-.875 3.072-2.795 1.067 1.674-4.189 4.387-5.91 5.985-10.311-1.993.846-3.716 3.302-5.557 7.47.491-10.838 2.534-17.069 8.331-26.736-3.05-1.245-3.83 2.941-6.55 2.483 4.323-6.175 2.236-12.531 5.533-16.561.443.186.885.375 1.326.566 1.543.31.874 1.453.495 2.485 2.463-.282 1.085-3.569-1.544-3.691.876-2.122.25-3.669 1.808-6.045 1.406.71.729 2.22-.054 3.763 3.634-.695 2.11-6.698 2.137-10.449-.046-2.715 2.415.579 2.805-1.066-.236-3.073 5.283-16.999 8.895-18.915-.14-2.025-.503-2.597-2.753-2.704.588-2.475 1.784-3.504 3.627-2.989-2.249-3.901 2.136-6.661 4.774-9.311.905-2.299-2.768.418-1.703-1.495.664-1.646.823-.569 1.589-.071 1.079-2.373-2.014-3.158.218-5.969 1.42 1.245 3.179 2.355 5.68 3.193.52-1.44-2.689-1.478-3.699-2.343.545-3.015 2.914-1.669 3.907-3.627-.183-.017-.365-.054-.543-.106l-185.259 76.749c-1.018 2.685-2.069 5.367-3.272 8.053-.769-.257-.631-1.376-1.319-.572zm-94.622 145.767c-.485-1.204.165-2.726 1.371-3.198 2.239.786 1.461 4.802-1.371 3.198zm12.975-15.64c-1.418-1.026-1.688-3.656.321-4.414.9 1.087.604 2.63-.321 4.414zm2.851-4.838c-2.294-1.751.847-2.241 1.265-4.767.589 1.896-.095 3.446-1.265 4.767zm4.535 9.521c-2.337-1.842.647-2.712 2.038-2.909 1.227.606-1.555 2.16-2.038 2.909zm2.162 7.758c-2.201-.732-1.2-3.835.319-4.409 1.658.799.392 2.707-.319 4.409zm15.976-31.786c-2.073-1.171.593-6.242 2.862-4.835-2.064 1.848-1.221 3.148-2.862 4.835zm5.721-9.67c-1.964-1.184-.498-5.439 1.146-6.328 1.142.281.867 1.096 1.705 1.49-.738 2.127-2.331 2.208-2.851 4.838zm35.642-61.225c-1.036-1.085-.582-3.576.988-4.121 2.688.459-.242 3.888-.988 4.121zm2.197-5.12c-1.741-2.369 1.767-6.74 2.798-10.167.869 1.702 1.495.083 2.366 1.777-3.159 3.484-3.637 4.536-5.164 8.39zm220.217-106.165c2.116 1.311-.309 3.522-1.261 4.766-2.263-1.665.62-2.783 1.261-4.766zm-26.681 56.742c.57 6.396-.474 8.986-1.792 15.148-1.169-.809 1.198-2.953-1.823-3.061 2.374-4.479 2.04-7.913 3.615-12.087zm-23.731 44.376c3.275 1.482-4.234 10.093-.435 2.841-.268-.791-.09-1.748.435-2.841zm-1.713-10.596c3.159 1.474.922 5.001-.378 8.175-3.148-1.907-.812-5.797.378-8.175z" fill="#e9d9bb"/><path d="m1042.755 287.059c-1.199 2.709-3.952 13.152-7.12 13.577 1.269.538 2.311 1.163 1.867 2.354-.271 1.946-1.868.722-2.425 1.987 3.205 2.777-3.41 12.437-5.26 15.923.362-.427.874-.496 1.597-.067-1.763.639.104 6.491-3.291 7.678.806-1.377.87-2.473-.225-3.125-3.01 1.367.357 2.829.204 4.881l9.481-4.093c.128-.825.001-1.555-.489-2.145.463-.618 1.501.138 1.868-.703-.046.438-.12 1.305-.201 2.34l.997-.43c.57-2.275 2.256-4.403 3.227-3.975-.751-3.105-1.244-6.312-1.34-9.665.835.752 1.259 1.662 2.101 2.412 2.208-4.387 3.61-8.705 5.021-13.111l-1.97-15.101c-.824 3.638-2.451 7.561-3.634 11.286-2.688-2.371 2.38-7.688-.408-10.023z" fill="#e9d9bb"/><path d="m561.928 516.882c.881.37 1.091-.859 1.874-.707-1.105 1.492-.719 2.416 1.162 2.774 1.188-3.333 1.424-3.107 4.621-7.113-4.057-.618-5.687 4.562-9.247 5.122-.641-1.901 1.56-4.883 2.357-7.327-2.281-.003-4.81 5.722-5.55 7.468-.037.083 1.987 1.262 1.433 2.132-.527.825-2.563.848-3.089 1.708-2.466 3.999-1.829 11.679-6.81 12.223 1.339-2.101.859-3.536-.331-4.686-1.12 4.067-2.457 7.41-3.925 10.6l9.223-3.982c3.651-6.441 11.237-11.679 8.282-18.212z" fill="#e9d9bb"/><path d="m1035.635 300.637c-.51-.216-1.055-.419-1.557-.638.527.524 1.047.706 1.557.638z" fill="#e9d9bb"/><path d="m1026.524 328.584c-.211.851-.521 1.778-.885 2.746l1.339-.578c-.208-.7.431-1.722-.454-2.168z" fill="#e9d9bb"/><path d="m918.242 266.863c.691-1.4 1.294-2.811 1.819-4.19l-1.37.568c.092.051.17.084.268.143-.528 2.154-2.685 1.945-.717 3.479z" fill="#e9d9bb"/><path d="m1040.946 252.932c1.902 1.659-3.423 4.757-4.067 5.828.216-.797.891-1.768.164-2.208-.434 1.134-1.003 1.932-1.763 2.281 1.365.909 1.525 2.278 2.478 3.333-1.413 1.112-3.112 2.003-1.64 3.848 2.51-1.527 3.644-4.167 3.014-7.039 1.021.508-.175 1.853 1.438 2.135 2.3-2.484-2.235-2.37-1.268-4.343 1.496.229 2.11-1.365 2.916.498.216-.507.437-1.016.655-1.524l-.356-2.726c-.329-.809-.186-1.489-1.571-.083z" fill="#e9d9bb"/><path d="m1030.68 275.045c2.243.805 3.186-4.003 3.852.136.372-.852.733-1.708 1.106-2.563-1.694-.625-2.605.333-2.376-1.769 1.229.346 1.981-.453 2.416-1.998-3.69.092-2.689 3.999-4.998 6.194z" fill="#e9d9bb"/><path d="m1031.019 279.735c-1.524.571-.555 2.93-2.197 5.119-1.249-.236-1.296-1.679-1.982-.85 1.675 3.047 4.037-.899 5.612-2.137-.876-.56-.664-1.533-1.433-2.132z" fill="#e9d9bb"/><path d="m1013.603 309.383c.566-3.816 1.776-5.199 3.455-9.88-1.61-.82-2.221.744-3.467.788 1.944 1.119.494 7.138-2.089 6.67.219-.79.9-1.758.169-2.197-.274.641-.546 1.283-.826 1.914 1.233 1.386 1.827.627 2.758 2.705z" fill="#e9d9bb"/><path d="m1025.091 326.45c.474-3.839 3.231-5.171 3.29-7.675-2.036 2.08-4.193 4.845-3.29 7.675z" fill="#e9d9bb"/><path d="m1016.94 329.01c-.441-.191-.884-.377-1.32-.566 1.582-1.397 2.571-4.213 4.456-4.909-2.82-1.796-6.728 7.282-3.136 5.475z" fill="#e9d9bb"/><path d="m1010.617 334.629c-2.656-.463-4.693.574-4.357-2.628-1.193 1.03-2.437 1.944-3.633 2.98 1.924 2.011 1.332-1.999 2.813-1.056.347 1.912 1.191 1.663 3.024 2.056-.868.505-1.598 1.339-2.031 2.915-.662-.284-1.325-.569-1.982-.851-.195 1.193-.291 1.991-.404 2.607l4.314-1.863c-.004-.179-.018-.376-.053-.606.254.102.463.221.649.349l.923-.398c-.198-.068-.406-.16-.636-.306.611-1.622-.393-2.512 1.373-3.199z" fill="#e9d9bb"/><path d="m1013.147 334.203c-.475.99-.833 2.261-1.368 3.111l1.64-.708c.557-.772.678-1.586-.272-2.403z" fill="#e9d9bb"/><path d="m843.985 330.438c.645-.946.917.454.107 1.56 1.253.241 1.297 1.683 1.986.856-1.92-1.568 1.279-.949 1.488-1.637-.61-4.192-2.647-4.353-3.581-.779z" fill="#e9d9bb"/><path d="m834.444 358.163c1.434-1.789.462-2.672.046-3.764.371.161.972-.198.277-.639-2.009.751-1.741 3.379-.323 4.403z" fill="#e9d9bb"/><path d="m619.468 399.13c-.064.567-.52 1.276.109 1.563.365-.426.566-1.249 1.22-.996-1.628 2.086-1.77 6.338.066 5.335-1.727-2.015 1.031-4.201 2.465-5.762-.554-2.145-4.016-.135-3.42-2.979 4.082-3.064 2.661-11.648 7.467-11.948.756 3.027-6.174 8.193-2.018 12.017 1.594-3.632 1.941-8.748 5.987-10.314-.406-.914-.794-1.84-1.157-2.772 2.167-1.854.985 1.056 2.251.214-.3-.491-.178-1.098.099-1.699l-9.253 3.833c-2.385 5.279-4.853 10.652-7.447 16.496 1.385-.583 2.168-2.61 3.631-2.988z" fill="#e9d9bb"/><path d="m665.373 377.941c.105-1.288 2.41-3.416.986-4.128-.32 1.552-3.53 2.598-2.308 3.561.471-.714.903-.08 1.322.567z" fill="#e9d9bb"/><path d="m635.958 410.011c-.371 2.814-2.546 6.322-2.249 8.883 3.042-1.966 2.442-6.438 2.249-8.883z" fill="#e9d9bb"/><path d="m629.464 417.831c3.628 2.199 2.555-2.96 3.521-4.551-1.037-.316-2.337-1.276-2.924-.496 3.943 1.684.764 3.204-.597 5.047z" fill="#e9d9bb"/><path d="m606.025 430.486c-.366.438-.871.51-1.596.073.103 2.952-2.812 4.565-2.083 6.685 2.241-1.597 4.69-3.661 3.679-6.758z" fill="#e9d9bb"/><path d="m619.444 452.179c.555-2.968 1.972-3.485.206-5.98-.366 1.277-1.343 1.1-1.751 2.276 2.568.152-.002 4.93 1.545 3.704z" fill="#e9d9bb"/><path d="m605.162 476.355c-1.405-4.23 3.008-8.537 2.017-12.023-1.024 3.887-4.913 8.528-2.017 12.023z" fill="#e9d9bb"/><path d="m598.321 470.373c.412-.741.85-1.426 1.878-.702-.189.428-.373.854-.555 1.275 2.681 1.362.607-2.982-.885-3.407-1.228.474-1.896 2.001-.438 2.834z" fill="#e9d9bb"/><path d="m575.946 493.345c-.073 2.55-3.398 3.83-2.197 5.12.757-1.977 4.618-3.185 2.197-5.12z" fill="#e9d9bb"/><path d="m1024.1 330.578c.802-1.556-.809-2.194-.885-3.414-.281 1.911-1.9.652-2.802 1.068-.16 1.873-3.375 4.909-1.665 6.074l.814-.352c1.058-2.218 1.921-4.894 4.538-3.376z" fill="#e9d9bb"/><path d="m1056.461 222.903-681.045 302.145c-5.671 2.516-12.169 2.373-17.724-.39l-356.249-177.715c-2.03-1.01-1.886-3.952.232-4.76l656.399-253.865 398.132 129.623c2.319.756 2.484 3.973.255 4.962z" fill="#fdc93a"/><path d="m1130.689 288.013-372.723-177.524c-1.419-.676-3.027-.845-4.556-.48l-632.438 151.09c-4.542 1.085-8.822-2.574-8.456-7.23l7.037-89.45c.352-4.479-3.615-8.088-8.041-7.315l-43.941 7.675c-3.292.575-5.695 3.434-5.695 6.776v96.514c0 4.468 2.225 8.643 5.935 11.134l333.953 224.254c4.958 3.329 11.143 4.275 16.869 2.58l711.474-210.62c3.496-1.036 3.873-5.836.582-7.404z" fill="#f36a8d"/><path d="m402.978 365.647-333.176-196.893-.203 98.74 330.279 214.595c1.969 1.279 4.395 1.644 6.653 1l709.145-202.225v-107.109z" fill="#f3ead9"/><path d="m779.758 363.827c-3.571 1.534-8.062 2.93-7.243 5.105 2.82-1.065 7.686-2.656 7.243-5.105z" fill="#e9d9bb"/><path d="m697.076 294.857c2.38-.747 2.739-1.791 3.066-2.844-1.456-.221-3.254 1.615-3.066 2.844z" fill="#e9d9bb"/><path d="m701.253 292.588c1.051-.272 1.666.047 3.108-.773-1.181-2.647 5.831-2.373 6.32-5.244-3.706 1.817-8.523 3.256-10.735 5.003 3.15-1.674 2.343.09 1.307 1.014z" fill="#e9d9bb"/><path d="m691.897 292.858c3.016-1.255 6.424-4.007 9.468-3.957-2.848-1.868-8.254 2.741-9.468 3.957z" fill="#e9d9bb"/><path d="m741.001 371.706c-6.139 3.446-9.043 4.704-14.139 9.034 4.609-2.07 7.327-4.406 12.721-6.359-1.897-1.243 1.495-1.701 1.418-2.675z" fill="#e9d9bb"/><path d="m687.575 296.749c1.698-.244 3.529-.669 4.94-.507-1.817-1.089 2.357-1.295 1.605-2.233-1.141-.12-6.122 1.512-6.545 2.74z" fill="#e9d9bb"/><path d="m690.782 292.283c-.967 1.568-7.151 1.471-6.894 3.926 2.833-1.986 5.986-1.516 6.894-3.926z" fill="#e9d9bb"/><path d="m492.069 342.068c.294.476.463.594.585.516-.245-.141-.455-.305-.585-.516z" fill="#e9d9bb"/><path d="m475.661 347.886c.825-.489.29-1.178.042-1.82l-2.183.588c-.288.168-.57.305-.807.38.982.284 1.404 1.354 2.948.852z" fill="#e9d9bb"/><path d="m649.498 302.261c-1.331-.441-3.01 1.856-5.289 1.693-.457 2.099 6.439-.265 5.289-1.693z" fill="#e9d9bb"/><path d="m634.495 303.312-.179.048c.049-.003.104-.016.151-.016.01-.01.018-.021.028-.032z" fill="#e9d9bb"/><path d="m572.58 329.216c.962-.398.998.492 1.832.275.335-1.05 1.858-1.928 3.989-2.705-.297-.592-.081-1.112.156-1.629-2.219 1.55-5.061 3.463-5.977 4.059z" fill="#e9d9bb"/><path d="m783.169 359.803c8.706-3.181-3.606-.569-2.717 1.656 1.282-.498 2.218-1.044 2.717-1.656z" fill="#e9d9bb"/><path d="m459.403 379.657c.554.068 3.908-.416 3.644-1.525-1.317-.05-3.744-.262-3.644 1.525z" fill="#e9d9bb"/><path d="m609.121 422.683c-5.757-1.229-7.053 3.645-14.412 4.46-.124-.287-.251-.582-.38-.881.21-1.036.897-.062 1.105.584 4.181-2.659 9.528-5.139 15.254-8.459-2.12-1.493-8.067 1.877-11.111 4.122 0-.681.978-1.227.874-1.925-3.669.969-1.982 2.728-5.246 3.757.503-1.85 2.526-3.472 5.59-4.941-4.714-.03-6.827 4.883-13.446 6.663-1.73-1.455-5.182.15-7.857 1.722-1.573-3.421 4.624-2.694 6.555-2.74 3.806-2.524 6.24-2.696 10.729-5.006.784-.427.21-.61-.193-.441 6.598-2.924 5.778.889 15.133-4.768-3.005-1.267-5.927 1.675-10.228 2.202-.998-.271-1.42-1.326-2.424-1.594-3.538.882-7.741 5.089-10.923 4.567 3.191-1.872 9.021-5.047 15.636-7.573-.016 1.75-1.258.778-3.448 1.956.634 3.38 3.975-1.293 5.528.818 3.831-1.867-3.494-2.928 1.565-4.3.164.437-.743.714-1.266 1.047.715.19 1.615.117 2.573-.033.255-2.858 4.808-3.965 10.879-6.625-.65-.409-3.984.384-2.974-.243-4.435 2.013-12.882 5.676-14.502 7.547-4.411.343-12.622 5.009-15.985 8.759-6.802 3.477-17.727 8.175-27.621 13.635-13.364 4.401-27.256 10.335-41.424 16.567l82.49-23.524c.465-.571.754-1.144.794-1.699 3.04.14 5.343-2.566 8.735-3.654zm-29.593 7.17c2.282-.901 1.468-2.255 4.71-3.012.895 1.208-8.242 5.256-4.71 3.012zm5.482-1.252c1.073-1.898 5.218-2.107 7.284-3.045-.873 1.62-4.562 1.194-7.284 3.045z" fill="#f3ead9"/><path d="m613.917 423.799c-3.593-.292 2.157-2.675.837-3.993-3.697 1.782-6.824 4.332-10.05 6.771l32.667-9.316c3.216-1.685 6.487-3.631 9.888-5.838-9.079 4.003-24.442 5.634-33.342 12.376z" fill="#e9d9bb"/><path d="m481.576 349.573c-1.95-1.383 4.082-1.59 2.139-2.975-1.755.563-2.769 1.241-3.447 1.96.339.474.42 1.304 1.308 1.015z" fill="#e9d9bb"/><path d="m740.906 385.274c12.087-3.956 18.763-7.165 28.358-13.937-4.778 1.962-8.014 2.87-10.05 2.638 4.817-2.206 8.077-2.256 12.762-4.297.451-2.035-2.582.769-2.753-.402 2.577-.724 2.339-1.851 2.142-2.983-1.003-.49-2.024-.962-4.219.207.181 3.11-8.957 4.464-10.345 5.883 1.327-1.453 3.858-2.728 6.896-3.92-10.754-2.021-23.47 9.146-31.16 11.465.717-.216 1.155-1.012 1.265-1.05-5.17 2.104-8.748 3.298-8.156 4.975.259-1.001 3.868-.729 5.481-1.257-5.167 2.148-4.093 3.047-9.621 5.584-6.121.229-20.156 4.46-22.575 9.438-2.881.503-9.995 3.013-13.581 5.959l5.736-1.636c.074-.031.154-.066.224-.095-.008.013-.019.026-.027.039l55.722-15.89c-1.627-.801-5.222 1.125-6.099-.721zm-7.82 3.791c-.08-.554.622-.55.73-.303.661-.864.776-1.809 3.25-2.401.059 1.21-2.013 3.002-3.98 2.704zm14.327-8.592c-.884 1.117-6.787 2.102-8.542 4.093-.563-1.789 6.981-3.924 8.542-4.093z" fill="#f3ead9"/><path d="m616.633 405.051c.653-.296 1.222-.558 1.666-.772-.903.374-1.414.615-1.666.772z" fill="#e9d9bb"/><path d="m438.666 444.518c1.54-.935-1.185-.313.151-1.624 2.861.197 4.863-2.604 7.476-2.607-3.075-1.437-7.933 1.909-11.306 3.693-3.352 1.765-9.52 2.901-13.299 5.04-5.901 3.332-17.907 7.283-27.676 11.565-3.814-1.773-8.147 2.627-12.223 3.552.468-2.242 9.573-5.022 12.185-5.622 1.581-2.352 3.365-3.985 7.394-6.727.193.442.387.882.579 1.322.635-.87 2.355-1.575 4.173-2.27-.254-.829-1.292-.551-1.5-1.454 2.988 1.327 7.465-2.838 9.814-5.142 2.418-.501-.329 1.526.042 2.062 2.615-1.21 2.526-1.77 5.098-2.13 1.762-.798-.489-1.515-1.308-1.015 2.102-1.309 4.343-1 7.092-3.482.019-1.897-3.981 1.224-2.229-1.149-5.437 1.893-9.951 2.507-14.798 3.582.333-1.466 10.745-3.231 11.267-5.748-5.409.323-12.062 3.573-17.128 6.12.467-1.58 2.512-2.927 5.974-4.066-.205-.418-1.039.039-1.654.171-.101-.564 1.169-.92 2-1.349-6.65 2.814-9.432 2.232-16.785 4.936-.135-3.825-7.792 2.801-9.169.713 13.946-4.167 17.848-10.724 30.198-13.667.768-.507 1.509-1.549.345-1.189 1.811-2.469 9.693-3.534 11.803-6.493 5.296 1.578 11.4-4.177 16.942-6.561 10.663-1.441 33.456-12.861 45.031-15.186.273-2.491 4.432-1.593 7.966-5.417.002.687-.975 1.234-.873 1.928 7.268-5.47 15.959-8.531 23.031-14.312-.588-1.308-5.136 2.877-4.952.508 8.338-3.742 13.282-4.325 18.357-9.233.824.976 2.847.281 4.41.236 1.359-.893-.767-2.311 2.144-2.977 1.058.98-1.058 1.491-.693 2.37 2.765-1.845 4.755-2.802 9.278-4.399-2.544.072-1.081-1.038-2.609-2.029-3.041.791-1.173 2.297-4.712 3.008.762-2.217 5.721-3.818 5.934-6.123.859-.616 1.278 2.05-.687 2.367.904 2.782 6.85 1.136 8.779-1.587-.34-.462-1.486.183-2.373.475 1.197-1.191.856-2.617 2.673-3.724.413 1.542 2.107 1.837 4.454 2.303 1.8-1.932 8.205-3.186 9.809-5.14-1.436-.837-6.505 3.375-6.592.672 3.99.21 4.908-1.794 6.898-3.923.032 2.753 12.243-2.704 11.995-6.055 2.473-1.369 5.043.744 5.284-1.687 1.794 1.05 5.381-.409 8.779-1.594-.057-.858-.932-.595-1.841-.273.757-2.077 8.933.001 10.196-4.258.1.561.5.716 1.115.575.808-.861-.625-.598.875-1.932 2.29-.5 1.111.319 1.504 1.454 1.191-2.015 3.31-3.897 5.206-5.815.337.647 1.416 1.519 4.409.236-4.61-.321 2.632-4.011 3.452-1.964.779-.49 2.827-2.791.681-2.365.859-.394 6.204.368 7.285-3.043 5.528.24 13.051-4.808 13.066-7.547-.102-.931 3.732-1.498 4.561-1.384 1.969-.666-.175-1.947 2.338-2.537-4.585.848-9.765 3.287-15.49 5.953.791 1.5 4.694-1.331 5.332.372-4.222 1.025-1.555 3.064-5.969 4.06-.118-.563 1.162-.928 1.987-1.355-3.032-1.673-7.916-.789-13.381.915 2.34-2.515 7.732-3.223 9.851-3.078 2.271-3.366 12.969-5.502 10.45-9.578 5.093-.029 6.265-3.862 9.238-6.457 3.965.607-3.087 3.091-3.212 4.462 1.844 1.736 3.588-3.402 6.55-2.736 2.143-1.739-2.897-.439-.967-2.205 6.656-2.509 16.603-4.278 22.046-8.693-.49-.503-1.987.4-3.108.78 1.721-1.616 1.452-1.253 1.416-2.672.499.39 3.759-.971 1.456-.614 1.387-1.484 6.339-.307 8.395-2.464-.235.513-.449 1.026-.152 1.62.966-.404 1.939-.81 2.907-1.215-.483-.259-.979-.521-1.832-.268 7.531-2.414 15.911-6.237 24.005-9.328l-32.751 8.818c-5.303 2.706-10.559 5.402-14.445 6.559-4.125 1.23-11.854 7.372-14.566 6.092-13.865 5.064-24.382 10.475-35.681 14.912.006-.684.986-1.224.882-1.924-.293-1.011-2.672.879-3.832 1.079-.28 1.799 2.504-.646 2.224 1.153-5.079 3.128-16.489 6.72-22.381 9.878-.277-.866 2.275-1.31 1.608-2.234-3.521.961-1.565 4.095-5.248 3.754-.163-.844.816-1.524 2.525-2.095-3.25-.558-7.028 3.928-8.735 3.653.109.556.505.712 1.109.578-4.201 1.52-16.821 5.154-17.086 8.184-1.45.596-1.453-.811-3.297.334-1.312.593-1.16 1.399-.784 2.238.394.154.581.473.479 1.015-.143-.336-.328-.678-.479-1.015-2.45-.959-13.197 4.68-16.304 5.954.162-2.584 8.048-4.029 8.306-6.597-6.62 3.227-14.547 6.327-17.971 10.114-14.656 1.955-29.194 14.022-44.273 16.948-2.369 1.702-5.158 4.136-8.348 4.53.233-.517.447-1.032.158-1.623-8.612 3.139-11.269 8.208-19.665 8.22.797-1.739 3.23.166 6.018-1.998-3.009-1.601-8.035.414-12.073 1.926-.189-1.81 4.198-2.942 3.019-4.902 6.363.008 9.51-2.661 16.405-5.817.282.863-2.274 1.313-1.61 2.228 5.262-3.396 7.576-3.81 11.616-6.934 5.406-.026 10.78-4.015 19.315-7.036 2.305-1.74-1.747-1.872 1.946-3.414 2.453 5.261 11.494-5.634 17.899-4.363.818-.565 1.256-1.19.886-1.93 17.567-4.96 27.153-11.923 40.774-17.051-.087.809-.586 1.559-.68 2.367 2.804-2.191 5.223-4.444 7.385-6.73.473 1.128 8.897-1.81 8.359-4.528 2.898.935 12.904-2.46 14.029-5.352 3.336 2.164 7.666-2.346 11.689-2.801 1.533-.936-1.184-.319.15-1.626 2.894-.353 5.103-.897 5.633-2.875 1.791 1.137 4.628-2.329 6.062.069.479-1.19 1.587-2.065 2.373-.474.871-2.122 4.811-1.659 4.524-3.453 3.485 1.34 8.39-2.747 11.7-4.139l-40.561 10.921c.819.455 1.704.743 3.099-.694 2.439-.501-1.269 1.388-.878 1.931-1.349-.018-2.143-.8-4.227.206-.264-.297-.331-.564-.314-.818l-96.726 26.043c-.174.556-.248 1.084-.421 1.195 2.36 1.357 9.58-.471 13.48-3.795.081 1.564-.138 1.058.963 2.196-3.505-1.983-6.221 4.957-11.311 3.689-10.023 8.181-28.577 11.09-38.736 17.754.094-.808.593-1.557.682-2.363-2.359.61-2.455 1.552-4.177 2.27-2.789-1.629-10.111 4.234-12.958 3.851 2.245-.329 3.39-1.538 3.8-3.147 5.052-1.5 6.826-1.724 10.918-4.569-.986-.275-1.401-1.346-2.951-.844.446-.768 1.294-.706 3.446-1.961 1.453 1.524 3.678 1.965 6.104 2.131 2.501-1.062 3.426-5.127 6.168-3.62.787-1.116.333-2.419.109-3.686 3.033-.693 1.912-2.646 4.178-2.268-.214-.743-.767-1.011-1.659-.81l-.189.051c-.277.078-.578.19-.915.351-.012-.036-.004-.068-.007-.102l-66.618 17.937-333.185-196.893-.203 98.74 312.393 202.974c19.062-9.995 37.67-19.714 56.674-25.95zm-30.872-1.662c.823 1.323-2.488 2.934-3.983 2.705.624-1.006 2.141-1.879 3.983-2.705zm260.719-144.379c-.305 1.432-2.559 2.18-4.904 2.57-.115-1.119 3.511-1.683 4.904-2.57zm-31.378 18.835c-.889.286-.97-.542-1.306-1.01-2.499 2.106-7.528 2.121-10.005 4.699-2.253-1.83 12.489-7.61 11.311-3.689zm-46.369 21.994c-1.482-.249 5.582-2.728 6.897-3.925-.039 2.405-3.733 2.683-6.897 3.925zm6.084-7.748c.082 1.563-.138 1.056.956 2.196-1.816.411-2.585-.645-4.401-.233-.542-.906 2.493-1.285 3.445-1.963zm-4.778 8.758c3.877-2.546 10.721-3.12 14.255-2.838-2.775 2.384-8.961 1.208-14.255 2.838zm15.827-7.136c-.191-.437-.385-.877-.577-1.317-1.633.844-2.828 1.096-3.831 1.083.871.965 1.64 1.133.233 2.497.169 1.182 3.208-1.625 2.755.415-1.673.2-3.274.304-4.942.502 2.961-1.926.732-2.052-.621-3.383 1.751.245 1.851-.718 3.639-1.522-.284-1.957-3.317-.105-5.669.811.182-2.244 4.772-1.873 6.741-2.301-.227.515-.439 1.033-.15 1.626 2.44-2.261 2.402.159 4.953-.508.737-.439.105-1.08 1.066-1.486 2.191-1.16 3.418-.976 3.681.541-4.056.821-3.546.797-7.278 3.042zm10.731-5.005c.612-.593.306-1.326 1.801-1.794-.343 3.689-4.273 1.088-6.94 1.862 1.495-2.493 4.225-.729 5.139-.068zm-5.219-4.063c-.909 1.445-2.639 1.251-.693 2.37-1.652-.532-4.665.824-7.663 2.164 1.608-1.842 6.027-5.214 8.356-4.534zm-13.724 2.097c-.343.913-1.426 1.711-3.265 2.407.267-1.415 1.974-3.398 3.265-2.407zm-11.116 4.128c.464 2.177 3.835.322 6.591-.675 1.059 1.665-4.322 2.381-6.17 3.616-.95-.084-.939-1.522-2.759-.404.994-.813.479-1.85 2.338-2.537zm3.759 4.667c-.125-.291-.258-.582-.385-.877 3.911.236-6.429 4.549-6.749 2.298 1.837.286 4.898-1.139 7.134-1.421zm-3.714 7.275c-1.656-1.268-3.15 1.607-5.478 1.256 1.398-1.647 7.191-4.517 5.478-1.256zm-4.23-9.676c-1.826 2.169-5.612 3.107-8.733 3.651 2.181-1.585 5.137-1.369 8.733-3.651zm-7.034 15.431c-1.164 1.697-.125 1.44-.497 2.809-.725.297-1.453.604-2.182.909-.106-.566 1.17-.923 1.99-1.346-1.301-1.305-7.405 1.998-7.082 3.473-.858-.456-2.599.312-2.957-.842 5.11-2.353 7.091-2.771 10.728-5.003zm-18.699 10.415c-1.722 2.756-2.454-1.302-4.557 1.395-.035-1.519 2.055-2.72 3.401-4.031-.263.598-.985 2.333 1.308 1.015.67.47-2.366 2.263-.152 1.621zm3.327-8.151c-3.61 3.161-6.541 1.412-10.194 4.261.588-2.814 7.629-3.31 10.194-4.261zm25.569-34.108c1.053-.276 1.088.85 1.502 1.456-2.889.587-3.544.751-5.482 1.253-.484-2.79 4.897-.187 3.98-2.709zm-16.742 7c3.062-2.513 6.912-2.478 10.731-5.003-.406.631-.349 1.323.036 2.065-6.689.665-7.526 4.546-12.336 7.244-.883.286-.965-.547-1.302-1.018 2.434-.632 4.219-3.453 2.871-3.288zm-22.537 11.505c1.161 2.256-7.765 4.963-9.27 4.402 3.6-2.911 5.663-1.235 9.27-4.402zm-37.571 2.701c.936.1 1.655 1.987-.5 2.81.063-1.497-1.516-.709-1.686-1.893.729-.305 1.458-.61 2.186-.917zm-50.994 66.585c-.74-.148-1.213-.664-1.5-1.452 3.075.859 5.312-1.859 7.092-3.484-.398.624-.345 1.317.042 2.062-2.586.853-4.006 1.88-5.634 2.874zm42.112-23.848c.197-1.9 1.955-2.268 4.177-2.263.339 1.005-3.005 1.476-4.177 2.263zm14.262-2.838c-1.659-1.094 7.378-5.593 8.163-4.974.307.242-7.317 3.984-8.163 4.974zm33.261-16.51c.598.634-.202 1.071-1.072 1.49.103.559.504.71 1.115.575-1.811 2.57-3.486-1.05-.043-2.065zm-7.941-2.402c2.096-.183 7.028-1.8 5.524.809-1.161.266.042-.679-.578-1.317-2.953.768-4.333 2.66-5.826 2.435.006-.684.978-1.227.88-1.927zm-1.415 2.674c-.972.408-1.945.811-2.909 1.218.822-1.38-.312-.537-.767-1.765 1.304.068 3.413-.978 3.676.547zm-8.544 4.089c1.949-1.261.529-1-.052-2.06.977-.404 1.947-.814 2.921-1.216-3.102 2.918 1.633.196 2.421 1.585-3.398.512-6.081 3.411-8.59 2.035 1.607-.823 2.787-1.044 3.3-.344zm-16.026 6.698c2.324-.891-.76-2.582 2.88-3.283.822.808-1.117 1.207-.879 1.931 2.042-2.09 5.047-3.345 8.006-3.35-.609 1.758-2.49 1.669-4.371 1.834-.274 1.048-1.34 1.99-1.219 3.105-.799-.071-1.856.22-3.112.78-.102-.566 1.172-.926 1.997-1.355-1.34.438-7.497.357-7.664 2.162-3.156.544-.093-.57-.771-1.759 1.216-.506 2.431-1.013 3.64-1.519-1.064 1.51.704.726 1.493 1.454zm-3.309-9.542c-.567 1.427-4.992 2.287-7.09 3.487-1.317.001 6.262-3.734 7.09-3.487zm-7.068 13.37c-.839 1.253-2.863 2.319-5.442 3.31 1.117-1.564 2.783-3.044 5.442-3.31zm-6.556 2.738c-2.306 1.439-3.562 3.038-6.709 4.363.619-1.488 1.176-1.455-.232-2.504 1.904.317 3.568-1.22 3.252-2.397 2.206-1.188 1.231 2.066 3.689.538zm-3.995-7.173c-1.089-.152-2.796.577-4.562 1.383.143-1.234 4.245-3.491 4.562-1.383zm-3.674 9.34c.74 1.067-4.253 1.29-2.334 2.529-1.469.155-2.394-.455-4.761.953-.193-.44-.376-.882-.57-1.322 2.008.043 4.434-.505 7.665-2.16zm-7.436 4.665c1.053-.395 2.091-.79 1.995-1.352 1.969-.333-.177 2.122-1.417 2.67-.138-.987-.75-1.314-2.03-.711-1.164-1.225 1.151-1.279 1.452-.607zm-8.965 1.148c2.166 1.744 5.389-1.517 7.361 1.08-.978.187-1.736.064-2.036-.709-1.444.611-.399 1.592-2.523 2.099-1.119-.567-2.083-1.354-3.874-.981-.032-.556 1.311-.902 1.072-1.489zm-24.124-3.963c-.63 1.008-2.147 1.88-3.983 2.703.174-1.173 2.24-2.963 3.983-2.703zm-7.92 17.361c2.003 2.441 12.888-4.268 15.296-6.395 1.474-.4 3.2-1.151 3.488.101-3.439.864-3.297 2.257-5.441 3.313.206.42 1.036-.025 1.651-.17 5.121-2.839 8.744-8.3 14.326-8.59.335 1.01-3.005 1.478-4.174 2.267.648 1.218 3.388-.468 5.478-1.245-2.584 2.323-11.271 7.127-15.63 7.568-2.559 3.987-10.774 5.069-16.411 5.822-.172-.987.953-1.784 1.417-2.671zm-11.44 15.188c1.026-1.383 6.736-3.267 7.663-2.166-2.318.391-4.87 1.099-7.663 2.166zm6.578-10.554c-2.051.959-3.955 1.717-4.218.201.583-.339.762-.114.917.141.543-.609.76-1.267.885-1.933.863-.265.59.275.187.443 1.195 1.008 1.311.036 3.108-.782 2.986-.417-2.986 1.132-.879 1.93zm-26.044-35.94c1.179.018 1.97.563 2.951.846 1.107-1.898 4.356-3.475 5.405-5.378 1.618-.6 2.047.453 2.415 1.588.682-.862 1.331-1.008 1.653-.165 1.619-2.164 3.822-1.83 5.967-4.063 1.956.357 3.348 1.477 6.791-.236-4.755 3.072-10.529 3.636-12.912 5.916-1.828-.047-3.114-.854-5.336-.367-1.715 1.392-1.726 3.035-5.055 4.194-.138-.987-.749-1.312-2.023-.711.224-.514.438-1.036.144-1.624zm-21.19 42.162c.9-1.383 4.984-2.288 4.329-3.898 2.49.172-2.482 4.294-4.329 3.898zm4.421 10.113c-.03-.551 1.318-.903 1.073-1.487 1.888.704 2.251.231 4.218-.201-.598 1.682-4.349 1.872-5.291 1.688zm3.87-47.504c.237-.259.515-.52.862-.774-.246.262-.544.519-.862.774-1.375 1.502-1.202 2.958-2.739 2.807-1.661.835.408 2.135 1.502 1.451.095.62-1.592.97-1.811 1.54.007.084.017.166.006.26-.038-.092-.037-.178-.006-.26-.15-1.878-4.613-1.184-6.585.935.32-2.033 6.486-4.209 9.633-6.733zm-11.278 6.9c.438 1.298-2.685 2.076-4.717 3.012-1.31-1.431 3.194-2.002 4.717-3.012zm-53.657 52.612c.043-1.137 4.305-2.288 5.096-2.134-.527 1.791-3.355.977-5.096 2.134zm16.817 14.82c.757-1.122 2.435-2.111 4.711-3.01 1.308 1.425-3.202 1.999-4.711 3.01zm10.801-10.76c-1.566 1.333-3.588-.024-3.646 1.522-3.718.56 4.129-3.794 3.646-1.522zm1.446-.606c-.801-.978 5.629-4.23 5.825-2.437-2.465.316-2.511 1.303-5.825 2.437zm10.928-4.569c.265-1.308 4.207-3.075 6.164-3.616-1.106 1.34-4.325 2.376-6.164 3.616z" fill="#f3ead9"/><g fill="#e9d9bb"><path d="m742.031 275.54c-.433-.318-.633-.651-.721-.987l-5.558 1.497c-6.771 3.48-12.979 5.68-17.404 8.351 9.046-1.562 14.673-5.363 23.683-8.861z"/><path d="m653.149 310.617c-1.965-.295-4.035 1.495-3.981 2.709 1.551.233 3.16-1.625 3.981-2.709z"/><path d="m640.582 315.352c.18.988-1.594 1.689-1.415 2.676 2.025-.938 5.16-1.712 4.71-3.012-2.068 1.461-2.073.05-3.295.336z"/><path d="m660.75 406.819c2.118-1.025 4.973-.622 4.907-2.571-1.691.429-5.179.906-4.907 2.571z"/><path d="m656.107 311.462c-3.838.913-6.166 2.911-9.271 4.4 2.53-.907 8.919-2.129 9.271-4.4z"/><path d="m418.131 427.089c1.147-.37 5.227-.807 5.632-2.877-1.326-.141-6.16 1.512-5.632 2.877z"/><path d="m663.006 307.538c.952-.678 3.987-1.058 3.447-1.96-2.659.267-4.323 1.749-5.441 3.314 2.671-.731 4.435-.274 5.826-2.437-1.158.206-3.54 2.091-3.832 1.083z"/><path d="m333.627 432.765c1.741-1.158 4.569-.344 5.096-2.134-.791-.153-5.053.997-5.096 2.134z"/><path d="m350.444 447.585c1.51-1.011 6.02-1.586 4.711-3.01-2.277.899-3.954 1.888-4.711 3.01z"/><path d="m357.599 438.346c.057-1.546 2.08-.189 3.646-1.522.483-2.271-7.364 2.083-3.646 1.522z"/><path d="m362.691 436.219c3.314-1.134 3.36-2.121 5.825-2.437-.196-1.792-6.626 1.46-5.825 2.437z"/><path d="m407.794 442.856c-1.842.826-3.359 1.699-3.983 2.705 1.495.23 4.806-1.382 3.983-2.705z"/><path d="m395.766 419.27c.244.584-1.103.936-1.073 1.487.942.184 4.693-.006 5.291-1.688-1.967.432-2.33.905-4.218.201z"/><path d="m387.284 380.153c-1.523 1.01-6.028 1.581-4.717 3.012 2.032-.936 5.155-1.714 4.717-3.012z"/><path d="m430.927 414.976c2.794-1.068 5.346-1.776 7.663-2.166-.927-1.101-6.638.783-7.663 2.166z"/><path d="m450.287 382.427c-1.742-.261-3.809 1.53-3.983 2.703 1.836-.822 3.352-1.695 3.983-2.703z"/><path d="m465.297 399.045c-1.78 1.625-4.017 4.343-7.092 3.484.286.788.76 1.304 1.5 1.452 1.628-.994 3.048-2.021 5.634-2.873-.387-.746-.439-1.439-.042-2.063z"/><path d="m467.513 390.314c1.17-.788 4.51-1.256 4.174-2.267-5.582.29-9.206 5.751-14.326 8.59 4.359-.442 13.046-5.245 15.63-7.568-2.09.777-4.83 2.463-5.478 1.245z"/><path d="m488.478 383.106c-1.919-1.239 3.074-1.462 2.334-2.529-3.231 1.655-5.657 2.203-7.665 2.16.193.44.376.882.57 1.322 2.367-1.408 3.292-.798 4.761-.953z"/><path d="m491.54 380.27c1.408 1.048.851 1.016.232 2.504 3.146-1.325 4.403-2.925 6.709-4.363-2.457 1.528-1.482-1.727-3.689-.537.315 1.176-1.348 2.713-3.252 2.396z"/><path d="m494.486 371.237c-.318-2.108-4.419.15-4.562 1.383 1.766-.806 3.474-1.535 4.562-1.383z"/><path d="m505.037 375.672c-2.658.266-4.324 1.746-5.442 3.31 2.578-.991 4.603-2.057 5.442-3.31z"/><path d="m501.817 380.133c1.171-.786 4.516-1.258 4.177-2.263-2.221-.005-3.979.363-4.177 2.263z"/><path d="m512.105 362.302c-.828-.247-8.407 3.488-7.09 3.487 2.098-1.2 6.523-2.061 7.09-3.487z"/><path d="m516.079 377.295c.846-.99 8.47-4.732 8.163-4.974-.785-.619-9.822 3.88-8.163 4.974z"/><path d="m510.199 340.206c2.155-.822 1.435-2.709.5-2.81-.728.307-1.457.612-2.185.917.169 1.184 1.748.396 1.685 1.893z"/><path d="m537.075 362.274c.965-.407 1.938-.81 2.909-1.218-.263-1.525-2.372-.479-3.676-.547.454 1.228 1.588.385.767 1.765z"/><path d="m549.383 362.85c-.611.135-1.012-.016-1.115-.575.87-.419 1.67-.857 1.072-1.49-3.443 1.015-1.768 4.635.043 2.065z"/><path d="m548.27 334.695c-3.607 3.167-5.669 1.492-9.27 4.402 1.505.561 10.431-2.146 9.27-4.402z"/><path d="m558.805 356.828c-2.294 1.318-1.571-.417-1.308-1.015-1.346 1.311-3.437 2.512-3.401 4.031 2.103-2.697 2.836 1.361 4.557-1.395-2.214.642.822-1.151.152-1.621z"/><path d="m551.786 354.559c3.653-2.849 6.584-1.101 10.194-4.261-2.565.951-9.606 1.447-10.194 4.261z"/><path d="m569.238 327.496c4.81-2.698 5.647-6.579 12.336-7.244-.385-.742-.442-1.434-.036-2.065-3.82 2.525-7.67 2.49-10.731 5.003 1.348-.165-.437 2.656-2.871 3.288.337.47.419 1.303 1.302 1.018z"/><path d="m583.139 343.535c2.328.351 3.821-2.524 5.478-1.256 1.712-3.261-4.081-.391-5.478 1.256z"/><path d="m597.664 335.381c-1.316 1.198-8.379 3.676-6.897 3.925 3.163-1.242 6.857-1.52 6.897-3.925z"/><path d="m592.072 340.316c5.294-1.63 11.481-.453 14.255-2.838-3.534-.282-10.378.292-14.255 2.838z"/><path d="m589.051 317.645c-.413-.606-.449-1.732-1.502-1.456.916 2.523-4.464-.08-3.981 2.709 1.939-.502 2.594-.665 5.483-1.253z"/><path d="m597.806 333.754c-1.095-1.14-.875-.633-.956-2.196-.951.678-3.987 1.058-3.445 1.963 1.815-.412 2.585.643 4.401.233z"/><path d="m599.687 326.209c-1.291-.991-2.998.993-3.265 2.407 1.839-.697 2.922-1.494 3.265-2.407z"/><path d="m612.718 326.482c-1.946-1.118-.216-.924.693-2.37-2.329-.68-6.748 2.692-8.356 4.534 2.998-1.341 6.011-2.696 7.663-2.164z"/><path d="m635.83 316.302c.336.468.417 1.296 1.306 1.01 1.178-3.921-13.564 1.859-11.311 3.689 2.477-2.577 7.505-2.593 10.005-4.699z"/><path d="m691.087 401.943.197-.056c.008-.013.019-.026.027-.039-.07.029-.15.063-.224.095z"/><path d="m668.513 298.477c-1.393.887-5.02 1.451-4.904 2.57 2.345-.39 4.599-1.138 4.904-2.57z"/><path d="m738.87 384.566c1.755-1.991 7.658-2.976 8.542-4.093-1.56.169-9.104 2.304-8.542 4.093z"/><path d="m620.982 307.939c.286 1.794-3.654 1.331-4.524 3.453-.786-1.591-1.894-.716-2.373.474-1.434-2.398-4.271 1.068-6.062-.069-.53 1.979-2.74 2.522-5.633 2.875-1.334 1.307 1.384.689-.15 1.626-4.024.455-8.354 4.965-11.689 2.801-1.125 2.892-11.131 6.287-14.029 5.352.538 2.719-7.886 5.656-8.359 4.528-2.162 2.287-4.581 4.539-7.385 6.73.094-.808.593-1.557.68-2.367-13.621 5.127-23.207 12.091-40.774 17.051.371.739-.068 1.365-.886 1.93-6.405-1.271-15.446 9.624-17.899 4.363-3.693 1.541.359 1.674-1.946 3.414-8.535 3.021-13.91 7.009-19.315 7.036-4.04 3.125-6.355 3.538-11.616 6.934-.664-.915 1.892-1.365 1.61-2.228-6.895 3.156-10.042 5.825-16.405 5.817 1.179 1.96-3.208 3.092-3.019 4.902 4.038-1.513 9.064-3.527 12.073-1.926-2.788 2.164-5.221.259-6.018 1.998 8.397-.012 11.053-5.081 19.665-8.22.289.591.075 1.106-.158 1.623 3.189-.394 5.978-2.828 8.348-4.53 15.079-2.926 29.617-14.993 44.273-16.948 3.424-3.787 11.351-6.887 17.971-10.114-.258 2.568-8.144 4.014-8.306 6.597 3.107-1.274 13.854-6.913 16.304-5.954-.375-.839-.527-1.645.784-2.238 1.844-1.145 1.847.262 3.297-.334.265-3.03 12.885-6.664 17.086-8.184-.604.134-1-.021-1.109-.578 1.707.275 5.485-4.211 8.735-3.653-1.709.571-2.688 1.251-2.525 2.095 3.683.342 1.728-2.793 5.248-3.754.667.924-1.885 1.368-1.608 2.234 5.892-3.158 17.302-6.75 22.381-9.878.28-1.799-2.504.646-2.224-1.153 1.16-.2 3.539-2.09 3.832-1.079.104.7-.875 1.24-.882 1.924 11.299-4.437 21.815-9.848 35.681-14.912 2.712 1.281 10.442-4.862 14.566-6.092 3.886-1.157 9.142-3.852 14.445-6.559l-38.574 10.386c-.01.011-.018.022-.029.032-.047 0-.102.013-.151.016l-1.633.44c-3.308 1.392-8.213 5.479-11.698 4.139zm-161.579 71.718c-.1-1.787 2.327-1.576 3.644-1.525.264 1.109-3.09 1.593-3.644 1.525zm118.999-52.871c-2.132.777-3.654 1.656-3.989 2.705-.834.217-.87-.673-1.832-.275.916-.596 3.757-2.51 5.977-4.059-.238.517-.453 1.037-.156 1.629zm65.807-22.831c2.278.163 3.958-2.134 5.289-1.693 1.15 1.427-5.746 3.791-5.289 1.693z"/><path d="m555.36 345.087c.151.337.336.679.479 1.015.103-.542-.084-.861-.479-1.015z"/><path d="m683.648 293.704c-.969.405-1.941.811-2.907 1.215-.297-.594-.083-1.107.152-1.62-2.056 2.157-7.008.98-8.395 2.464 2.303-.357-.957 1.003-1.456.614.036 1.419.305 1.057-1.416 2.672 1.121-.38 2.619-1.283 3.108-.78-5.443 4.415-15.389 6.184-22.046 8.693-1.93 1.766 3.11.466.967 2.205-2.962-.667-4.706 4.471-6.55 2.736.125-1.371 7.176-3.855 3.212-4.462-2.973 2.596-4.145 6.428-9.238 6.457 2.519 4.076-8.179 6.212-10.45 9.578-2.119-.146-7.51.563-9.851 3.078 5.465-1.704 10.348-2.588 13.381-.915-.826.427-2.105.792-1.987 1.355 4.415-.996 1.747-3.035 5.969-4.06-.638-1.703-4.541 1.128-5.332-.372 5.725-2.666 10.904-5.105 15.49-5.953-2.512.59-.368 1.871-2.338 2.537-.829-.114-4.663.453-4.561 1.384-.016 2.739-7.538 7.788-13.066 7.547-1.081 3.411-6.425 2.649-7.285 3.043 2.146-.427.098 1.875-.681 2.365-.82-2.047-8.062 1.643-3.452 1.964-2.993 1.284-4.073.411-4.409-.236-1.896 1.919-4.015 3.8-5.206 5.815-.392-1.135.786-1.954-1.504-1.454-1.5 1.334-.067 1.071-.875 1.932-.615.141-1.015-.015-1.115-.575-1.262 4.259-9.439 2.18-10.196 4.258.909-.322 1.784-.585 1.841.273-3.398 1.185-6.986 2.643-8.779 1.594-.241 2.431-2.811.318-5.284 1.687.248 3.351-11.963 8.809-11.995 6.055-1.99 2.13-2.908 4.134-6.898 3.923.088 2.704 5.156-1.508 6.592-.672-1.604 1.954-8.009 3.207-9.809 5.14-2.347-.466-4.041-.761-4.454-2.303-1.818 1.107-1.477 2.533-2.673 3.724.887-.291 2.032-.937 2.373-.475-1.929 2.723-7.875 4.37-8.779 1.587 1.965-.317 1.546-2.983.687-2.367-.213 2.305-5.172 3.906-5.934 6.123 3.539-.711 1.67-2.217 4.712-3.008 1.527.992.065 2.101 2.609 2.029-4.524 1.597-6.513 2.554-9.278 4.399-.365-.879 1.751-1.39.693-2.37-2.912.667-.785 2.085-2.144 2.977-1.563.046-3.586.741-4.41-.236-5.076 4.909-10.019 5.491-18.357 9.233-.183 2.369 4.364-1.817 4.952-.508-7.072 5.78-15.764 8.842-23.031 14.312-.103-.694.874-1.242.873-1.928-3.534 3.824-7.693 2.925-7.966 5.417-11.575 2.325-34.369 13.745-45.031 15.186-5.542 2.384-11.646 8.14-16.942 6.561-2.11 2.959-9.992 4.025-11.803 6.493 1.164-.36.423.682-.345 1.189-12.35 2.943-16.252 9.5-30.198 13.667 1.377 2.088 9.034-4.538 9.169-.713 7.353-2.704 10.135-2.122 16.785-4.936-.831.429-2.1.785-2 1.349.615-.132 1.449-.59 1.654-.171-3.462 1.139-5.507 2.487-5.974 4.066 5.066-2.547 11.719-5.797 17.128-6.12-.521 2.517-10.934 4.282-11.267 5.748 4.848-1.075 9.362-1.689 14.798-3.582-1.753 2.373 2.248-.748 2.229 1.149-2.749 2.481-4.99 2.172-7.092 3.482.819-.5 3.071.218 1.308 1.015-2.572.359-2.483.92-5.098 2.13-.371-.536 2.376-2.564-.042-2.062-2.35 2.304-6.826 6.469-9.814 5.142.208.903 1.246.625 1.5 1.454-1.818.696-3.539 1.4-4.173 2.27-.193-.44-.386-.88-.579-1.322-4.029 2.743-5.813 4.376-7.394 6.727-2.613.6-11.717 3.38-12.185 5.622 4.076-.925 8.409-5.325 12.223-3.552 9.769-4.282 21.775-8.233 27.676-11.565 3.779-2.14 9.947-3.275 13.299-5.04 3.373-1.784 8.231-5.13 11.306-3.693-2.613.003-4.614 2.804-7.476 2.607-1.335 1.311 1.39.689-.151 1.624-19.004 6.237-37.612 15.955-56.673 25.95l17.886 11.621c1.969 1.279 4.395 1.644 6.654 1l110.569-31.531c14.167-6.232 28.06-12.166 41.424-16.567 9.894-5.459 20.818-10.157 27.621-13.635 3.363-3.75 11.575-8.417 15.985-8.759 1.62-1.871 10.067-5.534 14.502-7.547.252-.156.763-.398 1.666-.772-.444.214-1.013.476-1.666.772-1.01.627 2.324-.166 2.974.243-6.071 2.661-10.624 3.767-10.879 6.625-.958.15-1.858.223-2.573.033.523-.333 1.43-.61 1.266-1.047-5.059 1.372 2.266 2.433-1.565 4.3-1.553-2.111-4.894 2.561-5.528-.818 2.191-1.178 3.432-.206 3.448-1.956-6.615 2.526-12.445 5.701-15.636 7.573 3.181.523 7.384-3.685 10.923-4.567 1.004.268 1.427 1.324 2.424 1.594 4.301-.527 7.223-3.469 10.228-2.202-9.355 5.657-8.535 1.844-15.133 4.768.402-.17.977.014.193.441-4.49 2.31-6.923 2.483-10.729 5.006-1.931.046-8.128-.681-6.555 2.74 2.675-1.572 6.127-3.177 7.857-1.722 6.62-1.779 8.732-6.692 13.446-6.663-3.064 1.469-5.087 3.091-5.59 4.941 3.264-1.029 1.577-2.789 5.246-3.757.104.698-.874 1.244-.874 1.925 3.043-2.245 8.991-5.615 11.111-4.122-5.726 3.32-11.073 5.8-15.254 8.459-.207-.645-.895-1.62-1.105-.584.129.299.256.594.38.881 7.359-.815 8.656-5.689 14.412-4.46-3.392 1.088-5.696 3.794-8.735 3.653-.041.555-.329 1.128-.794 1.699l5.112-1.458c3.227-2.438 6.353-4.988 10.05-6.771 1.321 1.318-4.43 3.701-.837 3.993 8.9-6.742 24.263-8.373 33.341-12.376-3.401 2.207-6.672 4.154-9.888 5.838l47.98-13.682c3.585-2.946 10.7-5.456 13.581-5.959 2.419-4.979 16.454-9.209 22.575-9.438 5.528-2.537 4.454-3.437 9.621-5.584-1.613.528-5.222.255-5.481 1.257-.593-1.678 2.986-2.871 8.156-4.975-.109.038-.548.835-1.265 1.05 7.69-2.319 20.407-13.486 31.16-11.465-3.038 1.192-5.57 2.467-6.896 3.92 1.389-1.419 10.526-2.773 10.345-5.883 2.194-1.169 3.215-.697 4.219-.207.197 1.132.434 2.259-2.142 2.983.171 1.17 3.205-1.634 2.753.402-4.686 2.04-7.946 2.091-12.762 4.297 2.036.232 5.272-.677 10.05-2.638-9.595 6.772-16.271 9.981-28.358 13.937.877 1.846 4.472-.08 6.1.722l368.672-105.133v-107.11l-374.365 100.797c.088.336.288.67.721.987-9.01 3.499-14.637 7.299-23.683 8.86 4.424-2.671 10.633-4.871 17.404-8.351l-29.931 8.059c-8.094 3.091-16.474 6.914-24.005 9.328.854-.252 1.349.01 1.832.269zm-44.48 24.325c-.18-.988 1.594-1.689 1.415-2.676 1.222-.286 1.227 1.124 3.296-.336.448 1.299-2.686 2.074-4.711 3.012zm-221.037 109.06c-.528-1.365 4.306-3.018 5.632-2.877-.405 2.069-4.485 2.507-5.632 2.877zm235.018-116.472c-.821 1.085-2.43 2.942-3.981 2.709-.054-1.215 2.016-3.004 3.981-2.709zm-6.312 5.245c3.104-1.489 5.433-3.487 9.271-4.4-.353 2.271-6.742 3.493-9.271 4.4zm13.913 90.957c-.272-1.665 3.216-2.142 4.907-2.571.066 1.949-2.789 1.546-4.907 2.571zm.262-97.927c1.118-1.564 2.782-3.047 5.441-3.314.54.902-2.495 1.281-3.447 1.96.292 1.007 2.674-.877 3.832-1.083-1.391 2.163-3.155 1.706-5.826 2.437zm122.157 50.911c-.499.612-1.435 1.158-2.717 1.656-.889-2.225 11.423-4.837 2.717-1.656zm-3.411 4.024c.443 2.45-4.424 4.04-7.243 5.105-.819-2.175 3.672-3.571 7.243-5.105zm-38.757 7.879c.078.974-3.315 1.431-1.418 2.675-5.395 1.954-8.112 4.289-12.721 6.359 5.096-4.33 7.999-5.588 14.139-9.034zm-48.486-75.464c-1.412-.162-3.243.263-4.94.507.423-1.228 5.404-2.859 6.545-2.74.753.938-3.422 1.144-1.605 2.233zm4.561-1.385c-.188-1.229 1.61-3.066 3.066-2.844-.327 1.053-.686 2.097-3.066 2.844zm7.285-3.043c-1.441.821-2.056.501-3.108.773 1.035-.923 1.843-2.688-1.308-1.015 2.212-1.746 7.029-3.186 10.735-5.003-.488 2.872-7.5 2.598-6.319 5.245zm-2.996-2.914c-3.043-.049-6.452 2.702-9.468 3.957 1.214-1.215 6.62-5.824 9.468-3.957zm-10.583 3.383c-.908 2.411-4.061 1.94-6.894 3.926-.257-2.456 5.927-2.358 6.894-3.926z"/><path d="m373.619 431.65c1.84-1.24 5.059-2.276 6.164-3.616-1.957.542-5.899 2.309-6.164 3.616z"/><path d="m394.6 406.746c.655 1.61-3.429 2.515-4.329 3.898 1.847.396 6.819-3.726 4.329-3.898z"/><path d="m395.52 379.31c.011-.094.001-.176-.006-.26-.031.082-.032.168.006.26z"/><path d="m395.514 379.051c.219-.57 1.906-.92 1.811-1.54-1.094.683-3.163-.616-1.502-1.451 1.537.151 1.365-1.304 2.739-2.807-3.147 2.524-9.314 4.701-9.633 6.733 1.972-2.119 6.435-2.813 6.585-.935z"/><path d="m398.562 373.253c.318-.255.615-.512.862-.774-.346.254-.624.514-.862.774z"/><path d="m435.276 403.274c.403-.168.676-.708-.187-.443-.124.666-.342 1.325-.885 1.933-.156-.255-.334-.48-.917-.141.263 1.516 2.167.758 4.218-.201-2.107-.798 3.865-2.347.879-1.931-1.797.818-1.914 1.791-3.108.783z"/><path d="m457.361 396.637c-.614.145-1.445.59-1.651.17 2.143-1.056 2.002-2.45 5.441-3.313-.287-1.252-2.013-.501-3.488-.101-2.408 2.127-13.294 8.836-15.296 6.395-.464.887-1.589 1.684-1.417 2.67 5.637-.752 13.852-1.833 16.411-5.821z"/><path d="m470.519 347.462-.923.248c.004.034-.005.067.007.102.338-.16.639-.271.916-.35z"/><path d="m472.367 348.221c-2.266-.379-1.145 1.575-4.178 2.268.224 1.267.679 2.571-.109 3.686-2.742-1.507-3.668 2.558-6.168 3.62-2.426-.166-4.652-.607-6.104-2.131-2.152 1.256-2.999 1.193-3.446 1.961 1.55-.502 1.965.569 2.951.844-4.092 2.845-5.867 3.069-10.918 4.569-.41 1.609-1.555 2.818-3.8 3.147 2.847.383 10.169-5.48 12.958-3.851 1.722-.718 1.818-1.659 4.177-2.27-.088.805-.588 1.555-.682 2.363 10.159-6.664 28.713-9.573 38.736-17.754 5.09 1.268 7.806-5.672 11.311-3.689-1.101-1.137-.881-.632-.963-2.196-3.9 3.324-11.119 5.152-13.48 3.795-.122.078-.292-.04-.585-.516.131.211.341.375.585.516.173-.111.247-.639.421-1.195l-17.372 4.677c.248.642.783 1.331-.042 1.82-1.543.502-1.966-.568-2.948-.852.237-.076.519-.212.807-.38l-2.811.757c.893-.2 1.446.068 1.66.811zm11.348-1.623c1.944 1.385-4.089 1.593-2.139 2.975-.888.288-.97-.542-1.308-1.015.678-.719 1.693-1.397 3.447-1.96z"/><path d="m477.213 388.86c2.124-.506 1.08-1.488 2.523-2.099.3.772 1.058.896 2.036.709-1.972-2.596-5.195.664-7.361-1.08.239.586-1.104.932-1.072 1.489 1.791-.373 2.756.414 3.874.981z"/><path d="m483.954 386.561c1.24-.549 3.386-3.004 1.417-2.67.096.561-.942.957-1.995 1.352-.301-.672-2.616-.618-1.452.608 1.281-.605 1.892-.278 2.03.71z"/><path d="m510.281 371.91c.679 1.189-2.385 2.303.771 1.759.167-1.806 6.324-1.725 7.664-2.162-.824.428-2.099.789-1.997 1.355 1.256-.56 2.313-.851 3.112-.78-.121-1.115.945-2.057 1.219-3.105 1.882-.165 3.763-.077 4.371-1.834-2.959.005-5.965 1.26-8.006 3.35-.238-.723 1.701-1.122.879-1.931-3.64.701-.556 2.391-2.88 3.283-.789-.729-2.557.056-1.494-1.454-1.208.506-2.423 1.013-3.639 1.519z"/><path d="m536.73 363.454c-.788-1.39-5.522 1.333-2.421-1.585-.974.403-1.944.812-2.921 1.216.581 1.06 2 .799.052 2.06-.513-.7-1.693-.479-3.3.344 2.509 1.377 5.192-1.522 8.59-2.035z"/><path d="m546.923 359.192c1.504-2.609-3.428-.992-5.524-.809.098.7-.874 1.243-.88 1.927 1.492.226 2.872-1.667 5.826-2.435.621.637-.583 1.582.578 1.317z"/><path d="m579.528 429.853c-3.532 2.244 5.604-1.805 4.71-3.012-3.242.757-2.428 2.111-4.71 3.012z"/><path d="m585.01 428.601c2.722-1.85 6.411-1.425 7.284-3.045-2.066.937-6.211 1.147-7.284 3.045z"/><path d="m569.582 353.88c-.323-1.475 5.781-4.778 7.082-3.473-.82.422-2.097.78-1.99 1.346.729-.305 1.457-.612 2.182-.909.373-1.369-.667-1.112.497-2.809-3.637 2.232-5.618 2.649-10.728 5.004.358 1.152 2.099.385 2.957.841z"/><path d="m575.654 336.255c3.121-.545 6.907-1.483 8.733-3.651-3.597 2.281-6.553 2.065-8.733 3.651z"/><path d="m591.945 334.128c.127.294.26.586.385.877-2.237.282-5.297 1.707-7.134 1.421.32 2.25 10.66-2.062 6.749-2.298z"/><path d="m594.342 315.957c-.391-.543 3.317-2.432.878-1.931-1.395 1.437-2.279 1.149-3.099.694l-2.32.625c-.018.254.049.521.314.818 2.084-1.005 2.878-.224 4.227-.206z"/><path d="m611.496 329.596c-.961.406-.329 1.047-1.066 1.486-2.551.667-2.513-1.752-4.953.508-.289-.593-.077-1.111.15-1.626-1.969.428-6.559.057-6.741 2.301 2.353-.916 5.385-2.768 5.669-.811-1.788.804-1.889 1.766-3.639 1.522 1.353 1.33 3.582 1.456.621 3.383 1.667-.198 3.268-.301 4.942-.502.453-2.04-2.587.766-2.755-.415 1.407-1.364.638-1.532-.233-2.497 1.004.013 2.198-.239 3.831-1.083.193.44.386.881.577 1.317 3.733-2.245 3.223-2.221 7.278-3.043-.263-1.515-1.49-1.699-3.681-.54z"/><path d="m620.43 326.381c-1.495.467-1.189 1.201-1.801 1.794-.914-.661-3.643-2.425-5.14.068 2.669-.774 6.599 1.827 6.941-1.862z"/><path d="m733.816 388.762c-.107-.247-.809-.251-.73.303 1.966.298 4.038-1.494 3.98-2.704-2.474.592-2.589 1.537-3.25 2.401z"/><path d="m413.34 370.817c3.329-1.159 3.34-2.802 5.055-4.194 2.222-.487 3.508.32 5.336.367 2.384-2.28 8.157-2.844 12.912-5.916-3.443 1.713-4.835.593-6.791.236-2.145 2.234-4.349 1.899-5.967 4.063-.322-.843-.971-.697-1.653.165-.368-1.135-.797-2.187-2.415-1.588-1.05 1.903-4.298 3.48-5.405 5.378-.982-.284-1.772-.828-2.951-.846.295.588.08 1.11-.144 1.623 1.273-.601 1.884-.276 2.023.712z"/><path d="m588.992 333.278c1.848-1.235 7.229-1.951 6.17-3.616-2.756.997-6.127 2.853-6.591.675-1.859.687-1.344 1.724-2.338 2.537 1.82-1.118 1.81.32 2.759.404z"/></g><path d="m1133.399 184.998-714.413 211.49c-5.949 1.761-12.374.779-17.525-2.68l-334.655-224.725c-1.882-1.264-1.359-4.163.846-4.69l688.121-164.393 378.014 180.045c2.202 1.049 1.95 4.261-.388 4.953z" fill="#f36a8d"/></svg>